G04 EAGLE Gerber RS-274X export*
G75*
%MOMM*%
%FSLAX34Y34*%
%LPD*%
%INTop Copper*%
%IPPOS*%
%AMOC8*
5,1,8,0,0,1.08239X$1,22.5*%
G01*
%ADD10C,1.320800*%
%ADD11P,1.429621X8X112.500000*%
%ADD12P,1.429621X8X22.500000*%
%ADD13P,1.429621X8X292.500000*%
%ADD14C,1.879600*%
%ADD15C,1.320800*%
%ADD16C,0.152400*%


D10*
X165100Y114300D03*
D11*
X165100Y165100D03*
D10*
X330200Y203200D03*
D12*
X381000Y203200D03*
D10*
X368300Y393700D03*
D13*
X368300Y342900D03*
D14*
X25400Y76200D03*
X228600Y25400D03*
X228600Y50800D03*
X25400Y50800D03*
X25400Y25400D03*
X342900Y165100D03*
X342900Y139700D03*
X469900Y266700D03*
X469900Y292100D03*
X469900Y317500D03*
X469900Y342900D03*
X469900Y368300D03*
X469900Y139700D03*
X469900Y165100D03*
X469900Y190500D03*
X469900Y215900D03*
X469900Y241300D03*
X25400Y152400D03*
X25400Y177800D03*
X25400Y203200D03*
X25400Y228600D03*
X25400Y254000D03*
X25400Y279400D03*
X25400Y304800D03*
X25400Y330200D03*
X25400Y355600D03*
X25400Y381000D03*
D12*
X355600Y469900D03*
X381000Y469900D03*
X152400Y469900D03*
X177800Y469900D03*
D11*
X444500Y330200D03*
X444500Y406400D03*
X139700Y330200D03*
X139700Y406400D03*
X419100Y330200D03*
X419100Y406400D03*
X177800Y330200D03*
X177800Y406400D03*
D14*
X88900Y25400D03*
X88900Y50800D03*
X88900Y76200D03*
X88900Y101600D03*
X419100Y469900D03*
X469900Y469900D03*
X139700Y50800D03*
X165100Y50800D03*
X190500Y50800D03*
X139700Y25400D03*
X165100Y25400D03*
X190500Y25400D03*
X215900Y469900D03*
X241300Y469900D03*
X266700Y469900D03*
X292100Y469900D03*
X317500Y469900D03*
X469900Y25400D03*
X469900Y50800D03*
X469900Y76200D03*
X469900Y101600D03*
X292100Y25400D03*
X317500Y25400D03*
X342900Y25400D03*
X368300Y25400D03*
X393700Y25400D03*
X419100Y25400D03*
X76200Y469900D03*
X25400Y469900D03*
D15*
X221996Y406400D02*
X235204Y406400D01*
X235204Y381000D02*
X221996Y381000D01*
X221996Y254000D02*
X235204Y254000D01*
X235204Y228600D02*
X221996Y228600D01*
X221996Y355600D02*
X235204Y355600D01*
X235204Y330200D02*
X221996Y330200D01*
X221996Y279400D02*
X235204Y279400D01*
X235204Y304800D02*
X221996Y304800D01*
X221996Y203200D02*
X235204Y203200D01*
X235204Y177800D02*
X221996Y177800D01*
X221996Y152400D02*
X235204Y152400D01*
X235204Y127000D02*
X221996Y127000D01*
X221996Y101600D02*
X235204Y101600D01*
X235204Y76200D02*
X221996Y76200D01*
X298196Y76200D02*
X311404Y76200D01*
X311404Y101600D02*
X298196Y101600D01*
X298196Y127000D02*
X311404Y127000D01*
X311404Y152400D02*
X298196Y152400D01*
X298196Y177800D02*
X311404Y177800D01*
X311404Y203200D02*
X298196Y203200D01*
X298196Y228600D02*
X311404Y228600D01*
X311404Y254000D02*
X298196Y254000D01*
X298196Y279400D02*
X311404Y279400D01*
X311404Y304800D02*
X298196Y304800D01*
X298196Y330200D02*
X311404Y330200D01*
X311404Y355600D02*
X298196Y355600D01*
X298196Y381000D02*
X311404Y381000D01*
X311404Y406400D02*
X298196Y406400D01*
D16*
X148576Y50800D02*
X139700Y50800D01*
X176784Y39116D02*
X190500Y25400D01*
X160260Y39116D02*
X148576Y50800D01*
X160260Y39116D02*
X176784Y39116D01*
X203200Y25400D02*
X228600Y50800D01*
X203200Y25400D02*
X190500Y25400D01*
X134860Y62484D02*
X128016Y55640D01*
X128016Y45960D01*
X181624Y50800D02*
X190500Y50800D01*
X181624Y50800D02*
X169940Y62484D01*
X139700Y34276D02*
X128016Y45960D01*
X139700Y34276D02*
X139700Y25400D01*
X134860Y62484D02*
X169940Y62484D01*
X304800Y406400D02*
X355600Y406400D01*
X368300Y393700D01*
X368300Y457200D02*
X355600Y469900D01*
X368300Y457200D02*
X368300Y393700D01*
X342900Y368300D01*
X292100Y368300D01*
X279400Y355600D01*
X279400Y342900D01*
X351918Y351790D02*
X384682Y351790D01*
X351918Y351790D02*
X343028Y342900D01*
X384682Y351790D02*
X393572Y342900D01*
X431800Y342900D02*
X444500Y330200D01*
X343028Y342900D02*
X279400Y342900D01*
X393572Y342900D02*
X431800Y342900D01*
X63500Y50800D02*
X25400Y50800D01*
X63500Y50800D02*
X88900Y25400D01*
X165100Y109721D02*
X165100Y114300D01*
X165100Y109721D02*
X162052Y106673D01*
X162052Y98552D02*
X88900Y25400D01*
X162052Y98552D02*
X162052Y106673D01*
X25400Y194324D02*
X25400Y203200D01*
X25400Y59676D02*
X25400Y50800D01*
X37084Y182640D02*
X25400Y194324D01*
X37084Y71360D02*
X25400Y59676D01*
X37084Y71360D02*
X37084Y182640D01*
X139700Y317500D02*
X139700Y330200D01*
X139700Y317500D02*
X25400Y203200D01*
X241300Y444500D02*
X241300Y469900D01*
X139700Y342900D02*
X139700Y330200D01*
X139700Y342900D02*
X241300Y444500D01*
X381000Y469900D02*
X381000Y419100D01*
X393700Y406400D01*
X419100Y406400D01*
X177800Y406400D02*
X177800Y469900D01*
X304800Y203200D02*
X330200Y203200D01*
X419100Y419100D02*
X419100Y469900D01*
X419100Y419100D02*
X431800Y406400D01*
X444500Y406400D01*
X292100Y431800D02*
X292100Y469900D01*
X292100Y431800D02*
X254000Y393700D01*
X254000Y342900D01*
X241300Y330200D01*
X228600Y330200D01*
X317500Y444500D02*
X317500Y469900D01*
X317500Y444500D02*
X266700Y393700D01*
X266700Y304800D01*
X228600Y304800D01*
X228600Y101600D02*
X177800Y101600D01*
X173990Y105410D01*
X168782Y105410D01*
X229616Y474740D02*
X236460Y481584D01*
X246140Y481584D01*
X252984Y474740D01*
X173990Y117982D02*
X173990Y110618D01*
X168782Y105410D01*
X165100Y105410D01*
X152400Y419228D02*
X152400Y469900D01*
X152400Y419228D02*
X174118Y397510D01*
X181482Y397510D01*
X229616Y445644D01*
X229616Y474740D01*
X252984Y474740D02*
X252984Y451873D01*
X156210Y355099D01*
X156210Y135762D01*
X173990Y117982D01*
X139700Y406400D02*
X76200Y469900D01*
X342900Y165100D02*
X431800Y165100D01*
X444500Y152400D01*
X444500Y63500D01*
X457200Y50800D01*
X469900Y50800D01*
X457200Y355600D02*
X304800Y355600D01*
X457200Y355600D02*
X469900Y368300D01*
X393700Y330200D02*
X304800Y330200D01*
X393700Y330200D02*
X406400Y317500D01*
X444500Y317500D01*
X469900Y342900D01*
X457200Y304800D02*
X304800Y304800D01*
X457200Y304800D02*
X469900Y317500D01*
X457200Y279400D02*
X304800Y279400D01*
X457200Y279400D02*
X469900Y292100D01*
X457200Y254000D02*
X304800Y254000D01*
X457200Y254000D02*
X469900Y266700D01*
X317500Y241300D02*
X304800Y228600D01*
X317500Y241300D02*
X469900Y241300D01*
M02*
