G04 EAGLE Gerber RS-274X export*
G75*
%MOMM*%
%FSLAX34Y34*%
%LPD*%
%INBottom Copper*%
%IPPOS*%
%AMOC8*
5,1,8,0,0,1.08239X$1,22.5*%
G01*
%ADD10C,1.320800*%
%ADD11P,1.429621X8X112.500000*%
%ADD12P,1.429621X8X22.500000*%
%ADD13P,1.429621X8X292.500000*%
%ADD14C,1.879600*%
%ADD15C,1.320800*%
%ADD16C,0.152400*%

G36*
X387415Y10172D02*
X387415Y10172D01*
X387486Y10174D01*
X387535Y10192D01*
X387587Y10200D01*
X387650Y10234D01*
X387717Y10259D01*
X387758Y10291D01*
X387804Y10316D01*
X387853Y10368D01*
X387909Y10412D01*
X387938Y10456D01*
X387973Y10494D01*
X388004Y10559D01*
X388042Y10619D01*
X388055Y10670D01*
X388077Y10717D01*
X388085Y10788D01*
X388102Y10858D01*
X388098Y10910D01*
X388104Y10961D01*
X388089Y11032D01*
X388083Y11103D01*
X388063Y11151D01*
X388052Y11202D01*
X388015Y11263D01*
X387987Y11329D01*
X387942Y11385D01*
X387926Y11413D01*
X387908Y11428D01*
X387882Y11460D01*
X386351Y12992D01*
X381292Y18051D01*
X379729Y19613D01*
X379729Y20623D01*
X379714Y20719D01*
X379704Y20816D01*
X379694Y20840D01*
X379690Y20866D01*
X379644Y20952D01*
X379604Y21041D01*
X379587Y21060D01*
X379574Y21083D01*
X379504Y21150D01*
X379438Y21222D01*
X379415Y21235D01*
X379396Y21253D01*
X379308Y21294D01*
X379222Y21341D01*
X379197Y21345D01*
X379173Y21356D01*
X379076Y21367D01*
X378980Y21384D01*
X378954Y21381D01*
X378929Y21383D01*
X378833Y21363D01*
X378737Y21349D01*
X378714Y21337D01*
X378688Y21331D01*
X378605Y21281D01*
X378518Y21237D01*
X378499Y21218D01*
X378477Y21205D01*
X378414Y21131D01*
X378346Y21061D01*
X378330Y21033D01*
X378317Y21018D01*
X378305Y20987D01*
X378265Y20915D01*
X377560Y19213D01*
X374487Y16140D01*
X370473Y14477D01*
X366127Y14477D01*
X362113Y16140D01*
X359040Y19213D01*
X357377Y23227D01*
X357377Y27573D01*
X358798Y31003D01*
X358825Y31117D01*
X358853Y31230D01*
X358853Y31237D01*
X358854Y31243D01*
X358843Y31359D01*
X358834Y31476D01*
X358832Y31481D01*
X358831Y31488D01*
X358783Y31595D01*
X358738Y31702D01*
X358733Y31708D01*
X358731Y31712D01*
X358719Y31726D01*
X358633Y31833D01*
X319570Y70896D01*
X319121Y71345D01*
X319105Y71357D01*
X319093Y71372D01*
X319005Y71428D01*
X318921Y71488D01*
X318902Y71494D01*
X318886Y71505D01*
X318785Y71530D01*
X318686Y71561D01*
X318666Y71560D01*
X318647Y71565D01*
X318544Y71557D01*
X318441Y71554D01*
X318422Y71548D01*
X318402Y71546D01*
X318307Y71506D01*
X318210Y71470D01*
X318194Y71458D01*
X318176Y71450D01*
X318045Y71345D01*
X316009Y69309D01*
X313021Y68071D01*
X296579Y68071D01*
X293591Y69309D01*
X291305Y71595D01*
X290067Y74583D01*
X290067Y77817D01*
X291305Y80805D01*
X293591Y83091D01*
X296579Y84329D01*
X310776Y84329D01*
X310847Y84340D01*
X310918Y84342D01*
X310967Y84360D01*
X311019Y84368D01*
X311082Y84402D01*
X311149Y84427D01*
X311190Y84459D01*
X311236Y84484D01*
X311285Y84536D01*
X311341Y84580D01*
X311370Y84624D01*
X311405Y84662D01*
X311436Y84727D01*
X311474Y84787D01*
X311487Y84838D01*
X311509Y84885D01*
X311517Y84956D01*
X311534Y85026D01*
X311530Y85078D01*
X311536Y85129D01*
X311521Y85200D01*
X311515Y85271D01*
X311495Y85319D01*
X311484Y85370D01*
X311447Y85431D01*
X311419Y85497D01*
X311374Y85553D01*
X311358Y85581D01*
X311340Y85596D01*
X311314Y85628D01*
X306742Y90200D01*
X306668Y90253D01*
X306599Y90313D01*
X306569Y90325D01*
X306542Y90344D01*
X306455Y90371D01*
X306371Y90405D01*
X306330Y90409D01*
X306307Y90416D01*
X306275Y90415D01*
X306204Y90423D01*
X293566Y90423D01*
X241807Y142182D01*
X241807Y145670D01*
X241804Y145687D01*
X241806Y145703D01*
X241795Y145753D01*
X241794Y145812D01*
X241776Y145861D01*
X241768Y145912D01*
X241756Y145935D01*
X241754Y145943D01*
X241733Y145978D01*
X241709Y146043D01*
X241677Y146084D01*
X241652Y146130D01*
X241629Y146152D01*
X241628Y146154D01*
X241618Y146163D01*
X241600Y146179D01*
X241556Y146235D01*
X241512Y146263D01*
X241474Y146299D01*
X241409Y146329D01*
X241349Y146368D01*
X241298Y146381D01*
X241251Y146403D01*
X241180Y146411D01*
X241110Y146428D01*
X241058Y146424D01*
X241007Y146430D01*
X240936Y146415D01*
X240865Y146409D01*
X240817Y146389D01*
X240804Y146386D01*
X240797Y146385D01*
X240795Y146384D01*
X240766Y146378D01*
X240705Y146341D01*
X240639Y146313D01*
X240595Y146278D01*
X240579Y146270D01*
X240571Y146261D01*
X240555Y146251D01*
X240540Y146234D01*
X240508Y146208D01*
X239809Y145509D01*
X236821Y144271D01*
X220379Y144271D01*
X217391Y145509D01*
X215105Y147795D01*
X213867Y150783D01*
X213867Y154017D01*
X215105Y157005D01*
X217391Y159291D01*
X218458Y159733D01*
X218497Y159757D01*
X218540Y159773D01*
X218600Y159821D01*
X218667Y159862D01*
X218696Y159898D01*
X218732Y159927D01*
X218774Y159992D01*
X218824Y160052D01*
X218840Y160095D01*
X218865Y160133D01*
X218884Y160209D01*
X218912Y160282D01*
X218914Y160327D01*
X218925Y160372D01*
X218919Y160449D01*
X218922Y160527D01*
X218909Y160571D01*
X218906Y160617D01*
X218875Y160689D01*
X218854Y160764D01*
X218827Y160801D01*
X218810Y160843D01*
X218724Y160950D01*
X218713Y160966D01*
X218709Y160969D01*
X218705Y160974D01*
X207771Y171908D01*
X207771Y255582D01*
X217366Y265177D01*
X230004Y265177D01*
X230094Y265191D01*
X230185Y265199D01*
X230215Y265211D01*
X230247Y265216D01*
X230327Y265259D01*
X230411Y265295D01*
X230443Y265321D01*
X230464Y265332D01*
X230466Y265334D01*
X230467Y265334D01*
X230487Y265355D01*
X230542Y265400D01*
X235114Y269972D01*
X235156Y270030D01*
X235205Y270082D01*
X235227Y270129D01*
X235258Y270171D01*
X235279Y270240D01*
X235309Y270305D01*
X235315Y270357D01*
X235330Y270407D01*
X235328Y270478D01*
X235336Y270549D01*
X235325Y270600D01*
X235324Y270652D01*
X235299Y270720D01*
X235284Y270790D01*
X235257Y270835D01*
X235239Y270883D01*
X235194Y270939D01*
X235158Y271001D01*
X235118Y271035D01*
X235086Y271075D01*
X235025Y271114D01*
X234971Y271161D01*
X234922Y271180D01*
X234879Y271208D01*
X234809Y271226D01*
X234743Y271253D01*
X234671Y271261D01*
X234640Y271269D01*
X234617Y271267D01*
X234576Y271271D01*
X220379Y271271D01*
X217391Y272509D01*
X215105Y274795D01*
X213867Y277783D01*
X213867Y281017D01*
X215105Y284005D01*
X217395Y286295D01*
X217407Y286311D01*
X217422Y286323D01*
X217478Y286410D01*
X217538Y286494D01*
X217544Y286513D01*
X217555Y286530D01*
X217580Y286631D01*
X217611Y286729D01*
X217610Y286749D01*
X217615Y286769D01*
X217607Y286872D01*
X217604Y286975D01*
X217598Y286994D01*
X217596Y287014D01*
X217556Y287109D01*
X217520Y287206D01*
X217507Y287222D01*
X217500Y287240D01*
X217395Y287371D01*
X202476Y302290D01*
X202402Y302343D01*
X202332Y302403D01*
X202302Y302415D01*
X202276Y302434D01*
X202189Y302461D01*
X202104Y302495D01*
X202063Y302499D01*
X202041Y302506D01*
X202009Y302505D01*
X201937Y302513D01*
X138753Y302513D01*
X113576Y327690D01*
X113502Y327743D01*
X113432Y327803D01*
X113402Y327815D01*
X113376Y327834D01*
X113289Y327861D01*
X113204Y327895D01*
X113163Y327899D01*
X113141Y327906D01*
X113109Y327905D01*
X113037Y327913D01*
X36784Y327913D01*
X36669Y327894D01*
X36553Y327877D01*
X36548Y327875D01*
X36541Y327874D01*
X36439Y327819D01*
X36334Y327766D01*
X36330Y327761D01*
X36324Y327758D01*
X36244Y327674D01*
X36162Y327590D01*
X36158Y327584D01*
X36155Y327580D01*
X36147Y327563D01*
X36081Y327443D01*
X34660Y324013D01*
X31587Y320940D01*
X27573Y319277D01*
X23227Y319277D01*
X19213Y320940D01*
X16140Y324013D01*
X14477Y328027D01*
X14477Y332373D01*
X16140Y336387D01*
X19213Y339460D01*
X23227Y341123D01*
X27573Y341123D01*
X31587Y339460D01*
X34660Y336387D01*
X36081Y332957D01*
X36142Y332857D01*
X36202Y332757D01*
X36207Y332753D01*
X36210Y332748D01*
X36300Y332673D01*
X36389Y332597D01*
X36395Y332595D01*
X36400Y332591D01*
X36508Y332549D01*
X36617Y332505D01*
X36625Y332504D01*
X36630Y332503D01*
X36648Y332502D01*
X36784Y332487D01*
X115247Y332487D01*
X140424Y307310D01*
X140498Y307257D01*
X140568Y307197D01*
X140598Y307185D01*
X140624Y307166D01*
X140711Y307139D01*
X140796Y307105D01*
X140837Y307101D01*
X140859Y307094D01*
X140891Y307095D01*
X140963Y307087D01*
X204147Y307087D01*
X223482Y287752D01*
X223556Y287699D01*
X223626Y287639D01*
X223656Y287627D01*
X223682Y287608D01*
X223769Y287581D01*
X223854Y287547D01*
X223895Y287543D01*
X223917Y287536D01*
X223949Y287537D01*
X224021Y287529D01*
X236821Y287529D01*
X239809Y286291D01*
X240508Y285592D01*
X240566Y285550D01*
X240618Y285501D01*
X240665Y285479D01*
X240707Y285448D01*
X240776Y285427D01*
X240841Y285397D01*
X240893Y285391D01*
X240943Y285376D01*
X241014Y285378D01*
X241085Y285370D01*
X241136Y285381D01*
X241188Y285382D01*
X241256Y285407D01*
X241326Y285422D01*
X241371Y285449D01*
X241419Y285467D01*
X241475Y285512D01*
X241537Y285549D01*
X241571Y285588D01*
X241611Y285621D01*
X241650Y285681D01*
X241697Y285735D01*
X241716Y285784D01*
X241744Y285828D01*
X241762Y285897D01*
X241789Y285964D01*
X241797Y286035D01*
X241805Y286066D01*
X241803Y286089D01*
X241807Y286130D01*
X241807Y298070D01*
X241796Y298140D01*
X241794Y298212D01*
X241776Y298261D01*
X241768Y298312D01*
X241734Y298376D01*
X241709Y298443D01*
X241677Y298484D01*
X241652Y298530D01*
X241600Y298579D01*
X241556Y298635D01*
X241512Y298663D01*
X241474Y298699D01*
X241409Y298729D01*
X241349Y298768D01*
X241298Y298781D01*
X241251Y298803D01*
X241180Y298811D01*
X241110Y298828D01*
X241058Y298824D01*
X241007Y298830D01*
X240936Y298815D01*
X240865Y298809D01*
X240817Y298789D01*
X240766Y298778D01*
X240705Y298741D01*
X240639Y298713D01*
X240583Y298668D01*
X240555Y298651D01*
X240540Y298634D01*
X240508Y298608D01*
X239809Y297909D01*
X236821Y296671D01*
X220379Y296671D01*
X217391Y297909D01*
X215105Y300195D01*
X213867Y303183D01*
X213867Y306417D01*
X215105Y309405D01*
X217391Y311691D01*
X220379Y312929D01*
X221623Y312929D01*
X221694Y312940D01*
X221766Y312942D01*
X221815Y312960D01*
X221866Y312968D01*
X221929Y313002D01*
X221997Y313027D01*
X222037Y313059D01*
X222083Y313084D01*
X222133Y313135D01*
X222189Y313180D01*
X222217Y313224D01*
X222253Y313262D01*
X222283Y313327D01*
X222322Y313387D01*
X222334Y313438D01*
X222356Y313485D01*
X222364Y313556D01*
X222382Y313626D01*
X222378Y313678D01*
X222383Y313729D01*
X222368Y313800D01*
X222363Y313871D01*
X222342Y313919D01*
X222331Y313970D01*
X222294Y314031D01*
X222266Y314097D01*
X222222Y314153D01*
X222205Y314181D01*
X222187Y314196D01*
X222161Y314228D01*
X212382Y324008D01*
X210819Y325570D01*
X210819Y334830D01*
X212382Y336392D01*
X222161Y346172D01*
X222203Y346230D01*
X222253Y346282D01*
X222275Y346329D01*
X222305Y346371D01*
X222326Y346440D01*
X222356Y346505D01*
X222362Y346557D01*
X222377Y346607D01*
X222375Y346678D01*
X222383Y346749D01*
X222372Y346800D01*
X222371Y346852D01*
X222346Y346920D01*
X222331Y346990D01*
X222304Y347035D01*
X222287Y347083D01*
X222242Y347139D01*
X222205Y347201D01*
X222165Y347235D01*
X222133Y347275D01*
X222073Y347314D01*
X222018Y347361D01*
X221970Y347380D01*
X221926Y347408D01*
X221856Y347426D01*
X221790Y347453D01*
X221719Y347461D01*
X221687Y347469D01*
X221664Y347467D01*
X221623Y347471D01*
X220379Y347471D01*
X217391Y348709D01*
X215105Y350995D01*
X214339Y352843D01*
X214277Y352943D01*
X214218Y353043D01*
X214213Y353047D01*
X214210Y353052D01*
X214119Y353127D01*
X214031Y353203D01*
X214025Y353205D01*
X214020Y353209D01*
X213912Y353251D01*
X213803Y353295D01*
X213795Y353296D01*
X213791Y353297D01*
X213772Y353298D01*
X213636Y353313D01*
X36784Y353313D01*
X36669Y353294D01*
X36553Y353277D01*
X36548Y353275D01*
X36541Y353274D01*
X36439Y353219D01*
X36334Y353166D01*
X36330Y353161D01*
X36324Y353158D01*
X36244Y353074D01*
X36162Y352990D01*
X36158Y352984D01*
X36155Y352980D01*
X36147Y352963D01*
X36081Y352843D01*
X34660Y349413D01*
X31587Y346340D01*
X27573Y344677D01*
X23227Y344677D01*
X19213Y346340D01*
X16140Y349413D01*
X14477Y353427D01*
X14477Y357773D01*
X16140Y361787D01*
X19213Y364860D01*
X23227Y366523D01*
X27573Y366523D01*
X31587Y364860D01*
X34660Y361787D01*
X36081Y358357D01*
X36143Y358257D01*
X36202Y358157D01*
X36207Y358153D01*
X36210Y358148D01*
X36300Y358073D01*
X36389Y357997D01*
X36395Y357995D01*
X36400Y357991D01*
X36508Y357949D01*
X36617Y357905D01*
X36625Y357904D01*
X36630Y357903D01*
X36648Y357902D01*
X36784Y357887D01*
X213636Y357887D01*
X213751Y357906D01*
X213867Y357923D01*
X213873Y357925D01*
X213879Y357926D01*
X213981Y357981D01*
X214086Y358034D01*
X214091Y358039D01*
X214096Y358042D01*
X214176Y358126D01*
X214259Y358210D01*
X214262Y358216D01*
X214266Y358220D01*
X214273Y358237D01*
X214339Y358357D01*
X215105Y360205D01*
X217391Y362491D01*
X220379Y363729D01*
X236821Y363729D01*
X239809Y362491D01*
X240508Y361792D01*
X240566Y361750D01*
X240618Y361701D01*
X240665Y361679D01*
X240707Y361648D01*
X240776Y361627D01*
X240841Y361597D01*
X240893Y361591D01*
X240943Y361576D01*
X241014Y361578D01*
X241085Y361570D01*
X241136Y361581D01*
X241188Y361582D01*
X241256Y361607D01*
X241326Y361622D01*
X241371Y361649D01*
X241419Y361667D01*
X241475Y361712D01*
X241537Y361749D01*
X241571Y361788D01*
X241611Y361821D01*
X241650Y361881D01*
X241697Y361935D01*
X241716Y361984D01*
X241744Y362028D01*
X241762Y362097D01*
X241789Y362164D01*
X241797Y362235D01*
X241805Y362266D01*
X241803Y362289D01*
X241807Y362330D01*
X241807Y374270D01*
X241796Y374340D01*
X241794Y374412D01*
X241776Y374461D01*
X241768Y374512D01*
X241734Y374576D01*
X241709Y374643D01*
X241677Y374684D01*
X241652Y374730D01*
X241600Y374779D01*
X241556Y374835D01*
X241512Y374863D01*
X241474Y374899D01*
X241409Y374929D01*
X241349Y374968D01*
X241298Y374981D01*
X241251Y375003D01*
X241180Y375011D01*
X241110Y375028D01*
X241058Y375024D01*
X241007Y375030D01*
X240936Y375015D01*
X240865Y375009D01*
X240817Y374989D01*
X240766Y374978D01*
X240705Y374941D01*
X240639Y374913D01*
X240583Y374868D01*
X240555Y374851D01*
X240540Y374834D01*
X240508Y374808D01*
X239809Y374109D01*
X236821Y372871D01*
X220379Y372871D01*
X217391Y374109D01*
X215105Y376395D01*
X214339Y378243D01*
X214277Y378343D01*
X214218Y378443D01*
X214213Y378447D01*
X214210Y378452D01*
X214119Y378527D01*
X214031Y378603D01*
X214025Y378605D01*
X214020Y378609D01*
X213912Y378651D01*
X213803Y378695D01*
X213795Y378696D01*
X213791Y378697D01*
X213772Y378698D01*
X213636Y378713D01*
X36784Y378713D01*
X36669Y378694D01*
X36553Y378677D01*
X36548Y378675D01*
X36541Y378674D01*
X36439Y378619D01*
X36334Y378566D01*
X36330Y378561D01*
X36324Y378558D01*
X36244Y378474D01*
X36162Y378390D01*
X36158Y378384D01*
X36155Y378380D01*
X36147Y378363D01*
X36081Y378243D01*
X34660Y374813D01*
X31587Y371740D01*
X27573Y370077D01*
X23227Y370077D01*
X19213Y371740D01*
X16140Y374813D01*
X14477Y378827D01*
X14477Y383173D01*
X16140Y387187D01*
X19213Y390260D01*
X23227Y391923D01*
X27573Y391923D01*
X31587Y390260D01*
X34660Y387187D01*
X36081Y383757D01*
X36142Y383657D01*
X36202Y383557D01*
X36207Y383553D01*
X36210Y383548D01*
X36300Y383473D01*
X36389Y383397D01*
X36395Y383395D01*
X36400Y383391D01*
X36508Y383349D01*
X36617Y383305D01*
X36625Y383304D01*
X36630Y383303D01*
X36648Y383302D01*
X36784Y383287D01*
X213636Y383287D01*
X213751Y383306D01*
X213867Y383323D01*
X213873Y383325D01*
X213879Y383326D01*
X213981Y383381D01*
X214086Y383434D01*
X214091Y383439D01*
X214096Y383442D01*
X214176Y383526D01*
X214259Y383610D01*
X214262Y383616D01*
X214266Y383620D01*
X214273Y383637D01*
X214339Y383757D01*
X215105Y385605D01*
X215804Y386304D01*
X215846Y386362D01*
X215895Y386414D01*
X215917Y386461D01*
X215948Y386503D01*
X215969Y386572D01*
X215999Y386637D01*
X216005Y386689D01*
X216020Y386739D01*
X216018Y386810D01*
X216026Y386881D01*
X216015Y386932D01*
X216014Y386984D01*
X215989Y387052D01*
X215974Y387122D01*
X215947Y387167D01*
X215929Y387215D01*
X215884Y387271D01*
X215847Y387333D01*
X215808Y387367D01*
X215775Y387407D01*
X215715Y387446D01*
X215661Y387493D01*
X215612Y387512D01*
X215568Y387540D01*
X215499Y387558D01*
X215432Y387585D01*
X215361Y387593D01*
X215330Y387601D01*
X215307Y387599D01*
X215266Y387603D01*
X155263Y387603D01*
X153700Y389166D01*
X144369Y398497D01*
X144353Y398509D01*
X144341Y398524D01*
X144253Y398580D01*
X144169Y398640D01*
X144150Y398646D01*
X144134Y398657D01*
X144033Y398682D01*
X143934Y398713D01*
X143914Y398712D01*
X143895Y398717D01*
X143792Y398709D01*
X143689Y398706D01*
X143670Y398700D01*
X143650Y398698D01*
X143555Y398658D01*
X143457Y398622D01*
X143442Y398609D01*
X143424Y398602D01*
X143293Y398497D01*
X143067Y398271D01*
X136333Y398271D01*
X131571Y403033D01*
X131571Y409767D01*
X131797Y409993D01*
X131809Y410009D01*
X131824Y410021D01*
X131880Y410108D01*
X131940Y410192D01*
X131946Y410211D01*
X131957Y410228D01*
X131982Y410329D01*
X132013Y410427D01*
X132012Y410447D01*
X132017Y410467D01*
X132009Y410570D01*
X132006Y410673D01*
X132000Y410692D01*
X131998Y410712D01*
X131958Y410807D01*
X131922Y410904D01*
X131909Y410920D01*
X131902Y410938D01*
X131797Y411069D01*
X82633Y460233D01*
X82539Y460301D01*
X82444Y460371D01*
X82438Y460373D01*
X82433Y460377D01*
X82322Y460411D01*
X82210Y460447D01*
X82204Y460447D01*
X82198Y460449D01*
X82081Y460446D01*
X81964Y460445D01*
X81957Y460443D01*
X81952Y460443D01*
X81935Y460436D01*
X81803Y460398D01*
X78373Y458977D01*
X74027Y458977D01*
X70013Y460640D01*
X66940Y463713D01*
X65277Y467727D01*
X65277Y472073D01*
X66940Y476087D01*
X70013Y479160D01*
X74027Y480823D01*
X78373Y480823D01*
X82387Y479160D01*
X85460Y476087D01*
X87123Y472073D01*
X87123Y467727D01*
X85702Y464297D01*
X85675Y464183D01*
X85647Y464070D01*
X85647Y464063D01*
X85646Y464057D01*
X85657Y463941D01*
X85666Y463824D01*
X85668Y463819D01*
X85669Y463812D01*
X85717Y463705D01*
X85762Y463598D01*
X85767Y463592D01*
X85769Y463588D01*
X85781Y463574D01*
X85867Y463467D01*
X135031Y414303D01*
X135047Y414291D01*
X135059Y414276D01*
X135147Y414220D01*
X135231Y414160D01*
X135250Y414154D01*
X135266Y414143D01*
X135367Y414118D01*
X135466Y414087D01*
X135486Y414088D01*
X135505Y414083D01*
X135608Y414091D01*
X135711Y414094D01*
X135730Y414100D01*
X135750Y414102D01*
X135845Y414142D01*
X135943Y414178D01*
X135958Y414191D01*
X135976Y414198D01*
X136107Y414303D01*
X136333Y414529D01*
X143067Y414529D01*
X147829Y409767D01*
X147829Y403033D01*
X147603Y402807D01*
X147591Y402791D01*
X147576Y402779D01*
X147520Y402692D01*
X147460Y402608D01*
X147454Y402589D01*
X147443Y402572D01*
X147418Y402471D01*
X147387Y402373D01*
X147388Y402353D01*
X147383Y402333D01*
X147391Y402230D01*
X147394Y402127D01*
X147400Y402108D01*
X147402Y402088D01*
X147442Y401993D01*
X147478Y401896D01*
X147491Y401880D01*
X147498Y401862D01*
X147603Y401731D01*
X156934Y392400D01*
X157008Y392347D01*
X157078Y392287D01*
X157108Y392275D01*
X157134Y392256D01*
X157221Y392229D01*
X157306Y392195D01*
X157347Y392191D01*
X157369Y392184D01*
X157401Y392185D01*
X157473Y392177D01*
X225552Y392177D01*
X225572Y392180D01*
X225591Y392178D01*
X225693Y392200D01*
X225795Y392216D01*
X225812Y392226D01*
X225832Y392230D01*
X225921Y392283D01*
X226012Y392332D01*
X226026Y392346D01*
X226043Y392356D01*
X226110Y392435D01*
X226182Y392510D01*
X226190Y392528D01*
X226203Y392543D01*
X226242Y392639D01*
X226285Y392733D01*
X226287Y392753D01*
X226295Y392771D01*
X226313Y392938D01*
X226313Y397510D01*
X226310Y397530D01*
X226312Y397549D01*
X226290Y397651D01*
X226274Y397753D01*
X226264Y397770D01*
X226260Y397790D01*
X226207Y397879D01*
X226158Y397970D01*
X226144Y397984D01*
X226134Y398001D01*
X226055Y398068D01*
X225980Y398140D01*
X225962Y398148D01*
X225947Y398161D01*
X225851Y398200D01*
X225757Y398243D01*
X225737Y398245D01*
X225719Y398253D01*
X225552Y398271D01*
X220379Y398271D01*
X217391Y399509D01*
X215105Y401795D01*
X213867Y404783D01*
X213867Y404883D01*
X213853Y404974D01*
X213845Y405064D01*
X213833Y405094D01*
X213828Y405126D01*
X213785Y405207D01*
X213749Y405291D01*
X213723Y405323D01*
X213712Y405344D01*
X213689Y405366D01*
X213644Y405422D01*
X213613Y405453D01*
X213613Y458516D01*
X213594Y458631D01*
X213577Y458747D01*
X213575Y458752D01*
X213574Y458759D01*
X213519Y458861D01*
X213466Y458966D01*
X213461Y458970D01*
X213458Y458976D01*
X213374Y459056D01*
X213290Y459138D01*
X213284Y459142D01*
X213280Y459145D01*
X213263Y459153D01*
X213143Y459219D01*
X209713Y460640D01*
X206640Y463713D01*
X204977Y467727D01*
X204977Y472073D01*
X206640Y476087D01*
X209713Y479160D01*
X213727Y480823D01*
X218073Y480823D01*
X222087Y479160D01*
X225160Y476087D01*
X226823Y472073D01*
X226823Y467727D01*
X225160Y463713D01*
X222087Y460640D01*
X218657Y459219D01*
X218557Y459158D01*
X218457Y459098D01*
X218453Y459093D01*
X218448Y459090D01*
X218373Y459000D01*
X218297Y458911D01*
X218295Y458905D01*
X218291Y458900D01*
X218249Y458792D01*
X218205Y458683D01*
X218204Y458675D01*
X218203Y458670D01*
X218202Y458652D01*
X218187Y458516D01*
X218187Y414760D01*
X218194Y414715D01*
X218192Y414669D01*
X218214Y414594D01*
X218226Y414517D01*
X218248Y414477D01*
X218261Y414433D01*
X218305Y414369D01*
X218342Y414300D01*
X218375Y414268D01*
X218401Y414230D01*
X218464Y414184D01*
X218520Y414130D01*
X218562Y414111D01*
X218598Y414084D01*
X218672Y414060D01*
X218743Y414027D01*
X218789Y414022D01*
X218832Y414008D01*
X218910Y414008D01*
X218987Y414000D01*
X219032Y414009D01*
X219078Y414010D01*
X219210Y414048D01*
X219228Y414052D01*
X219232Y414055D01*
X219239Y414057D01*
X220379Y414529D01*
X236821Y414529D01*
X239809Y413291D01*
X242095Y411005D01*
X243333Y408017D01*
X243333Y404783D01*
X242095Y401795D01*
X239809Y399509D01*
X236821Y398271D01*
X231648Y398271D01*
X231628Y398268D01*
X231609Y398270D01*
X231507Y398248D01*
X231405Y398232D01*
X231388Y398222D01*
X231368Y398218D01*
X231279Y398165D01*
X231188Y398116D01*
X231174Y398102D01*
X231157Y398092D01*
X231090Y398013D01*
X231018Y397938D01*
X231010Y397920D01*
X230997Y397905D01*
X230958Y397809D01*
X230915Y397715D01*
X230913Y397695D01*
X230905Y397677D01*
X230887Y397510D01*
X230887Y396748D01*
X230890Y396728D01*
X230888Y396709D01*
X230910Y396607D01*
X230926Y396505D01*
X230936Y396488D01*
X230940Y396468D01*
X230993Y396379D01*
X231042Y396288D01*
X231056Y396274D01*
X231066Y396257D01*
X231145Y396190D01*
X231220Y396118D01*
X231238Y396110D01*
X231253Y396097D01*
X231349Y396058D01*
X231443Y396015D01*
X231463Y396013D01*
X231481Y396005D01*
X231648Y395987D01*
X341637Y395987D01*
X341728Y396001D01*
X341818Y396009D01*
X341848Y396021D01*
X341880Y396026D01*
X341961Y396069D01*
X342045Y396105D01*
X342077Y396131D01*
X342098Y396142D01*
X342120Y396165D01*
X342176Y396210D01*
X374180Y428214D01*
X374222Y428272D01*
X374271Y428324D01*
X374293Y428371D01*
X374323Y428413D01*
X374344Y428482D01*
X374375Y428547D01*
X374380Y428599D01*
X374396Y428649D01*
X374394Y428720D01*
X374402Y428791D01*
X374391Y428842D01*
X374389Y428894D01*
X374365Y428962D01*
X374350Y429032D01*
X374323Y429077D01*
X374305Y429125D01*
X374260Y429181D01*
X374223Y429243D01*
X374184Y429277D01*
X374151Y429317D01*
X374091Y429356D01*
X374036Y429403D01*
X373988Y429422D01*
X373944Y429450D01*
X373875Y429468D01*
X373808Y429495D01*
X373737Y429503D01*
X373706Y429511D01*
X373682Y429509D01*
X373642Y429513D01*
X354653Y429513D01*
X353313Y430853D01*
X353313Y432747D01*
X354653Y434087D01*
X379737Y434087D01*
X379828Y434101D01*
X379918Y434109D01*
X379948Y434121D01*
X379980Y434126D01*
X380061Y434169D01*
X380145Y434205D01*
X380177Y434231D01*
X380198Y434242D01*
X380220Y434265D01*
X380276Y434310D01*
X409433Y463467D01*
X409501Y463561D01*
X409571Y463656D01*
X409573Y463662D01*
X409577Y463667D01*
X409611Y463778D01*
X409647Y463890D01*
X409647Y463896D01*
X409649Y463902D01*
X409646Y464019D01*
X409645Y464136D01*
X409643Y464143D01*
X409643Y464148D01*
X409636Y464165D01*
X409598Y464297D01*
X408177Y467727D01*
X408177Y472073D01*
X409840Y476087D01*
X412913Y479160D01*
X416927Y480823D01*
X421273Y480823D01*
X425287Y479160D01*
X428360Y476087D01*
X430023Y472073D01*
X430023Y467727D01*
X428360Y463713D01*
X425287Y460640D01*
X421273Y458977D01*
X416927Y458977D01*
X413497Y460398D01*
X413383Y460425D01*
X413270Y460453D01*
X413263Y460453D01*
X413257Y460454D01*
X413141Y460443D01*
X413024Y460434D01*
X413019Y460432D01*
X413012Y460431D01*
X412905Y460383D01*
X412798Y460338D01*
X412792Y460333D01*
X412788Y460331D01*
X412774Y460319D01*
X412667Y460233D01*
X343847Y391413D01*
X313656Y391413D01*
X313608Y391405D01*
X313559Y391407D01*
X313487Y391386D01*
X313414Y391374D01*
X313370Y391351D01*
X313323Y391337D01*
X313262Y391293D01*
X313196Y391258D01*
X313163Y391223D01*
X313122Y391195D01*
X313078Y391134D01*
X313027Y391080D01*
X313006Y391036D01*
X312977Y390996D01*
X312955Y390925D01*
X312923Y390857D01*
X312918Y390808D01*
X312903Y390762D01*
X312904Y390687D01*
X312896Y390613D01*
X312907Y390565D01*
X312907Y390516D01*
X312933Y390445D01*
X312948Y390372D01*
X312974Y390330D01*
X312990Y390284D01*
X313036Y390225D01*
X313075Y390161D01*
X313112Y390129D01*
X313142Y390091D01*
X313205Y390050D01*
X313261Y390001D01*
X313307Y389983D01*
X313348Y389956D01*
X313467Y389918D01*
X313490Y389909D01*
X313499Y389908D01*
X313508Y389905D01*
X314071Y389793D01*
X315736Y389104D01*
X317234Y388103D01*
X318507Y386830D01*
X319508Y385332D01*
X320197Y383667D01*
X320425Y382523D01*
X305562Y382523D01*
X305542Y382520D01*
X305523Y382522D01*
X305421Y382500D01*
X305319Y382483D01*
X305302Y382474D01*
X305282Y382470D01*
X305193Y382417D01*
X305102Y382368D01*
X305088Y382354D01*
X305071Y382344D01*
X305004Y382265D01*
X304933Y382190D01*
X304924Y382172D01*
X304911Y382157D01*
X304873Y382061D01*
X304829Y381967D01*
X304827Y381947D01*
X304819Y381929D01*
X304801Y381762D01*
X304801Y380999D01*
X304799Y380999D01*
X304799Y381762D01*
X304796Y381782D01*
X304798Y381801D01*
X304776Y381903D01*
X304759Y382005D01*
X304750Y382022D01*
X304746Y382042D01*
X304693Y382131D01*
X304644Y382222D01*
X304630Y382236D01*
X304620Y382253D01*
X304541Y382320D01*
X304466Y382391D01*
X304448Y382400D01*
X304433Y382413D01*
X304337Y382452D01*
X304243Y382495D01*
X304223Y382497D01*
X304205Y382505D01*
X304038Y382523D01*
X289175Y382523D01*
X289403Y383667D01*
X290092Y385332D01*
X291093Y386830D01*
X292366Y388103D01*
X293864Y389104D01*
X295529Y389793D01*
X296092Y389905D01*
X296138Y389923D01*
X296186Y389931D01*
X296252Y389965D01*
X296322Y389992D01*
X296361Y390023D01*
X296404Y390046D01*
X296455Y390100D01*
X296513Y390147D01*
X296539Y390188D01*
X296573Y390224D01*
X296605Y390292D01*
X296645Y390355D01*
X296656Y390403D01*
X296677Y390447D01*
X296685Y390521D01*
X296703Y390594D01*
X296698Y390643D01*
X296704Y390691D01*
X296688Y390764D01*
X296682Y390839D01*
X296662Y390884D01*
X296652Y390932D01*
X296613Y390996D01*
X296583Y391065D01*
X296551Y391101D01*
X296525Y391143D01*
X296469Y391192D01*
X296418Y391247D01*
X296376Y391271D01*
X296339Y391303D01*
X296269Y391331D01*
X296204Y391367D01*
X296156Y391376D01*
X296110Y391395D01*
X295986Y391409D01*
X295962Y391413D01*
X295953Y391412D01*
X295944Y391413D01*
X242435Y391413D01*
X242364Y391402D01*
X242292Y391400D01*
X242243Y391382D01*
X242192Y391374D01*
X242129Y391340D01*
X242061Y391315D01*
X242021Y391283D01*
X241975Y391258D01*
X241925Y391206D01*
X241869Y391162D01*
X241841Y391118D01*
X241805Y391080D01*
X241775Y391015D01*
X241736Y390955D01*
X241724Y390904D01*
X241702Y390857D01*
X241694Y390786D01*
X241676Y390716D01*
X241680Y390664D01*
X241675Y390613D01*
X241690Y390542D01*
X241695Y390471D01*
X241716Y390423D01*
X241727Y390372D01*
X241764Y390311D01*
X241792Y390245D01*
X241836Y390189D01*
X241853Y390161D01*
X241871Y390146D01*
X241897Y390114D01*
X246381Y385630D01*
X246381Y350970D01*
X239834Y344423D01*
X227196Y344423D01*
X227106Y344409D01*
X227015Y344401D01*
X226985Y344389D01*
X226953Y344384D01*
X226873Y344341D01*
X226789Y344305D01*
X226757Y344279D01*
X226736Y344268D01*
X226714Y344245D01*
X226658Y344200D01*
X222086Y339628D01*
X222044Y339570D01*
X221995Y339518D01*
X221973Y339471D01*
X221942Y339429D01*
X221921Y339360D01*
X221891Y339295D01*
X221885Y339243D01*
X221870Y339193D01*
X221872Y339122D01*
X221864Y339051D01*
X221875Y339000D01*
X221876Y338948D01*
X221901Y338880D01*
X221916Y338810D01*
X221943Y338765D01*
X221961Y338717D01*
X222006Y338661D01*
X222042Y338599D01*
X222082Y338565D01*
X222114Y338525D01*
X222175Y338486D01*
X222229Y338439D01*
X222278Y338420D01*
X222321Y338392D01*
X222391Y338374D01*
X222457Y338347D01*
X222529Y338339D01*
X222560Y338331D01*
X222583Y338333D01*
X222624Y338329D01*
X236821Y338329D01*
X239809Y337091D01*
X242095Y334805D01*
X243333Y331817D01*
X243333Y328583D01*
X242095Y325595D01*
X239809Y323309D01*
X236821Y322071D01*
X222624Y322071D01*
X222553Y322060D01*
X222482Y322058D01*
X222433Y322040D01*
X222381Y322032D01*
X222318Y321998D01*
X222251Y321973D01*
X222210Y321941D01*
X222164Y321916D01*
X222115Y321865D01*
X222059Y321820D01*
X222030Y321776D01*
X221995Y321738D01*
X221964Y321673D01*
X221926Y321613D01*
X221913Y321562D01*
X221891Y321515D01*
X221883Y321444D01*
X221866Y321374D01*
X221870Y321322D01*
X221864Y321271D01*
X221879Y321200D01*
X221885Y321129D01*
X221905Y321081D01*
X221916Y321030D01*
X221953Y320969D01*
X221981Y320903D01*
X222026Y320847D01*
X222042Y320819D01*
X222060Y320804D01*
X222086Y320772D01*
X226658Y316200D01*
X226732Y316147D01*
X226801Y316087D01*
X226831Y316075D01*
X226858Y316056D01*
X226945Y316029D01*
X227029Y315995D01*
X227070Y315991D01*
X227093Y315984D01*
X227125Y315985D01*
X227196Y315977D01*
X239834Y315977D01*
X246381Y309430D01*
X246381Y274770D01*
X244818Y273208D01*
X235039Y263428D01*
X234997Y263370D01*
X234947Y263318D01*
X234925Y263271D01*
X234895Y263229D01*
X234874Y263160D01*
X234844Y263095D01*
X234838Y263043D01*
X234823Y262993D01*
X234825Y262922D01*
X234817Y262851D01*
X234828Y262800D01*
X234829Y262748D01*
X234854Y262680D01*
X234869Y262610D01*
X234896Y262566D01*
X234913Y262517D01*
X234958Y262461D01*
X234995Y262399D01*
X235035Y262365D01*
X235067Y262325D01*
X235127Y262286D01*
X235182Y262239D01*
X235230Y262220D01*
X235274Y262192D01*
X235344Y262174D01*
X235410Y262147D01*
X235481Y262139D01*
X235513Y262131D01*
X235536Y262133D01*
X235577Y262129D01*
X236821Y262129D01*
X239809Y260891D01*
X242095Y258605D01*
X243333Y255617D01*
X243333Y252383D01*
X242095Y249395D01*
X239809Y247109D01*
X236821Y245871D01*
X230244Y245871D01*
X230154Y245857D01*
X230063Y245849D01*
X230033Y245837D01*
X230001Y245832D01*
X229921Y245789D01*
X229837Y245753D01*
X229805Y245727D01*
X229784Y245716D01*
X229762Y245693D01*
X229706Y245648D01*
X223102Y239044D01*
X223060Y238986D01*
X223011Y238934D01*
X222989Y238887D01*
X222958Y238845D01*
X222937Y238776D01*
X222907Y238711D01*
X222901Y238659D01*
X222886Y238609D01*
X222888Y238538D01*
X222880Y238467D01*
X222891Y238416D01*
X222892Y238364D01*
X222917Y238296D01*
X222932Y238226D01*
X222959Y238182D01*
X222977Y238133D01*
X223022Y238077D01*
X223058Y238015D01*
X223098Y237981D01*
X223130Y237941D01*
X223191Y237902D01*
X223245Y237855D01*
X223294Y237836D01*
X223337Y237808D01*
X223407Y237790D01*
X223473Y237763D01*
X223545Y237755D01*
X223576Y237747D01*
X223599Y237749D01*
X223640Y237745D01*
X227077Y237745D01*
X227077Y229362D01*
X227080Y229342D01*
X227078Y229323D01*
X227100Y229221D01*
X227117Y229119D01*
X227126Y229102D01*
X227130Y229082D01*
X227183Y228993D01*
X227232Y228902D01*
X227246Y228888D01*
X227256Y228871D01*
X227335Y228804D01*
X227410Y228733D01*
X227428Y228724D01*
X227443Y228711D01*
X227539Y228673D01*
X227633Y228629D01*
X227653Y228627D01*
X227671Y228619D01*
X227838Y228601D01*
X228601Y228601D01*
X228601Y228599D01*
X227838Y228599D01*
X227818Y228596D01*
X227799Y228598D01*
X227697Y228576D01*
X227595Y228559D01*
X227578Y228550D01*
X227558Y228546D01*
X227469Y228493D01*
X227378Y228444D01*
X227364Y228430D01*
X227347Y228420D01*
X227280Y228341D01*
X227209Y228266D01*
X227200Y228248D01*
X227187Y228233D01*
X227148Y228137D01*
X227105Y228043D01*
X227103Y228023D01*
X227095Y228005D01*
X227077Y227838D01*
X227077Y219455D01*
X221095Y219455D01*
X219329Y219807D01*
X217664Y220496D01*
X216577Y221223D01*
X216468Y221272D01*
X216359Y221323D01*
X216356Y221323D01*
X216353Y221324D01*
X216233Y221337D01*
X216115Y221350D01*
X216111Y221349D01*
X216108Y221350D01*
X215992Y221323D01*
X215874Y221298D01*
X215871Y221296D01*
X215868Y221295D01*
X215766Y221233D01*
X215663Y221171D01*
X215661Y221169D01*
X215658Y221167D01*
X215581Y221076D01*
X215503Y220985D01*
X215502Y220982D01*
X215500Y220979D01*
X215456Y220869D01*
X215411Y220756D01*
X215411Y220753D01*
X215410Y220750D01*
X215409Y220740D01*
X215393Y220590D01*
X215393Y209930D01*
X215404Y209860D01*
X215406Y209788D01*
X215424Y209739D01*
X215432Y209688D01*
X215466Y209624D01*
X215491Y209557D01*
X215523Y209516D01*
X215548Y209470D01*
X215600Y209421D01*
X215644Y209365D01*
X215688Y209337D01*
X215726Y209301D01*
X215791Y209271D01*
X215851Y209232D01*
X215902Y209219D01*
X215949Y209197D01*
X216020Y209189D01*
X216090Y209172D01*
X216142Y209176D01*
X216193Y209170D01*
X216264Y209185D01*
X216335Y209191D01*
X216383Y209211D01*
X216434Y209222D01*
X216495Y209259D01*
X216561Y209287D01*
X216617Y209332D01*
X216645Y209349D01*
X216660Y209366D01*
X216692Y209392D01*
X217391Y210091D01*
X220379Y211329D01*
X236821Y211329D01*
X239809Y210091D01*
X242095Y207805D01*
X243333Y204817D01*
X243333Y201583D01*
X242095Y198595D01*
X239805Y196305D01*
X239793Y196289D01*
X239778Y196277D01*
X239722Y196190D01*
X239662Y196106D01*
X239656Y196087D01*
X239645Y196070D01*
X239620Y195969D01*
X239589Y195871D01*
X239590Y195851D01*
X239585Y195831D01*
X239593Y195728D01*
X239596Y195625D01*
X239602Y195606D01*
X239604Y195586D01*
X239644Y195491D01*
X239680Y195394D01*
X239693Y195378D01*
X239700Y195360D01*
X239805Y195229D01*
X256287Y178747D01*
X256287Y159886D01*
X256301Y159796D01*
X256309Y159705D01*
X256321Y159675D01*
X256326Y159643D01*
X256369Y159563D01*
X256405Y159479D01*
X256431Y159447D01*
X256442Y159426D01*
X256465Y159404D01*
X256510Y159348D01*
X288768Y127090D01*
X288826Y127048D01*
X288878Y126999D01*
X288925Y126977D01*
X288967Y126946D01*
X289036Y126925D01*
X289101Y126895D01*
X289153Y126889D01*
X289203Y126874D01*
X289274Y126876D01*
X289345Y126868D01*
X289396Y126879D01*
X289448Y126880D01*
X289516Y126905D01*
X289586Y126920D01*
X289631Y126947D01*
X289679Y126965D01*
X289735Y127010D01*
X289797Y127046D01*
X289831Y127086D01*
X289871Y127118D01*
X289910Y127179D01*
X289957Y127233D01*
X289976Y127282D01*
X290004Y127325D01*
X290022Y127395D01*
X290049Y127461D01*
X290057Y127533D01*
X290065Y127564D01*
X290063Y127587D01*
X290067Y127628D01*
X290067Y128617D01*
X291305Y131605D01*
X293591Y133891D01*
X296579Y135129D01*
X313021Y135129D01*
X316009Y133891D01*
X318295Y131605D01*
X319533Y128617D01*
X319533Y125383D01*
X318295Y122395D01*
X316009Y120109D01*
X313021Y118871D01*
X311777Y118871D01*
X311706Y118860D01*
X311634Y118858D01*
X311585Y118840D01*
X311534Y118832D01*
X311471Y118798D01*
X311403Y118773D01*
X311363Y118741D01*
X311317Y118716D01*
X311267Y118664D01*
X311211Y118620D01*
X311183Y118576D01*
X311147Y118538D01*
X311117Y118473D01*
X311078Y118413D01*
X311066Y118362D01*
X311044Y118315D01*
X311036Y118244D01*
X311018Y118174D01*
X311022Y118122D01*
X311017Y118071D01*
X311032Y118000D01*
X311037Y117929D01*
X311058Y117881D01*
X311069Y117830D01*
X311106Y117769D01*
X311134Y117703D01*
X311178Y117647D01*
X311195Y117619D01*
X311213Y117604D01*
X311239Y117572D01*
X322581Y106230D01*
X322581Y100069D01*
X322595Y99978D01*
X322603Y99888D01*
X322615Y99858D01*
X322620Y99826D01*
X322663Y99745D01*
X322699Y99661D01*
X322725Y99629D01*
X322736Y99608D01*
X322759Y99586D01*
X322804Y99530D01*
X387267Y35067D01*
X387361Y34999D01*
X387456Y34929D01*
X387462Y34927D01*
X387467Y34923D01*
X387578Y34889D01*
X387690Y34853D01*
X387696Y34853D01*
X387702Y34851D01*
X387819Y34854D01*
X387936Y34855D01*
X387943Y34857D01*
X387948Y34857D01*
X387965Y34864D01*
X388097Y34902D01*
X391527Y36323D01*
X394229Y36323D01*
X394300Y36334D01*
X394372Y36336D01*
X394421Y36354D01*
X394472Y36362D01*
X394535Y36396D01*
X394603Y36421D01*
X394643Y36453D01*
X394689Y36478D01*
X394739Y36530D01*
X394795Y36574D01*
X394823Y36618D01*
X394859Y36656D01*
X394889Y36721D01*
X394928Y36781D01*
X394940Y36832D01*
X394962Y36879D01*
X394970Y36950D01*
X394988Y37020D01*
X394984Y37072D01*
X394989Y37123D01*
X394974Y37194D01*
X394969Y37265D01*
X394948Y37313D01*
X394937Y37364D01*
X394900Y37425D01*
X394872Y37491D01*
X394828Y37547D01*
X394811Y37575D01*
X394793Y37590D01*
X394768Y37622D01*
X330492Y101898D01*
X328929Y103460D01*
X328929Y145487D01*
X330492Y147049D01*
X335551Y152108D01*
X337113Y153671D01*
X338123Y153671D01*
X338219Y153686D01*
X338316Y153696D01*
X338340Y153706D01*
X338366Y153710D01*
X338452Y153756D01*
X338541Y153796D01*
X338560Y153813D01*
X338583Y153826D01*
X338650Y153896D01*
X338722Y153962D01*
X338735Y153985D01*
X338753Y154004D01*
X338794Y154092D01*
X338841Y154178D01*
X338845Y154203D01*
X338856Y154227D01*
X338867Y154324D01*
X338884Y154420D01*
X338881Y154446D01*
X338883Y154471D01*
X338863Y154567D01*
X338849Y154663D01*
X338837Y154686D01*
X338831Y154712D01*
X338781Y154795D01*
X338737Y154882D01*
X338718Y154901D01*
X338705Y154923D01*
X338631Y154986D01*
X338561Y155054D01*
X338533Y155070D01*
X338518Y155083D01*
X338487Y155095D01*
X338414Y155135D01*
X336713Y155840D01*
X333640Y158913D01*
X331977Y162927D01*
X331977Y167273D01*
X333640Y171287D01*
X336713Y174360D01*
X340727Y176023D01*
X345073Y176023D01*
X349087Y174360D01*
X352160Y171287D01*
X353823Y167273D01*
X353823Y162927D01*
X352160Y158913D01*
X349087Y155840D01*
X347386Y155135D01*
X347303Y155084D01*
X347217Y155038D01*
X347199Y155019D01*
X347176Y155006D01*
X347114Y154931D01*
X347047Y154860D01*
X347036Y154836D01*
X347020Y154816D01*
X346985Y154725D01*
X346944Y154637D01*
X346941Y154611D01*
X346931Y154587D01*
X346927Y154489D01*
X346917Y154393D01*
X346922Y154367D01*
X346921Y154341D01*
X346948Y154247D01*
X346969Y154152D01*
X346982Y154130D01*
X346990Y154105D01*
X347045Y154025D01*
X347095Y153941D01*
X347115Y153924D01*
X347130Y153903D01*
X347208Y153844D01*
X347282Y153781D01*
X347306Y153771D01*
X347327Y153756D01*
X347420Y153726D01*
X347510Y153689D01*
X347543Y153686D01*
X347561Y153680D01*
X347594Y153680D01*
X347677Y153671D01*
X353321Y153671D01*
X353412Y153685D01*
X353502Y153693D01*
X353532Y153705D01*
X353564Y153710D01*
X353645Y153753D01*
X353729Y153789D01*
X353761Y153815D01*
X353782Y153826D01*
X353804Y153849D01*
X353860Y153894D01*
X418153Y218187D01*
X458516Y218187D01*
X458631Y218206D01*
X458747Y218223D01*
X458752Y218225D01*
X458759Y218226D01*
X458861Y218281D01*
X458966Y218334D01*
X458970Y218339D01*
X458976Y218342D01*
X459056Y218426D01*
X459138Y218510D01*
X459142Y218516D01*
X459145Y218520D01*
X459153Y218537D01*
X459219Y218657D01*
X460640Y222087D01*
X463713Y225160D01*
X464477Y225477D01*
X464516Y225501D01*
X464560Y225517D01*
X464620Y225565D01*
X464686Y225606D01*
X464716Y225642D01*
X464752Y225670D01*
X464794Y225736D01*
X464843Y225796D01*
X464860Y225839D01*
X464885Y225877D01*
X464904Y225953D01*
X464931Y226025D01*
X464933Y226071D01*
X464945Y226116D01*
X464939Y226193D01*
X464942Y226271D01*
X464929Y226315D01*
X464925Y226361D01*
X464895Y226433D01*
X464873Y226507D01*
X464847Y226545D01*
X464829Y226587D01*
X464744Y226694D01*
X464733Y226709D01*
X464729Y226712D01*
X464724Y226718D01*
X464583Y226860D01*
X442213Y249229D01*
X442213Y321310D01*
X442210Y321330D01*
X442212Y321349D01*
X442190Y321451D01*
X442174Y321553D01*
X442164Y321570D01*
X442160Y321590D01*
X442107Y321679D01*
X442058Y321770D01*
X442044Y321784D01*
X442034Y321801D01*
X441955Y321868D01*
X441880Y321940D01*
X441862Y321948D01*
X441847Y321961D01*
X441751Y322000D01*
X441657Y322043D01*
X441637Y322045D01*
X441619Y322053D01*
X441452Y322071D01*
X441133Y322071D01*
X436371Y326833D01*
X436371Y333567D01*
X441133Y338329D01*
X447867Y338329D01*
X452629Y333567D01*
X452629Y326833D01*
X447867Y322071D01*
X447548Y322071D01*
X447528Y322068D01*
X447509Y322070D01*
X447407Y322048D01*
X447305Y322032D01*
X447288Y322022D01*
X447268Y322018D01*
X447179Y321965D01*
X447088Y321916D01*
X447074Y321902D01*
X447057Y321892D01*
X446990Y321813D01*
X446918Y321738D01*
X446910Y321720D01*
X446897Y321705D01*
X446858Y321609D01*
X446815Y321515D01*
X446813Y321495D01*
X446805Y321477D01*
X446787Y321310D01*
X446787Y251439D01*
X446801Y251349D01*
X446809Y251258D01*
X446821Y251228D01*
X446826Y251196D01*
X446869Y251115D01*
X446905Y251032D01*
X446931Y250999D01*
X446942Y250979D01*
X446965Y250957D01*
X447010Y250901D01*
X457678Y240232D01*
X457736Y240191D01*
X457788Y240141D01*
X457835Y240119D01*
X457877Y240089D01*
X457946Y240068D01*
X458011Y240038D01*
X458063Y240032D01*
X458113Y240017D01*
X458184Y240018D01*
X458255Y240011D01*
X458306Y240022D01*
X458358Y240023D01*
X458426Y240048D01*
X458496Y240063D01*
X458541Y240090D01*
X458589Y240107D01*
X458645Y240152D01*
X458707Y240189D01*
X458741Y240229D01*
X458781Y240261D01*
X458820Y240321D01*
X458867Y240376D01*
X458886Y240424D01*
X458914Y240468D01*
X458932Y240537D01*
X458959Y240604D01*
X458967Y240675D01*
X458975Y240707D01*
X458973Y240730D01*
X458977Y240771D01*
X458977Y243473D01*
X460640Y247487D01*
X463713Y250560D01*
X467727Y252223D01*
X472073Y252223D01*
X476087Y250560D01*
X479160Y247487D01*
X480823Y243473D01*
X480823Y239127D01*
X479160Y235113D01*
X476087Y232040D01*
X474385Y231335D01*
X474302Y231284D01*
X474217Y231238D01*
X474199Y231220D01*
X474176Y231206D01*
X474114Y231130D01*
X474047Y231060D01*
X474036Y231036D01*
X474020Y231016D01*
X473985Y230925D01*
X473944Y230837D01*
X473941Y230811D01*
X473931Y230787D01*
X473927Y230689D01*
X473917Y230593D01*
X473922Y230567D01*
X473921Y230541D01*
X473948Y230447D01*
X473969Y230352D01*
X473982Y230330D01*
X473990Y230305D01*
X474045Y230225D01*
X474095Y230141D01*
X474115Y230124D01*
X474130Y230103D01*
X474208Y230044D01*
X474282Y229981D01*
X474306Y229971D01*
X474327Y229956D01*
X474420Y229926D01*
X474510Y229889D01*
X474543Y229886D01*
X474561Y229880D01*
X474594Y229880D01*
X474677Y229871D01*
X475687Y229871D01*
X477249Y228308D01*
X482308Y223249D01*
X483871Y221687D01*
X483871Y180079D01*
X483885Y179988D01*
X483893Y179898D01*
X483905Y179868D01*
X483910Y179836D01*
X483953Y179755D01*
X483989Y179671D01*
X484015Y179639D01*
X484026Y179618D01*
X484049Y179596D01*
X484094Y179540D01*
X484887Y178747D01*
X484887Y176853D01*
X479567Y171533D01*
X479499Y171439D01*
X479429Y171344D01*
X479427Y171338D01*
X479423Y171333D01*
X479389Y171222D01*
X479353Y171110D01*
X479353Y171104D01*
X479351Y171098D01*
X479354Y170981D01*
X479355Y170864D01*
X479357Y170857D01*
X479357Y170852D01*
X479364Y170835D01*
X479402Y170703D01*
X480823Y167273D01*
X480823Y162927D01*
X479160Y158913D01*
X476087Y155840D01*
X475323Y155523D01*
X475284Y155499D01*
X475241Y155484D01*
X475180Y155435D01*
X475114Y155394D01*
X475084Y155358D01*
X475049Y155330D01*
X475006Y155264D01*
X474957Y155204D01*
X474940Y155162D01*
X474916Y155123D01*
X474896Y155047D01*
X474869Y154975D01*
X474867Y154929D01*
X474855Y154884D01*
X474861Y154807D01*
X474858Y154729D01*
X474871Y154685D01*
X474875Y154639D01*
X474905Y154568D01*
X474927Y154493D01*
X474953Y154455D01*
X474971Y154413D01*
X475051Y154313D01*
X475054Y154307D01*
X475057Y154305D01*
X475067Y154291D01*
X475071Y154288D01*
X475076Y154282D01*
X482308Y147049D01*
X483871Y145487D01*
X483871Y103879D01*
X483885Y103788D01*
X483893Y103698D01*
X483905Y103668D01*
X483910Y103636D01*
X483953Y103555D01*
X483989Y103471D01*
X484015Y103439D01*
X484026Y103418D01*
X484049Y103396D01*
X484094Y103340D01*
X484887Y102547D01*
X484887Y100653D01*
X483547Y99313D01*
X481284Y99313D01*
X481169Y99294D01*
X481053Y99277D01*
X481048Y99275D01*
X481041Y99274D01*
X480939Y99219D01*
X480834Y99166D01*
X480830Y99161D01*
X480824Y99158D01*
X480744Y99074D01*
X480662Y98990D01*
X480658Y98984D01*
X480655Y98980D01*
X480647Y98963D01*
X480581Y98843D01*
X479160Y95413D01*
X476087Y92340D01*
X472073Y90677D01*
X467727Y90677D01*
X463713Y92340D01*
X460640Y95413D01*
X458977Y99427D01*
X458977Y103773D01*
X460640Y107787D01*
X463713Y110860D01*
X467727Y112523D01*
X472073Y112523D01*
X476087Y110860D01*
X477998Y108949D01*
X478056Y108907D01*
X478108Y108858D01*
X478155Y108836D01*
X478197Y108806D01*
X478266Y108785D01*
X478331Y108754D01*
X478383Y108749D01*
X478433Y108733D01*
X478504Y108735D01*
X478575Y108727D01*
X478626Y108738D01*
X478678Y108740D01*
X478746Y108764D01*
X478816Y108780D01*
X478861Y108806D01*
X478909Y108824D01*
X478965Y108869D01*
X479027Y108906D01*
X479061Y108945D01*
X479101Y108978D01*
X479140Y109038D01*
X479187Y109093D01*
X479206Y109141D01*
X479234Y109185D01*
X479252Y109254D01*
X479279Y109321D01*
X479287Y109392D01*
X479295Y109423D01*
X479293Y109447D01*
X479297Y109488D01*
X479297Y130376D01*
X479286Y130446D01*
X479284Y130518D01*
X479266Y130567D01*
X479258Y130618D01*
X479224Y130682D01*
X479199Y130749D01*
X479167Y130790D01*
X479142Y130836D01*
X479091Y130885D01*
X479046Y130941D01*
X479002Y130969D01*
X478964Y131005D01*
X478899Y131035D01*
X478839Y131074D01*
X478788Y131087D01*
X478741Y131109D01*
X478670Y131117D01*
X478600Y131134D01*
X478548Y131130D01*
X478497Y131136D01*
X478426Y131121D01*
X478355Y131115D01*
X478307Y131095D01*
X478256Y131084D01*
X478195Y131047D01*
X478129Y131019D01*
X478073Y130974D01*
X478045Y130957D01*
X478030Y130940D01*
X477998Y130914D01*
X477678Y130594D01*
X476157Y129489D01*
X474483Y128636D01*
X472696Y128055D01*
X471423Y127854D01*
X471423Y138938D01*
X471420Y138958D01*
X471422Y138977D01*
X471400Y139079D01*
X471383Y139181D01*
X471374Y139198D01*
X471370Y139218D01*
X471317Y139307D01*
X471268Y139398D01*
X471254Y139412D01*
X471244Y139429D01*
X471165Y139496D01*
X471090Y139567D01*
X471072Y139576D01*
X471057Y139589D01*
X470961Y139627D01*
X470867Y139671D01*
X470847Y139673D01*
X470829Y139681D01*
X470662Y139699D01*
X469899Y139699D01*
X469899Y139701D01*
X470662Y139701D01*
X470682Y139704D01*
X470701Y139702D01*
X470803Y139724D01*
X470905Y139741D01*
X470922Y139750D01*
X470942Y139754D01*
X471031Y139807D01*
X471122Y139856D01*
X471136Y139870D01*
X471153Y139880D01*
X471220Y139959D01*
X471291Y140034D01*
X471300Y140052D01*
X471313Y140067D01*
X471352Y140163D01*
X471395Y140257D01*
X471397Y140277D01*
X471405Y140295D01*
X471423Y140462D01*
X471423Y151151D01*
X471408Y151241D01*
X471401Y151332D01*
X471389Y151362D01*
X471383Y151394D01*
X471341Y151475D01*
X471305Y151559D01*
X471279Y151591D01*
X471268Y151611D01*
X471245Y151634D01*
X471200Y151690D01*
X468935Y153954D01*
X468862Y154007D01*
X468792Y154067D01*
X468762Y154079D01*
X468736Y154098D01*
X468649Y154125D01*
X468564Y154159D01*
X468523Y154163D01*
X468501Y154170D01*
X468468Y154169D01*
X468397Y154177D01*
X467727Y154177D01*
X463713Y155840D01*
X460640Y158913D01*
X458977Y162927D01*
X458977Y167273D01*
X460640Y171287D01*
X463713Y174360D01*
X467727Y176023D01*
X472073Y176023D01*
X475503Y174602D01*
X475617Y174575D01*
X475730Y174547D01*
X475737Y174547D01*
X475743Y174546D01*
X475859Y174557D01*
X475976Y174566D01*
X475981Y174568D01*
X475988Y174569D01*
X476095Y174617D01*
X476202Y174662D01*
X476208Y174667D01*
X476212Y174669D01*
X476226Y174681D01*
X476333Y174767D01*
X479074Y177508D01*
X479127Y177582D01*
X479187Y177652D01*
X479199Y177682D01*
X479218Y177708D01*
X479245Y177795D01*
X479279Y177880D01*
X479283Y177921D01*
X479290Y177943D01*
X479289Y177975D01*
X479297Y178047D01*
X479297Y182612D01*
X479286Y182683D01*
X479284Y182755D01*
X479266Y182804D01*
X479258Y182855D01*
X479224Y182918D01*
X479199Y182986D01*
X479167Y183026D01*
X479142Y183073D01*
X479090Y183122D01*
X479046Y183178D01*
X479002Y183206D01*
X478964Y183242D01*
X478899Y183272D01*
X478839Y183311D01*
X478788Y183324D01*
X478741Y183346D01*
X478670Y183353D01*
X478600Y183371D01*
X478548Y183367D01*
X478497Y183373D01*
X478426Y183357D01*
X478355Y183352D01*
X478307Y183331D01*
X478256Y183320D01*
X478195Y183284D01*
X478129Y183255D01*
X478073Y183211D01*
X478045Y183194D01*
X478030Y183176D01*
X477998Y183151D01*
X476087Y181240D01*
X472073Y179577D01*
X467727Y179577D01*
X463713Y181240D01*
X460640Y184313D01*
X458977Y188327D01*
X458977Y192673D01*
X460640Y196687D01*
X463713Y199760D01*
X467727Y201423D01*
X472073Y201423D01*
X476087Y199760D01*
X477998Y197849D01*
X478056Y197807D01*
X478108Y197758D01*
X478155Y197736D01*
X478197Y197706D01*
X478266Y197685D01*
X478331Y197654D01*
X478383Y197649D01*
X478433Y197633D01*
X478504Y197635D01*
X478575Y197627D01*
X478626Y197638D01*
X478678Y197640D01*
X478746Y197664D01*
X478816Y197680D01*
X478861Y197706D01*
X478909Y197724D01*
X478965Y197769D01*
X479027Y197806D01*
X479061Y197845D01*
X479101Y197878D01*
X479140Y197938D01*
X479187Y197993D01*
X479206Y198041D01*
X479234Y198085D01*
X479252Y198154D01*
X479279Y198221D01*
X479287Y198292D01*
X479295Y198323D01*
X479293Y198347D01*
X479297Y198388D01*
X479297Y208012D01*
X479286Y208083D01*
X479284Y208155D01*
X479266Y208204D01*
X479258Y208255D01*
X479224Y208318D01*
X479199Y208386D01*
X479167Y208426D01*
X479142Y208473D01*
X479090Y208522D01*
X479046Y208578D01*
X479002Y208606D01*
X478964Y208642D01*
X478899Y208672D01*
X478839Y208711D01*
X478788Y208724D01*
X478741Y208746D01*
X478670Y208753D01*
X478600Y208771D01*
X478548Y208767D01*
X478497Y208773D01*
X478426Y208757D01*
X478355Y208752D01*
X478307Y208731D01*
X478256Y208720D01*
X478195Y208684D01*
X478129Y208655D01*
X478073Y208611D01*
X478045Y208594D01*
X478030Y208576D01*
X477998Y208551D01*
X476087Y206640D01*
X472073Y204977D01*
X467727Y204977D01*
X463713Y206640D01*
X460640Y209713D01*
X459219Y213143D01*
X459158Y213243D01*
X459098Y213343D01*
X459093Y213347D01*
X459090Y213352D01*
X459000Y213427D01*
X458911Y213503D01*
X458905Y213505D01*
X458900Y213509D01*
X458792Y213551D01*
X458683Y213595D01*
X458675Y213596D01*
X458670Y213597D01*
X458652Y213598D01*
X458516Y213613D01*
X420363Y213613D01*
X420272Y213599D01*
X420182Y213591D01*
X420152Y213579D01*
X420120Y213574D01*
X420039Y213531D01*
X419955Y213495D01*
X419923Y213469D01*
X419902Y213458D01*
X419880Y213435D01*
X419824Y213390D01*
X355531Y149097D01*
X350788Y149097D01*
X350717Y149086D01*
X350645Y149084D01*
X350596Y149066D01*
X350545Y149058D01*
X350482Y149024D01*
X350414Y148999D01*
X350374Y148967D01*
X350327Y148942D01*
X350278Y148890D01*
X350222Y148846D01*
X350194Y148802D01*
X350158Y148764D01*
X350128Y148699D01*
X350089Y148639D01*
X350076Y148588D01*
X350054Y148541D01*
X350047Y148470D01*
X350029Y148400D01*
X350033Y148348D01*
X350027Y148297D01*
X350043Y148226D01*
X350048Y148155D01*
X350069Y148107D01*
X350080Y148056D01*
X350116Y147995D01*
X350145Y147929D01*
X350189Y147873D01*
X350206Y147845D01*
X350224Y147830D01*
X350249Y147798D01*
X352160Y145887D01*
X353581Y142457D01*
X353642Y142357D01*
X353702Y142257D01*
X353707Y142253D01*
X353710Y142248D01*
X353800Y142173D01*
X353889Y142097D01*
X353895Y142095D01*
X353900Y142091D01*
X354008Y142049D01*
X354117Y142005D01*
X354125Y142004D01*
X354130Y142003D01*
X354148Y142002D01*
X354284Y141987D01*
X407347Y141987D01*
X463467Y85867D01*
X463561Y85799D01*
X463656Y85729D01*
X463662Y85727D01*
X463667Y85723D01*
X463778Y85689D01*
X463890Y85653D01*
X463896Y85653D01*
X463902Y85651D01*
X464019Y85654D01*
X464136Y85655D01*
X464143Y85657D01*
X464148Y85657D01*
X464165Y85664D01*
X464297Y85702D01*
X467727Y87123D01*
X472073Y87123D01*
X476087Y85460D01*
X479160Y82387D01*
X480823Y78373D01*
X480823Y74027D01*
X479160Y70013D01*
X476087Y66940D01*
X472073Y65277D01*
X467727Y65277D01*
X463713Y66940D01*
X460640Y70013D01*
X458977Y74027D01*
X458977Y78373D01*
X460398Y81803D01*
X460425Y81917D01*
X460453Y82030D01*
X460453Y82037D01*
X460454Y82043D01*
X460443Y82159D01*
X460434Y82276D01*
X460432Y82281D01*
X460431Y82288D01*
X460383Y82395D01*
X460338Y82502D01*
X460333Y82508D01*
X460331Y82512D01*
X460319Y82526D01*
X460233Y82633D01*
X405676Y137190D01*
X405602Y137243D01*
X405532Y137303D01*
X405502Y137315D01*
X405476Y137334D01*
X405389Y137361D01*
X405304Y137395D01*
X405263Y137399D01*
X405241Y137406D01*
X405209Y137405D01*
X405137Y137413D01*
X354284Y137413D01*
X354169Y137394D01*
X354053Y137377D01*
X354048Y137375D01*
X354041Y137374D01*
X353939Y137319D01*
X353834Y137266D01*
X353830Y137261D01*
X353824Y137258D01*
X353744Y137174D01*
X353662Y137090D01*
X353658Y137084D01*
X353655Y137080D01*
X353647Y137063D01*
X353581Y136943D01*
X352160Y133513D01*
X349087Y130440D01*
X345073Y128777D01*
X340727Y128777D01*
X336713Y130440D01*
X334802Y132351D01*
X334744Y132393D01*
X334692Y132442D01*
X334645Y132464D01*
X334603Y132494D01*
X334534Y132515D01*
X334469Y132546D01*
X334417Y132551D01*
X334367Y132567D01*
X334296Y132565D01*
X334225Y132573D01*
X334174Y132562D01*
X334122Y132560D01*
X334054Y132536D01*
X333984Y132520D01*
X333939Y132494D01*
X333891Y132476D01*
X333835Y132431D01*
X333773Y132394D01*
X333739Y132355D01*
X333699Y132322D01*
X333660Y132262D01*
X333613Y132207D01*
X333594Y132159D01*
X333566Y132115D01*
X333548Y132046D01*
X333521Y131979D01*
X333513Y131908D01*
X333505Y131877D01*
X333507Y131853D01*
X333503Y131812D01*
X333503Y105670D01*
X333517Y105580D01*
X333525Y105489D01*
X333537Y105459D01*
X333542Y105427D01*
X333585Y105347D01*
X333621Y105263D01*
X333647Y105231D01*
X333658Y105210D01*
X333681Y105188D01*
X333726Y105132D01*
X407671Y31187D01*
X407671Y30177D01*
X407686Y30081D01*
X407696Y29984D01*
X407706Y29960D01*
X407710Y29934D01*
X407756Y29848D01*
X407796Y29759D01*
X407813Y29740D01*
X407826Y29717D01*
X407896Y29650D01*
X407962Y29578D01*
X407985Y29565D01*
X408004Y29547D01*
X408092Y29506D01*
X408178Y29459D01*
X408203Y29455D01*
X408227Y29444D01*
X408324Y29433D01*
X408420Y29416D01*
X408446Y29419D01*
X408471Y29417D01*
X408567Y29437D01*
X408663Y29451D01*
X408686Y29463D01*
X408712Y29469D01*
X408795Y29519D01*
X408882Y29563D01*
X408901Y29582D01*
X408923Y29595D01*
X408986Y29669D01*
X409054Y29739D01*
X409070Y29767D01*
X409083Y29782D01*
X409095Y29813D01*
X409135Y29885D01*
X409840Y31587D01*
X412913Y34660D01*
X416927Y36323D01*
X421273Y36323D01*
X425287Y34660D01*
X428360Y31587D01*
X430023Y27573D01*
X430023Y23227D01*
X428360Y19213D01*
X425287Y16140D01*
X421273Y14477D01*
X416927Y14477D01*
X412913Y16140D01*
X409840Y19213D01*
X409135Y20915D01*
X409084Y20998D01*
X409038Y21083D01*
X409020Y21101D01*
X409006Y21124D01*
X408930Y21186D01*
X408860Y21253D01*
X408836Y21264D01*
X408816Y21280D01*
X408725Y21315D01*
X408637Y21356D01*
X408611Y21359D01*
X408587Y21369D01*
X408489Y21373D01*
X408393Y21383D01*
X408367Y21378D01*
X408341Y21379D01*
X408247Y21352D01*
X408152Y21331D01*
X408130Y21318D01*
X408105Y21310D01*
X408025Y21255D01*
X407941Y21205D01*
X407924Y21185D01*
X407903Y21170D01*
X407844Y21092D01*
X407781Y21018D01*
X407771Y20994D01*
X407756Y20973D01*
X407726Y20880D01*
X407689Y20790D01*
X407686Y20757D01*
X407680Y20739D01*
X407680Y20706D01*
X407671Y20623D01*
X407671Y19613D01*
X406108Y18051D01*
X399518Y11460D01*
X399476Y11402D01*
X399427Y11350D01*
X399405Y11303D01*
X399374Y11261D01*
X399353Y11192D01*
X399323Y11127D01*
X399317Y11075D01*
X399302Y11025D01*
X399304Y10954D01*
X399296Y10883D01*
X399307Y10832D01*
X399308Y10780D01*
X399333Y10712D01*
X399348Y10642D01*
X399375Y10597D01*
X399393Y10549D01*
X399438Y10493D01*
X399474Y10431D01*
X399514Y10397D01*
X399546Y10357D01*
X399607Y10318D01*
X399661Y10271D01*
X399710Y10252D01*
X399753Y10224D01*
X399823Y10206D01*
X399889Y10179D01*
X399961Y10171D01*
X399992Y10163D01*
X400015Y10165D01*
X400056Y10161D01*
X489078Y10161D01*
X489098Y10164D01*
X489117Y10162D01*
X489219Y10184D01*
X489321Y10200D01*
X489338Y10210D01*
X489358Y10214D01*
X489447Y10267D01*
X489538Y10316D01*
X489552Y10330D01*
X489569Y10340D01*
X489636Y10419D01*
X489708Y10494D01*
X489716Y10512D01*
X489729Y10527D01*
X489768Y10623D01*
X489811Y10717D01*
X489813Y10737D01*
X489821Y10755D01*
X489839Y10922D01*
X489839Y489078D01*
X489836Y489098D01*
X489838Y489117D01*
X489816Y489219D01*
X489800Y489321D01*
X489790Y489338D01*
X489786Y489358D01*
X489733Y489447D01*
X489684Y489538D01*
X489670Y489552D01*
X489660Y489569D01*
X489581Y489636D01*
X489506Y489708D01*
X489488Y489716D01*
X489473Y489729D01*
X489377Y489768D01*
X489283Y489811D01*
X489263Y489813D01*
X489245Y489821D01*
X489078Y489839D01*
X10922Y489839D01*
X10902Y489836D01*
X10883Y489838D01*
X10781Y489816D01*
X10679Y489800D01*
X10662Y489790D01*
X10642Y489786D01*
X10553Y489733D01*
X10462Y489684D01*
X10448Y489670D01*
X10431Y489660D01*
X10364Y489581D01*
X10292Y489506D01*
X10284Y489488D01*
X10271Y489473D01*
X10232Y489377D01*
X10189Y489283D01*
X10187Y489263D01*
X10179Y489245D01*
X10161Y489078D01*
X10161Y285756D01*
X10172Y285685D01*
X10174Y285614D01*
X10192Y285565D01*
X10200Y285513D01*
X10234Y285450D01*
X10259Y285383D01*
X10291Y285342D01*
X10316Y285296D01*
X10368Y285247D01*
X10412Y285191D01*
X10456Y285162D01*
X10494Y285127D01*
X10559Y285096D01*
X10619Y285058D01*
X10670Y285045D01*
X10717Y285023D01*
X10788Y285015D01*
X10858Y284998D01*
X10910Y285002D01*
X10961Y284996D01*
X11032Y285011D01*
X11103Y285017D01*
X11151Y285037D01*
X11202Y285048D01*
X11263Y285085D01*
X11329Y285113D01*
X11385Y285158D01*
X11413Y285174D01*
X11428Y285192D01*
X11460Y285218D01*
X12992Y286749D01*
X19613Y293371D01*
X20623Y293371D01*
X20719Y293386D01*
X20816Y293396D01*
X20840Y293406D01*
X20866Y293410D01*
X20952Y293456D01*
X21041Y293496D01*
X21060Y293513D01*
X21083Y293526D01*
X21150Y293596D01*
X21222Y293662D01*
X21235Y293685D01*
X21253Y293704D01*
X21294Y293792D01*
X21341Y293878D01*
X21345Y293903D01*
X21356Y293927D01*
X21367Y294024D01*
X21384Y294120D01*
X21381Y294146D01*
X21383Y294171D01*
X21363Y294267D01*
X21349Y294363D01*
X21337Y294386D01*
X21331Y294412D01*
X21281Y294495D01*
X21237Y294582D01*
X21218Y294601D01*
X21205Y294623D01*
X21131Y294686D01*
X21061Y294754D01*
X21033Y294770D01*
X21018Y294783D01*
X20987Y294795D01*
X20914Y294835D01*
X19213Y295540D01*
X16140Y298613D01*
X14477Y302627D01*
X14477Y306973D01*
X16140Y310987D01*
X19213Y314060D01*
X23227Y315723D01*
X27573Y315723D01*
X31587Y314060D01*
X34660Y310987D01*
X36323Y306973D01*
X36323Y302627D01*
X34660Y298613D01*
X31587Y295540D01*
X29886Y294835D01*
X29803Y294784D01*
X29717Y294738D01*
X29699Y294719D01*
X29676Y294706D01*
X29614Y294631D01*
X29547Y294560D01*
X29536Y294536D01*
X29520Y294516D01*
X29485Y294425D01*
X29444Y294337D01*
X29441Y294311D01*
X29431Y294287D01*
X29427Y294189D01*
X29417Y294093D01*
X29422Y294067D01*
X29421Y294041D01*
X29448Y293947D01*
X29469Y293852D01*
X29482Y293830D01*
X29490Y293805D01*
X29545Y293725D01*
X29595Y293641D01*
X29615Y293624D01*
X29630Y293603D01*
X29708Y293544D01*
X29782Y293481D01*
X29806Y293471D01*
X29827Y293456D01*
X29920Y293426D01*
X30010Y293389D01*
X30043Y293386D01*
X30061Y293380D01*
X30094Y293380D01*
X30177Y293371D01*
X31187Y293371D01*
X133110Y191447D01*
X133110Y189553D01*
X131771Y188213D01*
X129876Y188213D01*
X37622Y280468D01*
X37564Y280509D01*
X37512Y280559D01*
X37465Y280581D01*
X37423Y280611D01*
X37354Y280632D01*
X37289Y280662D01*
X37237Y280668D01*
X37187Y280683D01*
X37116Y280682D01*
X37045Y280689D01*
X36994Y280678D01*
X36942Y280677D01*
X36874Y280652D01*
X36804Y280637D01*
X36760Y280611D01*
X36711Y280593D01*
X36655Y280548D01*
X36593Y280511D01*
X36559Y280471D01*
X36519Y280439D01*
X36480Y280379D01*
X36433Y280324D01*
X36414Y280276D01*
X36386Y280232D01*
X36368Y280163D01*
X36341Y280096D01*
X36333Y280025D01*
X36325Y279993D01*
X36327Y279970D01*
X36323Y279929D01*
X36323Y277227D01*
X34902Y273797D01*
X34894Y273763D01*
X34892Y273758D01*
X34891Y273750D01*
X34875Y273683D01*
X34847Y273570D01*
X34847Y273563D01*
X34846Y273557D01*
X34857Y273441D01*
X34866Y273324D01*
X34868Y273319D01*
X34869Y273312D01*
X34917Y273205D01*
X34962Y273098D01*
X34967Y273092D01*
X34969Y273088D01*
X34981Y273074D01*
X35067Y272967D01*
X156934Y151100D01*
X158497Y149537D01*
X158497Y121030D01*
X158508Y120960D01*
X158510Y120888D01*
X158528Y120839D01*
X158536Y120788D01*
X158570Y120724D01*
X158595Y120657D01*
X158627Y120616D01*
X158652Y120570D01*
X158704Y120521D01*
X158748Y120465D01*
X158792Y120437D01*
X158830Y120401D01*
X158895Y120371D01*
X158955Y120332D01*
X159006Y120319D01*
X159053Y120297D01*
X159124Y120289D01*
X159194Y120272D01*
X159246Y120276D01*
X159297Y120270D01*
X159368Y120285D01*
X159439Y120291D01*
X159487Y120311D01*
X159538Y120322D01*
X159599Y120359D01*
X159665Y120387D01*
X159721Y120432D01*
X159749Y120449D01*
X159764Y120466D01*
X159796Y120492D01*
X160495Y121191D01*
X163483Y122429D01*
X166717Y122429D01*
X169705Y121191D01*
X171991Y118905D01*
X172757Y117057D01*
X172819Y116957D01*
X172878Y116857D01*
X172883Y116853D01*
X172886Y116848D01*
X172977Y116773D01*
X173065Y116697D01*
X173071Y116695D01*
X173076Y116691D01*
X173184Y116649D01*
X173293Y116605D01*
X173301Y116604D01*
X173305Y116603D01*
X173324Y116602D01*
X173460Y116587D01*
X214638Y116587D01*
X214728Y116601D01*
X214819Y116609D01*
X214848Y116621D01*
X214880Y116626D01*
X214961Y116669D01*
X215045Y116705D01*
X215077Y116731D01*
X215098Y116742D01*
X215120Y116765D01*
X215176Y116810D01*
X217395Y119029D01*
X217407Y119045D01*
X217422Y119057D01*
X217478Y119145D01*
X217538Y119229D01*
X217544Y119247D01*
X217555Y119264D01*
X217580Y119365D01*
X217611Y119464D01*
X217610Y119484D01*
X217615Y119503D01*
X217607Y119606D01*
X217604Y119710D01*
X217598Y119728D01*
X217596Y119748D01*
X217556Y119843D01*
X217520Y119941D01*
X217507Y119956D01*
X217500Y119974D01*
X217395Y120105D01*
X215105Y122395D01*
X213867Y125383D01*
X213867Y128617D01*
X215105Y131605D01*
X217391Y133891D01*
X220379Y135129D01*
X236821Y135129D01*
X239809Y133891D01*
X242095Y131605D01*
X243333Y128617D01*
X243333Y125383D01*
X242095Y122395D01*
X239809Y120109D01*
X236821Y118871D01*
X224020Y118871D01*
X223930Y118857D01*
X223839Y118849D01*
X223810Y118837D01*
X223778Y118832D01*
X223697Y118789D01*
X223613Y118753D01*
X223581Y118727D01*
X223560Y118716D01*
X223538Y118693D01*
X223482Y118648D01*
X218410Y113576D01*
X216847Y112013D01*
X173460Y112013D01*
X173345Y111994D01*
X173229Y111977D01*
X173223Y111975D01*
X173217Y111974D01*
X173115Y111919D01*
X173010Y111866D01*
X173005Y111861D01*
X173000Y111858D01*
X172920Y111774D01*
X172837Y111690D01*
X172834Y111684D01*
X172830Y111680D01*
X172823Y111663D01*
X172757Y111543D01*
X171991Y109695D01*
X171292Y108996D01*
X171250Y108938D01*
X171201Y108886D01*
X171179Y108839D01*
X171148Y108797D01*
X171127Y108728D01*
X171097Y108663D01*
X171091Y108611D01*
X171076Y108561D01*
X171078Y108490D01*
X171070Y108419D01*
X171081Y108368D01*
X171082Y108316D01*
X171107Y108248D01*
X171122Y108178D01*
X171149Y108133D01*
X171167Y108085D01*
X171212Y108029D01*
X171249Y107967D01*
X171288Y107933D01*
X171321Y107893D01*
X171381Y107854D01*
X171435Y107807D01*
X171484Y107788D01*
X171528Y107760D01*
X171597Y107742D01*
X171664Y107715D01*
X171735Y107707D01*
X171766Y107699D01*
X171789Y107701D01*
X171830Y107697D01*
X200337Y107697D01*
X201900Y106134D01*
X223482Y84552D01*
X223556Y84499D01*
X223626Y84439D01*
X223656Y84427D01*
X223682Y84408D01*
X223769Y84381D01*
X223854Y84347D01*
X223895Y84343D01*
X223917Y84336D01*
X223949Y84337D01*
X224020Y84329D01*
X236821Y84329D01*
X239809Y83091D01*
X242095Y80805D01*
X243333Y77817D01*
X243333Y74583D01*
X242095Y71595D01*
X239809Y69309D01*
X236821Y68071D01*
X220379Y68071D01*
X217391Y69309D01*
X215105Y71595D01*
X213867Y74583D01*
X213867Y77817D01*
X215105Y80805D01*
X217395Y83095D01*
X217407Y83111D01*
X217422Y83123D01*
X217478Y83210D01*
X217538Y83294D01*
X217544Y83313D01*
X217555Y83330D01*
X217580Y83431D01*
X217611Y83529D01*
X217610Y83549D01*
X217615Y83569D01*
X217607Y83672D01*
X217604Y83775D01*
X217598Y83794D01*
X217596Y83814D01*
X217556Y83909D01*
X217520Y84006D01*
X217507Y84022D01*
X217500Y84040D01*
X217395Y84171D01*
X198666Y102900D01*
X198592Y102953D01*
X198522Y103013D01*
X198492Y103025D01*
X198466Y103044D01*
X198379Y103071D01*
X198294Y103105D01*
X198253Y103109D01*
X198231Y103116D01*
X198199Y103115D01*
X198128Y103123D01*
X160470Y103123D01*
X153923Y109670D01*
X153923Y147328D01*
X153909Y147418D01*
X153901Y147509D01*
X153889Y147538D01*
X153884Y147570D01*
X153841Y147651D01*
X153805Y147735D01*
X153779Y147767D01*
X153768Y147788D01*
X153745Y147810D01*
X153700Y147866D01*
X31833Y269733D01*
X31738Y269801D01*
X31644Y269871D01*
X31638Y269873D01*
X31633Y269877D01*
X31522Y269911D01*
X31410Y269947D01*
X31404Y269947D01*
X31398Y269949D01*
X31280Y269946D01*
X31164Y269945D01*
X31157Y269943D01*
X31152Y269943D01*
X31134Y269936D01*
X31003Y269898D01*
X30823Y269824D01*
X30784Y269799D01*
X30741Y269784D01*
X30680Y269735D01*
X30614Y269694D01*
X30584Y269658D01*
X30549Y269630D01*
X30506Y269564D01*
X30457Y269504D01*
X30440Y269462D01*
X30416Y269423D01*
X30397Y269348D01*
X30369Y269275D01*
X30367Y269229D01*
X30355Y269184D01*
X30361Y269107D01*
X30358Y269029D01*
X30371Y268985D01*
X30375Y268939D01*
X30405Y268868D01*
X30427Y268793D01*
X30453Y268755D01*
X30471Y268713D01*
X30556Y268606D01*
X30567Y268591D01*
X30571Y268588D01*
X30576Y268582D01*
X37808Y261349D01*
X39371Y259787D01*
X39371Y239337D01*
X35067Y235033D01*
X34999Y234939D01*
X34929Y234844D01*
X34927Y234838D01*
X34923Y234833D01*
X34889Y234722D01*
X34853Y234610D01*
X34853Y234604D01*
X34851Y234598D01*
X34854Y234481D01*
X34855Y234364D01*
X34857Y234357D01*
X34857Y234352D01*
X34864Y234335D01*
X34902Y234203D01*
X36323Y230773D01*
X36323Y226427D01*
X34660Y222413D01*
X31587Y219340D01*
X27573Y217677D01*
X26903Y217677D01*
X26813Y217663D01*
X26722Y217655D01*
X26692Y217643D01*
X26660Y217638D01*
X26580Y217595D01*
X26496Y217559D01*
X26463Y217533D01*
X26443Y217522D01*
X26421Y217499D01*
X26365Y217454D01*
X24332Y215422D01*
X24291Y215364D01*
X24241Y215312D01*
X24219Y215265D01*
X24189Y215223D01*
X24168Y215154D01*
X24138Y215089D01*
X24132Y215037D01*
X24117Y214987D01*
X24118Y214916D01*
X24111Y214845D01*
X24122Y214794D01*
X24123Y214742D01*
X24148Y214674D01*
X24163Y214604D01*
X24190Y214559D01*
X24207Y214511D01*
X24252Y214455D01*
X24289Y214393D01*
X24329Y214359D01*
X24361Y214319D01*
X24421Y214280D01*
X24476Y214233D01*
X24524Y214214D01*
X24568Y214186D01*
X24637Y214168D01*
X24704Y214141D01*
X24775Y214133D01*
X24807Y214125D01*
X24830Y214127D01*
X24871Y214123D01*
X27573Y214123D01*
X31587Y212460D01*
X34660Y209387D01*
X36323Y205373D01*
X36323Y201027D01*
X34660Y197013D01*
X31587Y193940D01*
X27573Y192277D01*
X23227Y192277D01*
X19213Y193940D01*
X17302Y195851D01*
X17244Y195893D01*
X17192Y195942D01*
X17145Y195964D01*
X17103Y195994D01*
X17034Y196015D01*
X16969Y196046D01*
X16917Y196051D01*
X16867Y196067D01*
X16796Y196065D01*
X16725Y196073D01*
X16674Y196062D01*
X16622Y196060D01*
X16554Y196036D01*
X16484Y196020D01*
X16439Y195994D01*
X16391Y195976D01*
X16335Y195931D01*
X16273Y195894D01*
X16239Y195855D01*
X16199Y195822D01*
X16160Y195762D01*
X16113Y195707D01*
X16094Y195659D01*
X16066Y195615D01*
X16048Y195546D01*
X16021Y195479D01*
X16013Y195408D01*
X16005Y195377D01*
X16007Y195353D01*
X16003Y195312D01*
X16003Y187124D01*
X16014Y187054D01*
X16016Y186982D01*
X16034Y186933D01*
X16042Y186882D01*
X16076Y186818D01*
X16101Y186751D01*
X16133Y186710D01*
X16158Y186664D01*
X16209Y186615D01*
X16254Y186559D01*
X16298Y186531D01*
X16336Y186495D01*
X16401Y186465D01*
X16461Y186426D01*
X16512Y186413D01*
X16559Y186391D01*
X16630Y186383D01*
X16700Y186366D01*
X16752Y186370D01*
X16803Y186364D01*
X16874Y186379D01*
X16945Y186385D01*
X16993Y186405D01*
X17044Y186416D01*
X17105Y186453D01*
X17171Y186481D01*
X17227Y186526D01*
X17255Y186543D01*
X17270Y186560D01*
X17302Y186586D01*
X17622Y186906D01*
X19143Y188011D01*
X20817Y188864D01*
X22604Y189445D01*
X23877Y189646D01*
X23877Y178562D01*
X23880Y178542D01*
X23878Y178523D01*
X23900Y178421D01*
X23917Y178319D01*
X23926Y178302D01*
X23930Y178282D01*
X23983Y178193D01*
X24032Y178102D01*
X24046Y178088D01*
X24056Y178071D01*
X24135Y178004D01*
X24210Y177933D01*
X24228Y177924D01*
X24243Y177911D01*
X24339Y177873D01*
X24433Y177829D01*
X24453Y177827D01*
X24471Y177819D01*
X24638Y177801D01*
X25401Y177801D01*
X25401Y177799D01*
X24638Y177799D01*
X24618Y177796D01*
X24599Y177798D01*
X24497Y177776D01*
X24395Y177759D01*
X24378Y177750D01*
X24358Y177746D01*
X24269Y177693D01*
X24178Y177644D01*
X24164Y177630D01*
X24147Y177620D01*
X24080Y177541D01*
X24009Y177466D01*
X24000Y177448D01*
X23987Y177433D01*
X23948Y177337D01*
X23905Y177243D01*
X23903Y177223D01*
X23895Y177205D01*
X23877Y177038D01*
X23877Y165954D01*
X22604Y166155D01*
X20817Y166736D01*
X19143Y167589D01*
X17622Y168694D01*
X17302Y169014D01*
X17244Y169056D01*
X17192Y169105D01*
X17145Y169127D01*
X17103Y169157D01*
X17034Y169178D01*
X16969Y169209D01*
X16917Y169214D01*
X16867Y169230D01*
X16796Y169228D01*
X16725Y169236D01*
X16674Y169225D01*
X16622Y169223D01*
X16554Y169199D01*
X16484Y169184D01*
X16439Y169157D01*
X16391Y169139D01*
X16335Y169094D01*
X16273Y169057D01*
X16239Y169018D01*
X16199Y168985D01*
X16160Y168925D01*
X16113Y168870D01*
X16094Y168822D01*
X16066Y168778D01*
X16048Y168709D01*
X16021Y168642D01*
X16013Y168571D01*
X16005Y168540D01*
X16007Y168516D01*
X16003Y168476D01*
X16003Y161724D01*
X16014Y161654D01*
X16016Y161582D01*
X16034Y161533D01*
X16042Y161482D01*
X16076Y161418D01*
X16101Y161351D01*
X16133Y161310D01*
X16158Y161264D01*
X16209Y161215D01*
X16254Y161159D01*
X16298Y161131D01*
X16336Y161095D01*
X16401Y161065D01*
X16461Y161026D01*
X16512Y161013D01*
X16559Y160991D01*
X16630Y160983D01*
X16700Y160966D01*
X16752Y160970D01*
X16803Y160964D01*
X16874Y160979D01*
X16945Y160985D01*
X16993Y161005D01*
X17044Y161016D01*
X17105Y161053D01*
X17171Y161081D01*
X17227Y161126D01*
X17255Y161143D01*
X17270Y161160D01*
X17302Y161186D01*
X17622Y161506D01*
X19143Y162611D01*
X20817Y163464D01*
X22604Y164045D01*
X23877Y164246D01*
X23877Y153162D01*
X23880Y153142D01*
X23878Y153123D01*
X23900Y153021D01*
X23917Y152919D01*
X23926Y152902D01*
X23930Y152882D01*
X23983Y152793D01*
X24032Y152702D01*
X24046Y152688D01*
X24056Y152671D01*
X24135Y152604D01*
X24210Y152533D01*
X24228Y152524D01*
X24243Y152511D01*
X24339Y152473D01*
X24433Y152429D01*
X24453Y152427D01*
X24471Y152419D01*
X24638Y152401D01*
X25401Y152401D01*
X25401Y152399D01*
X24638Y152399D01*
X24618Y152396D01*
X24599Y152398D01*
X24497Y152376D01*
X24395Y152359D01*
X24378Y152350D01*
X24358Y152346D01*
X24269Y152293D01*
X24178Y152244D01*
X24164Y152230D01*
X24147Y152220D01*
X24080Y152141D01*
X24009Y152066D01*
X24000Y152048D01*
X23987Y152033D01*
X23948Y151937D01*
X23905Y151843D01*
X23903Y151823D01*
X23895Y151805D01*
X23877Y151638D01*
X23877Y140949D01*
X23892Y140859D01*
X23899Y140768D01*
X23911Y140738D01*
X23917Y140706D01*
X23959Y140625D01*
X23995Y140541D01*
X24021Y140509D01*
X24032Y140489D01*
X24055Y140466D01*
X24100Y140411D01*
X27687Y136824D01*
X27687Y87584D01*
X27706Y87469D01*
X27723Y87353D01*
X27725Y87348D01*
X27726Y87341D01*
X27781Y87239D01*
X27834Y87134D01*
X27839Y87130D01*
X27842Y87124D01*
X27926Y87044D01*
X28010Y86962D01*
X28016Y86958D01*
X28020Y86955D01*
X28037Y86947D01*
X28157Y86881D01*
X31587Y85460D01*
X34660Y82387D01*
X36323Y78373D01*
X36323Y74027D01*
X34660Y70013D01*
X31587Y66940D01*
X27573Y65277D01*
X23227Y65277D01*
X19213Y66940D01*
X16140Y70013D01*
X14477Y74027D01*
X14477Y78373D01*
X16140Y82387D01*
X19213Y85460D01*
X22643Y86881D01*
X22743Y86942D01*
X22843Y87002D01*
X22847Y87007D01*
X22852Y87010D01*
X22927Y87100D01*
X23003Y87189D01*
X23005Y87195D01*
X23009Y87200D01*
X23051Y87308D01*
X23095Y87417D01*
X23096Y87425D01*
X23097Y87430D01*
X23098Y87448D01*
X23113Y87584D01*
X23113Y134614D01*
X23099Y134704D01*
X23091Y134795D01*
X23079Y134825D01*
X23074Y134857D01*
X23031Y134937D01*
X22995Y135021D01*
X22969Y135053D01*
X22958Y135074D01*
X22935Y135096D01*
X22890Y135152D01*
X12992Y145051D01*
X11460Y146582D01*
X11402Y146624D01*
X11350Y146673D01*
X11303Y146695D01*
X11261Y146726D01*
X11192Y146747D01*
X11127Y146777D01*
X11075Y146783D01*
X11025Y146798D01*
X10954Y146796D01*
X10883Y146804D01*
X10832Y146793D01*
X10780Y146792D01*
X10712Y146767D01*
X10642Y146752D01*
X10597Y146725D01*
X10549Y146707D01*
X10493Y146662D01*
X10431Y146626D01*
X10397Y146586D01*
X10357Y146554D01*
X10318Y146493D01*
X10271Y146439D01*
X10252Y146390D01*
X10224Y146347D01*
X10206Y146277D01*
X10179Y146211D01*
X10171Y146139D01*
X10163Y146108D01*
X10165Y146085D01*
X10161Y146044D01*
X10161Y10922D01*
X10164Y10902D01*
X10162Y10883D01*
X10184Y10781D01*
X10200Y10679D01*
X10210Y10662D01*
X10214Y10642D01*
X10267Y10553D01*
X10316Y10462D01*
X10330Y10448D01*
X10340Y10431D01*
X10419Y10364D01*
X10494Y10292D01*
X10512Y10284D01*
X10527Y10271D01*
X10623Y10232D01*
X10717Y10189D01*
X10737Y10187D01*
X10755Y10179D01*
X10922Y10161D01*
X387344Y10161D01*
X387415Y10172D01*
G37*
%LPC*%
G36*
X162927Y14477D02*
X162927Y14477D01*
X158913Y16140D01*
X155840Y19213D01*
X154177Y23227D01*
X154177Y27573D01*
X155840Y31587D01*
X158913Y34660D01*
X162343Y36081D01*
X162443Y36142D01*
X162543Y36202D01*
X162547Y36207D01*
X162552Y36210D01*
X162627Y36300D01*
X162703Y36389D01*
X162705Y36395D01*
X162709Y36400D01*
X162751Y36508D01*
X162795Y36617D01*
X162796Y36625D01*
X162797Y36630D01*
X162798Y36648D01*
X162813Y36784D01*
X162813Y39416D01*
X162794Y39531D01*
X162777Y39647D01*
X162775Y39652D01*
X162774Y39659D01*
X162719Y39761D01*
X162666Y39866D01*
X162661Y39870D01*
X162658Y39876D01*
X162574Y39956D01*
X162490Y40038D01*
X162484Y40042D01*
X162480Y40045D01*
X162463Y40053D01*
X162343Y40119D01*
X158913Y41540D01*
X155840Y44613D01*
X154177Y48627D01*
X154177Y52973D01*
X155598Y56403D01*
X155625Y56517D01*
X155653Y56630D01*
X155653Y56637D01*
X155654Y56643D01*
X155643Y56759D01*
X155634Y56876D01*
X155632Y56881D01*
X155631Y56888D01*
X155583Y56995D01*
X155538Y57102D01*
X155533Y57108D01*
X155531Y57112D01*
X155519Y57126D01*
X155433Y57233D01*
X138976Y73690D01*
X138902Y73743D01*
X138832Y73803D01*
X138802Y73815D01*
X138776Y73834D01*
X138689Y73861D01*
X138604Y73895D01*
X138563Y73899D01*
X138541Y73906D01*
X138509Y73905D01*
X138437Y73913D01*
X100284Y73913D01*
X100169Y73894D01*
X100053Y73877D01*
X100048Y73875D01*
X100041Y73874D01*
X99939Y73819D01*
X99834Y73766D01*
X99830Y73761D01*
X99824Y73758D01*
X99744Y73674D01*
X99662Y73590D01*
X99658Y73584D01*
X99655Y73580D01*
X99647Y73563D01*
X99581Y73443D01*
X98160Y70013D01*
X95087Y66940D01*
X91073Y65277D01*
X86727Y65277D01*
X82713Y66940D01*
X79640Y70013D01*
X77977Y74027D01*
X77977Y78373D01*
X79640Y82387D01*
X82713Y85460D01*
X86727Y87123D01*
X91073Y87123D01*
X95087Y85460D01*
X98160Y82387D01*
X99581Y78957D01*
X99642Y78857D01*
X99702Y78757D01*
X99707Y78753D01*
X99710Y78748D01*
X99800Y78673D01*
X99889Y78597D01*
X99895Y78595D01*
X99900Y78591D01*
X100008Y78549D01*
X100117Y78505D01*
X100125Y78504D01*
X100130Y78503D01*
X100148Y78502D01*
X100284Y78487D01*
X140647Y78487D01*
X158667Y60467D01*
X158761Y60399D01*
X158856Y60329D01*
X158862Y60327D01*
X158867Y60323D01*
X158978Y60289D01*
X159090Y60253D01*
X159096Y60253D01*
X159102Y60251D01*
X159219Y60254D01*
X159336Y60255D01*
X159343Y60257D01*
X159348Y60257D01*
X159365Y60264D01*
X159497Y60302D01*
X162927Y61723D01*
X167273Y61723D01*
X171287Y60060D01*
X174360Y56987D01*
X176023Y52973D01*
X176023Y48627D01*
X174360Y44613D01*
X171287Y41540D01*
X167857Y40119D01*
X167757Y40058D01*
X167657Y39998D01*
X167653Y39993D01*
X167648Y39990D01*
X167573Y39900D01*
X167497Y39811D01*
X167495Y39805D01*
X167491Y39800D01*
X167449Y39692D01*
X167405Y39583D01*
X167404Y39575D01*
X167403Y39570D01*
X167402Y39552D01*
X167387Y39416D01*
X167387Y36784D01*
X167389Y36773D01*
X167388Y36765D01*
X167396Y36726D01*
X167406Y36669D01*
X167423Y36553D01*
X167425Y36548D01*
X167426Y36541D01*
X167481Y36439D01*
X167534Y36334D01*
X167539Y36330D01*
X167542Y36324D01*
X167626Y36244D01*
X167710Y36162D01*
X167716Y36158D01*
X167720Y36155D01*
X167737Y36147D01*
X167857Y36081D01*
X171287Y34660D01*
X174360Y31587D01*
X176023Y27573D01*
X176023Y23227D01*
X174360Y19213D01*
X171287Y16140D01*
X167273Y14477D01*
X162927Y14477D01*
G37*
%LPD*%
%LPC*%
G36*
X296579Y398271D02*
X296579Y398271D01*
X293591Y399509D01*
X291305Y401795D01*
X290067Y404783D01*
X290067Y408017D01*
X291305Y411005D01*
X293595Y413295D01*
X293607Y413311D01*
X293622Y413323D01*
X293678Y413410D01*
X293738Y413494D01*
X293744Y413513D01*
X293755Y413530D01*
X293780Y413631D01*
X293811Y413729D01*
X293810Y413749D01*
X293815Y413769D01*
X293807Y413872D01*
X293804Y413975D01*
X293798Y413994D01*
X293796Y414014D01*
X293756Y414109D01*
X293720Y414206D01*
X293707Y414222D01*
X293700Y414240D01*
X293595Y414371D01*
X247733Y460233D01*
X247638Y460301D01*
X247544Y460371D01*
X247538Y460373D01*
X247533Y460377D01*
X247422Y460411D01*
X247310Y460447D01*
X247304Y460447D01*
X247298Y460449D01*
X247181Y460446D01*
X247064Y460445D01*
X247057Y460443D01*
X247052Y460443D01*
X247035Y460436D01*
X246903Y460398D01*
X243473Y458977D01*
X239127Y458977D01*
X235113Y460640D01*
X232040Y463713D01*
X230377Y467727D01*
X230377Y472073D01*
X232040Y476087D01*
X235113Y479160D01*
X239127Y480823D01*
X243473Y480823D01*
X247487Y479160D01*
X250560Y476087D01*
X252223Y472073D01*
X252223Y467727D01*
X250802Y464297D01*
X250775Y464183D01*
X250746Y464070D01*
X250747Y464063D01*
X250746Y464057D01*
X250757Y463941D01*
X250766Y463824D01*
X250768Y463819D01*
X250769Y463812D01*
X250816Y463705D01*
X250862Y463598D01*
X250867Y463592D01*
X250869Y463588D01*
X250881Y463574D01*
X250967Y463467D01*
X299682Y414752D01*
X299756Y414699D01*
X299826Y414639D01*
X299856Y414627D01*
X299882Y414608D01*
X299969Y414581D01*
X300054Y414547D01*
X300095Y414543D01*
X300117Y414536D01*
X300149Y414537D01*
X300221Y414529D01*
X313021Y414529D01*
X316009Y413291D01*
X318295Y411005D01*
X319533Y408017D01*
X319533Y404783D01*
X318295Y401795D01*
X316009Y399509D01*
X313021Y398271D01*
X296579Y398271D01*
G37*
%LPD*%
%LPC*%
G36*
X296579Y322071D02*
X296579Y322071D01*
X293591Y323309D01*
X291305Y325595D01*
X290067Y328583D01*
X290067Y331817D01*
X291305Y334805D01*
X293591Y337091D01*
X296579Y338329D01*
X313021Y338329D01*
X316009Y337091D01*
X318295Y334805D01*
X319533Y331817D01*
X319533Y328583D01*
X318295Y325595D01*
X316009Y323309D01*
X313021Y322071D01*
X296579Y322071D01*
G37*
%LPD*%
%LPC*%
G36*
X296579Y144271D02*
X296579Y144271D01*
X293591Y145509D01*
X291305Y147795D01*
X290067Y150783D01*
X290067Y154017D01*
X291305Y157005D01*
X293591Y159291D01*
X296579Y160529D01*
X313021Y160529D01*
X316009Y159291D01*
X318295Y157005D01*
X319533Y154017D01*
X319533Y150783D01*
X318295Y147795D01*
X316009Y145509D01*
X313021Y144271D01*
X296579Y144271D01*
G37*
%LPD*%
%LPC*%
G36*
X296579Y296671D02*
X296579Y296671D01*
X293591Y297909D01*
X291305Y300195D01*
X290067Y303183D01*
X290067Y306417D01*
X291305Y309405D01*
X293591Y311691D01*
X296579Y312929D01*
X313021Y312929D01*
X316009Y311691D01*
X318295Y309405D01*
X319533Y306417D01*
X319533Y303183D01*
X318295Y300195D01*
X316009Y297909D01*
X313021Y296671D01*
X296579Y296671D01*
G37*
%LPD*%
%LPC*%
G36*
X296579Y271271D02*
X296579Y271271D01*
X293591Y272509D01*
X291305Y274795D01*
X290067Y277783D01*
X290067Y281017D01*
X291305Y284005D01*
X293591Y286291D01*
X296579Y287529D01*
X313021Y287529D01*
X316009Y286291D01*
X318295Y284005D01*
X319533Y281017D01*
X319533Y277783D01*
X318295Y274795D01*
X316009Y272509D01*
X313021Y271271D01*
X296579Y271271D01*
G37*
%LPD*%
%LPC*%
G36*
X220379Y93471D02*
X220379Y93471D01*
X217391Y94709D01*
X215105Y96995D01*
X213867Y99983D01*
X213867Y103217D01*
X215105Y106205D01*
X217391Y108491D01*
X220379Y109729D01*
X236821Y109729D01*
X239809Y108491D01*
X242095Y106205D01*
X243333Y103217D01*
X243333Y99983D01*
X242095Y96995D01*
X239809Y94709D01*
X236821Y93471D01*
X220379Y93471D01*
G37*
%LPD*%
%LPC*%
G36*
X296579Y347471D02*
X296579Y347471D01*
X293591Y348709D01*
X291305Y350995D01*
X290067Y353983D01*
X290067Y357217D01*
X291305Y360205D01*
X293591Y362491D01*
X296579Y363729D01*
X313021Y363729D01*
X316009Y362491D01*
X318295Y360205D01*
X319533Y357217D01*
X319533Y353983D01*
X318295Y350995D01*
X316009Y348709D01*
X313021Y347471D01*
X296579Y347471D01*
G37*
%LPD*%
%LPC*%
G36*
X296579Y245871D02*
X296579Y245871D01*
X293591Y247109D01*
X291305Y249395D01*
X290067Y252383D01*
X290067Y255617D01*
X291305Y258605D01*
X293591Y260891D01*
X296579Y262129D01*
X313021Y262129D01*
X316009Y260891D01*
X318295Y258605D01*
X319533Y255617D01*
X319533Y252383D01*
X318295Y249395D01*
X316009Y247109D01*
X313021Y245871D01*
X296579Y245871D01*
G37*
%LPD*%
%LPC*%
G36*
X296579Y220471D02*
X296579Y220471D01*
X293591Y221709D01*
X291305Y223995D01*
X290067Y226983D01*
X290067Y230217D01*
X291305Y233205D01*
X293591Y235491D01*
X296579Y236729D01*
X313021Y236729D01*
X316009Y235491D01*
X318295Y233205D01*
X319533Y230217D01*
X319533Y226983D01*
X318295Y223995D01*
X316009Y221709D01*
X313021Y220471D01*
X296579Y220471D01*
G37*
%LPD*%
%LPC*%
G36*
X296579Y195071D02*
X296579Y195071D01*
X293591Y196309D01*
X291305Y198595D01*
X290067Y201583D01*
X290067Y204817D01*
X291305Y207805D01*
X293591Y210091D01*
X296579Y211329D01*
X313021Y211329D01*
X316009Y210091D01*
X318295Y207805D01*
X319533Y204817D01*
X319533Y201583D01*
X318295Y198595D01*
X316009Y196309D01*
X313021Y195071D01*
X296579Y195071D01*
G37*
%LPD*%
%LPC*%
G36*
X315327Y14477D02*
X315327Y14477D01*
X311313Y16140D01*
X308240Y19213D01*
X306577Y23227D01*
X306577Y27573D01*
X308240Y31587D01*
X311313Y34660D01*
X315327Y36323D01*
X319673Y36323D01*
X323687Y34660D01*
X326760Y31587D01*
X328423Y27573D01*
X328423Y23227D01*
X326760Y19213D01*
X323687Y16140D01*
X319673Y14477D01*
X315327Y14477D01*
G37*
%LPD*%
%LPC*%
G36*
X86727Y14477D02*
X86727Y14477D01*
X82713Y16140D01*
X79640Y19213D01*
X77977Y23227D01*
X77977Y27573D01*
X79640Y31587D01*
X82713Y34660D01*
X86727Y36323D01*
X91073Y36323D01*
X95087Y34660D01*
X98160Y31587D01*
X99823Y27573D01*
X99823Y23227D01*
X98160Y19213D01*
X95087Y16140D01*
X91073Y14477D01*
X86727Y14477D01*
G37*
%LPD*%
%LPC*%
G36*
X226427Y39877D02*
X226427Y39877D01*
X222413Y41540D01*
X219340Y44613D01*
X217677Y48627D01*
X217677Y52973D01*
X219340Y56987D01*
X222413Y60060D01*
X226427Y61723D01*
X230773Y61723D01*
X234787Y60060D01*
X237860Y56987D01*
X239523Y52973D01*
X239523Y48627D01*
X237860Y44613D01*
X234787Y41540D01*
X230773Y39877D01*
X226427Y39877D01*
G37*
%LPD*%
%LPC*%
G36*
X188327Y39877D02*
X188327Y39877D01*
X184313Y41540D01*
X181240Y44613D01*
X179577Y48627D01*
X179577Y52973D01*
X181240Y56987D01*
X184313Y60060D01*
X188327Y61723D01*
X192673Y61723D01*
X196687Y60060D01*
X199760Y56987D01*
X201423Y52973D01*
X201423Y48627D01*
X199760Y44613D01*
X196687Y41540D01*
X192673Y39877D01*
X188327Y39877D01*
G37*
%LPD*%
%LPC*%
G36*
X137527Y39877D02*
X137527Y39877D01*
X133513Y41540D01*
X130440Y44613D01*
X128777Y48627D01*
X128777Y52973D01*
X130440Y56987D01*
X133513Y60060D01*
X137527Y61723D01*
X141873Y61723D01*
X145887Y60060D01*
X148960Y56987D01*
X150623Y52973D01*
X150623Y48627D01*
X148960Y44613D01*
X145887Y41540D01*
X141873Y39877D01*
X137527Y39877D01*
G37*
%LPD*%
%LPC*%
G36*
X86727Y39877D02*
X86727Y39877D01*
X82713Y41540D01*
X79640Y44613D01*
X77977Y48627D01*
X77977Y52973D01*
X79640Y56987D01*
X82713Y60060D01*
X86727Y61723D01*
X91073Y61723D01*
X95087Y60060D01*
X98160Y56987D01*
X99823Y52973D01*
X99823Y48627D01*
X98160Y44613D01*
X95087Y41540D01*
X91073Y39877D01*
X86727Y39877D01*
G37*
%LPD*%
%LPC*%
G36*
X23227Y39877D02*
X23227Y39877D01*
X19213Y41540D01*
X16140Y44613D01*
X14477Y48627D01*
X14477Y52973D01*
X16140Y56987D01*
X19213Y60060D01*
X23227Y61723D01*
X27573Y61723D01*
X31587Y60060D01*
X34660Y56987D01*
X36323Y52973D01*
X36323Y48627D01*
X34660Y44613D01*
X31587Y41540D01*
X27573Y39877D01*
X23227Y39877D01*
G37*
%LPD*%
%LPC*%
G36*
X137527Y14477D02*
X137527Y14477D01*
X133513Y16140D01*
X130440Y19213D01*
X128777Y23227D01*
X128777Y27573D01*
X130440Y31587D01*
X133513Y34660D01*
X137527Y36323D01*
X141873Y36323D01*
X145887Y34660D01*
X148960Y31587D01*
X150623Y27573D01*
X150623Y23227D01*
X148960Y19213D01*
X145887Y16140D01*
X141873Y14477D01*
X137527Y14477D01*
G37*
%LPD*%
%LPC*%
G36*
X340727Y14477D02*
X340727Y14477D01*
X336713Y16140D01*
X333640Y19213D01*
X331977Y23227D01*
X331977Y27573D01*
X333640Y31587D01*
X336713Y34660D01*
X340727Y36323D01*
X345073Y36323D01*
X349087Y34660D01*
X352160Y31587D01*
X353823Y27573D01*
X353823Y23227D01*
X352160Y19213D01*
X349087Y16140D01*
X345073Y14477D01*
X340727Y14477D01*
G37*
%LPD*%
%LPC*%
G36*
X467727Y306577D02*
X467727Y306577D01*
X463713Y308240D01*
X460640Y311313D01*
X458977Y315327D01*
X458977Y319673D01*
X460640Y323687D01*
X463713Y326760D01*
X467727Y328423D01*
X472073Y328423D01*
X476087Y326760D01*
X479160Y323687D01*
X480823Y319673D01*
X480823Y315327D01*
X479160Y311313D01*
X476087Y308240D01*
X472073Y306577D01*
X467727Y306577D01*
G37*
%LPD*%
%LPC*%
G36*
X188327Y14477D02*
X188327Y14477D01*
X184313Y16140D01*
X181240Y19213D01*
X179577Y23227D01*
X179577Y27573D01*
X181240Y31587D01*
X184313Y34660D01*
X188327Y36323D01*
X192673Y36323D01*
X196687Y34660D01*
X199760Y31587D01*
X201423Y27573D01*
X201423Y23227D01*
X199760Y19213D01*
X196687Y16140D01*
X192673Y14477D01*
X188327Y14477D01*
G37*
%LPD*%
%LPC*%
G36*
X467727Y281177D02*
X467727Y281177D01*
X463713Y282840D01*
X460640Y285913D01*
X458977Y289927D01*
X458977Y294273D01*
X460640Y298287D01*
X463713Y301360D01*
X467727Y303023D01*
X472073Y303023D01*
X476087Y301360D01*
X479160Y298287D01*
X480823Y294273D01*
X480823Y289927D01*
X479160Y285913D01*
X476087Y282840D01*
X472073Y281177D01*
X467727Y281177D01*
G37*
%LPD*%
%LPC*%
G36*
X467727Y39877D02*
X467727Y39877D01*
X463713Y41540D01*
X460640Y44613D01*
X458977Y48627D01*
X458977Y52973D01*
X460640Y56987D01*
X463713Y60060D01*
X467727Y61723D01*
X472073Y61723D01*
X476087Y60060D01*
X479160Y56987D01*
X480823Y52973D01*
X480823Y48627D01*
X479160Y44613D01*
X476087Y41540D01*
X472073Y39877D01*
X467727Y39877D01*
G37*
%LPD*%
%LPC*%
G36*
X467727Y331977D02*
X467727Y331977D01*
X463713Y333640D01*
X460640Y336713D01*
X458977Y340727D01*
X458977Y345073D01*
X460640Y349087D01*
X463713Y352160D01*
X467727Y353823D01*
X472073Y353823D01*
X476087Y352160D01*
X479160Y349087D01*
X480823Y345073D01*
X480823Y340727D01*
X479160Y336713D01*
X476087Y333640D01*
X472073Y331977D01*
X467727Y331977D01*
G37*
%LPD*%
%LPC*%
G36*
X315327Y458977D02*
X315327Y458977D01*
X311313Y460640D01*
X308240Y463713D01*
X306577Y467727D01*
X306577Y472073D01*
X308240Y476087D01*
X311313Y479160D01*
X315327Y480823D01*
X319673Y480823D01*
X323687Y479160D01*
X326760Y476087D01*
X328423Y472073D01*
X328423Y467727D01*
X326760Y463713D01*
X323687Y460640D01*
X319673Y458977D01*
X315327Y458977D01*
G37*
%LPD*%
%LPC*%
G36*
X289927Y458977D02*
X289927Y458977D01*
X285913Y460640D01*
X282840Y463713D01*
X281177Y467727D01*
X281177Y472073D01*
X282840Y476087D01*
X285913Y479160D01*
X289927Y480823D01*
X294273Y480823D01*
X298287Y479160D01*
X301360Y476087D01*
X303023Y472073D01*
X303023Y467727D01*
X301360Y463713D01*
X298287Y460640D01*
X294273Y458977D01*
X289927Y458977D01*
G37*
%LPD*%
%LPC*%
G36*
X467727Y255777D02*
X467727Y255777D01*
X463713Y257440D01*
X460640Y260513D01*
X458977Y264527D01*
X458977Y268873D01*
X460640Y272887D01*
X463713Y275960D01*
X467727Y277623D01*
X472073Y277623D01*
X476087Y275960D01*
X479160Y272887D01*
X480823Y268873D01*
X480823Y264527D01*
X479160Y260513D01*
X476087Y257440D01*
X472073Y255777D01*
X467727Y255777D01*
G37*
%LPD*%
%LPC*%
G36*
X467727Y357377D02*
X467727Y357377D01*
X463713Y359040D01*
X460640Y362113D01*
X458977Y366127D01*
X458977Y370473D01*
X460640Y374487D01*
X463713Y377560D01*
X467727Y379223D01*
X472073Y379223D01*
X476087Y377560D01*
X479160Y374487D01*
X480823Y370473D01*
X480823Y366127D01*
X479160Y362113D01*
X476087Y359040D01*
X472073Y357377D01*
X467727Y357377D01*
G37*
%LPD*%
%LPC*%
G36*
X149033Y461771D02*
X149033Y461771D01*
X144271Y466533D01*
X144271Y473267D01*
X149033Y478029D01*
X155767Y478029D01*
X160529Y473267D01*
X160529Y466533D01*
X155767Y461771D01*
X149033Y461771D01*
G37*
%LPD*%
%LPC*%
G36*
X174433Y461771D02*
X174433Y461771D01*
X169671Y466533D01*
X169671Y473267D01*
X174433Y478029D01*
X181167Y478029D01*
X185929Y473267D01*
X185929Y466533D01*
X181167Y461771D01*
X174433Y461771D01*
G37*
%LPD*%
%LPC*%
G36*
X415733Y398271D02*
X415733Y398271D01*
X410971Y403033D01*
X410971Y409767D01*
X415733Y414529D01*
X422467Y414529D01*
X427229Y409767D01*
X427229Y403033D01*
X422467Y398271D01*
X415733Y398271D01*
G37*
%LPD*%
%LPC*%
G36*
X441133Y398271D02*
X441133Y398271D01*
X436371Y403033D01*
X436371Y409767D01*
X441133Y414529D01*
X447867Y414529D01*
X452629Y409767D01*
X452629Y403033D01*
X447867Y398271D01*
X441133Y398271D01*
G37*
%LPD*%
%LPC*%
G36*
X377633Y461771D02*
X377633Y461771D01*
X372871Y466533D01*
X372871Y473267D01*
X377633Y478029D01*
X384367Y478029D01*
X389129Y473267D01*
X389129Y466533D01*
X384367Y461771D01*
X377633Y461771D01*
G37*
%LPD*%
%LPC*%
G36*
X352233Y461771D02*
X352233Y461771D01*
X347471Y466533D01*
X347471Y473267D01*
X352233Y478029D01*
X358967Y478029D01*
X363729Y473267D01*
X363729Y466533D01*
X358967Y461771D01*
X352233Y461771D01*
G37*
%LPD*%
%LPC*%
G36*
X136333Y322071D02*
X136333Y322071D01*
X131571Y326833D01*
X131571Y333567D01*
X136333Y338329D01*
X143067Y338329D01*
X147829Y333567D01*
X147829Y326833D01*
X143067Y322071D01*
X136333Y322071D01*
G37*
%LPD*%
%LPC*%
G36*
X174433Y398271D02*
X174433Y398271D01*
X169671Y403033D01*
X169671Y409767D01*
X174433Y414529D01*
X181167Y414529D01*
X185929Y409767D01*
X185929Y403033D01*
X181167Y398271D01*
X174433Y398271D01*
G37*
%LPD*%
%LPC*%
G36*
X328583Y195071D02*
X328583Y195071D01*
X325595Y196309D01*
X323309Y198595D01*
X322071Y201583D01*
X322071Y204817D01*
X323309Y207805D01*
X325595Y210091D01*
X328583Y211329D01*
X331817Y211329D01*
X334805Y210091D01*
X337091Y207805D01*
X338329Y204817D01*
X338329Y201583D01*
X337091Y198595D01*
X334805Y196309D01*
X331817Y195071D01*
X328583Y195071D01*
G37*
%LPD*%
%LPC*%
G36*
X366683Y385571D02*
X366683Y385571D01*
X363695Y386809D01*
X361409Y389095D01*
X360171Y392083D01*
X360171Y395317D01*
X361409Y398305D01*
X363695Y400591D01*
X366683Y401829D01*
X369917Y401829D01*
X372905Y400591D01*
X375191Y398305D01*
X376429Y395317D01*
X376429Y392083D01*
X375191Y389095D01*
X372905Y386809D01*
X369917Y385571D01*
X366683Y385571D01*
G37*
%LPD*%
%LPC*%
G36*
X306323Y179323D02*
X306323Y179323D01*
X306323Y186945D01*
X312305Y186945D01*
X314071Y186593D01*
X315736Y185904D01*
X317234Y184903D01*
X318507Y183630D01*
X319508Y182132D01*
X320197Y180467D01*
X320425Y179323D01*
X306323Y179323D01*
G37*
%LPD*%
%LPC*%
G36*
X230123Y230123D02*
X230123Y230123D01*
X230123Y237745D01*
X236105Y237745D01*
X237871Y237393D01*
X239536Y236704D01*
X241034Y235703D01*
X242307Y234430D01*
X243308Y232932D01*
X243997Y231267D01*
X244225Y230123D01*
X230123Y230123D01*
G37*
%LPD*%
%LPC*%
G36*
X289175Y179323D02*
X289175Y179323D01*
X289403Y180467D01*
X290092Y182132D01*
X291093Y183630D01*
X292366Y184903D01*
X293864Y185904D01*
X295529Y186593D01*
X297295Y186945D01*
X303277Y186945D01*
X303277Y179323D01*
X289175Y179323D01*
G37*
%LPD*%
%LPC*%
G36*
X230123Y219455D02*
X230123Y219455D01*
X230123Y227077D01*
X244225Y227077D01*
X243997Y225933D01*
X243308Y224268D01*
X242307Y222770D01*
X241034Y221497D01*
X239536Y220496D01*
X237871Y219807D01*
X236105Y219455D01*
X230123Y219455D01*
G37*
%LPD*%
%LPC*%
G36*
X306323Y371855D02*
X306323Y371855D01*
X306323Y379477D01*
X320425Y379477D01*
X320197Y378333D01*
X319508Y376668D01*
X318507Y375170D01*
X317234Y373897D01*
X315736Y372896D01*
X314071Y372207D01*
X312305Y371855D01*
X306323Y371855D01*
G37*
%LPD*%
%LPC*%
G36*
X306323Y168655D02*
X306323Y168655D01*
X306323Y176277D01*
X320425Y176277D01*
X320197Y175133D01*
X319508Y173468D01*
X318507Y171970D01*
X317234Y170697D01*
X315736Y169696D01*
X314071Y169007D01*
X312305Y168655D01*
X306323Y168655D01*
G37*
%LPD*%
%LPC*%
G36*
X297295Y371855D02*
X297295Y371855D01*
X295529Y372207D01*
X293864Y372896D01*
X292366Y373897D01*
X291093Y375170D01*
X290092Y376668D01*
X289403Y378333D01*
X289175Y379477D01*
X303277Y379477D01*
X303277Y371855D01*
X297295Y371855D01*
G37*
%LPD*%
%LPC*%
G36*
X297295Y168655D02*
X297295Y168655D01*
X295529Y169007D01*
X293864Y169696D01*
X292366Y170697D01*
X291093Y171970D01*
X290092Y173468D01*
X289403Y175133D01*
X289175Y176277D01*
X303277Y176277D01*
X303277Y168655D01*
X297295Y168655D01*
G37*
%LPD*%
%LPC*%
G36*
X230123Y26923D02*
X230123Y26923D01*
X230123Y37246D01*
X231396Y37045D01*
X233183Y36464D01*
X234857Y35611D01*
X236378Y34506D01*
X237706Y33178D01*
X238811Y31657D01*
X239664Y29983D01*
X240245Y28196D01*
X240446Y26923D01*
X230123Y26923D01*
G37*
%LPD*%
%LPC*%
G36*
X471423Y26923D02*
X471423Y26923D01*
X471423Y37246D01*
X472696Y37045D01*
X474483Y36464D01*
X476157Y35611D01*
X477678Y34506D01*
X479006Y33178D01*
X480111Y31657D01*
X480964Y29983D01*
X481545Y28196D01*
X481746Y26923D01*
X471423Y26923D01*
G37*
%LPD*%
%LPC*%
G36*
X268223Y471423D02*
X268223Y471423D01*
X268223Y481746D01*
X269496Y481545D01*
X271283Y480964D01*
X272957Y480111D01*
X274478Y479006D01*
X275806Y477678D01*
X276911Y476157D01*
X277764Y474483D01*
X278345Y472696D01*
X278546Y471423D01*
X268223Y471423D01*
G37*
%LPD*%
%LPC*%
G36*
X293623Y26923D02*
X293623Y26923D01*
X293623Y37246D01*
X294896Y37045D01*
X296683Y36464D01*
X298357Y35611D01*
X299878Y34506D01*
X301206Y33178D01*
X302311Y31657D01*
X303164Y29983D01*
X303745Y28196D01*
X303946Y26923D01*
X293623Y26923D01*
G37*
%LPD*%
%LPC*%
G36*
X26923Y26923D02*
X26923Y26923D01*
X26923Y37246D01*
X28196Y37045D01*
X29983Y36464D01*
X31657Y35611D01*
X33178Y34506D01*
X34506Y33178D01*
X35611Y31657D01*
X36464Y29983D01*
X37045Y28196D01*
X37246Y26923D01*
X26923Y26923D01*
G37*
%LPD*%
%LPC*%
G36*
X26923Y471423D02*
X26923Y471423D01*
X26923Y481746D01*
X28196Y481545D01*
X29983Y480964D01*
X31657Y480111D01*
X33178Y479006D01*
X34506Y477678D01*
X35611Y476157D01*
X36464Y474483D01*
X37045Y472696D01*
X37246Y471423D01*
X26923Y471423D01*
G37*
%LPD*%
%LPC*%
G36*
X471423Y471423D02*
X471423Y471423D01*
X471423Y481746D01*
X472696Y481545D01*
X474483Y480964D01*
X476157Y480111D01*
X477678Y479006D01*
X479006Y477678D01*
X480111Y476157D01*
X480964Y474483D01*
X481545Y472696D01*
X481746Y471423D01*
X471423Y471423D01*
G37*
%LPD*%
%LPC*%
G36*
X90423Y103123D02*
X90423Y103123D01*
X90423Y113446D01*
X91696Y113245D01*
X93483Y112664D01*
X95157Y111811D01*
X96678Y110706D01*
X98006Y109378D01*
X99111Y107857D01*
X99964Y106183D01*
X100545Y104396D01*
X100746Y103123D01*
X90423Y103123D01*
G37*
%LPD*%
%LPC*%
G36*
X26923Y153923D02*
X26923Y153923D01*
X26923Y164246D01*
X28196Y164045D01*
X29983Y163464D01*
X31657Y162611D01*
X33178Y161506D01*
X34506Y160178D01*
X35611Y158657D01*
X36464Y156983D01*
X37045Y155196D01*
X37246Y153923D01*
X26923Y153923D01*
G37*
%LPD*%
%LPC*%
G36*
X26923Y179323D02*
X26923Y179323D01*
X26923Y189646D01*
X28196Y189445D01*
X29983Y188864D01*
X31657Y188011D01*
X33178Y186906D01*
X34506Y185578D01*
X35611Y184057D01*
X36464Y182383D01*
X37045Y180596D01*
X37246Y179323D01*
X26923Y179323D01*
G37*
%LPD*%
%LPC*%
G36*
X458054Y141223D02*
X458054Y141223D01*
X458255Y142496D01*
X458836Y144283D01*
X459689Y145957D01*
X460794Y147478D01*
X462122Y148806D01*
X463643Y149911D01*
X465317Y150764D01*
X467104Y151345D01*
X468377Y151546D01*
X468377Y141223D01*
X458054Y141223D01*
G37*
%LPD*%
%LPC*%
G36*
X216754Y26923D02*
X216754Y26923D01*
X216955Y28196D01*
X217536Y29983D01*
X218389Y31657D01*
X219494Y33178D01*
X220822Y34506D01*
X222343Y35611D01*
X224017Y36464D01*
X225804Y37045D01*
X227077Y37246D01*
X227077Y26923D01*
X216754Y26923D01*
G37*
%LPD*%
%LPC*%
G36*
X280254Y26923D02*
X280254Y26923D01*
X280455Y28196D01*
X281036Y29983D01*
X281889Y31657D01*
X282994Y33178D01*
X284322Y34506D01*
X285843Y35611D01*
X287517Y36464D01*
X289304Y37045D01*
X290577Y37246D01*
X290577Y26923D01*
X280254Y26923D01*
G37*
%LPD*%
%LPC*%
G36*
X268223Y468377D02*
X268223Y468377D01*
X278546Y468377D01*
X278345Y467104D01*
X277764Y465317D01*
X276911Y463643D01*
X275806Y462122D01*
X274478Y460794D01*
X272957Y459689D01*
X271283Y458836D01*
X269496Y458255D01*
X268223Y458054D01*
X268223Y468377D01*
G37*
%LPD*%
%LPC*%
G36*
X13554Y26923D02*
X13554Y26923D01*
X13755Y28196D01*
X14336Y29983D01*
X15189Y31657D01*
X16294Y33178D01*
X17622Y34506D01*
X19143Y35611D01*
X20817Y36464D01*
X22604Y37045D01*
X23877Y37246D01*
X23877Y26923D01*
X13554Y26923D01*
G37*
%LPD*%
%LPC*%
G36*
X458054Y26923D02*
X458054Y26923D01*
X458255Y28196D01*
X458836Y29983D01*
X459689Y31657D01*
X460794Y33178D01*
X462122Y34506D01*
X463643Y35611D01*
X465317Y36464D01*
X467104Y37045D01*
X468377Y37246D01*
X468377Y26923D01*
X458054Y26923D01*
G37*
%LPD*%
%LPC*%
G36*
X26923Y468377D02*
X26923Y468377D01*
X37246Y468377D01*
X37045Y467104D01*
X36464Y465317D01*
X35611Y463643D01*
X34506Y462122D01*
X33178Y460794D01*
X31657Y459689D01*
X29983Y458836D01*
X28196Y458255D01*
X26923Y458054D01*
X26923Y468377D01*
G37*
%LPD*%
%LPC*%
G36*
X13554Y471423D02*
X13554Y471423D01*
X13755Y472696D01*
X14336Y474483D01*
X15189Y476157D01*
X16294Y477678D01*
X17622Y479006D01*
X19143Y480111D01*
X20817Y480964D01*
X22604Y481545D01*
X23877Y481746D01*
X23877Y471423D01*
X13554Y471423D01*
G37*
%LPD*%
%LPC*%
G36*
X254854Y471423D02*
X254854Y471423D01*
X255055Y472696D01*
X255636Y474483D01*
X256489Y476157D01*
X257594Y477678D01*
X258922Y479006D01*
X260443Y480111D01*
X262117Y480964D01*
X263904Y481545D01*
X265177Y481746D01*
X265177Y471423D01*
X254854Y471423D01*
G37*
%LPD*%
%LPC*%
G36*
X458054Y471423D02*
X458054Y471423D01*
X458255Y472696D01*
X458836Y474483D01*
X459689Y476157D01*
X460794Y477678D01*
X462122Y479006D01*
X463643Y480111D01*
X465317Y480964D01*
X467104Y481545D01*
X468377Y481746D01*
X468377Y471423D01*
X458054Y471423D01*
G37*
%LPD*%
%LPC*%
G36*
X471423Y468377D02*
X471423Y468377D01*
X481746Y468377D01*
X481545Y467104D01*
X480964Y465317D01*
X480111Y463643D01*
X479006Y462122D01*
X477678Y460794D01*
X476157Y459689D01*
X474483Y458836D01*
X472696Y458255D01*
X471423Y458054D01*
X471423Y468377D01*
G37*
%LPD*%
%LPC*%
G36*
X26923Y23877D02*
X26923Y23877D01*
X37246Y23877D01*
X37045Y22604D01*
X36464Y20817D01*
X35611Y19143D01*
X34506Y17622D01*
X33178Y16294D01*
X31657Y15189D01*
X29983Y14336D01*
X28196Y13755D01*
X26923Y13554D01*
X26923Y23877D01*
G37*
%LPD*%
%LPC*%
G36*
X26923Y176277D02*
X26923Y176277D01*
X37246Y176277D01*
X37045Y175004D01*
X36464Y173217D01*
X35611Y171543D01*
X34506Y170022D01*
X33178Y168694D01*
X31657Y167589D01*
X29983Y166736D01*
X28196Y166155D01*
X26923Y165954D01*
X26923Y176277D01*
G37*
%LPD*%
%LPC*%
G36*
X471423Y23877D02*
X471423Y23877D01*
X481746Y23877D01*
X481545Y22604D01*
X480964Y20817D01*
X480111Y19143D01*
X479006Y17622D01*
X477678Y16294D01*
X476157Y15189D01*
X474483Y14336D01*
X472696Y13755D01*
X471423Y13554D01*
X471423Y23877D01*
G37*
%LPD*%
%LPC*%
G36*
X90423Y100077D02*
X90423Y100077D01*
X100746Y100077D01*
X100545Y98804D01*
X99964Y97017D01*
X99111Y95343D01*
X98006Y93822D01*
X96678Y92494D01*
X95157Y91389D01*
X93483Y90536D01*
X91696Y89955D01*
X90423Y89754D01*
X90423Y100077D01*
G37*
%LPD*%
%LPC*%
G36*
X77054Y103123D02*
X77054Y103123D01*
X77255Y104396D01*
X77836Y106183D01*
X78689Y107857D01*
X79794Y109378D01*
X81122Y110706D01*
X82643Y111811D01*
X84317Y112664D01*
X86104Y113245D01*
X87377Y113446D01*
X87377Y103123D01*
X77054Y103123D01*
G37*
%LPD*%
%LPC*%
G36*
X293623Y23877D02*
X293623Y23877D01*
X303946Y23877D01*
X303745Y22604D01*
X303164Y20817D01*
X302311Y19143D01*
X301206Y17622D01*
X299878Y16294D01*
X298357Y15189D01*
X296683Y14336D01*
X294896Y13755D01*
X293623Y13554D01*
X293623Y23877D01*
G37*
%LPD*%
%LPC*%
G36*
X230123Y23877D02*
X230123Y23877D01*
X240446Y23877D01*
X240245Y22604D01*
X239664Y20817D01*
X238811Y19143D01*
X237706Y17622D01*
X236378Y16294D01*
X234857Y15189D01*
X233183Y14336D01*
X231396Y13755D01*
X230123Y13554D01*
X230123Y23877D01*
G37*
%LPD*%
%LPC*%
G36*
X26923Y150877D02*
X26923Y150877D01*
X37246Y150877D01*
X37045Y149604D01*
X36464Y147817D01*
X35611Y146143D01*
X34506Y144622D01*
X33178Y143294D01*
X31657Y142189D01*
X29983Y141336D01*
X28196Y140755D01*
X26923Y140554D01*
X26923Y150877D01*
G37*
%LPD*%
%LPC*%
G36*
X467104Y128055D02*
X467104Y128055D01*
X465317Y128636D01*
X463643Y129489D01*
X462122Y130594D01*
X460794Y131922D01*
X459689Y133443D01*
X458836Y135117D01*
X458255Y136904D01*
X458054Y138177D01*
X468377Y138177D01*
X468377Y127854D01*
X467104Y128055D01*
G37*
%LPD*%
%LPC*%
G36*
X263904Y458255D02*
X263904Y458255D01*
X262117Y458836D01*
X260443Y459689D01*
X258922Y460794D01*
X257594Y462122D01*
X256489Y463643D01*
X255636Y465317D01*
X255055Y467104D01*
X254854Y468377D01*
X265177Y468377D01*
X265177Y458054D01*
X263904Y458255D01*
G37*
%LPD*%
%LPC*%
G36*
X225804Y13755D02*
X225804Y13755D01*
X224017Y14336D01*
X222343Y15189D01*
X220822Y16294D01*
X219494Y17622D01*
X218389Y19143D01*
X217536Y20817D01*
X216955Y22604D01*
X216754Y23877D01*
X227077Y23877D01*
X227077Y13554D01*
X225804Y13755D01*
G37*
%LPD*%
%LPC*%
G36*
X22604Y458255D02*
X22604Y458255D01*
X20817Y458836D01*
X19143Y459689D01*
X17622Y460794D01*
X16294Y462122D01*
X15189Y463643D01*
X14336Y465317D01*
X13755Y467104D01*
X13554Y468377D01*
X23877Y468377D01*
X23877Y458054D01*
X22604Y458255D01*
G37*
%LPD*%
%LPC*%
G36*
X289304Y13755D02*
X289304Y13755D01*
X287517Y14336D01*
X285843Y15189D01*
X284322Y16294D01*
X282994Y17622D01*
X281889Y19143D01*
X281036Y20817D01*
X280455Y22604D01*
X280254Y23877D01*
X290577Y23877D01*
X290577Y13554D01*
X289304Y13755D01*
G37*
%LPD*%
%LPC*%
G36*
X467104Y13755D02*
X467104Y13755D01*
X465317Y14336D01*
X463643Y15189D01*
X462122Y16294D01*
X460794Y17622D01*
X459689Y19143D01*
X458836Y20817D01*
X458255Y22604D01*
X458054Y23877D01*
X468377Y23877D01*
X468377Y13554D01*
X467104Y13755D01*
G37*
%LPD*%
%LPC*%
G36*
X22604Y13755D02*
X22604Y13755D01*
X20817Y14336D01*
X19143Y15189D01*
X17622Y16294D01*
X16294Y17622D01*
X15189Y19143D01*
X14336Y20817D01*
X13755Y22604D01*
X13554Y23877D01*
X23877Y23877D01*
X23877Y13554D01*
X22604Y13755D01*
G37*
%LPD*%
%LPC*%
G36*
X467104Y458255D02*
X467104Y458255D01*
X465317Y458836D01*
X463643Y459689D01*
X462122Y460794D01*
X460794Y462122D01*
X459689Y463643D01*
X458836Y465317D01*
X458255Y467104D01*
X458054Y468377D01*
X468377Y468377D01*
X468377Y458054D01*
X467104Y458255D01*
G37*
%LPD*%
%LPC*%
G36*
X86104Y89955D02*
X86104Y89955D01*
X84317Y90536D01*
X82643Y91389D01*
X81122Y92494D01*
X79794Y93822D01*
X78689Y95343D01*
X77836Y97017D01*
X77255Y98804D01*
X77054Y100077D01*
X87377Y100077D01*
X87377Y89754D01*
X86104Y89955D01*
G37*
%LPD*%
%LPC*%
G36*
X369823Y344423D02*
X369823Y344423D01*
X369823Y352045D01*
X372088Y352045D01*
X377445Y346688D01*
X377445Y344423D01*
X369823Y344423D01*
G37*
%LPD*%
%LPC*%
G36*
X166623Y166623D02*
X166623Y166623D01*
X166623Y174245D01*
X168888Y174245D01*
X174245Y168888D01*
X174245Y166623D01*
X166623Y166623D01*
G37*
%LPD*%
%LPC*%
G36*
X382523Y204723D02*
X382523Y204723D01*
X382523Y212345D01*
X384788Y212345D01*
X390145Y206988D01*
X390145Y204723D01*
X382523Y204723D01*
G37*
%LPD*%
%LPC*%
G36*
X420623Y331723D02*
X420623Y331723D01*
X420623Y339345D01*
X422888Y339345D01*
X428245Y333988D01*
X428245Y331723D01*
X420623Y331723D01*
G37*
%LPD*%
%LPC*%
G36*
X179323Y331723D02*
X179323Y331723D01*
X179323Y339345D01*
X181588Y339345D01*
X186945Y333988D01*
X186945Y331723D01*
X179323Y331723D01*
G37*
%LPD*%
%LPC*%
G36*
X371855Y204723D02*
X371855Y204723D01*
X371855Y206988D01*
X377212Y212345D01*
X379477Y212345D01*
X379477Y204723D01*
X371855Y204723D01*
G37*
%LPD*%
%LPC*%
G36*
X359155Y344423D02*
X359155Y344423D01*
X359155Y346688D01*
X364512Y352045D01*
X366777Y352045D01*
X366777Y344423D01*
X359155Y344423D01*
G37*
%LPD*%
%LPC*%
G36*
X168655Y331723D02*
X168655Y331723D01*
X168655Y333988D01*
X174012Y339345D01*
X176277Y339345D01*
X176277Y331723D01*
X168655Y331723D01*
G37*
%LPD*%
%LPC*%
G36*
X166623Y155955D02*
X166623Y155955D01*
X166623Y163577D01*
X174245Y163577D01*
X174245Y161312D01*
X168888Y155955D01*
X166623Y155955D01*
G37*
%LPD*%
%LPC*%
G36*
X409955Y331723D02*
X409955Y331723D01*
X409955Y333988D01*
X415312Y339345D01*
X417577Y339345D01*
X417577Y331723D01*
X409955Y331723D01*
G37*
%LPD*%
%LPC*%
G36*
X369823Y333755D02*
X369823Y333755D01*
X369823Y341377D01*
X377445Y341377D01*
X377445Y339112D01*
X372088Y333755D01*
X369823Y333755D01*
G37*
%LPD*%
%LPC*%
G36*
X382523Y194055D02*
X382523Y194055D01*
X382523Y201677D01*
X390145Y201677D01*
X390145Y199412D01*
X384788Y194055D01*
X382523Y194055D01*
G37*
%LPD*%
%LPC*%
G36*
X155955Y166623D02*
X155955Y166623D01*
X155955Y168888D01*
X161312Y174245D01*
X163577Y174245D01*
X163577Y166623D01*
X155955Y166623D01*
G37*
%LPD*%
%LPC*%
G36*
X179323Y321055D02*
X179323Y321055D01*
X179323Y328677D01*
X186945Y328677D01*
X186945Y326412D01*
X181588Y321055D01*
X179323Y321055D01*
G37*
%LPD*%
%LPC*%
G36*
X420623Y321055D02*
X420623Y321055D01*
X420623Y328677D01*
X428245Y328677D01*
X428245Y326412D01*
X422888Y321055D01*
X420623Y321055D01*
G37*
%LPD*%
%LPC*%
G36*
X174012Y321055D02*
X174012Y321055D01*
X168655Y326412D01*
X168655Y328677D01*
X176277Y328677D01*
X176277Y321055D01*
X174012Y321055D01*
G37*
%LPD*%
%LPC*%
G36*
X364512Y333755D02*
X364512Y333755D01*
X359155Y339112D01*
X359155Y341377D01*
X366777Y341377D01*
X366777Y333755D01*
X364512Y333755D01*
G37*
%LPD*%
%LPC*%
G36*
X415312Y321055D02*
X415312Y321055D01*
X409955Y326412D01*
X409955Y328677D01*
X417577Y328677D01*
X417577Y321055D01*
X415312Y321055D01*
G37*
%LPD*%
%LPC*%
G36*
X161312Y155955D02*
X161312Y155955D01*
X155955Y161312D01*
X155955Y163577D01*
X163577Y163577D01*
X163577Y155955D01*
X161312Y155955D01*
G37*
%LPD*%
%LPC*%
G36*
X377212Y194055D02*
X377212Y194055D01*
X371855Y199412D01*
X371855Y201677D01*
X379477Y201677D01*
X379477Y194055D01*
X377212Y194055D01*
G37*
%LPD*%
%LPC*%
G36*
X368299Y342899D02*
X368299Y342899D01*
X368299Y342901D01*
X368301Y342901D01*
X368301Y342899D01*
X368299Y342899D01*
G37*
%LPD*%
%LPC*%
G36*
X177799Y330199D02*
X177799Y330199D01*
X177799Y330201D01*
X177801Y330201D01*
X177801Y330199D01*
X177799Y330199D01*
G37*
%LPD*%
%LPC*%
G36*
X469899Y25399D02*
X469899Y25399D01*
X469899Y25401D01*
X469901Y25401D01*
X469901Y25399D01*
X469899Y25399D01*
G37*
%LPD*%
%LPC*%
G36*
X292099Y25399D02*
X292099Y25399D01*
X292099Y25401D01*
X292101Y25401D01*
X292101Y25399D01*
X292099Y25399D01*
G37*
%LPD*%
%LPC*%
G36*
X228599Y25399D02*
X228599Y25399D01*
X228599Y25401D01*
X228601Y25401D01*
X228601Y25399D01*
X228599Y25399D01*
G37*
%LPD*%
%LPC*%
G36*
X25399Y25399D02*
X25399Y25399D01*
X25399Y25401D01*
X25401Y25401D01*
X25401Y25399D01*
X25399Y25399D01*
G37*
%LPD*%
%LPC*%
G36*
X419099Y330199D02*
X419099Y330199D01*
X419099Y330201D01*
X419101Y330201D01*
X419101Y330199D01*
X419099Y330199D01*
G37*
%LPD*%
%LPC*%
G36*
X304799Y177799D02*
X304799Y177799D01*
X304799Y177801D01*
X304801Y177801D01*
X304801Y177799D01*
X304799Y177799D01*
G37*
%LPD*%
%LPC*%
G36*
X25399Y469899D02*
X25399Y469899D01*
X25399Y469901D01*
X25401Y469901D01*
X25401Y469899D01*
X25399Y469899D01*
G37*
%LPD*%
%LPC*%
G36*
X165099Y165099D02*
X165099Y165099D01*
X165099Y165101D01*
X165101Y165101D01*
X165101Y165099D01*
X165099Y165099D01*
G37*
%LPD*%
%LPC*%
G36*
X380999Y203199D02*
X380999Y203199D01*
X380999Y203201D01*
X381001Y203201D01*
X381001Y203199D01*
X380999Y203199D01*
G37*
%LPD*%
%LPC*%
G36*
X266699Y469899D02*
X266699Y469899D01*
X266699Y469901D01*
X266701Y469901D01*
X266701Y469899D01*
X266699Y469899D01*
G37*
%LPD*%
%LPC*%
G36*
X88899Y101599D02*
X88899Y101599D01*
X88899Y101601D01*
X88901Y101601D01*
X88901Y101599D01*
X88899Y101599D01*
G37*
%LPD*%
%LPC*%
G36*
X469899Y469899D02*
X469899Y469899D01*
X469899Y469901D01*
X469901Y469901D01*
X469901Y469899D01*
X469899Y469899D01*
G37*
%LPD*%
D10*
X165100Y114300D03*
D11*
X165100Y165100D03*
D10*
X330200Y203200D03*
D12*
X381000Y203200D03*
D10*
X368300Y393700D03*
D13*
X368300Y342900D03*
D14*
X25400Y76200D03*
X228600Y25400D03*
X228600Y50800D03*
X25400Y50800D03*
X25400Y25400D03*
X342900Y165100D03*
X342900Y139700D03*
X469900Y266700D03*
X469900Y292100D03*
X469900Y317500D03*
X469900Y342900D03*
X469900Y368300D03*
X469900Y139700D03*
X469900Y165100D03*
X469900Y190500D03*
X469900Y215900D03*
X469900Y241300D03*
X25400Y152400D03*
X25400Y177800D03*
X25400Y203200D03*
X25400Y228600D03*
X25400Y254000D03*
X25400Y279400D03*
X25400Y304800D03*
X25400Y330200D03*
X25400Y355600D03*
X25400Y381000D03*
D12*
X355600Y469900D03*
X381000Y469900D03*
X152400Y469900D03*
X177800Y469900D03*
D11*
X444500Y330200D03*
X444500Y406400D03*
X139700Y330200D03*
X139700Y406400D03*
X419100Y330200D03*
X419100Y406400D03*
X177800Y330200D03*
X177800Y406400D03*
D14*
X88900Y25400D03*
X88900Y50800D03*
X88900Y76200D03*
X88900Y101600D03*
X419100Y469900D03*
X469900Y469900D03*
X139700Y50800D03*
X165100Y50800D03*
X190500Y50800D03*
X139700Y25400D03*
X165100Y25400D03*
X190500Y25400D03*
X215900Y469900D03*
X241300Y469900D03*
X266700Y469900D03*
X292100Y469900D03*
X317500Y469900D03*
X469900Y25400D03*
X469900Y50800D03*
X469900Y76200D03*
X469900Y101600D03*
X292100Y25400D03*
X317500Y25400D03*
X342900Y25400D03*
X368300Y25400D03*
X393700Y25400D03*
X419100Y25400D03*
X76200Y469900D03*
X25400Y469900D03*
D15*
X221996Y406400D02*
X235204Y406400D01*
X235204Y381000D02*
X221996Y381000D01*
X221996Y254000D02*
X235204Y254000D01*
X235204Y228600D02*
X221996Y228600D01*
X221996Y355600D02*
X235204Y355600D01*
X235204Y330200D02*
X221996Y330200D01*
X221996Y279400D02*
X235204Y279400D01*
X235204Y304800D02*
X221996Y304800D01*
X221996Y203200D02*
X235204Y203200D01*
X235204Y177800D02*
X221996Y177800D01*
X221996Y152400D02*
X235204Y152400D01*
X235204Y127000D02*
X221996Y127000D01*
X221996Y101600D02*
X235204Y101600D01*
X235204Y76200D02*
X221996Y76200D01*
X298196Y76200D02*
X311404Y76200D01*
X311404Y101600D02*
X298196Y101600D01*
X298196Y127000D02*
X311404Y127000D01*
X311404Y152400D02*
X298196Y152400D01*
X298196Y177800D02*
X311404Y177800D01*
X311404Y203200D02*
X298196Y203200D01*
X298196Y228600D02*
X311404Y228600D01*
X311404Y254000D02*
X298196Y254000D01*
X298196Y279400D02*
X311404Y279400D01*
X311404Y304800D02*
X298196Y304800D01*
X298196Y330200D02*
X311404Y330200D01*
X311404Y355600D02*
X298196Y355600D01*
X298196Y381000D02*
X311404Y381000D01*
X311404Y406400D02*
X298196Y406400D01*
D16*
X228600Y127000D02*
X215900Y114300D01*
X165100Y114300D01*
X304800Y406400D02*
X241300Y469900D01*
X474740Y227584D02*
X481584Y220740D01*
X481584Y178816D02*
X482600Y177800D01*
X444500Y250176D02*
X444500Y330200D01*
X444500Y250176D02*
X467092Y227584D01*
X474740Y227584D01*
X481584Y220740D02*
X481584Y178816D01*
X482600Y177800D02*
X469900Y165100D01*
X469900Y156224D01*
X481584Y144540D01*
X481584Y102616D02*
X482600Y101600D01*
X481584Y102616D02*
X481584Y144540D01*
X482600Y101600D02*
X469900Y101600D01*
X139700Y76200D02*
X88900Y76200D01*
X139700Y76200D02*
X165100Y50800D01*
X165100Y25400D01*
X381000Y431800D02*
X419100Y469900D01*
X381000Y431800D02*
X355600Y431800D01*
X342900Y393700D02*
X419100Y469900D01*
X342900Y393700D02*
X228600Y393700D01*
X228600Y406400D01*
X215900Y406400D02*
X215900Y469900D01*
X215900Y406400D02*
X228600Y406400D01*
X238886Y389890D02*
X244094Y384682D01*
X244094Y351918D02*
X238886Y346710D01*
X238886Y313690D02*
X244094Y308482D01*
X228600Y154313D02*
X228600Y152400D01*
X228600Y154313D02*
X210058Y172855D01*
X156210Y389890D02*
X76200Y469900D01*
X225934Y346710D02*
X238886Y346710D01*
X225934Y346710D02*
X213106Y333882D01*
X213106Y326518D01*
X238886Y389890D02*
X156210Y389890D01*
X213106Y326518D02*
X225934Y313690D01*
X238886Y313690D01*
X244094Y275718D02*
X231266Y262890D01*
X218314Y262890D01*
X210058Y254634D01*
X210058Y172855D01*
X244094Y275718D02*
X244094Y308482D01*
X244094Y351918D02*
X244094Y384682D01*
X342900Y139700D02*
X406400Y139700D01*
X469900Y76200D01*
X393700Y25400D02*
X320294Y98806D01*
X320294Y105282D01*
X307466Y118110D01*
X294514Y118110D01*
X254000Y158624D01*
X254000Y177800D01*
X228600Y203200D01*
X320294Y73406D02*
X368300Y25400D01*
X320294Y73406D02*
X320294Y79882D01*
X218314Y168910D02*
X213106Y174118D01*
X228600Y247776D02*
X228600Y254000D01*
X228600Y247776D02*
X213106Y232282D01*
X307466Y92710D02*
X320294Y79882D01*
X307466Y92710D02*
X294514Y92710D01*
X244094Y143130D01*
X244094Y156082D01*
X231266Y168910D01*
X218314Y168910D01*
X213106Y174118D02*
X213106Y232282D01*
X114300Y330200D02*
X25400Y330200D01*
X114300Y330200D02*
X139700Y304800D01*
X203200Y304800D01*
X228600Y279400D01*
X228600Y381000D02*
X25400Y381000D01*
X25400Y355600D02*
X228600Y355600D01*
X156210Y110618D02*
X161418Y105410D01*
X156210Y148590D02*
X25400Y279400D01*
X199390Y105410D02*
X228600Y76200D01*
X156210Y110618D02*
X156210Y148590D01*
X161418Y105410D02*
X199390Y105410D01*
X419100Y215900D02*
X469900Y215900D01*
X382016Y20560D02*
X388860Y13716D01*
X398540Y13716D01*
X405384Y20560D01*
X405384Y30240D01*
X331216Y144540D02*
X338060Y151384D01*
X354584Y151384D02*
X419100Y215900D01*
X354584Y151384D02*
X338060Y151384D01*
X308624Y101600D02*
X304800Y101600D01*
X308624Y101600D02*
X382016Y28208D01*
X382016Y20560D01*
X405384Y30240D02*
X331216Y104408D01*
X331216Y144540D01*
X25400Y135876D02*
X25400Y76200D01*
X25400Y219724D02*
X25400Y228600D01*
X13716Y147560D02*
X25400Y135876D01*
X13716Y208040D02*
X25400Y219724D01*
X13716Y208040D02*
X13716Y147560D01*
X20560Y291084D02*
X30240Y291084D01*
X20560Y291084D02*
X13716Y284240D01*
X13716Y274560D01*
X20560Y267716D01*
X28208Y267716D01*
X37084Y258840D01*
X30240Y291084D02*
X130824Y190500D01*
X37084Y240284D02*
X37084Y258840D01*
X37084Y240284D02*
X25400Y228600D01*
M02*
