M48
;GenerationSoftware,Autodesk,EAGLE,9.6.2*%
;CreationDate,2022-04-14T06:17:08Z*%
FMAT,2
ICI,OFF
METRIC,TZ,000.000
T2C0.813
T1C1.016
%
G90
M71
T1
X13970Y5080
X2540Y46990
X7620Y46990
X41910Y2540
X39370Y2540
X36830Y2540
X2540Y7620
X22860Y2540
X22860Y5080
X2540Y5080
X2540Y2540
X34290Y16510
X34290Y13970
X46990Y26670
X46990Y29210
X46990Y31750
X46990Y34290
X46990Y36830
X46990Y13970
X46990Y16510
X46990Y19050
X46990Y21590
X46990Y24130
X2540Y15240
X2540Y17780
X2540Y20320
X2540Y22860
X2540Y25400
X2540Y27940
X2540Y30480
X2540Y33020
X2540Y35560
X2540Y38100
X34290Y2540
X31750Y2540
X29210Y2540
X46990Y10160
X46990Y7620
X46990Y5080
X46990Y2540
X31750Y46990
X29210Y46990
X26670Y46990
X24130Y46990
X21590Y46990
X8890Y2540
X8890Y5080
X8890Y7620
X8890Y10160
X41910Y46990
X46990Y46990
X19050Y2540
X16510Y5080
X19050Y5080
X13970Y2540
X16510Y2540
T2
X16510Y11430
X17780Y40640
X17780Y33020
X41910Y40640
X41910Y33020
X13970Y40640
X13970Y33020
X44450Y40640
X44450Y33020
X17780Y46990
X15240Y46990
X38100Y46990
X35560Y46990
X36830Y34290
X36830Y39370
X38100Y20320
X33020Y20320
X16510Y16510
X22860Y40640
X22860Y38100
X22860Y25400
X22860Y22860
X22860Y35560
X22860Y33020
X22860Y27940
X22860Y30480
X22860Y20320
X22860Y17780
X22860Y15240
X22860Y12700
X22860Y10160
X22860Y7620
X30480Y7620
X30480Y10160
X30480Y12700
X30480Y15240
X30480Y17780
X30480Y20320
X30480Y22860
X30480Y25400
X30480Y27940
X30480Y30480
X30480Y33020
X30480Y35560
X30480Y38100
X30480Y40640
M30