**ABCDEFGHIJKLMNOPQRSTUVWXYZabcdefghijklmnopqrstuvwxyz**************************
**PARASOLID !"#$%&'()*+,-./:;<=>?@[\]^_`{|}~0123456789**************************
**PART1;
MC=unknown;
MC_MODEL=unknown;
MC_ID=unknown;
OS=unknown;
OS_RELEASE=unknown;
FRU=Parasolid 34.1.198;
APPL=Onshape;
SITE=unknown;
USER=unknown;
FORMAT=text;
GUISE=transmit;
KEY=BTGapi::writeModels_.xmt;
FILE=BTGapi::writeModels_.xmt;
DATE=2022-06-03T17:49:15 (UTC);
**PART2;
SCH=SCH_3401198_34101;
USFLD_SIZE=0;
**PART3;
**END_OF_HEADER*****************************************************************
T51 : TRANSMIT FILE created by modeller version 340119823 SCH_3401198_34101_1300
6231 0 12 36 CCCI7 lattice222 0 CCCI4 mesh1006 0 I8 polyline1008 0 CCCCCCCDI5 ow
ner1040 0 CCCI16 boundary_lattice222 0 CCCI13 boundary_mesh1006 0 I17 boundary_p
olyline1008 0 CCCA16 index_map_offset0 0 1 dA9 index_map82 0 A17 node_id_index_m
ap82 0 A20 schema_embedding_map82 0 A5 child12 0 A14 lowest_node_id0 0 1 dA16 me
sh_offset_data206 0 Z1 3361 2 3 0 0 0 0 0 0 0 1e3 1e-8 0 4 5 1 0 1 1 6 0 7 8 9 0
 0 10 11 12 0 0 0 0 0 0 0 81 255 1 2 3316 13 1 14 0 0 0 15 70 11 CI9 list_type0
 0 1 uI10 notransmit0 0 1 lCCCDCCDI12 finger_index0 0 1 dI12 finger_block1012 0
 CZ3 0 4 T1 0 0 5 20 1 16 16 13 255 6 137 0 1 0 17 0 0 18 0 51 255 7 3218 0 19 2
0 0 0 +-.0073025 .02413 .0029718 0 0 -1 .00127 -1 0 0 31 255 8 3103 0 11 21 0 0
 +-.0034925 .01143 0 0 0 1 1 0 0 .00127 29 255 9 3038 0 12 22 0 .0085725 .02413
 0 19 9 CCCCCCI5 frame230 0 CA5 owner12 0 Z10 48 0 1 18 0 23 0 V0 16 255 11 3098
 24 ?25 0 26 8 0 0 1 18 255 12 3035 27 28 0 29 9 ?1 81 1 27 3251 30 12 0 0 31 32
 33 17 255 28 0 34 35 36 12 37 38 0 39 +18 29 3031 40 41 12 42 22 ?1 81 1 40 325
3 30 29 0 0 32 43 44 17 41 0 34 36 45 29 46 47 0 48 +18 42 3027 49 37 29 50 51 ?
1 29 22 3034 0 29 51 9 -.0073025 .0254 0 29 51 3030 0 42 52 22 .0073025 .0254 0
 29 52 3026 0 50 53 51 -.0085725 .01397 0 18 50 3023 54 55 42 56 52 ?1 29 53 302
2 0 56 57 52 -.0085725 .02413 0 18 56 3019 58 46 50 59 53 ?1 29 57 3018 0 59 60
 53 -.0034925 .0127 0 18 59 3015 61 25 56 62 57 ?1 29 60 3014 0 62 63 57 -.00730
25 .0127 0 18 62 3011 64 65 59 66 60 ?1 29 63 3005 0 66 67 60 -9525e-7 -.0254 0
 18 66 3002 68 69 62 70 63 ?1 29 67 2981 0 70 71 63 -9525e-7 -.0254 .0029718 18
 70 2978 72 73 66 74 67 ?1 29 71 2977 0 74 75 67 -.0034925 .0127 .0029718 18 74
 2974 76 77 70 78 71 ?1 29 75 2973 0 78 79 71 -.0073025 .0127 .0029718 18 78 297
0 80 81 74 82 75 ?1 29 79 2969 0 82 83 75 -.0085725 .01397 .0029718 18 82 2966 8
4 85 78 86 79 ?1 29 83 2965 0 86 87 79 -.0085725 .02413 .0029718 18 86 2962 88 8
9 82 90 83 ?1 29 87 2961 0 90 91 83 -.0073025 .0254 .0029718 18 90 2958 43 92 86
 93 87 ?1 29 91 2957 0 93 94 87 .0073025 .0254 .0029718 18 93 2954 31 95 90 96 9
1 ?1 29 94 2953 0 96 97 91 .0085725 .02413 .0029718 18 96 2950 32 98 93 99 94 ?1
 29 97 2939 0 99 100 94 -.0022225 .01143 0 18 99 2936 101 102 96 103 97 ?1 29 10
0 2935 0 103 104 97 -.0022225 -.02413 0 18 103 2932 105 106 99 107 100 ?1 29 104
 2931 0 107 108 100 -.0022225 .01143 .0029718 18 107 2928 109 110 103 111 104 ?1
 29 108 2927 0 111 112 104 -.0022225 -.02413 .0029718 18 111 2924 113 114 107 11
5 108 ?1 29 112 2508 0 115 116 108 .00174625 -.0218948 0 18 115 2504 117 118 111
 119 112 ?1 29 116 2476 0 119 120 112 .00174625 -.01905 .0029718 18 119 2472 121
 122 115 123 116 ?1 29 120 2074 0 123 124 116 .0013843 -.0218948 0 18 123 2072 1
25 126 119 127 120 ?1 29 124 1540 0 127 128 120 .00174625 -375153764947084e-32 .
0029718 18 127 1536 129 130 123 131 124 ?1 29 128 1508 0 131 132 124 .00174625 -
.0028448 0 18 131 1504 133 134 127 135 128 ?1 29 132 1152 0 135 136 128 .0085725
 -.0028448 0 18 135 1148 137 138 131 139 132 ?1 29 136 601 0 139 140 132 -.00476
25 .0208026 .0029718 18 139 599 141 142 135 143 136 ?1 29 140 580 0 143 144 136
 -.0047625 .0144526 .0029718 18 143 578 145 146 139 147 140 ?1 29 144 556 0 147
 148 140 -.0047625 .0236474 0 18 147 554 149 150 143 151 144 ?1 29 148 535 0 151
 152 144 -.0047625 .0172974 0 18 151 533 153 154 147 155 148 ?1 29 152 113 0 156
 157 148 .0085725 -.0254 0 18 156 92 158 159 155 160 152 ?1 29 157 44 0 155 161
 152 .0085725 -.0254 .0029718 18 155 42 162 163 151 156 157 ?1 29 161 947 0 160
 164 157 -.0066675 .0236474 -693889390390723e-32 18 160 718 165 166 156 167 161
 ?1 29 164 948 0 167 168 161 -.0066675 .0208026 -693889390390723e-32 18 167 721
 169 170 160 171 164 ?1 29 168 950 0 171 172 164 -.0047625 .0208026 -69388939039
0723e-32 18 171 724 173 174 167 175 168 ?1 29 172 951 0 175 176 168 -.0066675 .0
172974 -693889390390723e-32 18 175 847 177 178 171 179 172 ?1 29 176 952 0 179 1
80 172 -.0066675 .0144526 -693889390390723e-32 18 179 850 181 182 175 183 176 ?1
 29 180 954 0 183 184 176 -.0047625 .0144526 -693889390390723e-32 18 183 853 185
 186 179 187 180 ?1 29 184 955 0 188 189 180 -.0047625 .0172974 .0029718 18 188
 856 190 191 192 193 184 ?1 29 189 957 0 193 194 184 -.0066675 .0144526 .0029718
 18 193 851 195 196 188 197 189 ?1 29 194 958 0 197 198 189 -.0066675 .0172974 .
0029718 18 197 848 199 200 193 201 194 ?1 29 198 963 0 187 202 194 -.0066675 .02
36474 .0029718 18 187 719 203 204 183 205 198 ?1 29 202 964 0 205 206 198 -.0066
675 .0208026 .0029718 18 205 722 207 208 187 192 202 ?1 29 206 966 0 192 209 202
 -.0047625 .0236474 .0029718 18 192 727 210 211 205 188 206 ?1 29 209 1373 0 201
 212 206 .0085725 -260208521396521e-32 -693889390390723e-32 18 201 1293 213 35 1
97 214 209 ?1 29 212 1374 0 214 215 209 .0013843 -3469446951953615e-33 -69388939
0390723e-32 18 214 1296 216 217 201 218 212 ?1 29 215 1376 0 218 219 212 .001384
3 -.0028448 -693889390390723e-32 18 218 1299 220 221 214 222 215 ?1 29 219 1377
 0 222 223 215 .0085725 -.0028448 .0029718 18 222 1302 224 225 218 226 219 ?1 29
 223 1378 0 226 227 219 .0013843 -.0028448 .0029718 18 226 1300 228 229 222 230
 223 ?1 29 227 1379 0 230 231 223 .0013843 -3469446951953615e-33 .0029718 18 230
 1297 232 233 226 234 227 ?1 29 231 1380 0 234 235 227 .0085725 -260208521396521
e-32 .0029718 18 234 1294 236 237 230 238 231 ?1 29 235 1865 0 238 239 231 .0041
275 -3459918630423875e-33 -693889390390723e-32 18 238 1772 240 241 234 242 235 ?
1 29 239 1866 0 242 243 235 .0041275 -.0028448 -693889390390723e-32 18 242 1768
 244 245 238 246 239 ?1 29 243 1867 0 246 247 239 .0041275 .0017526 -69388939039
0723e-32 18 246 1775 248 249 242 250 243 ?1 29 247 1868 0 250 251 243 .0041275 -
.0045974 -693889390390723e-32 18 250 1763 252 253 246 254 247 ?1 29 251 1869 0 2
54 255 247 .0041275 -.0028448 .0029718 18 254 1758 256 257 250 258 251 ?1 29 255
 1870 0 258 259 251 .0041275 -3469446951953615e-33 .0029718 18 258 1784 260 261
 254 262 255 ?1 29 259 1871 0 262 263 255 .00174625 -375153764947084e-32 -693889
390390723e-32 18 262 1769 264 265 258 266 259 ?1 29 263 1873 0 266 267 259 .0017
4625 -.0045974 -693889390390723e-32 18 266 1781 268 269 262 270 263 ?1 29 267 18
74 0 270 271 263 .00174625 .0017526 -693889390390723e-32 18 270 1760 272 273 266
 274 267 ?1 29 271 1875 0 274 275 267 .00174625 -.0028448 .0029718 18 274 1759 2
76 277 270 278 271 ?1 29 275 1877 0 278 279 271 .0041275 -.0045974 .0029718 18 2
78 1764 280 281 274 282 275 ?1 29 279 1878 0 282 283 275 .00174625 -.0045974 .00
29718 18 282 1770 284 285 278 286 279 ?1 29 283 1879 0 286 287 279 .00174625 .00
17526 .0029718 18 286 1761 288 289 282 290 283 ?1 29 287 1880 0 290 291 283 .004
1275 .0017526 .0029718 18 290 1766 292 293 286 294 287 ?1 29 291 2293 0 294 295
 287 .0085725 -.0218948 -693889390390723e-32 18 294 2226 296 297 290 298 291 ?1
 29 295 2294 0 298 299 291 .0085725 -.01905 -693889390390723e-32 18 298 2213 300
 301 294 302 295 ?1 29 299 2296 0 302 303 295 .0013843 -.01905 -693889390390723e
-32 18 302 2218 304 305 298 306 299 ?1 29 303 2297 0 306 307 299 .0013843 -.0218
948 .0029718 18 306 2221 308 309 302 310 303 ?1 29 307 2298 0 310 311 303 .00138
43 -.01905 .0029718 18 310 2219 312 313 306 314 307 ?1 29 311 2299 0 314 315 307
 .0085725 -.01905 .0029718 18 314 2214 316 317 310 318 311 ?1 29 315 2300 0 318
 319 311 .0085725 -.0218948 .0029718 18 318 2216 320 321 314 322 315 ?1 29 319 2
833 0 322 323 315 .0041275 -.0218948 -693889390390723e-32 18 322 2734 324 325 31
8 326 319 ?1 29 323 2834 0 326 327 319 .0041275 -.01905 -693889390390723e-32 18
 326 2742 328 329 322 330 323 ?1 29 327 2835 0 330 331 323 .0041275 -.0172974 -6
93889390390723e-32 18 330 2743 332 333 326 334 327 ?1 29 331 2836 0 334 335 327
 .0041275 -.0236474 -693889390390723e-32 18 334 2731 336 337 330 338 331 ?1 29 3
35 2837 0 338 339 331 .0041275 -.0218948 .0029718 18 338 2726 340 341 334 342 33
5 ?1 29 339 2838 0 342 343 335 .0041275 -.01905 .0029718 18 342 2752 344 345 338
 346 339 ?1 29 343 2840 0 346 347 339 .00174625 -.01905 -693889390390723e-32 18
 346 2739 348 349 342 350 343 ?1 29 347 2841 0 350 351 343 .00174625 -.0236474 -
693889390390723e-32 18 350 2749 352 353 346 354 347 ?1 29 351 2842 0 354 355 347
 .00174625 -.0172974 -693889390390723e-32 18 354 2728 356 357 350 358 351 ?1 29
 355 2843 0 358 359 351 .00174625 -.0218948 .0029718 18 358 2725 360 361 354 362
 355 ?1 29 359 2845 0 362 363 355 .0041275 -.0236474 .0029718 18 362 2732 364 36
5 358 366 359 ?1 29 363 2846 0 366 367 359 .00174625 -.0236474 .0029718 18 366 2
737 368 369 362 370 363 ?1 29 367 2847 0 370 371 363 .00174625 -.0172974 .002971
8 18 370 2729 372 373 366 374 367 ?1 29 371 2848 0 374 0 367 .0041275 -.0172974
 .0029718 18 374 2735 375 376 370 0 371 ?1 81 1 375 2875 30 374 0 0 352 372 377
 17 376 0 378 379 333 374 380 381 0 382 +15 255 378 2764 0 376 383 0 17 379 0 37
8 384 376 370 385 386 0 387 +17 333 0 378 376 384 330 388 389 0 380 -17 380 0 39
0 329 382 330 376 381 0 391 -16 381 2676 392 ?376 393 394 395 0 0 1 17 382 0 390
 380 345 374 396 397 0 385 -15 390 2776 0 329 398 0 17 345 0 390 382 329 342 399
 400 0 396 +17 396 0 401 402 385 342 382 397 0 403 +16 397 2656 404 ?396 386 405
 406 405 405 1 17 385 0 401 396 387 374 379 386 0 0 -15 401 2568 0 407 17 0 17 3
87 0 401 385 408 370 122 409 0 0 -16 386 2715 410 ?379 411 397 412 0 0 1 81 1 41
0 2885 30 386 0 0 413 414 415 16 411 2620 416 ?417 409 386 418 409 409 1 30 255
 412 2827 0 386 406 418 0 +.002936875 -.0172974 .0029718 -1 0 0 30 406 2828 0 39
7 0 412 0 +.0041275 -.0204724 .0029718 0 -1 0 30 418 2826 0 409 412 419 0 +.0017
4625 -.0204724 .0029718 682961998416066e-31 -1 0 16 409 2720 420 ?122 421 411 41
8 411 411 1 30 419 2825 0 421 418 422 0 +.002936875 -.0236474 .0029718 -1 0 0 16
 421 2640 414 ?423 424 409 419 0 0 1 30 422 2824 0 424 419 425 0 +.0041275 -.023
6474 -.0224282 0 0 1 16 424 2703 426 ?365 427 421 422 0 0 1 30 425 2823 0 427 42
2 428 0 +.00174625 -.0236474 -.0224282 0 0 1 16 427 2700 429 ?369 394 424 425 0
 0 1 30 428 2822 0 394 425 395 0 +.00174625 -.0172974 -.0224282 0 0 1 16 394 269
1 430 ?373 381 427 428 0 0 1 30 395 2821 0 381 428 431 0 +.0041275 -.0172974 -.0
224282 0 0 1 30 431 2820 0 393 395 432 0 +.00174625 -335018471298021e-32 0 68296
1998416066e-31 -1 0 16 393 2667 433 ?434 435 381 431 436 436 1 30 432 2819 0 435
 431 437 0 +.00174625 -.0218948 -.0224282 0 0 1 16 435 2694 438 ?361 436 393 432
 0 0 1 30 437 2818 0 439 432 440 0 +.0041275 -3469446951953615e-33 0 0 -1 0 16 4
39 2679 441 ?329 442 436 437 443 443 1 30 440 2817 0 442 437 444 0 +.0041275 -.0
218948 -.0224282 0 0 1 16 442 2645 445 ?446 443 439 440 0 0 1 30 444 2288 0 447
 440 448 0 +.0049784 -.0218948 .0029718 -1 0 0 16 447 2156 449 ?450 451 452 444
 452 452 1 30 448 2286 0 453 444 454 0 +.0049784 -.01905 .0029718 -1 0 0 16 453
 2208 455 ?403 456 451 448 451 451 1 30 454 2285 0 456 448 457 0 +.0013843 -.020
4724 .0029718 -152446874646443e-30 1 0 16 456 2170 458 ?459 460 453 454 0 0 1 30
 457 2284 0 460 454 461 0 +.0013843 -.0218948 -.0224282 0 0 1 16 460 2193 462 ?4
63 464 456 457 0 0 1 30 461 2283 0 464 457 465 0 +.0013843 -.01905 -.0224282 0 0
 1 16 464 2190 466 ?467 468 460 461 0 0 1 30 465 2282 0 468 461 469 0 +.0085725
 -.01905 -.0224282 0 0 1 16 468 2181 470 ?317 471 464 465 0 0 1 30 469 2281 0 47
1 465 472 0 +.0085725 -.0218948 -.0224282 0 0 1 16 471 2175 473 ?474 475 468 469
 0 0 1 30 472 1860 0 476 469 477 0 +.0041275 -.0014224 .0029718 2731847993664265
e-31 -1 0 16 476 1680 478 ?479 480 475 472 475 475 1 30 477 1859 0 480 472 481 0
 +.002936875 .0017526 .0029718 -1 -1821231995776175e-31 0 16 480 1747 482 ?483 4
84 476 477 0 0 1 30 481 1858 0 485 477 486 0 +.00174625 -.0014224 .0029718 30733
28992872295e-31 -1 0 16 485 1752 487 ?130 488 484 481 484 484 1 30 486 1857 0 48
8 481 489 0 +.002936875 -.0045974 .0029718 -1 0 0 16 488 1672 490 ?491 492 485 4
86 0 0 1 30 489 1856 0 492 486 493 0 +.0041275 -.0045974 -.0224282 0 0 1 16 492
 1735 494 ?281 495 488 489 0 0 1 30 493 1855 0 495 489 496 0 +.00174625 -.004597
4 -.0224282 0 0 1 16 495 1729 497 ?285 498 492 493 0 0 1 30 496 1854 0 498 493 4
99 0 +.00174625 .0017526 -.0224282 0 0 1 16 498 1723 500 ?289 501 495 496 0 0 1
 30 499 1853 0 501 496 502 0 +.0041275 .0017526 -.0224282 0 0 1 16 501 1705 503
 ?293 504 498 499 0 0 1 30 502 1852 0 504 499 505 0 +.00174625 -293276687657329e
-32 0 3073328992872295e-31 -1 0 16 504 1699 506 ?507 508 501 502 509 509 1 30 50
5 1851 0 508 502 510 0 +.00174625 -375153764947084e-32 -.0224282 0 0 1 16 508 16
96 511 ?512 509 504 505 0 0 1 30 510 1850 0 513 505 514 0 +.0041275 -23418766925
6869e-32 0 2731847993664265e-31 -1 0 16 513 1717 515 ?253 516 509 510 517 517 1
 30 514 1849 0 516 510 518 0 +.0041275 -3459918630423875e-33 -.0224282 0 0 1 16
 516 1711 519 ?261 517 513 514 0 0 1 30 518 1367 0 520 514 521 0 +.0049784 -3355
713434284425e-33 .0029718 -1 -1224646799147352e-31 0 16 520 1283 522 ?523 524 52
5 518 525 525 1 30 521 1366 0 524 518 526 0 +.0013843 -.0014224 .0029718 3048937
492928865e-31 -1 0 16 524 1288 527 ?528 529 520 521 0 0 1 30 526 1365 0 530 521
 531 0 +.0049784 -.0028448 .0029718 -1 -120664664031107e-30 0 16 530 1248 532 ?5
33 534 529 526 529 529 1 30 531 1364 0 534 526 535 0 +.0085725 -.0028448 -.02242
82 0 0 1 16 534 1271 536 ?537 538 530 531 0 0 1 30 535 1363 0 538 531 539 0 +.00
13843 -.0028448 -.0224282 0 0 1 16 538 1268 540 ?541 542 534 535 0 0 1 30 539 13
62 0 542 535 543 0 +.0013843 -3469446951953615e-33 -.0224282 0 0 1 16 542 1262 5
44 ?545 546 538 539 0 0 1 30 543 1361 0 546 539 547 0 +.0085725 -260208521396521
e-32 -.0224282 0 0 1 16 546 1253 548 ?549 550 542 543 0 0 1 31 547 942 0 551 543
 552 0 +-.0047625 .022225 .0029718 0 0 -1 1 0 0 .0014224 16 551 673 553 ?554 555
 556 547 0 0 1 30 552 941 0 555 547 557 0 +-.005715 .0208026 .0029718 1 0 0 16 5
55 713 558 ?142 559 551 552 0 0 1 31 557 940 0 559 552 560 0 +-.0066675 .022225
 .0029718 0 0 1 1 0 0 .0014224 16 559 708 561 ?562 563 555 557 0 0 1 30 560 939
 0 563 557 564 0 +-.005715 .0236474 .0029718 1 0 0 16 563 653 565 ?566 567 559 5
60 0 0 1 30 564 938 0 568 560 569 0 +-.0066675 .0236474 -.0224282 0 0 1 16 568 6
78 570 ?204 571 572 564 0 0 1 30 569 937 0 572 564 573 0 +-.0066675 .0208026 -.0
224282 0 0 1 16 572 687 574 ?208 568 575 569 0 0 1 30 573 936 0 575 569 576 0 +-
.0047625 .0208026 -.0224282 0 0 1 16 575 693 577 ?578 572 567 573 0 0 1 30 576 9
35 0 567 573 579 0 +-.0047625 .0236474 -.0224282 0 0 1 16 567 696 580 ?211 575 5
63 576 0 0 1 30 579 930 0 550 576 581 0 +-.005715 .0172974 .0029718 1 0 0 16 550
 782 582 ?583 584 546 579 0 0 1 31 581 929 0 584 579 585 0 +-.0066675 .015875 .0
029718 0 0 1 1 0 0 .0014224 16 584 837 586 ?587 588 550 581 0 0 1 30 585 928 0 5
88 581 589 0 +-.005715 .0144526 .0029718 1 0 0 16 588 842 590 ?146 591 584 585 0
 0 1 31 589 927 0 591 585 592 0 +-.0047625 .015875 .0029718 0 0 -1 1 0 0 .001422
4 16 591 802 593 ?594 595 588 589 0 0 1 30 592 926 0 595 589 596 0 +-.0047625 .0
172974 -.0224282 0 0 1 16 595 825 597 ?191 598 591 592 0 0 1 30 596 925 0 598 59
2 599 0 +-.0047625 .0144526 -.0224282 0 0 1 16 598 822 600 ?601 602 595 596 0 0
 1 30 599 924 0 602 596 603 0 +-.0066675 .0144526 -.0224282 0 0 1 16 602 816 604
 ?196 556 598 599 0 0 1 30 603 923 0 556 599 605 0 +-.0066675 .0172974 -.0224282
 0 0 1 16 556 807 606 ?200 551 602 603 0 0 1 30 605 426 0 571 603 607 0 +-.00539
75 .0127 .0029718 1 0 0 16 571 2971 608 ?609 610 568 605 0 0 1 30 607 423 0 610
 605 611 0 +-.0022225 -.00635 .0029718 -1821231995776175e-31 1 0 16 610 2925 612
 ?613 614 571 607 0 0 1 30 611 9 0 615 607 616 0 +.0085725 -3469446951953615e-33
 .0029718 -341480999208033e-31 -1 0 16 615 2951 617 ?237 618 619 611 620 619 1 3
0 616 14 0 618 611 621 0 +1734723475976805e-33 .0254 .0029718 -1 0 0 16 618 2955
 622 ?623 624 615 616 0 0 1 30 621 19 0 624 616 625 0 +-.0085725 -34694469519536
15e-33 .0029718 -341480999208033e-31 -1 0 16 624 2963 626 ?627 628 618 621 0 0 1
 30 625 24 0 628 621 629 0 +-1734723475976805e-33 -.0254 .0029718 -1 0 0 16 628
 22 630 ?631 632 624 625 0 0 1 30 629 112 0 633 625 634 0 +.0085725 -34694469519
53615e-33 0 -341480999208033e-31 -1 0 16 633 3036 635 ?35 636 637 629 614 637 1
 30 634 111 0 636 629 638 0 +1734723475976805e-33 .0254 0 -1 0 0 16 636 3028 639
 ?48 640 633 634 0 0 1 30 638 110 0 640 634 641 0 +-.0085725 -3469446951953615e-
33 0 -341480999208033e-31 -1 0 16 640 3020 642 ?643 644 636 638 0 0 1 30 641 109
 0 644 638 645 0 +-1734723475976805e-33 -.0254 0 -1 0 0 16 644 76 646 ?647 620 6
40 641 0 0 1 30 645 133 0 632 641 648 0 +.0085725 -.0254 .0029718 0 0 -1 16 632
 117 649 ?650 651 628 645 0 0 1 30 648 219 0 651 645 652 0 +-.0022225 -387421576
301487e-32 0 -1821231995776175e-31 1 0 16 651 2933 653 ?654 655 632 648 0 0 1 30
 652 222 0 655 648 656 0 +0 .0127 0 1 0 0 16 655 3012 657 ?658 659 651 652 0 0 1
 31 656 539 0 659 652 660 0 --.0047625 .015875 0 0 0 1 1 0 0 .0014224 16 659 537
 661 ?186 662 655 656 0 0 1 30 660 543 0 662 656 663 0 +0 .0144526 0 1 0 0 16 66
2 541 664 ?665 666 659 660 0 0 1 31 663 547 0 666 660 667 0 +-.0066675 .015875 0
 0 0 1 1 0 0 .0014224 16 666 545 668 ?669 670 662 663 0 0 1 30 667 550 0 670 663
 671 0 +0 .0172974 0 1 0 0 16 670 548 672 ?673 674 666 667 0 0 1 31 671 560 0 67
4 667 675 0 --.0047625 .022225 0 0 0 1 1 0 0 .0014224 16 674 558 676 ?174 677 67
0 671 0 0 1 30 675 564 0 677 671 678 0 +0 .0208026 0 1 0 0 16 677 562 679 ?680 6
81 674 675 0 0 1 31 678 568 0 681 675 682 0 +-.0066675 .022225 0 0 0 1 1 0 0 .00
14224 16 681 566 683 ?684 685 677 678 0 0 1 30 682 571 0 685 678 686 0 +0 .02364
74 0 1 0 0 16 685 569 687 ?688 689 681 682 0 0 1 30 686 1156 0 690 682 691 0 +34
32668362356935e-34 -.0028448 0 -1 -120664664031107e-30 0 16 690 1154 692 ?693 69
4 689 686 689 689 1 30 691 1160 0 694 686 695 0 +.0013843 -304738253480747e-32 0
 3048937492928865e-31 -1 0 16 694 1158 696 ?697 698 690 691 0 0 1 30 695 1163 0
 699 691 700 0 +607357021831041e-49 -3965391596771945e-33 0 -1 -1224646799147354
e-31 0 16 699 1161 701 ?702 703 698 695 698 698 1 30 700 1521 0 703 695 704 0 +.
00174625 -.0028448 -.0224282 0 0 1 16 703 1519 705 ?277 706 699 700 0 0 1 30 704
 1527 0 706 700 707 0 +.0041275 -.0028448 -.0224282 0 0 1 16 706 1525 708 ?709 7
10 703 704 0 0 1 30 707 1567 0 710 704 711 0 +0 -.0045974 0 -1 0 0 16 710 1565 7
12 ?269 713 706 707 0 0 1 30 711 1580 0 713 707 714 0 +-3191891195797325e-34 .00
17526 0 -1 -1821231995776175e-31 0 16 713 1578 715 ?716 717 710 711 0 0 1 30 714
 2078 0 717 711 718 0 +.0013843 -325841474338054e-32 0 -152446874646443e-30 1 0
 16 717 2076 719 ?720 721 713 714 0 0 1 30 718 2080 0 722 714 723 0 +0 -.01905 0
 -1 0 0 16 722 2079 724 ?725 726 721 718 721 721 1 30 723 2083 0 727 718 728 0 +
0 -.0218948 0 -1 0 0 16 727 2081 729 ?730 731 726 723 726 726 1 30 728 2489 0 73
1 723 732 0 +.00174625 -.01905 -.0224282 0 0 1 16 731 2487 733 ?734 400 727 728
 0 0 1 30 732 2495 0 400 728 735 0 +.0041275 -.01905 -.0224282 0 0 1 16 400 2493
 736 ?345 737 731 732 0 0 1 30 735 2535 0 737 732 738 0 +0 -.0236474 0 -1 0 0 16
 737 2533 413 ?353 389 400 735 0 0 1 30 738 2548 0 389 735 739 0 +0 -.0172974 0
 -1 0 0 16 389 2546 740 ?388 741 737 738 0 0 1 30 739 2942 0 741 738 742 0 --.00
22225 .01143 -.0224282 0 0 1 16 741 2940 743 ?102 744 389 739 0 0 1 30 742 2947
 0 744 739 745 0 +-.0022225 -.02413 .0029718 0 0 1 16 744 2945 746 ?747 748 741
 742 0 0 1 31 745 2984 0 748 742 749 0 +-.0073025 .02413 .0029718 0 0 1 1 0 0 .0
0127 16 748 2982 750 ?89 751 744 745 0 0 1 31 749 2989 0 751 745 752 0 +-.007302
5 .01397 .0029718 0 0 1 1 0 0 .00127 16 751 2987 753 ?81 754 748 749 0 0 1 31 75
2 2994 0 754 749 755 0 +.0073025 .02413 .0029718 0 0 1 1 0 0 .00127 16 754 2992
 756 ?95 757 751 752 0 0 1 31 755 2999 0 757 752 758 0 +-9525e-7 -.02413 .002971
8 0 0 1 1 0 0 .00127 16 757 2997 759 ?73 760 754 755 0 0 1 30 758 3008 0 760 755
 761 0 --9525e-7 -.0254 -693889390390723e-32 0 0 1 16 760 3006 762 ?69 47 757 75
8 0 0 1 31 761 3041 0 47 758 763 0 --.0073025 .02413 0 0 0 1 1 0 0 .00127 16 47
 3039 764 ?41 765 760 761 0 0 1 31 763 3046 0 765 761 766 0 --.0073025 .01397 0
 0 0 1 1 0 0 .00127 16 765 3044 767 ?55 38 47 763 0 0 1 31 766 3051 0 38 763 768
 0 -.0073025 .02413 0 0 0 1 1 0 0 .00127 16 38 3049 769 ?28 770 765 766 0 0 1 31
 768 3056 0 770 766 771 0 --9525e-7 -.02413 0 0 0 1 1 0 0 .00127 16 770 3054 772
 ?106 773 38 768 0 0 1 30 771 3061 0 773 768 774 0 --.0073025 .0254 .0029718 0 0
 -1 16 773 3059 775 ?92 776 770 771 0 0 1 30 774 3066 0 776 771 777 0 +.0073025
 .0254 0 0 0 -1 16 776 3064 778 ?779 780 773 774 0 0 1 30 777 3071 0 780 774 781
 0 -.0085725 .02413 .0029718 0 0 -1 16 780 3069 782 ?98 783 776 777 0 0 1 30 781
 3076 0 783 777 784 0 --.0073025 .0127 -693889390390723e-32 0 0 1 16 783 3074 78
5 ?65 786 780 781 0 0 1 30 784 3081 0 786 781 787 0 +-.0034925 .0127 -.0224282 0
 0 1 16 786 3079 788 ?789 790 783 784 0 0 1 30 787 3086 0 790 784 791 0 +-.00857
25 .02413 .0029718 0 0 -1 16 790 3084 792 ?793 794 786 787 0 0 1 30 791 3091 0 7
94 787 21 0 +-.0085725 .01397 .0029718 0 0 1 16 794 3089 795 ?796 26 790 791 0 0
 1 31 21 3102 0 26 791 8 0 --.0034925 .01143 .0029718 0 0 1 1 0 0 .00127 16 26 3
094 797 ?110 11 794 21 0 0 1 81 1 797 3288 30 26 0 0 24 639 798 17 110 0 401 407
 609 107 77 26 0 613 +17 407 0 401 73 110 111 613 610 0 0 -17 609 0 401 110 81 7
4 799 571 0 0 +17 77 0 800 801 802 74 110 26 0 789 -17 613 0 803 102 747 107 407
 610 0 802 +15 803 386 0 804 805 0 17 102 0 803 804 613 99 802 741 0 654 +17 747
 0 803 613 804 111 806 744 0 407 +17 802 0 800 77 807 107 102 741 0 0 -15 800 31
65 0 807 808 0 17 807 0 800 802 801 99 25 11 0 0 -17 801 0 800 807 77 59 789 786
 0 0 -17 25 0 34 809 654 59 807 11 0 658 +15 34 2550 0 647 810 0 17 809 0 34 55
 25 62 658 655 0 811 -17 654 0 34 25 106 99 804 651 0 807 +17 658 0 812 789 65 5
9 809 655 0 801 +15 812 382 0 658 813 0 17 789 0 812 799 658 74 801 786 0 609 +1
7 65 0 812 658 799 62 814 783 0 809 +17 799 0 812 65 789 78 609 571 0 814 -17 81
4 0 815 85 811 78 65 783 0 0 -15 815 3186 0 811 816 0 17 85 0 815 817 814 82 81
 751 0 796 -17 811 0 815 814 817 62 55 765 0 0 -17 817 0 815 811 85 50 796 794 0
 0 -17 55 0 34 45 809 50 811 765 0 643 +17 45 0 34 41 55 56 643 640 0 0 -17 643
 0 818 796 793 50 45 640 0 817 +15 818 123 0 643 819 0 17 796 0 818 820 643 82 8
17 794 0 627 +17 793 0 818 643 820 56 821 790 0 45 +17 820 0 818 793 796 86 627
 624 0 821 -17 821 0 822 823 46 86 793 790 0 0 -15 822 3207 0 823 19 0 17 823 0
 822 824 821 90 89 748 0 0 -17 46 0 822 821 824 56 41 47 0 793 -17 824 0 822 46
 823 29 92 773 0 0 -17 92 0 825 826 48 90 824 773 0 623 +15 825 125 0 826 827 0
 17 826 0 825 779 92 93 623 618 0 828 -17 48 0 825 92 779 29 36 636 0 824 +17 62
3 0 401 89 95 90 826 618 0 823 +17 89 0 401 627 623 86 823 748 0 820 +17 95 0 40
1 623 829 93 830 754 0 826 +17 829 0 401 95 831 96 237 615 0 830 -17 830 0 832 8
33 828 96 95 754 0 0 -15 832 3144 0 830 834 0 17 833 0 832 37 830 12 98 780 0 0
 -17 828 0 832 830 37 93 779 776 0 0 -17 37 0 832 828 833 42 28 38 0 779 -17 779
 0 825 48 826 42 828 776 0 36 +17 36 0 34 28 41 42 48 636 0 0 -17 98 0 835 237 3
9 96 833 780 0 829 +15 835 1191 0 39 836 0 17 237 0 835 837 98 234 829 615 0 549
 +17 39 0 835 98 837 12 35 633 0 833 -17 837 0 835 39 237 201 549 546 0 0 -17 35
 0 34 702 28 201 39 633 0 838 +17 702 0 34 839 35 238 838 699 0 0 +17 838 0 840
 549 841 201 702 699 0 837 -15 840 1557 0 841 842 0 17 549 0 840 523 838 234 837
 546 0 831 +17 841 0 840 838 523 238 261 516 0 702 -17 523 0 840 841 549 258 831
 520 0 0 +17 261 0 843 844 241 258 841 516 0 479 +15 843 1804 0 241 845 0 17 844
 0 843 846 261 290 479 476 0 847 -17 241 0 843 261 846 238 839 517 0 841 +17 479
 0 401 831 847 258 844 476 0 523 +17 831 0 401 829 479 234 523 520 0 0 -17 847 0
 401 479 848 290 483 480 0 0 -17 848 0 401 847 849 286 130 485 0 0 -17 483 0 850
 851 293 286 847 480 0 848 +15 850 1796 0 293 852 0 17 851 0 850 249 483 270 289
 498 0 716 -17 293 0 850 483 249 290 846 501 0 844 +17 249 0 850 293 851 246 716
 713 0 846 -17 846 0 843 241 844 246 293 501 0 839 -17 839 0 34 716 702 246 241
 517 0 0 -17 716 0 34 853 839 270 249 713 0 0 +16 517 1708 854 ?241 525 516 510
 513 513 1 81 1 854 1927 30 517 0 0 855 515 856 16 525 1537 857 ?233 520 517 518
 520 520 1 81 1 857 1940 30 525 0 0 522 532 858 17 233 0 859 860 512 230 849 525
 0 545 +15 859 1320 0 861 862 0 17 860 0 859 861 233 214 545 542 0 0 -17 512 0 8
59 233 861 127 265 508 0 849 +17 849 0 401 848 863 127 233 525 0 0 -17 545 0 864
 528 865 230 860 542 0 863 +15 864 1324 0 545 866 0 17 528 0 864 867 545 226 863
 524 0 0 +17 865 0 864 545 867 214 697 694 0 860 -17 863 0 401 849 229 230 528 5
24 0 0 -17 229 0 401 863 868 226 869 529 0 541 +17 868 0 401 229 491 274 870 484
 0 869 -17 869 0 871 872 541 274 229 529 0 0 -16 529 1515 873 ?229 530 524 526 5
30 530 1 17 541 0 871 869 221 226 867 538 0 528 +15 871 1520 0 872 874 0 17 221
 0 871 541 872 218 875 689 0 867 +17 867 0 864 865 528 218 541 538 0 697 -17 697
 0 34 875 217 218 865 694 0 0 +17 875 0 34 507 697 131 221 689 0 0 -17 217 0 34
 697 853 214 861 698 0 865 +17 853 0 34 217 716 262 273 509 0 861 +17 861 0 859
 512 860 262 217 698 0 0 -16 698 1547 876 ?217 699 694 695 699 699 1 81 1 876 19
36 30 698 0 0 701 692 877 80 7 CCCCCDI12 legal_owners0 16 1 lCZ1 30 878 879 9000
 0 0 0 0 3 6 0 0 0 FFTFTFTTFFFFFFFF1 81 1 701 1935 30 699 0 0 880 876 881 81 1 6
92 1937 30 690 0 0 876 882 883 82 255 3 877 22 21 1 81 1 882 1938 30 689 0 0 692
 522 884 82 3 883 22 22 1 16 689 1505 882 ?221 690 685 686 690 690 1 81 1 522 19
39 30 520 0 0 882 857 885 82 3 884 22 23 1 82 3 885 22 24 1 81 1 880 1934 30 484
 0 0 487 701 886 82 3 881 22 20 1 16 484 1658 880 ?870 485 480 481 485 485 1 81
 1 487 1933 30 485 0 0 887 880 888 82 3 886 22 19 1 81 1 887 1932 30 475 0 0 478
 487 889 82 3 888 22 18 1 16 475 1688 887 ?890 476 471 472 476 476 1 81 1 478 19
31 30 476 0 0 506 887 891 82 3 889 22 17 1 81 1 506 1930 30 504 0 0 892 478 893
 82 3 891 22 16 1 81 1 892 1929 30 509 0 0 515 506 894 82 3 893 22 15 1 16 509 1
693 892 ?853 513 508 502 504 504 1 81 1 515 1928 30 513 0 0 854 892 895 82 3 894
 22 14 1 82 3 895 22 13 1 17 890 0 401 491 533 278 257 475 0 0 +17 491 0 401 868
 890 282 896 488 0 0 +17 533 0 401 890 897 254 225 530 0 0 +17 257 0 898 245 281
 254 890 475 0 709 -15 898 1808 0 253 899 0 17 245 0 898 253 257 242 709 706 0 9
00 -17 281 0 898 257 253 278 901 492 0 896 +17 709 0 902 225 693 254 245 706 0 5
33 +15 902 1328 0 693 903 0 17 225 0 902 138 709 222 533 530 0 537 -17 693 0 902
 709 138 242 904 690 0 0 +17 138 0 902 693 225 135 537 534 0 904 -17 904 0 34 90
5 900 135 693 690 0 906 -17 905 0 34 725 904 298 906 637 0 0 +17 900 0 34 904 90
7 242 253 513 0 693 -17 906 0 908 537 909 135 905 637 0 0 -15 908 2111 0 909 910
 0 17 537 0 908 911 906 222 138 534 0 897 +17 909 0 908 906 911 298 317 468 0 90
5 -16 637 1149 912 ?905 633 614 629 633 614 1 81 1 912 2332 30 637 0 0 913 914 9
15 16 614 2068 913 ?159 637 610 629 637 633 1 81 1 913 2331 30 614 0 0 916 912 9
17 17 159 0 34 647 918 156 919 614 0 650 +17 647 0 34 106 159 66 920 644 0 921 +
17 918 0 34 159 922 294 730 727 0 919 -17 919 0 923 474 650 294 159 614 0 0 -17
 650 0 923 919 163 156 924 632 0 920 +15 923 127 0 919 925 0 17 163 0 923 650 47
4 155 926 620 0 924 +17 924 0 927 631 920 155 650 632 0 928 -17 920 0 927 924 69
 156 647 644 0 0 -15 927 245 0 631 929 0 17 69 0 927 920 631 66 930 760 0 647 +1
7 631 0 927 69 924 70 928 628 0 930 +17 930 0 931 114 921 70 69 760 0 0 -15 931
 3123 0 921 932 0 17 114 0 931 806 930 111 73 757 0 747 -17 921 0 931 930 806 66
 106 770 0 0 -17 806 0 931 921 114 103 747 744 0 0 -17 106 0 34 654 647 103 921
 770 0 804 +17 804 0 803 747 102 103 654 651 0 806 -17 73 0 401 928 407 70 114 7
57 0 631 +17 928 0 401 926 73 155 631 628 0 0 -17 926 0 401 450 928 318 163 620
 0 0 -17 450 0 401 933 926 338 321 447 0 0 +16 620 2093 914 ?163 619 644 611 619
 615 1 81 1 914 2333 30 620 0 0 912 934 935 16 619 1173 934 ?911 615 620 611 615
 620 1 81 1 934 2334 30 619 0 0 914 936 937 17 911 0 908 909 537 314 897 619 0 0
 +17 897 0 401 533 402 222 911 619 0 0 -17 402 0 401 897 396 314 403 453 0 911 -
17 403 0 938 399 317 342 402 453 0 0 +15 938 2494 0 399 939 0 17 399 0 938 301 4
03 326 345 400 0 725 -17 317 0 938 403 301 314 909 468 0 402 +17 301 0 938 317 3
99 298 725 722 0 909 -17 725 0 34 391 905 326 301 722 0 0 +17 391 0 34 388 725 3
30 329 439 0 0 -17 388 0 34 434 391 354 333 389 0 0 +17 329 0 390 345 380 326 39
1 439 0 399 +17 434 0 34 305 388 346 357 393 0 940 +17 305 0 34 941 434 302 940
 721 0 720 +17 357 0 942 373 349 354 434 393 0 384 -17 940 0 943 734 944 346 305
 721 0 0 -15 943 2244 0 940 945 0 17 734 0 943 313 940 119 349 731 0 408 +17 944
 0 943 940 313 302 467 464 0 0 -16 721 2483 946 ?305 722 717 718 722 722 1 81 1
 946 2906 30 721 0 0 724 449 947 81 1 724 2905 30 722 0 0 948 946 949 81 1 449 2
907 30 447 0 0 946 950 951 82 3 947 30 23 1 81 1 950 2908 30 452 0 0 449 455 952
 82 3 951 30 24 1 16 452 2515 950 ?309 447 443 444 447 447 1 81 1 455 2909 30 45
3 0 0 950 953 954 82 3 952 30 25 1 81 1 953 2910 30 451 0 0 455 955 956 82 3 954
 30 26 1 16 451 2473 953 ?313 453 447 448 453 453 1 81 1 955 2911 30 957 0 958 9
53 959 960 82 3 956 30 27 1 14 255 957 2526 958 ?939 810 961 6 962 +963 963 939
 810 23 81 1 958 3319 964 957 955 0 965 966 967 81 1 959 2912 30 963 0 968 955 9
69 970 82 3 960 30 4 2 14 963 2249 968 ?945 971 972 6 962 +957 957 945 971 23 81
 1 968 3348 964 963 959 0 973 974 975 81 1 969 2913 30 939 0 966 959 976 977 82
 3 970 30 5 2 14 939 2496 966 ?925 957 938 6 978 -945 945 925 957 23 81 1 966 33
20 964 939 969 0 958 979 980 81 1 976 2914 30 945 0 974 969 981 982 82 3 977 30
 6 2 14 945 2257 974 ?983 963 943 6 978 -939 939 983 963 23 81 1 974 3349 964 94
5 976 0 968 984 985 81 1 981 2915 30 986 0 987 976 988 989 82 3 982 30 7 2 14 98
6 2769 987 ?990 991 992 6 993 +398 398 990 991 23 81 1 987 3355 964 986 981 0 99
4 995 996 81 1 988 2916 30 398 0 997 981 998 999 82 3 989 30 8 2 14 398 2785 997
 ?383 1000 390 6 993 +986 986 383 1000 23 81 1 997 3352 964 398 988 0 1001 1002
 1003 81 1 998 2917 30 990 0 995 988 1004 1005 82 3 999 30 9 2 14 990 2777 995 ?
932 986 1006 6 1007 -1000 1000 932 986 23 81 1 995 3356 964 990 998 0 987 1008 1
009 81 1 1004 2918 30 1000 0 1001 998 49 1010 82 3 1005 30 10 2 14 1000 2793 100
1 ?398 983 942 6 1007 -990 990 398 983 23 81 1 1001 3351 964 1000 1004 0 984 997
 1011 81 1 49 3249 30 42 0 0 1004 31 1012 82 3 1010 30 11 2 81 1 31 3250 30 93 0
 0 49 27 1013 82 3 1012 31 0 0 82 3 1013 31 1 0 80 1 964 0 1014 8001 0 0 0 0 3 5
 0 0 0 FFFFTFTFFFFFFFFF2 81 1 984 3350 964 983 916 0 974 1001 1015 83 255 3 1011
 .231372549019608 .380392156862745 .705882352941177 14 983 2261 984 ?1000 945 10
16 6 1017 +0 0 1000 945 23 81 1 916 2328 30 983 0 984 466 913 1018 83 3 1015 .23
1372549019608 .380392156862745 .705882352941177 81 1 466 2325 30 464 0 0 462 916
 1019 82 3 1018 26 2 2 81 1 462 2324 30 460 0 0 458 466 1020 82 3 1019 26 9 1 81
 1 458 2323 30 456 0 0 719 462 1021 82 3 1020 26 8 1 81 1 719 2320 30 717 0 0 47
0 458 1022 82 3 1021 26 7 1 81 1 470 2317 30 468 0 0 473 719 1023 82 3 1022 26 4
 1 81 1 473 2316 30 471 0 0 312 470 1024 82 3 1023 26 1 1 81 1 312 2315 30 310 0
 0 316 473 1025 82 3 1024 26 0 1 81 1 316 2314 30 314 0 0 308 312 1026 82 3 1025
 26 7 0 81 1 308 2313 30 306 0 0 320 316 1027 82 3 1026 26 6 0 81 1 320 2312 30
 318 0 0 304 308 1028 82 3 1027 26 5 0 81 1 304 2311 30 302 0 0 125 320 1029 82
 3 1028 26 4 0 81 1 125 2310 30 123 0 0 300 304 1030 82 3 1029 26 3 0 81 1 300 2
309 30 298 0 0 296 125 1031 82 3 1030 26 2 0 81 1 296 2308 30 294 0 0 1032 300 1
033 82 3 1031 26 1 0 81 1 1032 1950 30 1034 0 1035 1036 296 1037 82 3 1033 26 0
 0 14 1034 1825 1035 ?899 874 1038 6 1039 -971 971 899 874 23 81 1 1035 3342 964
 1034 1032 0 1040 1041 1042 81 1 1036 1949 30 971 0 973 1043 1032 1044 82 3 1037
 22 11 2 14 971 1809 973 ?963 845 1045 6 1039 -1034 1034 963 845 23 81 1 973 334
7 964 971 1036 0 1046 968 1047 81 1 1043 1948 30 899 0 1041 1048 1036 1049 82 3
 1044 22 10 2 14 899 1817 1041 ?1050 1034 898 6 1051 +845 845 1050 1034 23 81 1
 1041 3343 964 899 1043 0 1035 1052 1053 81 1 1048 1947 30 845 0 1046 1054 1043
 1055 82 3 1049 22 9 2 14 845 1801 1046 ?971 852 843 6 1051 +899 899 971 852 23
 81 1 1046 3346 964 845 1048 0 1056 973 1057 81 1 1054 1946 30 874 0 1040 1058 1
048 1059 82 3 1055 22 8 2 14 874 1341 1040 ?1034 866 871 6 1060 +903 903 1034 86
6 23 81 1 1040 3341 964 874 1054 0 1061 1035 1062 81 1 1058 1945 30 903 0 1063 1
064 1054 1065 82 3 1059 22 7 2 14 903 1528 1063 ?910 842 902 6 1060 +874 874 910
 842 23 81 1 1063 3323 964 903 1058 0 1066 1067 1068 81 1 1064 1944 30 862 0 106
9 1070 1058 1071 82 3 1065 22 6 2 14 862 1333 1069 ?866 1072 859 6 1073 -842 842
 866 1072 23 81 1 1069 3339 964 862 1064 0 1074 1061 1075 81 1 1070 1943 30 842
 0 1066 873 1064 1076 82 3 1071 22 5 2 14 842 1558 1066 ?903 925 840 6 1073 -862
 862 903 925 23 81 1 1066 3322 964 842 1070 0 979 1063 1077 81 1 873 1942 30 529
 0 0 532 1070 1078 82 3 1076 22 4 2 81 1 532 1941 30 530 0 0 857 873 1079 82 3 1
078 22 27 1 82 3 1079 22 26 1 81 1 979 3321 964 925 936 0 966 1066 1080 83 3 107
7 .231372549019608 .380392156862745 .705882352941177 14 925 2117 979 ?842 939 92
3 6 1081 +910 836 842 939 23 81 1 936 2335 30 925 0 979 934 1082 1083 83 3 1080
 .231372549019608 .380392156862745 .705882352941177 81 1 1082 2336 30 910 0 1067
 936 324 1084 82 3 1083 26 5 2 14 910 1197 1067 ?836 903 908 6 1081 +836 925 836
 903 23 81 1 1067 3324 964 910 1082 0 1063 1085 1086 81 1 324 2863 30 322 0 0 10
82 117 1087 82 3 1084 26 6 2 81 1 117 2864 30 115 0 0 324 340 1088 82 3 1087 30
 0 0 81 1 340 2865 30 338 0 0 117 360 1089 82 3 1088 30 1 0 81 1 360 2866 30 358
 0 0 340 328 1090 82 3 1089 30 2 0 81 1 328 2867 30 326 0 0 360 348 1091 82 3 10
90 30 3 0 81 1 348 2868 30 346 0 0 328 344 1092 82 3 1091 30 4 0 81 1 344 2869 3
0 342 0 0 348 121 1093 82 3 1092 30 5 0 81 1 121 2870 30 119 0 0 344 332 1094 82
 3 1093 30 6 0 81 1 332 2871 30 330 0 0 121 356 1095 82 3 1094 30 7 0 81 1 356 2
872 30 354 0 0 332 336 1096 82 3 1095 30 8 0 81 1 336 2873 30 334 0 0 356 352 10
97 82 3 1096 30 9 0 81 1 352 2874 30 350 0 0 336 375 1098 82 3 1097 30 10 0 82 3
 1098 30 11 0 81 1 1085 3325 964 836 1099 0 1067 1100 1101 83 3 1086 .2313725490
19608 .380392156862745 .705882352941177 14 836 128 1085 ?827 910 835 6 1081 +925
 910 827 910 23 81 1 1099 3311 30 836 0 1085 1102 1103 1104 81 1 1100 3326 964 8
27 1105 0 1085 1106 1107 83 3 1101 .231372549019608 .380392156862745 .7058823529
41177 14 827 126 1100 ?819 836 825 6 1108 -0 0 819 836 23 81 1 1105 3306 30 827
 0 1100 1109 1110 1111 81 1 1106 3327 964 819 1102 0 1100 1112 1113 83 3 1107 .2
31372549019608 .380392156862745 .705882352941177 14 819 124 1106 ?929 827 818 6
 1114 -0 0 929 827 23 81 1 1102 3310 30 819 0 1106 1115 1099 1116 81 1 1112 3328
 964 929 1115 0 1106 1117 1118 83 3 1113 .231372549019608 .380392156862745 .7058
82352941177 14 929 122 1112 ?813 819 927 6 1119 +0 0 813 819 23 81 1 1115 3309 3
0 929 0 1112 1120 1102 1121 81 1 1117 3329 964 813 1110 0 1112 1122 1123 83 3 11
18 .231372549019608 .380392156862745 .705882352941177 14 813 387 1117 ?805 929 8
12 6 1124 +0 0 805 929 23 81 1 1110 3307 30 813 0 1117 1105 1120 1125 81 1 1122
 3330 964 805 1120 0 1117 1126 1127 83 3 1123 .231372549019608 .380392156862745
 .705882352941177 14 805 399 1122 ?1128 813 803 6 1129 -0 0 1128 813 23 81 1 112
0 3308 30 805 0 1122 1110 1115 1130 81 1 1126 3331 964 1128 1131 0 1122 1132 113
3 83 3 1127 .231372549019608 .380392156862745 .705882352941177 14 1128 883 1126
 ?1134 805 1135 6 1136 +0 0 1134 805 23 81 1 1131 1072 30 1128 0 1126 1137 1138
 1139 81 1 1132 3332 964 1134 1140 0 1126 1141 1142 83 3 1133 .231372549019608 .
380392156862745 .705882352941177 14 1134 887 1132 ?1143 1128 1144 6 1145 -0 0 11
43 1128 23 81 1 1140 1074 30 1134 0 1132 1138 1146 1147 81 1 1141 3333 964 1143
 1138 0 1132 1148 1149 83 3 1142 .231372549019608 .380392156862745 .705882352941
177 14 1143 891 1141 ?1150 1134 1151 6 1152 -0 0 1150 1134 23 81 1 1138 1073 30
 1143 0 1141 1131 1140 1153 81 1 1148 3334 964 1150 1146 0 1141 1154 1155 83 3 1
149 .231372549019608 .380392156862745 .705882352941177 14 1150 895 1148 ?1156 11
43 1157 6 1158 +0 0 1156 1143 23 81 1 1146 1075 30 1150 0 1148 1140 1159 1160 81
 1 1154 3335 964 1156 1161 0 1148 1162 1163 83 3 1155 .231372549019608 .38039215
6862745 .705882352941177 14 1156 754 1154 ?1164 1150 1165 6 1166 +0 0 1164 1150
 23 81 1 1161 1070 30 1156 0 1154 600 1137 1167 81 1 1162 3336 964 1164 1159 0 1
154 1168 1169 83 3 1163 .231372549019608 .380392156862745 .705882352941177 14 11
64 758 1162 ?1170 1156 1171 6 1172 -0 0 1170 1156 23 81 1 1159 1076 30 1164 0 11
62 1146 1173 1174 81 1 1168 3337 964 1170 1137 0 1162 1074 1175 83 3 1169 .23137
2549019608 .380392156862745 .705882352941177 14 1170 762 1168 ?1072 1164 1176 6
 1177 -0 0 1072 1164 23 81 1 1137 1071 30 1170 0 1168 1161 1131 1178 81 1 1074 3
338 964 1072 1173 0 1168 1069 1179 83 3 1175 .231372549019608 .380392156862745 .
705882352941177 14 1072 766 1074 ?862 1170 1180 6 1181 +0 0 862 1170 23 81 1 117
3 1077 30 1072 0 1074 1159 213 1182 83 3 1179 .231372549019608 .380392156862745
 .705882352941177 81 1 213 1388 30 201 0 0 1173 137 1183 82 3 1182 14 7 2 81 1 1
37 1389 30 135 0 0 213 216 1184 82 3 1183 18 0 0 81 1 216 1390 30 214 0 0 137 22
0 1185 82 3 1184 18 1 0 81 1 220 1391 30 218 0 0 216 236 1186 82 3 1185 18 2 0 8
1 1 236 1392 30 234 0 0 220 232 1187 82 3 1186 18 3 0 81 1 232 1393 30 230 0 0 2
36 224 1188 82 3 1187 18 4 0 81 1 224 1394 30 222 0 0 232 228 1189 82 3 1188 18
 5 0 81 1 228 1395 30 226 0 0 224 548 1190 82 3 1189 18 6 0 81 1 548 1396 30 546
 0 0 228 536 1191 82 3 1190 18 7 0 81 1 536 1397 30 534 0 0 548 696 1192 82 3 11
91 18 0 1 81 1 696 1400 30 694 0 0 536 527 1193 82 3 1192 18 1 1 81 1 527 1403 3
0 524 0 0 696 544 1194 82 3 1193 18 4 1 81 1 544 1404 30 542 0 0 527 540 1195 82
 3 1194 18 7 1 81 1 540 1405 30 538 0 0 544 1196 1197 82 3 1195 18 8 1 81 1 1196
 1408 30 866 0 1061 540 240 1198 82 3 1197 18 9 1 14 866 1337 1061 ?874 862 864
 6 1199 -0 0 874 862 23 81 1 1061 3340 964 866 1196 0 1069 1040 1200 81 1 240 18
95 30 238 0 0 1196 264 1201 82 3 1198 18 2 2 81 1 264 1896 30 262 0 0 240 260 12
02 82 3 1201 22 0 0 81 1 260 1897 30 258 0 0 264 129 1203 82 3 1202 22 1 0 81 1
 129 1898 30 127 0 0 260 244 1204 82 3 1203 22 2 0 81 1 244 1899 30 242 0 0 129
 133 1205 82 3 1204 22 3 0 81 1 133 1900 30 131 0 0 244 256 1206 82 3 1205 22 4
 0 81 1 256 1901 30 254 0 0 133 276 1207 82 3 1206 22 5 0 81 1 276 1902 30 274 0
 0 256 248 1208 82 3 1207 22 6 0 81 1 248 1903 30 246 0 0 276 272 1209 82 3 1208
 22 7 0 81 1 272 1904 30 270 0 0 248 252 1210 82 3 1209 22 8 0 81 1 252 1905 30
 250 0 0 272 268 1211 82 3 1210 22 9 0 81 1 268 1906 30 266 0 0 252 292 1212 82
 3 1211 22 10 0 81 1 292 1907 30 290 0 0 268 288 1213 82 3 1212 22 11 0 81 1 288
 1908 30 286 0 0 292 280 1214 82 3 1213 22 12 0 81 1 280 1909 30 278 0 0 288 284
 1215 82 3 1214 22 13 0 81 1 284 1910 30 282 0 0 280 519 1216 82 3 1215 22 14 0
 81 1 519 1911 30 516 0 0 284 511 1217 82 3 1216 22 15 0 81 1 511 1912 30 508 0
 0 519 708 1218 82 3 1217 22 0 1 81 1 708 1913 30 706 0 0 511 705 1219 82 3 1218
 22 1 1 81 1 705 1914 30 703 0 0 708 715 1220 82 3 1219 22 2 1 81 1 715 1915 30
 713 0 0 705 712 1221 82 3 1220 22 3 1 81 1 712 1916 30 710 0 0 715 482 1222 82
 3 1221 22 4 1 81 1 482 1917 30 480 0 0 712 490 1223 82 3 1222 22 5 1 81 1 490 1
918 30 488 0 0 482 503 1224 82 3 1223 22 6 1 81 1 503 1919 30 501 0 0 490 500 12
25 82 3 1224 22 7 1 81 1 500 1920 30 498 0 0 503 494 1226 82 3 1225 22 8 1 81 1
 494 1921 30 492 0 0 500 497 1227 82 3 1226 22 9 1 81 1 497 1922 30 495 0 0 494
 1228 1229 82 3 1227 22 10 1 81 1 1228 1923 30 852 0 1056 497 855 1230 82 3 1229
 22 11 1 14 852 1821 1056 ?845 1050 850 6 1231 -0 0 845 1050 23 81 1 1056 3345 9
64 852 1228 0 1052 1046 1232 81 1 855 1924 30 1050 0 1052 1228 854 1233 82 3 123
0 22 0 2 14 1050 1829 1052 ?852 899 1234 6 1235 +0 0 852 899 23 81 1 1052 3344 9
64 1050 855 0 1041 1056 1236 82 3 1233 22 1 2 83 3 1236 .231372549019608 .380392
156862745 .705882352941177 15 1234 1800 0 269 1050 0 50 255 1235 1846 0 1050 962
 1039 0 +.002936875 -.0045974 -.0224282 0 1 0 0 0 1 13 23 49 0 0 0 0 0 0 10 17 1
4 17 1 1237 ?810 0 1238 6 1239 +0 0 810 0 23 81 1 1237 3317 964 17 1240 0 0 965
 1241 14 810 68 965 ?957 17 1242 6 1243 -0 0 957 17 23 15 1238 597 0 1244 17 124
5 50 1239 3 0 17 1124 1243 0 +0 -3469446951953615e-33 .0029718 0 0 1 1 0 0 50 11
24 413 0 813 1129 1239 0 +-.0053975 .0127 -.0224282 0 -1 0 0 0 -1 50 1243 108 0
 810 1239 1119 0 +0 -3469446951953615e-33 0 0 0 1 1 0 0 50 1119 129 0 929 1243 1
114 0 +-1734723475976805e-33 -.0254 .0029718 0 -1 0 0 0 -1 50 1114 130 0 819 111
9 1108 0 +-.0085725 -3469446951953615e-33 .0029718 1 -341480999208033e-31 0 3414
80999208033e-31 1 0 50 1108 131 0 827 1114 1081 0 +1734723475976805e-33 .0254 .0
029718 0 -1 0 0 0 -1 50 1081 132 0 836 1108 1246 0 +.0085725 -3469446951953615e-
33 .0029718 1 -341480999208033e-31 0 341480999208033e-31 1 0 51 1246 3134 0 932
 1081 1247 0 +-9525e-7 -.02413 -.0224282 0 0 -1 .00127 -1 0 0 14 932 3122 1008 ?
834 990 931 6 1246 +0 0 834 990 23 51 1247 3155 0 834 1246 1248 0 +.0073025 .024
13 .0029718 0 0 1 .00127 1 0 0 14 834 3143 1249 ?808 932 832 6 1247 +0 0 808 932
 23 51 1248 3176 0 808 1247 20 0 +-.0034925 .01143 -.0224282 0 0 1 .00127 1 0 0
 14 808 3164 1250 ?816 834 800 6 1248 -0 0 816 834 23 51 20 3197 0 816 1248 7 0
 +-.0073025 .01397 .0029718 0 0 -1 .00127 -1 0 0 14 816 3185 1251 ?19 808 815 6
 20 +0 0 19 808 23 81 1 1251 3360 964 816 1252 0 1250 1253 1254 14 19 3206 1253
 ?0 816 822 6 7 +0 0 0 816 23 81 1 1253 3361 964 19 1255 0 1251 0 1256 81 1 1255
 3302 30 19 0 1253 1257 1258 1259 83 3 1256 .231372549019608 .380392156862745 .7
05882352941177 81 1 1257 3301 30 834 0 1249 617 1255 1260 81 1 1258 3303 30 932
 0 1008 1255 1252 1261 82 3 1259 31 1 2 81 1 1008 3357 964 932 1258 0 995 1249 1
262 81 1 1252 3304 30 816 0 1251 1258 1109 1263 82 3 1261 31 2 2 81 1 1109 3305
 30 808 0 1250 1252 1105 1264 82 3 1263 31 3 2 81 1 1250 3359 964 808 1109 0 124
9 1251 1265 82 3 1264 31 4 2 81 1 1249 3358 964 834 1257 0 1008 1250 1266 83 3 1
265 .231372549019608 .380392156862745 .705882352941177 83 3 1266 .23137254901960
8 .380392156862745 .705882352941177 83 3 1262 .231372549019608 .380392156862745
 .705882352941177 81 1 617 3300 30 615 0 0 635 1257 1267 82 3 1260 31 0 2 81 1 6
35 3299 30 633 0 0 626 617 1268 82 3 1267 31 31 1 81 1 626 3298 30 624 0 0 642 6
35 1269 82 3 1268 31 30 1 81 1 642 3297 30 640 0 0 630 626 1270 82 3 1269 31 29
 1 81 1 630 3296 30 628 0 0 646 642 1271 82 3 1270 31 28 1 81 1 646 3295 30 644
 0 0 612 630 1272 82 3 1271 31 27 1 81 1 612 3294 30 610 0 0 608 646 1273 82 3 1
272 31 26 1 81 1 608 3293 30 571 0 0 653 612 1274 82 3 1273 31 25 1 81 1 653 329
2 30 651 0 0 657 608 1275 82 3 1274 31 24 1 81 1 657 3291 30 655 0 0 622 653 127
6 82 3 1275 31 23 1 81 1 622 3290 30 618 0 0 639 657 1277 82 3 1276 31 22 1 81 1
 639 3289 30 636 0 0 797 622 1278 82 3 1277 31 21 1 82 3 1278 31 20 1 83 3 1254
 .231372549019608 .380392156862745 .705882352941177 50 1129 416 0 805 1136 1124
 0 +-.0022225 -.00635 -.0224282 1 1821231995776175e-31 0 -1821231995776175e-31 1
 0 50 1136 911 0 1128 1145 1129 0 +-.005715 .0172974 -.0224282 0 -1 0 0 0 -1 51
 1145 912 0 1134 1152 1136 0 +-.0066675 .015875 -.0224282 0 0 1 .0014224 1 0 0 5
0 1152 913 0 1143 1158 1145 0 +-.005715 .0144526 -.0224282 0 -1 0 0 0 -1 51 1158
 914 0 1150 1181 1152 0 --.0047625 .015875 -.0224282 0 0 1 .0014224 1 0 0 51 118
1 917 0 1072 1177 1158 0 --.0047625 .022225 -.0224282 0 0 1 .0014224 1 0 0 50 11
77 918 0 1170 1172 1181 0 +-.005715 .0208026 -.0224282 0 -1 0 0 0 -1 51 1172 919
 0 1164 1166 1177 0 +-.0066675 .022225 -.0224282 0 0 1 .0014224 1 0 0 50 1166 92
0 0 1156 1073 1172 0 +-.005715 .0236474 -.0224282 0 -1 0 0 0 -1 50 1073 1356 0 8
62 1199 1166 0 +.0049784 -3355713434284425e-33 -.0224282 -1224646799147352e-31 1
 0 -1 -1224646799147354e-31 0 50 1199 1357 0 866 1060 1073 0 +.0013843 -.0014224
 -.0224282 -1 -3048937492928865e-31 0 3048937492928865e-31 -1 0 50 1060 1358 0 8
74 1051 1199 0 +.0049784 -.0028448 -.0224282 -120664664031107e-30 1 0 -1 -120664
664031107e-30 0 50 1051 1843 0 845 1231 1060 0 +.0041275 -.0014224 -.0224282 -1
 -273184799366426e-30 0 2731847993664265e-31 -1 0 50 1231 1844 0 852 1039 1051 0
 +.002936875 .0017526 -.0224282 -1821231995776175e-31 1 0 -1 -1821231995776175e-
31 0 50 1039 1845 0 971 1235 1231 0 +.00174625 -.0014224 -.0224282 -1 -307332899
2872295e-31 0 3073328992872295e-31 -1 0 17 1244 0 1238 566 1279 187 562 559 0 0
 -15 1245 576 0 1280 17 401 17 1280 0 1245 583 1281 197 587 584 0 0 -17 583 0 12
45 594 1280 188 1282 550 0 0 +17 1281 0 1245 1280 594 193 146 588 0 0 -17 587 0
 1144 1283 200 193 1280 584 0 1281 +15 1144 874 0 200 1134 0 17 1283 0 1144 178
 587 179 196 602 0 669 -17 200 0 1144 587 178 197 1284 556 0 1282 +17 178 0 1144
 200 1283 175 669 666 0 1284 -17 1284 0 1135 673 1282 175 200 556 0 1285 -17 128
2 0 1135 1284 191 197 583 550 0 1280 -15 1135 870 0 673 1128 0 17 191 0 1135 128
2 673 188 154 595 0 1286 +17 673 0 1135 191 1284 151 1285 670 0 1287 +17 154 0 1
157 186 1286 151 191 595 0 673 -17 1286 0 1157 154 601 188 594 591 0 583 -15 115
7 882 0 186 1150 0 17 601 0 1157 1286 186 143 1288 598 0 594 +17 594 0 1245 1281
 583 143 1286 591 0 0 +17 186 0 1157 601 154 183 1287 659 0 1288 +17 1288 0 1151
 182 146 183 601 598 0 665 -15 1151 878 0 196 1143 0 17 182 0 1151 196 1288 179
 665 662 0 1283 -17 146 0 1151 1288 196 143 1281 588 0 601 +17 665 0 1242 1287 6
69 183 182 662 0 0 +15 1242 549 0 1285 810 1289 17 1287 0 1242 1285 665 151 186
 659 0 0 -17 669 0 1242 665 1285 179 178 666 0 0 +17 1285 0 1242 669 1287 175 67
3 670 0 0 -15 1289 570 0 1290 810 34 17 1290 0 1289 684 1291 160 688 685 0 0 -17
 684 0 1289 680 1290 167 166 681 0 0 +17 1291 0 1289 1290 680 147 174 674 0 0 -1
7 688 0 1165 211 1292 147 1290 685 0 1291 +15 1165 741 0 688 1156 0 17 211 0 116
5 1293 688 192 150 567 0 1294 +17 1292 0 1165 688 1293 160 204 568 0 1290 -17 12
93 0 1165 1292 211 187 566 563 0 1244 -17 204 0 1171 562 166 187 1292 568 0 1293
 +15 1171 745 0 204 1164 0 17 562 0 1171 1295 204 205 1244 559 0 1279 +17 166 0
 1171 204 1295 160 684 681 0 1292 -17 1295 0 1171 166 562 167 208 572 0 684 -17
 208 0 1176 142 170 205 1295 572 0 562 +15 1176 749 0 208 1170 0 17 142 0 1176 1
296 208 139 1279 555 0 578 +17 170 0 1176 208 1296 167 680 677 0 1295 -17 1296 0
 1176 170 142 171 578 575 0 680 -17 680 0 1289 1291 684 171 170 677 0 0 +17 578
 0 1180 1294 174 139 1296 575 0 554 +15 1180 753 0 174 1072 0 17 1294 0 1180 150
 578 192 554 551 0 566 -17 174 0 1180 578 150 171 1291 674 0 1296 +17 554 0 1238
 1279 566 139 1294 551 0 0 +17 1279 0 1238 1244 554 205 142 555 0 0 -17 566 0 12
38 554 1244 192 1293 563 0 0 +17 150 0 1180 174 1294 147 211 567 0 688 -17 196 0
 1151 146 182 193 1283 602 0 587 +81 1 965 3318 964 810 1103 0 1237 958 1297 81
 1 1103 3312 30 810 0 965 1099 1240 1298 83 3 1297 .231372549019608 .38039215686
2745 .705882352941177 81 1 1240 3313 30 17 0 1237 1103 0 1299 82 3 1298 31 11 2
 82 3 1299 31 12 2 83 3 1241 .231372549019608 .380392156862745 .705882352941177
 50 962 2275 0 963 978 1235 0 +.0049784 -.0218948 -.0224282 0 1 0 0 0 1 50 978 2
277 0 945 1017 962 0 +.0049784 -.01905 -.0224282 0 1 0 0 0 1 50 1017 2278 0 983
 993 978 0 +.0013843 -.0204724 -.0224282 1 152446874646443e-30 0 -15244687464644
3e-30 1 0 50 993 2811 0 986 1300 1017 0 +.0041275 -.0204724 -.0224282 -1 0 0 0 0
 1 50 1300 2812 0 383 1007 993 0 +.002936875 -.0172974 -.0224282 0 1 0 0 0 1 14
 383 2789 1002 ?991 398 378 6 1300 -0 0 991 398 23 50 1007 2813 0 990 1301 1300
 0 +.00174625 -.0204724 -.0224282 -1 -682961998416066e-31 0 682961998416066e-31
 -1 0 50 1301 2814 0 991 0 1007 0 +.002936875 -.0236474 -.0224282 0 1 0 0 0 1 14
 991 2797 994 ?986 383 1302 6 1301 +0 0 986 383 23 81 1 994 3354 964 991 1303 0
 1002 987 1304 15 1302 2768 0 353 991 0 17 353 0 1302 369 1305 350 1306 737 0 13
07 +17 369 0 1302 1308 353 366 1307 427 0 417 +17 1305 0 1302 353 1308 334 365 4
24 0 1306 -17 1306 0 34 922 1309 334 353 737 0 0 -17 1307 0 1006 118 417 350 369
 427 0 1309 -15 1006 2780 0 361 990 0 17 118 0 1006 361 1307 115 1309 436 0 1310
 -17 417 0 1006 1307 361 366 1311 411 0 423 +17 1309 0 34 1306 1312 350 118 436
 0 0 +17 1312 0 34 1309 941 115 126 726 0 0 -16 436 2661 1313 ?1309 439 435 431
 393 393 1 81 1 1313 2897 30 436 0 0 441 433 1314 81 1 441 2896 30 439 0 0 1315
 1313 1316 81 1 433 2898 30 393 0 0 1313 1317 1318 82 3 1314 30 14 1 81 1 1317 2
899 30 405 0 0 433 404 1319 82 3 1318 30 15 1 16 405 2648 1317 ?933 397 0 406 39
7 397 1 81 1 404 2900 30 397 0 0 1317 416 1320 82 3 1319 30 16 1 81 1 416 2901 3
0 411 0 0 404 420 1321 82 3 1320 30 17 1 81 1 420 2902 30 409 0 0 416 729 1322 8
2 3 1321 30 18 1 81 1 729 2903 30 727 0 0 420 948 1323 82 3 1322 30 19 1 81 1 94
8 2904 30 726 0 0 729 724 1324 82 3 1323 30 20 1 16 726 2505 948 ?126 727 722 72
3 727 727 1 82 3 1324 30 21 1 17 126 0 972 463 1310 123 1312 726 0 1325 +15 972
 2520 0 1310 963 0 17 463 0 972 1326 126 306 1325 460 0 1327 +17 1310 0 972 126
 1326 115 361 435 0 1312 -17 1325 0 1016 720 1327 123 463 460 0 941 -15 1016 224
8 0 720 983 0 17 720 0 1016 467 1325 302 941 717 0 944 +17 1327 0 1016 1325 467
 306 459 456 0 0 -17 941 0 34 1312 305 123 720 717 0 0 -17 467 0 1016 1327 720 3
10 944 464 0 459 +17 459 0 401 408 309 310 1327 456 0 0 +17 408 0 401 387 459 11
9 313 451 0 0 -17 309 0 401 459 1311 306 1326 452 0 463 +17 1311 0 401 309 423 3
58 417 411 0 1326 -17 1326 0 972 1310 463 358 309 452 0 0 -17 423 0 401 1311 933
 366 1308 421 0 0 +17 933 0 401 423 450 362 341 405 0 0 +17 1308 0 1302 1305 369
 362 423 421 0 933 -17 341 0 992 325 365 338 933 405 0 446 -15 992 2772 0 337 98
6 0 17 325 0 992 337 341 322 446 442 0 922 -17 365 0 992 341 337 362 1305 424 0
 1308 +17 446 0 961 321 730 338 325 442 0 450 +15 961 2240 0 730 957 0 17 321 0
 961 297 446 318 450 447 0 474 -17 730 0 961 446 297 322 918 727 0 0 +17 297 0 9
61 730 321 294 474 471 0 918 -17 474 0 923 163 919 318 297 471 0 926 +17 337 0 9
92 365 325 334 922 443 0 1305 +17 922 0 34 918 1306 322 337 443 0 730 -16 443 26
73 1315 ?337 452 442 437 439 439 1 81 1 1315 2895 30 443 0 0 1303 441 1328 81 1
 1303 2892 30 991 0 994 1329 1315 1330 82 3 1328 30 12 1 81 1 1329 2891 30 383 0
 1002 429 1303 1331 82 3 1330 30 1 2 81 1 1002 3353 964 383 1329 0 997 994 1332
 81 1 429 2890 30 427 0 0 426 1329 1333 82 3 1331 30 0 2 81 1 426 2889 30 424 0
 0 430 429 1334 82 3 1333 30 11 1 81 1 430 2888 30 394 0 0 392 426 1335 82 3 133
4 30 10 1 81 1 392 2887 30 381 0 0 414 430 1336 82 3 1335 30 9 1 81 1 414 2886 3
0 421 0 0 410 392 1337 82 3 1336 30 8 1 82 3 1337 30 7 1 83 3 1332 .231372549019
608 .380392156862745 .705882352941177 17 313 0 943 944 734 310 408 451 0 467 +17
 361 0 1006 417 118 358 1310 435 0 1311 +82 3 1316 30 13 1 83 3 1304 .2313725490
19608 .380392156862745 .705882352941177 17 269 0 1234 285 901 266 907 710 0 1338
 +17 285 0 1234 896 269 282 1338 495 0 870 +17 901 0 1234 269 896 250 281 492 0
 907 -17 907 0 34 900 507 250 269 710 0 0 -17 1338 0 1038 134 870 266 285 495 0
 507 -15 1038 1816 0 277 1034 0 17 134 0 1038 277 1338 131 507 504 0 872 -17 870
 0 1038 1338 277 282 868 484 0 491 +17 507 0 34 907 875 266 134 504 0 0 +17 277
 0 1038 870 134 274 872 703 0 868 +17 872 0 871 221 869 131 277 703 0 875 -17 89
6 0 1234 901 285 278 491 488 0 890 -83 3 1232 .231372549019608 .380392156862745
 .705882352941177 83 3 1200 .231372549019608 .380392156862745 .705882352941177 8
2 3 1178 14 1 2 82 3 1174 14 6 2 81 1 600 1069 30 598 0 0 604 1161 1339 82 3 116
7 14 0 2 81 1 604 1068 30 602 0 0 597 600 1340 82 3 1339 14 23 1 81 1 597 1067 3
0 595 0 0 606 604 1341 82 3 1340 14 22 1 81 1 606 1066 30 556 0 0 577 597 1342 8
2 3 1341 14 21 1 81 1 577 1065 30 575 0 0 574 606 1343 82 3 1342 14 20 1 81 1 57
4 1064 30 572 0 0 580 577 1344 82 3 1343 14 19 1 81 1 580 1063 30 567 0 0 570 57
4 1345 82 3 1344 14 18 1 81 1 570 1062 30 568 0 0 553 580 1346 82 3 1345 14 17 1
 81 1 553 1061 30 551 0 0 561 570 1347 82 3 1346 14 16 1 81 1 561 1060 30 559 0
 0 593 553 1348 82 3 1347 14 15 1 81 1 593 1059 30 591 0 0 586 561 1349 82 3 134
8 14 14 1 81 1 586 1058 30 584 0 0 590 593 1350 82 3 1349 14 13 1 81 1 590 1057
 30 588 0 0 582 586 1351 82 3 1350 14 12 1 81 1 582 1056 30 550 0 0 558 590 1352
 82 3 1351 14 11 1 81 1 558 1055 30 555 0 0 565 582 1353 82 3 1352 14 10 1 81 1
 565 1054 30 563 0 0 676 558 1354 82 3 1353 14 9 1 81 1 676 1053 30 674 0 0 683
 565 1355 82 3 1354 14 8 1 81 1 683 1052 30 681 0 0 661 676 1356 82 3 1355 14 7
 1 81 1 661 1051 30 659 0 0 668 683 1357 82 3 1356 14 6 1 81 1 668 1050 30 666 0
 0 664 661 1358 82 3 1357 14 5 1 81 1 664 1049 30 662 0 0 672 668 1359 82 3 1358
 14 4 1 81 1 672 1048 30 670 0 0 679 664 1360 82 3 1359 14 3 1 81 1 679 1047 30
 677 0 0 687 672 1361 82 3 1360 14 2 1 81 1 687 1046 30 685 0 0 145 679 1362 82
 3 1361 14 1 1 81 1 145 1045 30 143 0 0 195 687 1363 82 3 1362 14 0 1 81 1 195 1
044 30 193 0 0 190 145 1364 82 3 1363 14 15 0 81 1 190 1043 30 188 0 0 199 195 1
365 82 3 1364 14 14 0 81 1 199 1042 30 197 0 0 141 190 1366 82 3 1365 14 13 0 81
 1 141 1041 30 139 0 0 207 199 1367 82 3 1366 14 12 0 81 1 207 1040 30 205 0 0 2
10 141 1368 82 3 1367 14 11 0 81 1 210 1039 30 192 0 0 203 207 1369 82 3 1368 14
 10 0 81 1 203 1038 30 187 0 0 185 210 1370 82 3 1369 14 9 0 81 1 185 1037 30 18
3 0 0 181 203 1371 82 3 1370 14 8 0 81 1 181 1036 30 179 0 0 153 185 1372 82 3 1
371 14 7 0 81 1 153 1035 30 151 0 0 177 181 1373 82 3 1372 14 6 0 81 1 177 1034
 30 175 0 0 173 153 1374 82 3 1373 14 5 0 81 1 173 1033 30 171 0 0 169 177 1375
 82 3 1374 14 4 0 81 1 169 1032 30 167 0 0 149 173 1376 82 3 1375 14 3 0 81 1 14
9 1031 30 147 0 0 165 169 1377 82 3 1376 14 2 0 81 1 165 1030 30 160 0 0 1378 14
9 1379 82 3 1377 14 1 0 81 1 1378 178 30 1 0 1380 649 165 1381 82 3 1379 14 0 0
 81 1 1380 3314 1382 1 1378 14 0 0 1383 81 1 649 162 30 632 0 0 162 1378 1384 82
 3 1381 6 0 3 81 1 162 157 30 155 0 0 158 649 1385 82 3 1384 6 2 1 81 1 158 156
 30 156 0 0 0 162 1386 82 3 1385 6 5 0 82 3 1386 6 4 0 80 1 1382 1387 1388 8038
 0 0 0 0 0 0 0 0 0 TTTTTTTTTTTTTFTF10 81 1 14 3315 1387 1 1380 2 0 0 1389 98 255
 6 1383 80 97 114 116 32 49 80 1 1387 1390 1391 8017 0 0 0 0 0 0 0 0 0 TTTTTTTTT
TTTTFTF3 84 255 6 1389 Part 179 255 13 1391 SDL/TYSA_NAME79 14 1388 SDL/TYSA_UNA
ME82 3 1160 14 5 2 82 3 1153 14 3 2 82 3 1147 14 4 2 82 3 1139 14 2 2 82 3 1130
 31 7 2 82 3 1125 31 6 2 82 3 1121 31 8 2 82 3 1116 31 9 2 82 3 1111 31 5 2 82 3
 1104 31 10 2 83 3 1075 .231372549019608 .380392156862745 .705882352941177 83 3
 1068 .231372549019608 .380392156862745 .705882352941177 83 3 1062 .231372549019
608 .380392156862745 .705882352941177 83 3 1057 .231372549019608 .38039215686274
5 .705882352941177 83 3 1053 .231372549019608 .380392156862745 .705882352941177
 83 3 1047 .231372549019608 .380392156862745 .705882352941177 15 1045 1812 0 289
 971 0 17 289 0 1045 130 273 286 851 498 0 483 +17 130 0 1045 265 289 127 848 48
5 0 512 +17 273 0 1045 289 265 270 853 509 0 851 -17 265 0 1045 273 130 262 512
 508 0 853 -83 3 1042 .231372549019608 .380392156862745 .705882352941177 79 15 1
014 SDL/TYSA_COLOUR15 942 2784 0 373 1000 0 17 373 0 942 122 357 370 384 394 0 3
79 +17 122 0 942 349 373 119 387 409 0 734 +17 384 0 378 333 379 354 373 394 0 3
88 -17 349 0 942 357 122 346 734 731 0 434 -83 3 1009 .231372549019608 .38039215
6862745 .705882352941177 83 3 1003 .231372549019608 .380392156862745 .7058823529
41177 83 3 996 .231372549019608 .380392156862745 .705882352941177 83 3 985 .2313
72549019608 .380392156862745 .705882352941177 83 3 980 .231372549019608 .3803921
56862745 .705882352941177 83 3 975 .231372549019608 .380392156862745 .7058823529
41177 83 3 967 .231372549019608 .380392156862745 .705882352941177 82 3 949 30 22
 1 82 3 937 26 13 1 82 3 935 26 12 1 82 3 917 26 10 1 82 3 915 26 11 1 17 253 0
 898 281 245 250 900 513 0 901 +79 9 879 BTI/DetId82 3 858 22 25 1 82 3 856 22 1
2 1 17 627 0 401 81 89 82 820 624 0 0 +17 81 0 401 609 627 78 85 751 0 799 +81 1
 24 3287 30 11 0 0 743 797 1392 82 3 798 31 19 1 81 1 743 3286 30 741 0 0 788 24
 1393 82 3 1392 31 18 1 81 1 788 3285 30 786 0 0 753 743 1394 82 3 1393 31 17 1
 81 1 753 3284 30 751 0 0 767 788 1395 82 3 1394 31 16 1 81 1 767 3283 30 765 0
 0 795 753 1396 82 3 1395 31 15 1 81 1 795 3282 30 794 0 0 785 767 1397 82 3 139
6 31 14 1 81 1 785 3281 30 783 0 0 759 795 1398 82 3 1397 31 13 1 81 1 759 3280
 30 757 0 0 772 785 1399 82 3 1398 31 12 1 81 1 772 3279 30 770 0 0 762 759 1400
 82 3 1399 31 11 1 81 1 762 3278 30 760 0 0 746 772 1401 82 3 1400 31 10 1 81 1
 746 3277 30 744 0 0 750 762 1402 82 3 1401 31 9 1 81 1 750 3276 30 748 0 0 764
 746 1403 82 3 1402 31 8 1 81 1 764 3275 30 47 0 0 792 750 1404 82 3 1403 31 7 1
 81 1 792 3274 30 790 0 0 775 764 1405 82 3 1404 31 6 1 81 1 775 3273 30 773 0 0
 756 792 1406 82 3 1405 31 5 1 81 1 756 3272 30 754 0 0 769 775 1407 82 3 1406 3
1 4 1 81 1 769 3271 30 38 0 0 782 756 1408 82 3 1407 31 3 1 81 1 782 3270 30 780
 0 0 778 769 1409 82 3 1408 31 2 1 81 1 778 3269 30 776 0 0 109 782 1410 82 3 14
09 31 1 1 81 1 109 3268 30 107 0 0 101 778 1411 82 3 1410 31 0 1 81 1 101 3267 3
0 99 0 0 76 109 1412 82 3 1411 31 19 0 81 1 76 3266 30 74 0 0 61 101 1413 82 3 1
412 31 18 0 81 1 61 3265 30 59 0 0 84 76 1414 82 3 1413 31 17 0 81 1 84 3264 30
 82 0 0 54 61 1415 82 3 1414 31 16 0 81 1 54 3263 30 50 0 0 80 84 1416 82 3 1415
 31 15 0 81 1 80 3262 30 78 0 0 64 54 1417 82 3 1416 31 14 0 81 1 64 3261 30 62
 0 0 72 80 1418 82 3 1417 31 13 0 81 1 72 3260 30 70 0 0 68 64 1419 82 3 1418 31
 12 0 81 1 68 3259 30 66 0 0 113 72 1420 82 3 1419 31 11 0 81 1 113 3258 30 111
 0 0 105 68 1421 82 3 1420 31 10 0 81 1 105 3257 30 103 0 0 88 113 1422 82 3 142
1 31 9 0 81 1 88 3256 30 86 0 0 58 105 1423 82 3 1422 31 8 0 81 1 58 3255 30 56
 0 0 43 88 1424 82 3 1423 31 7 0 81 1 43 3254 30 90 0 0 40 58 1425 82 3 1424 31
 6 0 82 3 1425 31 5 0 81 1 740 2883 30 389 0 0 733 413 1426 81 1 733 2882 30 731
 0 0 736 740 1427 81 1 413 2884 30 737 0 0 740 410 1428 82 3 1426 30 4 1 82 3 14
28 30 5 1 81 1 736 2881 30 400 0 0 438 733 1429 82 3 1427 30 3 1 81 1 438 2880 3
0 435 0 0 445 736 1430 82 3 1429 30 2 1 81 1 445 2879 30 442 0 0 368 438 1431 82
 3 1430 30 1 1 81 1 368 2878 30 366 0 0 364 445 1432 82 3 1431 30 0 1 81 1 364 2
877 30 362 0 0 372 368 1433 82 3 1432 30 15 0 81 1 372 2876 30 370 0 0 375 364 1
434 82 3 1433 30 14 0 82 3 1434 30 13 0 82 3 415 30 6 1 82 3 377 30 12 0 81 1 32
 3252 30 96 0 0 27 40 1435 82 3 1435 31 3 0 82 3 44 31 4 0 82 3 33 31 2 0 19 18
 138 0 1 0 10 6 0 S0 74 4 CI16 index_map_offset0 0 1 dCCZ20 16 5 0 0 1240 1380 1
4 2 1253 0 0 0 0 0 0 0 0 0 0 0 0 0 0 0 80 1 13 964 1436 8040 0 0 0 0 3 5 0 0 0 T
TTFFFFFFFFFFFFF2 83 3 15 .231372549019608 .380392156862745 .705882352941177 79 1
7 1436 SDL/TYSA_COLOUR_21 0 
