**ABCDEFGHIJKLMNOPQRSTUVWXYZabcdefghijklmnopqrstuvwxyz**************************
**PARASOLID !"#$%&'()*+,-./:;<=>?@[\]^_`{|}~0123456789**************************
**PART1;
MC=unknown;
MC_MODEL=unknown;
MC_ID=unknown;
OS=unknown;
OS_RELEASE=unknown;
FRU=Parasolid 34.1.198;
APPL=Onshape;
SITE=unknown;
USER=unknown;
FORMAT=text;
GUISE=transmit;
KEY=BTGapi::writeModels_.xmt;
FILE=BTGapi::writeModels_.xmt;
DATE=2022-06-03T17:49:25 (UTC);
**PART2;
SCH=SCH_3401198_34101;
USFLD_SIZE=0;
**PART3;
**END_OF_HEADER*****************************************************************
T51 : TRANSMIT FILE created by modeller version 340119823 SCH_3401198_34101_1300
6231 0 12 36 CCCI7 lattice222 0 CCCI4 mesh1006 0 I8 polyline1008 0 CCCCCCCDI5 ow
ner1040 0 CCCI16 boundary_lattice222 0 CCCI13 boundary_mesh1006 0 I17 boundary_p
olyline1008 0 CCCA16 index_map_offset0 0 1 dA9 index_map82 0 A17 node_id_index_m
ap82 0 A20 schema_embedding_map82 0 A5 child12 0 A14 lowest_node_id0 0 1 dA16 me
sh_offset_data206 0 Z1 3755 2 3 0 0 0 0 0 0 0 1e3 1e-8 0 4 5 1 0 1 1 6 0 7 8 9 0
 0 10 11 12 0 0 0 0 0 0 0 81 255 1 2 3726 13 1 14 0 0 0 15 70 11 CI9 list_type0
 0 1 uI10 notransmit0 0 1 lCCCDCCDI12 finger_index0 0 1 dI12 finger_block1012 0
 CZ3 0 4 T1 0 0 5 20 1 16 16 13 255 6 137 0 1 0 17 0 0 18 0 51 255 7 3676 0 19 2
0 0 0 +-.03429 .0224282 .0127 0 -1 0 .00254 0 0 -1 30 255 8 3631 0 11 21 0 0 --.
03429 .0224282 .01524 0 -1 0 29 255 9 3613 0 12 22 0 -.03175 0 .0127 19 9 CCCCCC
I5 frame230 0 CA5 owner12 0 Z10 48 0 1 18 0 23 0 V0 16 255 11 3629 24 ?25 0 26 8
 0 0 1 18 255 12 3610 27 28 0 29 9 ?1 81 1 27 3698 30 12 0 0 31 32 33 17 255 28
 0 34 35 36 12 37 38 0 39 +18 29 3606 40 25 12 41 22 ?1 81 1 40 3696 30 29 0 0 4
2 31 43 17 25 0 44 45 46 29 47 11 0 36 +18 41 3597 48 49 29 50 51 ?1 29 22 3609
 0 29 51 9 -.03429 0 .01524 29 51 3600 0 41 52 22 .03175 0 .0127 29 52 3586 0 50
 53 51 -.03175 -.0029718 .0127 18 50 3583 32 54 41 55 52 ?1 29 53 3582 0 55 56 5
2 .03175 -.0029718 .0127 18 55 3579 42 57 50 58 53 ?1 29 56 3578 0 58 59 53 -.03
429 -.0029718 .01524 18 58 3575 31 60 55 61 56 ?1 29 59 3569 0 61 62 56 .03429 0
 .01524 18 61 3566 63 64 58 65 59 ?1 29 62 3565 0 65 66 59 .03429 -.0029718 .015
24 18 65 3562 67 68 61 69 62 ?1 29 66 2958 0 69 70 62 .034925 0 .01524 18 69 295
4 71 72 65 73 66 ?1 29 70 2713 0 73 74 66 -.03175 0 .0029718 18 73 2710 75 35 69
 76 70 ?1 29 74 2709 0 76 77 70 -.03175 -.0029718 .0029718 18 76 2706 78 79 73 8
0 74 ?1 29 77 2695 0 80 81 74 -.01905 -.0029718 -.0097282 18 80 2692 82 83 76 84
 77 ?1 29 81 2691 0 84 85 77 .01905 -.0029718 -.0097282 18 84 2688 86 87 80 88 8
1 ?1 29 85 2687 0 88 89 81 -.01905 0 -.0097282 18 88 2684 90 91 84 92 85 ?1 29 8
9 2683 0 92 93 85 .01905 0 -.0097282 18 92 2680 94 95 88 96 89 ?1 29 93 2674 0 9
6 97 89 .03175 -.0029718 .0029718 18 96 2671 98 99 92 100 93 ?1 29 97 2670 0 100
 101 93 .03175 0 .0029718 18 100 2667 102 103 96 104 97 ?1 29 101 992 0 104 105
 97 .034925 0 .0127 18 104 990 106 107 100 108 101 ?1 29 105 972 0 108 109 101 -
.034925 0 -.0097282 18 108 970 110 111 104 112 105 ?1 29 109 969 0 112 113 105 .
034925 0 -.0224282 18 112 965 114 115 108 116 109 ?1 29 113 249 0 116 117 109 -.
01905 0 -.0224282 18 116 247 118 119 112 120 113 ?1 29 117 219 0 120 121 113 .01
905 0 -.0254 18 120 215 122 123 116 124 117 ?1 29 121 719 0 124 125 117 -.01905
 693889390390723e-32 -.0254 18 124 446 126 127 120 128 121 ?1 29 125 722 0 128 1
29 121 .01905 693889390390723e-32 -.0224282 18 128 583 130 131 124 132 125 ?1 29
 129 724 0 133 134 125 .01905 -.0029718 -.0254 18 133 586 135 136 137 138 129 ?1
 29 134 725 0 138 139 129 .01905 -.0029718 -.0224282 18 138 584 140 141 133 142
 134 ?1 29 139 733 0 132 143 134 -.01905 -.0029718 -.0254 18 132 447 144 145 128
 137 139 ?1 29 143 734 0 137 146 139 -.01905 -.0029718 -.0224282 18 137 451 147
 148 132 133 143 ?1 29 146 1834 0 142 149 143 .0378968 693889390390723e-32 -.009
7282 18 142 1285 150 151 138 152 146 ?1 29 149 1835 0 152 153 146 .034925 693889
390390723e-32 -.0097282 18 152 1288 154 155 142 156 149 ?1 29 153 1838 0 156 157
 149 .0378968 693889390390723e-32 .0127 18 156 1433 158 159 152 160 153 ?1 29 15
7 1841 0 160 161 153 -.0378968 693889390390723e-32 .0127 18 160 1558 162 163 156
 164 157 ?1 29 161 1843 0 164 165 157 -.034925 693889390390723e-32 .0127 18 164
 1561 166 167 160 168 161 ?1 29 165 1844 0 168 169 161 -.0378968 693889390390723
e-32 -.0097282 18 168 1703 170 171 164 172 165 ?1 29 169 1847 0 172 173 165 -.03
4925 693889390390723e-32 -.0224282 18 172 1695 174 175 168 176 169 ?1 29 173 184
8 0 176 177 169 -.0378968 -.0029718 -.0097282 18 176 1693 178 179 172 180 173 ?1
 29 177 1850 0 180 181 173 -.034925 -.0029718 -.0224282 18 180 1696 182 183 176
 184 177 ?1 29 181 1851 0 184 185 177 -.034925 -.0029718 -.0097282 18 184 1698 1
86 187 180 188 181 ?1 29 185 1856 0 189 190 181 .0378968 -.0029718 -.0097282 18
 189 1286 191 192 193 194 185 ?1 29 190 1857 0 194 195 185 .034925 -.0029718 -.0
097282 18 194 1289 196 197 189 198 190 ?1 29 195 1858 0 198 199 190 .034925 -.00
29718 -.0224282 18 198 1292 200 201 194 202 195 ?1 29 199 1864 0 203 204 195 .03
78968 -.0029718 .0127 18 203 1426 205 206 207 193 199 ?1 29 204 1867 0 193 208 1
99 .034925 -.0029718 .0127 18 193 1428 209 210 203 189 204 ?1 29 208 1874 0 188
 211 204 -.034925 -.0029718 .0127 18 188 1562 212 213 184 207 208 ?1 29 211 1875
 0 207 214 208 -.0378968 -.0029718 .0127 18 207 1559 215 216 188 203 211 ?1 29 2
14 3398 0 202 217 211 -.034925 693889390390723e-32 .01524 18 202 3159 218 45 198
 219 214 ?1 29 217 3407 0 220 221 214 .034925 -.0029718 .01524 18 220 3300 222 2
23 219 0 217 ?1 29 221 3413 0 219 0 217 -.034925 -.0029718 .01524 18 219 3160 22
4 225 202 220 221 ?1 81 1 224 3532 30 219 0 0 71 222 226 17 225 0 44 46 45 219 2
27 228 0 229 +15 255 44 3187 0 46 230 0 17 46 0 44 25 225 58 229 231 0 47 +17 45
 0 44 225 25 202 36 232 0 227 -17 227 0 233 167 234 202 225 228 0 235 -16 228 31
17 236 ?225 237 231 238 0 0 1 17 229 0 239 213 60 219 46 231 0 234 -15 239 3027
 0 240 17 241 17 213 0 239 242 229 188 234 243 0 244 +17 60 0 239 229 245 58 54
 246 0 46 +16 231 3146 247 ?46 228 248 249 0 0 1 17 234 0 233 227 244 219 213 24
3 0 0 -15 233 3017 0 227 250 0 17 244 0 233 234 167 188 251 252 0 253 +16 243 15
08 254 ?213 252 255 256 0 0 1 81 1 254 3546 30 243 0 0 257 258 259 16 252 1522 2
60 ?244 261 243 262 0 0 1 16 255 1545 263 ?253 243 264 265 0 0 1 30 256 1825 0 2
43 265 262 0 +-.034925 -.0029718 .01905 0 0 -1 30 265 1826 0 255 266 256 0 +-.03
64109 -.0029718 .0127 1 0 0 30 262 1821 0 252 256 267 0 +-.034925 .0224282 .0127
 0 -1 0 30 267 1820 0 261 262 268 0 +-.0378968 .0224282 .0127 0 -1 0 16 261 1516
 269 ?216 270 252 267 0 0 1 30 268 1815 0 271 267 272 0 +.034925 -.0029718 .0190
5 0 0 -1 16 271 1415 258 ?210 273 274 268 0 0 1 30 272 1813 0 273 268 275 0 +.03
64109 -.0029718 .0127 -1 0 0 16 273 1369 276 ?277 278 271 272 0 0 1 30 275 1811
 0 264 272 279 0 +.0378968 .0224282 .0127 0 -1 0 16 264 1380 280 ?281 255 278 27
5 0 0 1 30 279 1808 0 278 275 282 0 +.034925 .0224282 .0127 0 -1 0 16 278 1401 2
83 ?284 264 273 279 0 0 1 30 282 1802 0 285 279 286 0 +.034925 -.0029718 -.01607
82 0 0 1 16 285 1232 287 ?288 289 290 282 0 0 1 30 286 1801 0 289 282 291 0 +.03
64109 -.0029718 -.0097282 -1 0 0 16 289 1280 292 ?293 294 285 286 0 0 1 30 291 1
799 0 274 286 295 0 +.0378968 .0224282 -.0097282 0 -1 0 16 274 1247 296 ?192 271
 297 291 0 0 1 30 295 1798 0 297 291 298 0 +.034925 .0224282 -.0097282 0 -1 0 16
 297 1256 299 ?197 274 294 295 0 0 1 30 298 1797 0 294 295 300 0 +.034925 .02242
82 -.0224282 0 -1 0 16 294 1259 301 ?302 297 289 298 0 0 1 30 300 1791 0 270 298
 303 0 +-.034925 -.0029718 -.0160782 0 0 1 16 270 1685 304 ?305 306 261 300 0 0
 1 30 303 1789 0 306 300 307 0 +-.0364109 -.0029718 -.0097282 1 0 0 16 306 1629
 308 ?309 310 270 303 0 0 1 30 307 1787 0 311 303 312 0 +-.0378968 .0224282 -.00
97282 0 -1 0 16 311 1648 313 ?314 315 316 307 0 0 1 30 312 1785 0 316 307 317 0
 +-.034925 .0224282 -.0224282 0 -1 0 16 316 1663 318 ?183 311 310 312 0 0 1 30 3
17 1784 0 310 312 319 0 +-.034925 .0224282 -.0097282 0 -1 0 16 310 1669 320 ?187
 316 306 317 0 0 1 30 319 710 0 321 317 322 0 +-.01905 -.0029718 -.0239141 0 0 1
 16 321 438 323 ?324 325 326 319 0 0 1 30 322 708 0 325 319 327 0 +-.0284734 -.0
029718 -.0224282 1 0 0 16 325 392 328 ?148 329 321 322 0 0 1 30 327 704 0 330 32
2 331 0 +-.01905 .0224282 -.0254 0 -1 0 16 330 415 332 ?145 333 329 327 0 0 1 30
 331 703 0 329 327 334 0 +-.01905 .0224282 -.0224282 0 -1 0 16 329 424 335 ?336
 330 325 331 0 0 1 30 334 696 0 337 331 338 0 +.0284734 -.0029718 -.0224282 -1 0
 0 16 337 573 339 ?141 340 315 334 0 0 1 30 338 695 0 340 334 341 0 +.01905 -.00
29718 -.0239141 0 0 1 16 340 535 342 ?343 344 337 338 0 0 1 30 341 693 0 344 338
 345 0 +.01905 .0224282 -.0254 0 -1 0 16 344 552 346 ?347 326 340 341 0 0 1 30 3
45 692 0 326 341 348 0 +.01905 .0224282 -.0224282 0 -1 0 16 326 549 349 ?350 321
 344 345 0 0 1 31 255 348 689 0 315 345 351 0 +0 -.0029718 -.0239141 0 -1 0 0 0
 -1 .0014224 16 315 645 352 ?353 337 311 348 0 0 1 30 351 9 0 354 348 355 0 +.03
78968 -.0029718 0 0 0 -1 16 354 7 356 ?357 358 359 351 0 0 1 30 355 19 0 358 351
 360 0 +-.0378968 -.0029718 0 0 0 -1 16 358 17 361 ?362 363 354 355 0 0 1 30 360
 24 0 363 355 364 0 +0 -.0029718 -.0254 -1 0 0 16 363 22 365 ?366 367 358 360 0
 0 1 30 364 112 0 368 360 369 0 +.0378968 0 0 0 0 -1 16 368 88 370 ?371 372 333
 364 0 0 1 30 369 110 0 372 364 373 0 +-.0378968 0 0 0 0 -1 16 372 80 374 ?375 3
59 368 369 0 0 1 30 373 109 0 359 369 376 0 +0 0 -.0254 -1 0 0 16 359 76 377 ?37
8 354 372 373 0 0 1 31 376 233 0 333 373 379 0 +0 0 -.0239141 0 -1 0 0 0 -1 .001
4224 16 333 639 380 ?381 368 330 376 0 0 1 30 379 240 0 367 376 382 0 +.01905 0
 0 0 0 1 16 367 238 383 ?384 385 363 379 0 0 1 30 382 243 0 385 379 386 0 +0 0 -
.0224282 -1 0 0 16 385 241 387 ?131 388 367 382 0 0 1 30 386 250 0 388 382 389 0
 +-.01905 0 0 0 0 1 16 388 248 390 ?391 392 385 386 0 0 1 30 389 253 0 392 386 3
93 0 +0 0 -.0224282 1 0 0 16 392 251 394 ?119 395 388 389 0 0 1 30 393 973 0 395
 389 396 0 +-.034925 0 0 0 0 1 16 395 971 397 ?398 399 392 393 0 0 1 30 396 976
 0 399 393 400 0 +0 0 -.0097282 1 0 0 16 399 974 401 ?402 403 395 396 0 0 1 30 4
00 983 0 403 396 404 0 +-.034925 0 0 0 0 -1 16 403 981 405 ?167 406 399 400 0 0
 1 30 404 986 0 406 400 407 0 +0 0 .0127 1 0 0 16 406 984 408 ?409 410 403 404 0
 0 1 30 407 993 0 410 404 411 0 +.034925 0 0 0 0 -1 16 410 991 257 ?107 412 406
 407 0 0 1 30 411 996 0 412 407 413 0 +0 0 .0127 -1 0 0 16 412 994 414 ?415 416
 410 411 0 0 1 30 413 1003 0 416 411 417 0 +.034925 0 0 0 0 1 16 416 1001 418 ?1
55 419 412 413 0 0 1 30 417 1006 0 419 413 420 0 +0 0 -.0097282 -1 0 0 16 419 10
04 421 ?422 423 416 417 0 0 1 31 420 2192 0 424 417 425 0 +.0364109 0 .001485900
000000016 0 -1 0 0 0 -1 .0014224 16 424 2256 426 ?427 290 428 420 0 0 1 31 425 2
199 0 290 420 429 0 +-.0364109 0 .0014859 0 -1 0 0 0 -1 .0014224 16 290 2226 430
 ?431 285 424 425 0 0 1 30 429 2406 0 423 425 432 0 +0 0 -.0097282 -1 0 0 16 423
 2681 433 ?434 435 419 429 0 0 1 30 432 2408 0 435 429 436 0 +-.03175 0 0 0 0 -1
 16 435 3611 437 ?35 438 423 432 0 0 1 30 436 2411 0 438 432 439 0 +.03175 0 0 0
 0 -1 16 438 3598 440 ?103 441 435 436 0 0 1 30 439 2677 0 441 436 442 0 +.03175
 -.0029718 .0029718 0 -1 0 16 441 2675 443 ?444 445 438 439 0 0 1 30 442 2698 0
 445 439 446 0 +-.01905 .0224282 -.0097282 0 -1 0 16 445 2696 447 ?448 449 441 4
42 0 0 1 30 446 2703 0 449 442 450 0 -.01905 0 -.0097282 0 -1 0 16 449 2701 451
 ?95 452 445 446 0 0 1 30 450 2716 0 452 446 453 0 --.03175 .0224282 .0029718 0
 -1 0 16 452 2714 454 ?455 456 449 450 0 0 1 31 453 2735 0 456 450 457 0 -.01905
 -.0029718 .0029718 0 -1 0 0 0 -1 .0127 16 456 2719 458 ?87 459 452 453 0 0 1 31
 457 2736 0 459 453 460 0 +.01905 0 .0029718 0 -1 0 0 0 -1 .0127 16 459 2723 461
 ?462 463 456 457 0 0 1 31 460 2737 0 463 457 464 0 --.01905 -.0029718 .0029718
 0 -1 0 0 0 -1 .0127 16 463 2727 465 ?466 467 459 460 0 0 1 31 464 2738 0 467 46
0 468 0 +-.01905 0 .0029718 0 -1 0 0 0 -1 .0127 16 467 2731 469 ?91 470 463 464
 0 0 1 30 468 2971 0 470 464 471 0 +0 0 .01524 1 0 0 16 470 3567 472 ?72 232 467
 468 0 0 1 30 471 2977 0 232 468 473 0 +0 0 .01524 1 0 0 16 232 2975 474 ?36 475
 470 471 0 0 1 30 473 3572 0 475 471 476 0 +.03429 -.0029718 .01524 0 -1 0 16 47
5 3570 477 ?478 246 232 473 0 0 1 31 476 3589 0 246 473 479 0 +-.03429 -.0029718
 .0127 0 -1 0 0 0 -1 .00254 16 246 3587 480 ?60 481 475 476 0 0 1 31 479 3594 0
 481 476 482 0 +.03429 -.0029718 .0127 0 -1 0 0 0 -1 .00254 16 481 3592 483 ?57
 484 246 479 0 0 1 30 482 3603 0 484 479 485 0 -.03175 693889390390723e-32 .0127
 0 -1 0 16 484 3601 486 ?49 38 481 482 0 0 1 31 485 3616 0 38 482 487 0 --.03429
 0 .0127 0 -1 0 0 0 -1 .00254 16 38 3614 488 ?28 489 484 485 0 0 1 31 487 3621 0
 489 485 21 0 -.03429 0 .0127 0 -1 0 0 0 -1 .00254 16 489 3619 490 ?64 26 38 487
 0 0 1 30 21 3626 0 26 487 8 0 +-.03175 .0224282 .0127 0 -1 0 16 26 3624 491 ?49
2 11 489 21 0 0 1 81 1 491 3705 30 26 0 0 24 488 493 17 492 0 494 79 39 50 495 2
6 0 245 +15 494 2572 0 39 496 0 17 79 0 494 455 492 76 245 497 0 466 +17 39 0 49
4 492 455 12 35 435 0 495 -17 495 0 498 37 54 12 492 26 0 0 -17 245 0 239 60 466
 50 79 497 0 0 -17 466 0 239 245 499 76 83 463 0 500 +16 497 3584 501 ?79 502 23
7 503 0 0 1 81 1 501 3715 30 497 0 0 504 505 506 16 502 2689 507 ?499 508 497 50
9 0 0 1 16 237 3580 504 ?99 497 228 510 0 0 1 30 503 2614 0 497 510 509 0 +-.031
75 -.0029718 .0078359 0 0 -1 30 510 2616 0 237 511 503 0 +.03175 -.0029718 .0078
359 0 0 -1 30 509 2613 0 502 503 512 0 +0 -.0029718 -.0097282 -1 0 0 31 512 2297
 0 428 509 266 0 +-.0364109 -.0029718 .0014859 0 -1 0 0 0 -1 .0014224 16 428 223
2 513 ?514 424 508 512 0 0 1 31 266 2295 0 508 512 265 0 +.0364109 -.0029718 .00
1485900000000016 0 -1 0 0 0 -1 .0014224 16 508 2262 515 ?516 428 502 266 0 0 1 8
1 1 515 2305 30 508 0 0 513 517 518 17 516 0 519 516 516 0 520 508 0 0 +15 519 2
270 0 516 521 522 17 520 0 523 520 520 0 516 508 0 0 -15 523 2205 0 520 17 524 1
4 255 17 1 525 ?526 0 239 6 527 +0 0 526 0 23 15 524 279 0 528 17 0 17 528 0 524
 528 528 0 353 315 0 0 -17 353 0 529 353 353 0 528 315 0 0 +15 529 653 0 353 530
 531 14 530 655 532 ?533 534 529 6 535 -0 0 533 534 23 15 531 654 0 536 530 0 17
 536 0 531 536 536 0 381 333 0 0 -17 381 0 537 381 381 0 536 333 0 0 +15 537 231
 0 381 526 538 14 526 68 539 ?540 17 537 6 541 -0 0 540 17 23 15 538 2190 0 427
 526 542 17 427 0 538 427 427 0 543 424 0 0 +15 542 2197 0 431 526 34 17 431 0 5
42 431 431 0 544 290 0 0 +15 34 2410 0 545 526 0 17 545 0 34 64 462 41 103 438 0
 546 -17 64 0 34 72 545 61 546 489 0 547 +17 462 0 34 545 548 100 549 459 0 550
 +17 103 0 551 444 49 100 545 438 0 462 +17 546 0 552 553 554 41 64 489 0 0 -15
 552 3644 0 546 555 0 17 553 0 552 68 546 55 49 484 0 0 -17 554 0 552 546 68 61
 478 475 0 0 -17 68 0 552 554 553 65 57 481 0 478 -17 478 0 556 223 547 65 554 4
75 0 240 +15 556 3324 0 547 557 0 17 223 0 556 558 478 220 240 559 0 560 +17 547
 0 556 478 558 61 72 470 0 554 -17 240 0 239 57 561 65 223 559 0 0 -17 57 0 239
 99 240 55 68 481 0 562 +17 561 0 239 240 277 220 210 271 0 0 -16 559 3563 563 ?
223 248 0 564 0 0 1 81 1 563 3711 30 559 0 0 247 440 565 16 248 3260 566 ?560 23
1 559 511 0 0 1 30 564 3378 0 559 238 511 0 +.0333375 -.0029718 .01524 1 0 0 30
 238 3388 0 228 249 564 0 +-.034925 .0224282 .01524 0 -1 0 30 511 3374 0 248 564
 510 0 +.034925 .0224282 .01524 0 -1 0 30 249 3391 0 231 0 238 0 +-.0333375 -.00
29718 .01524 1 0 0 81 1 566 3537 30 248 0 0 236 405 567 17 560 0 568 210 569 220
 558 248 0 561 +15 568 1455 0 569 570 0 17 210 0 568 571 560 193 561 271 0 284 +
17 569 0 568 560 571 69 107 410 0 0 -17 558 0 556 547 223 69 560 248 0 569 -17 5
71 0 568 569 210 104 284 278 0 415 -17 107 0 34 572 72 104 569 410 0 571 +17 572
 0 34 371 107 156 415 412 0 573 -17 72 0 34 107 64 69 547 470 0 558 +17 371 0 34
 422 572 142 573 368 0 0 +17 415 0 574 284 159 104 572 412 0 0 +17 573 0 575 281
 576 156 371 368 0 0 -15 575 1086 0 576 540 0 17 281 0 575 357 573 203 159 264 0
 577 +17 576 0 575 573 357 142 192 274 0 371 -17 357 0 575 576 281 189 577 354 0
 0 +17 192 0 578 293 151 189 576 274 0 579 +15 578 1312 0 192 580 0 17 293 0 578
 581 192 194 579 289 0 288 +17 151 0 578 192 581 142 422 419 0 576 -17 579 0 239
 577 288 189 293 289 0 357 -17 577 0 239 277 579 203 357 354 0 0 -17 288 0 239 5
79 582 194 201 285 0 0 +17 582 0 239 288 343 198 141 337 0 0 -17 201 0 583 115 1
97 198 288 285 0 302 -15 583 1316 0 155 584 0 17 115 0 583 155 201 112 302 294 0
 585 -17 197 0 583 201 155 194 581 297 0 293 +17 302 0 586 141 587 198 115 294 0
 582 +15 586 609 0 587 533 0 17 141 0 586 588 302 138 582 337 0 350 +17 587 0 58
6 302 588 112 131 385 0 0 -17 588 0 586 587 141 128 350 326 0 0 -17 131 0 34 589
 585 128 587 385 0 384 +17 589 0 34 378 131 120 384 367 0 590 -17 585 0 34 131 4
22 112 155 416 0 587 -17 384 0 591 350 123 128 589 367 0 588 +15 591 613 0 384 5
92 0 17 350 0 591 136 384 138 588 326 0 343 +17 123 0 591 384 136 120 347 344 0
 589 -17 136 0 591 123 350 133 343 340 0 347 -17 347 0 593 366 590 133 123 344 0
 594 +15 593 306 0 595 534 0 17 366 0 593 595 347 132 594 363 0 0 +17 590 0 593
 347 595 120 378 359 0 0 -17 594 0 239 343 596 133 366 363 0 0 -17 343 0 239 582
 594 138 136 340 0 0 +17 596 0 239 594 148 132 324 321 0 366 -17 148 0 239 596 5
97 137 598 325 0 336 +17 324 0 599 600 145 137 596 321 0 0 +15 599 478 0 145 601
 0 17 600 0 599 127 324 116 336 329 0 391 -17 145 0 599 324 127 132 595 330 0 59
6 +17 127 0 599 145 600 124 391 388 0 595 -17 595 0 593 590 366 124 145 330 0 37
8 -17 378 0 34 391 589 124 590 359 0 0 +17 391 0 34 602 378 116 127 388 0 0 +17
 602 0 34 398 391 172 119 392 0 0 -17 398 0 34 603 602 108 175 395 0 0 +17 119 0
 604 336 605 116 602 392 0 600 +15 604 1016 0 605 606 0 17 336 0 604 598 119 137
 600 329 0 324 +17 605 0 604 119 598 172 183 316 0 602 -17 598 0 604 605 336 180
 148 325 0 0 -17 183 0 607 305 175 180 605 316 0 597 +15 607 1725 0 183 608 0 17
 305 0 607 111 183 184 597 270 0 309 +17 175 0 607 183 111 172 398 395 0 605 -17
 597 0 239 148 309 180 305 270 0 598 -17 309 0 239 597 362 184 179 306 0 0 +17 3
62 0 239 309 242 176 609 358 0 0 +17 179 0 610 171 187 176 309 306 0 314 -15 610
 1717 0 402 611 0 17 171 0 610 402 179 168 314 311 0 603 -17 187 0 610 179 402 1
84 111 310 0 305 +17 314 0 612 609 375 176 171 311 0 362 +15 612 1046 0 613 614
 0 17 609 0 612 613 314 207 362 358 0 0 -17 375 0 612 314 613 168 615 372 0 0 +1
7 613 0 612 375 609 160 216 261 0 615 -17 615 0 34 409 603 160 375 372 0 0 -17 4
09 0 34 235 615 164 163 406 0 0 +17 603 0 34 615 398 168 402 399 0 375 -17 402 0
 610 187 171 108 603 399 0 398 +17 235 0 34 36 409 202 167 403 0 0 -17 163 0 616
 216 251 160 409 406 0 613 -15 616 1586 0 216 617 0 17 216 0 616 253 163 207 613
 261 0 242 +17 251 0 616 163 253 164 244 252 0 409 -17 253 0 616 251 216 188 242
 255 0 0 +17 242 0 239 362 213 207 253 255 0 609 -14 617 1595 618 ?250 608 616 6
 619 -0 0 250 608 23 81 1 618 3739 620 617 621 0 622 623 624 14 250 1599 623 ?62
5 617 233 6 626 +0 0 625 617 23 14 608 1738 622 ?617 611 607 6 627 -0 0 617 611
 23 50 255 619 1777 0 617 626 628 0 +-.0364109 .0224282 .0127 0 0 -1 -1 0 0 13 2
3 49 0 0 0 0 0 0 10 17 50 626 1778 0 250 629 619 0 +-.034925 .0224282 .01905 -1
 0 0 0 0 1 50 628 1773 0 625 619 630 0 +.0364109 .0224282 .0127 0 0 1 1 0 0 14 6
25 1456 631 ?570 250 574 6 628 +0 0 570 250 23 50 630 1770 0 570 628 632 0 +.034
925 .0224282 .01905 -1 0 0 0 0 1 14 570 1468 633 ?580 625 568 6 630 -0 0 580 625
 23 50 632 1766 0 580 630 634 0 +.0364109 .0224282 -.0097282 0 0 1 1 0 0 14 580
 1325 635 ?584 570 578 6 632 -0 0 584 570 23 50 634 1765 0 584 632 636 0 +.03492
5 .0224282 -.0160782 1 0 0 0 0 -1 14 584 1329 637 ?521 580 583 6 634 +0 0 521 58
0 23 50 636 1761 0 611 634 627 0 +-.0364109 .0224282 -.0097282 0 0 -1 -1 0 0 14
 611 1726 638 ?608 601 610 6 636 +0 0 608 601 23 50 627 1758 0 608 636 639 0 +-.
034925 .0224282 -.0160782 1 0 0 0 0 -1 50 639 686 0 606 627 640 0 +-.0284734 .02
24282 -.0224282 0 0 -1 -1 0 0 14 606 479 641 ?601 592 604 6 639 +0 0 601 592 23
 50 640 683 0 601 639 642 0 +-.01905 .0224282 -.0239141 1 0 0 0 0 -1 14 601 491
 643 ?611 606 599 6 640 -0 0 611 606 23 50 642 679 0 592 640 644 0 +.01905 .0224
282 -.0239141 1 0 0 0 0 -1 14 592 622 645 ?606 533 591 6 642 +0 0 606 533 23 50
 644 678 0 533 642 535 0 +.0284734 .0224282 -.0224282 0 0 1 1 0 0 14 533 618 646
 ?592 530 586 6 644 -0 0 592 530 23 51 535 674 0 530 644 527 0 +0 .0224282 -.023
9141 0 -1 0 .0014224 0 0 -1 50 527 3 0 17 535 541 0 +0 -.0029718 0 0 -1 0 1 0 0
 50 541 108 0 526 527 647 0 +0 0 0 0 -1 0 1 0 0 50 647 129 0 534 541 648 0 +0 -.
0029718 -.0254 0 0 -1 -1 0 0 14 534 122 649 ?530 614 593 6 647 +0 0 530 614 23 5
0 648 130 0 614 647 650 0 +-.0378968 -.0029718 0 1 0 0 0 0 -1 14 614 124 651 ?53
4 540 612 6 648 -0 0 534 540 23 50 650 132 0 540 648 652 0 +.0378968 -.0029718 0
 1 0 0 0 0 -1 14 540 128 653 ?614 526 575 6 650 +0 0 614 526 23 51 652 2760 0 65
4 650 655 0 +.01905 .0224282 .0029718 0 1 0 .0127 0 0 1 14 654 2748 656 ?657 658
 659 6 652 -0 0 657 658 23 51 655 2781 0 657 652 20 0 +-.01905 .0224282 .0029718
 0 -1 0 .0127 0 0 -1 14 657 2769 660 ?557 654 661 6 655 -0 0 557 654 23 51 20 36
55 0 555 655 7 0 +.03429 .0224282 .0127 0 1 0 .00254 0 0 1 14 555 3643 662 ?19 2
30 552 6 20 +0 0 19 230 23 81 1 662 3754 620 555 505 0 663 664 665 14 19 3664 66
4 ?0 555 498 6 7 +0 0 0 555 23 14 230 3196 663 ?555 557 44 6 666 -0 0 555 557 23
 81 1 663 3753 620 230 667 0 668 662 669 14 557 3333 668 ?230 657 556 6 670 -0 0
 230 657 23 50 666 3365 0 230 0 670 0 +-.0333375 .0224282 .01524 0 0 -1 -1 0 0 5
0 670 3358 0 557 666 671 0 +.0333375 .0224282 .01524 0 0 -1 -1 0 0 50 671 2606 0
 658 670 672 0 +0 .0224282 -.0097282 0 0 1 1 0 0 14 658 2589 673 ?654 496 674 6
 671 +0 0 654 496 23 50 672 2605 0 496 671 675 0 +-.03175 .0224282 .0078359 -1 0
 0 0 0 1 14 496 2585 676 ?658 677 494 6 672 -0 0 658 677 23 50 675 2603 0 677 67
2 678 0 +.03175 .0224282 .0078359 -1 0 0 0 0 1 14 677 2577 679 ?496 680 551 6 67
5 +0 0 496 680 23 51 678 2292 0 680 675 629 0 +-.0364109 .0224282 .0014859 0 -1
 0 .0014224 0 0 -1 14 680 2242 681 ?677 521 682 6 678 -0 0 677 521 23 51 629 228
9 0 521 678 626 0 +.0364109 .0224282 .001485900000000016 0 -1 0 .0014224 0 0 -1
 14 521 2272 683 ?680 584 519 6 629 -0 0 680 584 23 81 1 683 3745 620 521 684 0
 637 681 685 80 7 CCCCCDI12 legal_owners0 16 1 lCZ1 620 0 686 8001 0 0 0 0 3 5 0
 0 0 FFFFTFTFFFFFFFFF2 81 1 684 2307 30 521 0 683 517 94 687 81 1 637 3744 620 5
84 688 0 635 683 689 81 1 681 3746 620 680 517 0 683 679 690 83 255 3 685 .88235
2941176471 .572549019607843 .47843137254902 81 1 517 2306 30 680 0 681 515 684 6
91 81 1 679 3747 620 677 692 0 681 676 693 83 3 690 .882352941176471 .5725490196
07843 .47843137254902 81 1 692 3720 30 677 0 679 694 695 696 81 1 676 3748 620 4
96 695 0 679 673 697 83 3 693 .882352941176471 .572549019607843 .47843137254902
 81 1 695 3721 30 496 0 676 692 698 699 81 1 673 3749 620 658 700 0 676 656 701
 83 3 697 .882352941176471 .572549019607843 .47843137254902 81 1 700 2821 30 658
 0 673 702 218 703 81 1 656 3750 620 654 704 0 673 660 705 83 3 701 .88235294117
6471 .572549019607843 .47843137254902 81 1 704 2819 30 654 0 656 507 702 706 81
 1 660 3751 620 657 702 0 656 668 707 83 3 705 .882352941176471 .572549019607843
 .47843137254902 81 1 702 2820 30 657 0 660 704 700 708 81 1 668 3752 620 557 69
4 0 660 663 709 83 3 707 .882352941176471 .572549019607843 .47843137254902 81 1
 694 3719 30 557 0 668 667 692 710 83 3 709 .882352941176471 .572549019607843 .4
7843137254902 80 1 30 711 712 9000 0 0 0 0 3 6 0 0 0 FFTFTFTTFFFFFFFF1 81 1 667
 3718 30 230 0 663 713 694 714 82 255 3 710 29 3 2 81 1 713 3717 30 19 0 664 505
 667 715 82 3 714 29 2 2 81 1 664 3755 620 19 713 0 662 0 716 81 1 505 3716 30 5
55 0 662 501 713 717 82 3 715 29 1 2 82 3 717 29 0 2 83 3 716 .882352941176471 .
572549019607843 .47843137254902 79 255 9 712 BTI/DetId82 3 708 24 1 2 81 1 507 2
816 30 502 0 0 433 704 718 82 3 706 24 0 2 81 1 433 2813 30 423 0 0 465 507 719
 82 3 718 24 11 1 81 1 465 2812 30 463 0 0 469 433 720 82 3 719 24 8 1 81 1 469
 2811 30 467 0 0 454 465 721 82 3 720 24 7 1 81 1 454 2810 30 452 0 0 447 469 72
2 82 3 721 24 6 1 81 1 447 2809 30 445 0 0 458 454 723 82 3 722 24 5 1 81 1 458
 2808 30 456 0 0 461 447 724 82 3 723 24 4 1 81 1 461 2807 30 459 0 0 443 458 72
5 82 3 724 24 3 1 81 1 443 2806 30 441 0 0 451 461 726 82 3 725 24 2 1 81 1 451
 2805 30 449 0 0 78 443 727 82 3 726 24 1 1 81 1 78 2804 30 76 0 0 75 451 728 82
 3 727 24 0 1 81 1 75 2803 30 73 0 0 82 78 729 82 3 728 24 7 0 81 1 82 2802 30 8
0 0 0 90 75 730 82 3 729 24 6 0 81 1 90 2801 30 88 0 0 98 82 731 82 3 730 24 5 0
 81 1 98 2800 30 96 0 0 102 90 732 82 3 731 24 4 0 81 1 102 2799 30 100 0 0 86 9
8 733 82 3 732 24 3 0 81 1 86 2798 30 84 0 0 94 102 734 82 3 733 24 2 0 81 1 94
 2797 30 92 0 0 684 86 735 82 3 734 24 1 0 82 3 735 24 0 0 81 1 218 3528 30 202
 0 0 700 71 736 82 3 703 24 2 2 81 1 71 3529 30 69 0 0 218 224 737 82 3 736 28 0
 0 82 3 737 28 1 0 81 1 698 3722 30 526 0 539 695 738 739 82 3 699 29 5 2 81 1 5
39 3728 620 526 698 0 525 653 740 81 1 738 3723 30 17 0 525 698 0 741 82 3 739 2
9 6 2 81 1 525 3727 620 17 738 0 0 539 742 82 3 741 29 7 2 83 3 742 .88235294117
6471 .572549019607843 .47843137254902 81 1 653 3729 620 540 743 0 539 651 744 83
 3 740 .882352941176471 .572549019607843 .47843137254902 81 1 743 2116 30 540 0
 653 745 746 747 81 1 651 3730 620 614 746 0 653 649 748 83 3 744 .8823529411764
71 .572549019607843 .47843137254902 81 1 746 2117 30 614 0 651 743 430 749 81 1
 649 3731 620 534 750 0 651 532 751 83 3 748 .882352941176471 .572549019607843 .
47843137254902 81 1 750 861 30 534 0 649 752 174 753 81 1 532 3732 620 530 752 0
 649 646 754 83 3 751 .882352941176471 .572549019607843 .47843137254902 81 1 752
 858 30 530 0 532 755 750 756 81 1 646 3733 620 533 745 0 532 645 757 83 3 754 .
882352941176471 .572549019607843 .47843137254902 81 1 745 2113 30 533 0 646 758
 743 759 81 1 645 3734 620 592 755 0 646 641 760 83 3 757 .882352941176471 .5725
49019607843 .47843137254902 81 1 755 857 30 592 0 645 761 752 762 81 1 641 3735
 620 606 758 0 645 643 763 83 3 760 .882352941176471 .572549019607843 .478431372
54902 81 1 758 2112 30 606 0 641 688 745 764 81 1 643 3736 620 601 761 0 641 638
 765 83 3 763 .882352941176471 .572549019607843 .47843137254902 81 1 761 855 30
 601 0 643 365 755 766 81 1 638 3737 620 611 767 0 643 622 768 83 3 765 .8823529
41176471 .572549019607843 .47843137254902 81 1 767 2103 30 611 0 638 361 769 770
 81 1 622 3738 620 608 769 0 638 618 771 83 3 768 .882352941176471 .572549019607
843 .47843137254902 81 1 769 2104 30 608 0 622 767 621 772 83 3 771 .88235294117
6471 .572549019607843 .47843137254902 81 1 621 2105 30 617 0 618 769 773 774 82
 3 772 14 1 2 81 1 773 2107 30 625 0 631 621 775 776 82 3 774 14 2 2 81 1 631 37
41 620 625 773 0 623 633 777 81 1 775 2109 30 580 0 635 773 688 778 82 3 776 14
 4 2 81 1 635 3743 620 580 775 0 633 637 779 81 1 688 2110 30 584 0 637 775 758
 780 82 3 778 14 6 2 82 3 780 14 7 2 81 1 633 3742 620 570 781 0 631 635 782 83
 3 779 .882352941176471 .572549019607843 .47843137254902 81 1 781 3555 30 570 0
 633 783 63 784 83 3 782 .882352941176471 .572549019607843 .47843137254902 81 1
 783 3554 30 250 0 623 258 781 785 81 1 63 3692 30 61 0 0 781 67 786 82 3 784 28
 3 2 81 1 67 3693 30 65 0 0 63 48 787 82 3 786 29 0 0 81 1 48 3694 30 41 0 0 67
 42 788 82 3 787 29 1 0 81 1 42 3695 30 55 0 0 48 40 789 82 3 788 29 2 0 82 3 78
9 29 3 0 81 1 623 3740 620 250 783 0 618 631 790 81 1 258 3547 30 271 0 0 254 78
3 791 82 3 785 28 2 2 82 3 791 28 11 1 83 3 790 .882352941176471 .57254901960784
3 .47843137254902 83 3 777 .882352941176471 .572549019607843 .47843137254902 81
 1 361 2102 30 358 0 0 374 767 792 82 3 770 14 0 2 81 1 374 2101 30 372 0 0 356
 361 793 82 3 792 14 37 1 81 1 356 2100 30 354 0 0 370 374 794 82 3 793 14 36 1
 81 1 370 2099 30 368 0 0 339 356 795 82 3 794 14 35 1 81 1 339 2098 30 337 0 0
 328 370 796 82 3 795 14 34 1 81 1 328 2097 30 325 0 0 387 339 797 82 3 796 14 3
3 1 81 1 387 2096 30 385 0 0 394 328 798 82 3 797 14 32 1 81 1 394 2095 30 392 0
 0 299 387 799 82 3 798 14 31 1 81 1 299 2092 30 297 0 0 283 394 800 82 3 799 14
 30 1 81 1 283 2091 30 278 0 0 260 299 801 82 3 800 14 27 1 81 1 260 2090 30 252
 0 0 320 283 802 82 3 801 14 26 1 81 1 320 2089 30 310 0 0 269 260 803 82 3 802
 14 25 1 81 1 269 2088 30 261 0 0 313 320 804 82 3 803 14 24 1 81 1 313 2087 30
 311 0 0 296 269 805 82 3 804 14 23 1 81 1 296 2086 30 274 0 0 280 313 806 82 3
 805 14 22 1 81 1 280 2085 30 264 0 0 287 296 807 82 3 806 14 21 1 81 1 287 2084
 30 285 0 0 292 280 808 82 3 807 14 20 1 81 1 292 2083 30 289 0 0 276 287 809 82
 3 808 14 19 1 81 1 276 2081 30 273 0 0 263 292 810 82 3 809 14 18 1 81 1 263 20
79 30 255 0 0 304 276 811 82 3 810 14 16 1 81 1 304 2078 30 270 0 0 308 263 812
 82 3 811 14 14 1 81 1 308 2077 30 306 0 0 418 304 813 82 3 812 14 13 1 81 1 418
 2076 30 416 0 0 421 308 814 82 3 813 14 12 1 81 1 421 2075 30 419 0 0 414 418 8
15 82 3 814 14 11 1 81 1 414 2073 30 412 0 0 408 421 816 82 3 815 14 10 1 81 1 4
08 2071 30 406 0 0 397 414 817 82 3 816 14 8 1 81 1 397 2070 30 395 0 0 401 408
 818 82 3 817 14 6 1 81 1 401 2069 30 399 0 0 301 397 819 82 3 818 14 5 1 81 1 3
01 2068 30 294 0 0 318 401 820 82 3 819 14 4 1 81 1 318 2067 30 316 0 0 196 301
 821 82 3 820 14 3 1 81 1 196 2064 30 194 0 0 191 318 822 82 3 821 14 2 1 81 1 1
91 2063 30 189 0 0 200 196 823 82 3 822 14 23 0 81 1 200 2062 30 198 0 0 209 191
 824 82 3 823 14 22 0 81 1 209 2061 30 193 0 0 205 200 825 82 3 824 14 21 0 81 1
 205 2060 30 203 0 0 212 209 826 82 3 825 14 20 0 81 1 212 2058 30 188 0 0 215 2
05 827 82 3 826 14 19 0 81 1 215 2057 30 207 0 0 186 212 828 82 3 827 14 17 0 81
 1 186 2055 30 184 0 0 178 215 829 82 3 828 14 16 0 81 1 178 2054 30 176 0 0 182
 186 830 82 3 829 14 14 0 81 1 182 2053 30 180 0 0 154 178 831 82 3 830 14 13 0
 81 1 154 2052 30 152 0 0 106 182 832 82 3 831 14 12 0 81 1 106 2051 30 104 0 0
 166 154 833 82 3 832 14 11 0 81 1 166 2050 30 164 0 0 110 106 834 82 3 833 14 1
0 0 81 1 110 2049 30 108 0 0 162 166 835 82 3 834 14 9 0 81 1 162 2048 30 160 0
 0 170 110 836 82 3 835 14 8 0 81 1 170 2047 30 168 0 0 150 162 837 82 3 836 14
 7 0 81 1 150 2046 30 142 0 0 158 170 838 82 3 837 14 6 0 81 1 158 2045 30 156 0
 0 114 150 839 82 3 838 14 5 0 81 1 114 2044 30 112 0 0 174 158 840 82 3 839 14
 4 0 81 1 174 2043 30 172 0 0 750 114 841 82 3 840 14 3 0 82 3 841 14 2 0 81 1 3
65 849 30 363 0 0 377 761 842 82 3 766 10 1 2 81 1 377 848 30 359 0 0 349 365 84
3 82 3 842 10 17 1 81 1 349 847 30 326 0 0 335 377 844 82 3 843 10 16 1 81 1 335
 846 30 329 0 0 346 349 845 82 3 844 10 15 1 81 1 346 843 30 344 0 0 332 335 846
 82 3 845 10 14 1 81 1 332 842 30 330 0 0 352 346 847 82 3 846 10 11 1 81 1 352
 841 30 315 0 0 342 332 848 82 3 847 10 10 1 81 1 342 840 30 340 0 0 323 352 849
 82 3 848 10 9 1 81 1 323 838 30 321 0 0 380 342 850 82 3 849 10 8 1 81 1 380 83
6 30 333 0 0 383 323 851 82 3 850 10 6 1 81 1 383 835 30 367 0 0 390 380 852 82
 3 851 10 4 1 81 1 390 833 30 388 0 0 140 383 853 82 3 852 10 3 1 81 1 140 831 3
0 138 0 0 135 390 854 82 3 853 10 1 1 81 1 135 829 30 133 0 0 147 140 855 82 3 8
54 10 11 0 81 1 147 828 30 137 0 0 144 135 856 82 3 855 10 9 0 81 1 144 826 30 1
32 0 0 130 147 857 82 3 856 10 8 0 81 1 130 825 30 128 0 0 118 144 858 82 3 857
 10 6 0 81 1 118 824 30 116 0 0 122 130 859 82 3 858 10 5 0 81 1 122 821 30 120
 0 0 126 118 860 82 3 859 10 4 0 81 1 126 820 30 124 0 0 861 122 862 82 3 860 10
 1 0 81 1 861 178 30 1 0 863 0 126 864 82 3 862 10 0 0 81 1 863 3724 865 1 861 1
4 0 0 866 82 3 864 6 0 3 80 1 865 867 868 8038 0 0 0 0 0 0 0 0 0 TTTTTTTTTTTTTFT
F10 81 1 14 3725 867 1 863 2 0 0 869 98 255 6 866 80 97 114 116 32 49 80 1 867 8
70 871 8017 0 0 0 0 0 0 0 0 0 TTTTTTTTTTTTTFTF3 84 255 6 869 Part 179 13 871 SDL
/TYSA_NAME79 14 868 SDL/TYSA_UNAME82 3 764 14 9 2 82 3 762 10 3 2 82 3 759 14 10
 2 82 3 756 10 4 2 82 3 753 10 7 2 81 1 430 2302 30 290 0 0 746 426 872 82 3 749
 14 14 2 81 1 426 2303 30 424 0 0 430 513 873 82 3 872 18 0 1 81 1 513 2304 30 4
28 0 0 426 515 874 82 3 873 18 1 1 82 3 874 18 2 1 82 3 747 14 13 2 82 3 696 29
 4 2 82 3 691 18 0 2 83 3 689 .882352941176471 .572549019607843 .47843137254902
 82 3 687 18 1 2 79 15 686 SDL/TYSA_COLOUR15 682 2240 0 514 680 875 17 514 0 682
 514 514 0 876 428 0 0 +15 875 2241 0 544 680 0 17 544 0 875 544 544 0 431 290 0
 0 -17 876 0 241 876 876 0 514 428 0 0 -15 241 2212 0 876 17 523 15 551 2997 0 5
62 677 0 17 562 0 551 49 444 55 99 237 0 553 -17 49 0 551 103 562 41 553 484 0 5
45 +17 444 0 551 562 103 96 550 441 0 0 +17 99 0 239 87 57 96 562 237 0 877 +17
 87 0 239 499 99 84 877 456 0 878 +17 877 0 659 550 879 96 87 456 0 444 -15 659
 2749 0 549 654 0 17 550 0 659 549 877 100 444 441 0 0 -17 879 0 659 877 549 84
 95 449 0 0 -17 549 0 659 879 550 92 462 459 0 0 -17 95 0 674 434 878 92 879 449
 0 548 +15 674 2576 0 878 658 0 17 434 0 674 448 95 88 548 423 0 880 +17 878 0 6
74 95 448 84 499 502 0 879 -17 548 0 34 462 91 92 434 423 0 549 -17 91 0 34 548
 35 88 881 467 0 434 +17 35 0 34 91 28 73 39 435 0 455 +17 881 0 661 500 880 73
 91 467 0 0 -15 661 2770 0 881 657 0 17 500 0 661 83 881 76 455 452 0 0 -17 880
 0 661 881 83 88 448 445 0 0 -17 83 0 661 880 500 80 466 463 0 448 -17 448 0 674
 878 434 80 880 445 0 499 +17 499 0 239 466 87 80 878 502 0 0 +17 455 0 494 39 7
9 73 500 452 0 881 +83 3 669 .882352941176471 .572549019607843 .47843137254902 1
5 498 3665 0 37 19 0 17 37 0 498 47 495 29 28 38 0 0 -17 47 0 498 54 37 58 25 11
 0 0 -17 54 0 498 495 47 50 60 246 0 492 -83 3 665 .882352941176471 .57254901960
7843 .47843137254902 15 574 1451 0 415 625 0 83 3 624 .882352941176471 .57254901
9607843 .47843137254902 17 36 0 34 28 235 29 45 232 0 37 +17 167 0 233 244 227 1
64 235 403 0 251 +17 111 0 607 175 305 108 187 310 0 402 -17 422 0 34 585 371 15
2 151 419 0 0 +17 155 0 583 197 115 152 585 416 0 581 +17 581 0 578 151 293 152
 197 297 0 422 -17 277 0 239 561 577 193 206 273 0 0 +17 206 0 574 159 284 203 2
77 273 0 281 -17 159 0 574 415 206 156 281 264 0 572 -17 284 0 574 206 415 193 5
71 278 0 277 +81 1 236 3536 30 228 0 0 222 566 882 81 1 405 3544 30 403 0 0 566
 257 883 82 3 567 28 1 1 81 1 257 3545 30 410 0 0 405 254 884 82 3 883 28 8 1 82
 3 884 28 9 1 81 1 222 3535 30 220 0 0 224 236 885 82 3 882 28 0 1 82 3 885 28 7
 0 81 1 247 3710 30 231 0 0 472 563 886 81 1 440 3712 30 438 0 0 563 437 887 82
 3 565 29 11 1 81 1 437 3713 30 435 0 0 440 504 888 82 3 887 29 12 1 81 1 504 37
14 30 237 0 0 437 501 889 82 3 888 29 13 1 82 3 889 29 14 1 81 1 472 3709 30 470
 0 0 474 247 890 82 3 886 29 10 1 81 1 474 3708 30 232 0 0 480 472 891 82 3 890
 29 9 1 81 1 480 3707 30 246 0 0 488 474 892 82 3 891 29 8 1 81 1 488 3706 30 38
 0 0 491 480 893 82 3 892 29 7 1 82 3 893 29 6 1 17 543 0 522 543 543 0 427 424
 0 0 -15 522 2271 0 543 521 0 82 3 518 18 3 1 82 3 506 29 15 1 81 1 24 3704 30 1
1 0 0 483 491 894 82 3 493 29 5 1 81 1 483 3703 30 481 0 0 490 24 895 82 3 894 2
9 4 1 81 1 490 3702 30 489 0 0 486 483 896 82 3 895 29 3 1 81 1 486 3701 30 484
 0 0 477 490 897 82 3 896 29 2 1 81 1 477 3700 30 475 0 0 32 486 898 82 3 897 29
 1 1 81 1 32 3699 30 50 0 0 27 477 899 82 3 898 29 0 1 82 3 899 29 7 0 82 3 259
 28 10 1 82 3 226 28 4 0 81 1 31 3697 30 58 0 0 40 27 900 82 3 900 29 5 0 82 3 4
3 29 4 0 82 3 33 29 6 0 19 18 138 0 1 0 10 6 0 S0 74 4 CI16 index_map_offset0 0
 1 dCCZ20 16 5 0 0 738 863 14 2 664 0 0 0 0 0 0 0 0 0 0 0 0 0 0 0 80 1 13 620 90
1 8040 0 0 0 0 3 5 0 0 0 TTTFFFFFFFFFFFFF2 83 3 15 .882352941176471 .57254901960
7843 .47843137254902 79 17 901 SDL/TYSA_COLOUR_21 0 
