**ABCDEFGHIJKLMNOPQRSTUVWXYZabcdefghijklmnopqrstuvwxyz**************************
**PARASOLID !"#$%&'()*+,-./:;<=>?@[\]^_`{|}~0123456789**************************
**PART1;
MC=unknown;
MC_MODEL=unknown;
MC_ID=unknown;
OS=unknown;
OS_RELEASE=unknown;
FRU=Parasolid 34.1.198;
APPL=Onshape;
SITE=unknown;
USER=unknown;
FORMAT=text;
GUISE=transmit;
KEY=BTGapi::writeModels_.xmt;
FILE=BTGapi::writeModels_.xmt;
DATE=2022-06-03T17:49:03 (UTC);
**PART2;
SCH=SCH_3401198_34101;
USFLD_SIZE=0;
**PART3;
**END_OF_HEADER*****************************************************************
T51 : TRANSMIT FILE created by modeller version 340119823 SCH_3401198_34101_1300
6231 0 12 36 CCCI7 lattice222 0 CCCI4 mesh1006 0 I8 polyline1008 0 CCCCCCCDI5 ow
ner1040 0 CCCI16 boundary_lattice222 0 CCCI13 boundary_mesh1006 0 I17 boundary_p
olyline1008 0 CCCA16 index_map_offset0 0 1 dA9 index_map82 0 A17 node_id_index_m
ap82 0 A20 schema_embedding_map82 0 A5 child12 0 A14 lowest_node_id0 0 1 dA16 me
sh_offset_data206 0 Z1 1224 2 3 0 0 0 0 0 0 0 1e3 1e-8 0 4 5 1 0 1 1 6 0 7 8 9 0
 0 10 11 12 0 0 0 0 0 0 0 81 255 1 2 1199 13 1 14 0 0 0 15 70 11 CI9 list_type0
 0 1 uI10 notransmit0 0 1 lCCCDCCDI12 finger_index0 0 1 dI12 finger_block1012 0
 CZ3 0 4 T1 0 0 5 20 1 16 16 13 255 6 137 0 1 0 17 0 0 18 0 50 255 7 132 0 19 20
 0 0 +.0254 -3469446951953615e-33 .01905 1 -682961998416066e-31 0 68296199841606
6e-31 1 0 31 255 8 758 0 21 22 0 0 +-.02159 .03429 .01905 0 0 1 1 0 0 .0015875 2
9 255 9 1053 0 12 23 0 .015875 .015875 .020574 19 9 CCCCCCI5 frame230 0 CA5 owne
r12 0 Z10 48 0 1 18 0 24 0 V0 16 255 11 633 25 ?26 0 27 28 0 0 1 18 255 12 1051
 29 30 0 31 9 ?1 81 1 29 1188 32 12 0 0 33 34 35 17 255 30 0 36 37 38 12 39 40 0
 41 -18 31 1047 34 38 12 42 23 ?1 81 1 34 1189 32 31 0 0 29 43 44 17 38 0 36 30
 45 31 46 47 0 39 -18 42 1040 48 45 31 49 50 ?1 29 23 1049 0 31 50 9 -.015875 .0
15875 .020574 29 50 1042 0 42 51 23 -.015875 -.015875 .020574 29 51 423 0 49 52
 50 -.015875 .03175 .020574 18 49 421 53 54 42 55 51 ?1 29 52 113 0 56 57 51 .02
54 -.0254 0 18 56 92 58 59 55 60 52 ?1 29 57 114 0 60 61 52 -.0254 -.0254 0 18 6
0 96 62 63 56 64 57 ?1 29 61 115 0 64 65 57 -.0254 .0254 0 18 64 100 66 67 60 68
 61 ?1 29 65 116 0 68 69 61 .0254 .0254 0 18 68 104 70 71 64 72 65 ?1 29 69 29 0
 55 73 65 .0254 .0254 .01905 18 55 27 74 75 49 56 69 ?1 29 73 337 0 72 76 69 -.0
254 .0254 .01905 18 72 271 77 78 68 79 73 ?1 29 76 339 0 80 81 73 -.0254 .04445
 .01905 18 80 280 82 83 84 85 76 ?1 29 81 340 0 85 86 76 .0254 .04445 .01905 18
 85 276 87 88 80 89 81 ?1 29 86 343 0 79 90 81 -.0254 .04445 .020574 18 79 274 9
1 92 72 93 86 ?1 29 90 344 0 93 94 86 .0254 .04445 .020574 18 93 272 95 96 79 97
 90 ?1 29 94 345 0 97 98 90 .0254 -.0254 .020574 18 97 282 99 100 93 84 94 ?1 29
 98 346 0 84 101 94 -.0254 -.0254 .020574 18 84 284 102 103 97 80 98 ?1 29 101 5
57 0 89 104 98 .015875 .04445 .020574 18 89 491 105 106 85 107 101 ?1 29 104 558
 0 107 108 101 -.015875 .04445 .020574 18 107 506 109 110 89 111 104 ?1 29 108 5
60 0 112 113 104 .015875 .03175 .020574 18 112 500 114 115 116 117 108 ?1 29 113
 561 0 117 118 108 -.015875 .06985 .020574 18 117 507 119 120 112 121 113 ?1 29
 118 562 0 121 122 113 .015875 .06985 .020574 18 121 498 123 124 117 125 118 ?1
 29 122 563 0 111 126 118 -.015875 .03175 .022098 18 111 492 127 128 107 129 122
 ?1 29 126 564 0 129 130 122 .015875 .03175 .022098 18 129 494 131 132 111 133 1
26 ?1 29 130 565 0 133 134 126 -.015875 .06985 .022098 18 133 504 135 136 129 11
6 130 ?1 29 134 566 0 116 137 130 .015875 .06985 .022098 18 116 502 138 139 133
 112 134 ?1 29 137 1175 0 140 141 134 .015875 -.015875 .020574 18 140 1117 43 37
 142 0 137 ?1 29 141 1179 0 125 143 137 .015875 -.015875 .039624 18 125 1123 144
 145 121 146 141 ?1 29 143 1180 0 146 147 141 -.015875 -.015875 .039624 18 146 1
129 148 149 125 150 143 ?1 29 147 1181 0 150 151 143 -.015875 .015875 .039624 18
 150 1127 152 153 146 142 147 ?1 29 151 1182 0 142 0 147 .015875 .015875 .039624
 18 142 1115 154 155 150 140 151 ?1 81 1 154 1116 32 142 0 0 156 144 157 17 155
 0 158 159 160 142 41 161 0 162 -15 255 158 1134 0 160 163 0 17 159 0 158 164 15
5 125 165 166 0 167 +17 160 0 158 155 164 12 37 168 0 0 -17 41 0 169 39 162 12 1
55 161 0 160 +16 161 1082 170 ?41 171 172 173 0 0 1 17 162 0 169 41 174 142 153
 175 0 165 -15 169 1138 0 39 176 0 17 174 0 169 162 39 150 177 172 0 178 -17 153
 0 179 149 165 150 162 175 0 174 +16 175 1099 180 ?153 181 166 182 0 0 1 17 165
 0 179 153 167 142 159 166 0 0 -15 179 1150 0 165 183 0 17 167 0 179 165 149 125
 184 185 0 0 -16 166 1071 186 ?159 175 187 188 0 0 1 81 1 186 1073 32 166 0 0 18
9 190 191 16 187 1110 192 ?45 166 47 193 0 0 1 30 255 188 1174 0 166 0 182 0 +.0
15875 0 .039624 0 -1 0 30 182 1173 0 175 188 194 0 +0 .015875 .039624 -1 0 0 30
 194 1172 0 181 182 195 0 +-.015875 0 .039624 0 -1 0 16 181 1102 156 ?149 185 17
5 194 0 0 1 30 195 1171 0 185 194 196 0 +0 -.015875 .039624 -1 0 0 16 185 1093 1
97 ?184 198 181 195 0 0 1 30 196 1170 0 168 195 199 0 +.015875 0 .020574 0 -1 0
 16 168 1105 200 ?37 40 0 196 0 0 1 30 199 1169 0 40 196 201 0 +0 .015875 .02057
4 -1 0 0 16 40 1077 202 ?39 47 168 199 0 0 1 30 201 1168 0 47 199 193 0 +-.01587
5 0 .020574 0 -1 0 16 47 1085 203 ?46 187 40 201 0 0 1 30 193 1167 0 187 201 204
 0 +0 -.015875 .020574 -1 0 0 30 204 1166 0 198 193 205 0 +.015875 -.015875 .039
624 0 0 -1 16 198 1074 190 ?164 206 185 204 0 0 1 30 205 1165 0 206 204 207 0 +-
.015875 -.015875 .039624 0 0 -1 16 206 1096 208 ?209 172 198 205 0 0 1 30 207 11
64 0 172 205 173 0 +-.015875 .015875 .039624 0 0 -1 16 172 1090 210 ?177 161 206
 207 0 0 1 30 173 1163 0 161 207 211 0 +.015875 .015875 .039624 0 0 -1 31 211 95
2 0 171 173 212 0 +.02032 .03429 .020574 0 0 1 1 0 0 .0015875 16 171 873 213 ?21
4 215 161 211 0 0 1 31 212 950 0 216 211 217 0 +-.02159 .03429 .020574 0 0 1 1 0
 0 .0015875 16 216 813 218 ?219 220 215 212 0 0 1 31 217 948 0 215 212 221 0 +.0
2032 .04064 .020574 0 0 1 1 0 0 .0015875 16 215 843 222 ?223 216 171 217 0 0 1 3
1 221 946 0 220 217 224 0 +-.02159 .04064 .020574 0 0 1 1 0 0 .0015875 16 220 90
3 225 ?226 227 216 221 0 0 1 31 224 670 0 228 221 28 0 +0 .0508 .032258 0 0 1 1
 0 0 .00508 16 228 648 229 ?230 231 21 224 0 0 1 31 28 669 0 11 224 232 0 +0 .05
08 .022098 0 0 1 1 0 0 .00508 30 232 556 0 233 28 234 0 +.015875 .0508 .022098 0
 1 0 16 233 482 235 ?139 236 237 232 0 0 1 30 234 555 0 236 232 238 0 +0 .06985
 .022098 -1 0 0 16 236 485 239 ?136 240 233 234 0 0 1 30 238 554 0 240 234 241 0
 +-.015875 .0508 .022098 0 1 0 16 240 453 242 ?243 244 236 238 0 0 1 30 241 553
 0 244 238 245 0 +-3469446951953615e-33 .03175 .022098 -1 0 0 16 244 459 246 ?24
7 248 240 241 0 0 1 30 245 552 0 249 241 250 0 +.015875 .0508 .020574 0 1 0 16 2
49 465 251 ?252 253 231 245 231 231 1 30 250 551 0 253 245 254 0 +0 .06985 .0205
74 -1 0 0 16 253 476 255 ?256 257 249 250 0 0 1 30 254 550 0 258 250 259 0 +-.01
5875 .0508 .020574 0 1 0 16 258 440 260 ?261 237 257 254 257 257 1 30 259 549 0
 237 254 262 0 +-3469446951953615e-33 .03175 .020574 -1 0 0 16 237 448 263 ?264
 233 258 259 0 0 1 30 262 548 0 265 259 266 0 +-.015875 .03175 .022098 0 0 -1 16
 265 462 267 ?268 269 270 262 0 0 1 30 266 547 0 270 262 271 0 +.015875 .03175 .
022098 0 0 -1 16 270 473 272 ?115 265 273 266 0 0 1 30 271 546 0 248 266 274 0 +
-.015875 .06985 .022098 0 0 -1 16 248 456 275 ?276 273 244 271 0 0 1 30 274 545
 0 273 271 277 0 +.015875 .06985 .022098 0 0 -1 16 273 479 278 ?279 270 248 274
 0 0 1 30 277 336 0 280 274 281 0 +.0254 -3469446951953615e-33 .020574 -68296199
8416066e-31 -1 0 16 280 229 282 ?283 284 285 277 0 0 1 30 281 335 0 284 277 286
 0 +-.0254 -3469446951953615e-33 .020574 -682961998416066e-31 -1 0 16 284 258 28
7 ?288 289 280 281 0 0 1 30 286 334 0 289 281 290 0 +-3469446951953615e-33 -.025
4 .020574 -1 0 0 16 289 252 291 ?292 293 284 286 0 0 1 30 290 333 0 294 286 295
 0 +-1040834085586084e-32 .04445 .020574 1 0 0 16 294 235 296 ?297 298 299 290 2
93 299 1 30 295 332 0 269 290 300 0 +.0254 -3469446951953615e-33 .01905 -6829619
98416066e-31 -1 0 16 269 220 301 ?302 303 265 295 0 0 1 30 300 331 0 303 295 304
 0 +-.0254 -3469446951953615e-33 .01905 -682961998416066e-31 -1 0 16 303 241 305
 ?306 285 269 300 0 0 1 30 304 329 0 285 300 307 0 +-1040834085586084e-32 .04445
 .01905 1 0 0 16 285 226 308 ?309 280 303 304 0 0 1 30 307 328 0 298 304 310 0 +
-.0254 .04445 .020574 0 0 -1 16 298 249 311 ?83 312 294 307 0 0 1 30 310 327 0 3
12 307 313 0 +.0254 .04445 .020574 0 0 -1 16 312 238 314 ?88 315 298 310 0 0 1 3
0 313 14 0 316 310 317 0 +0 .0254 .01905 -1 0 0 16 316 12 318 ?319 320 321 313 0
 0 1 30 317 112 0 315 313 322 0 +.0254 -3469446951953615e-33 0 -682961998416066e
-31 -1 0 16 315 88 323 ?324 325 312 317 0 0 1 30 322 111 0 325 317 326 0 +0 .025
4 0 -1 0 0 16 325 84 327 ?67 328 315 322 0 0 1 30 326 110 0 328 322 329 0 +-.025
4 -3469446951953615e-33 0 -682961998416066e-31 -1 0 16 328 80 330 ?331 321 325 3
26 0 0 1 30 329 109 0 321 326 332 0 +-3469446951953615e-33 -.0254 0 -1 0 0 16 32
1 76 333 ?334 316 328 329 0 0 1 30 332 133 0 320 329 335 0 +.0254 -.0254 .01905
 0 0 -1 16 320 117 336 ?59 337 316 332 0 0 1 30 335 134 0 337 332 338 0 +-.0254
 -.0254 .01905 0 0 -1 16 337 118 339 ?63 340 320 335 0 0 1 30 338 135 0 340 335
 341 0 +-.0254 .0254 .01905 0 0 -1 16 340 119 342 ?343 27 337 338 0 0 1 30 341 1
36 0 27 338 344 0 +.0254 .0254 .01905 0 0 -1 16 27 120 345 ?71 11 340 341 0 0 1
 31 344 737 0 227 341 346 0 +-.02159 .04064 .01905 0 0 1 1 0 0 .0015875 16 227 8
97 347 ?348 349 220 344 0 0 1 31 346 744 0 349 344 22 0 +.02032 .03429 .01905 0
 0 1 1 0 0 .0015875 16 349 867 350 ?351 352 227 346 0 0 1 31 22 751 0 352 346 8
 0 +.02032 .04064 .01905 0 0 1 1 0 0 .0015875 16 352 837 353 ?354 21 349 22 0 0
 1 81 1 353 963 32 352 0 0 355 350 356 17 354 0 357 354 354 0 358 352 0 0 +16 21
 807 355 ?359 228 352 8 0 0 1 81 1 355 962 32 21 0 0 347 353 360 17 359 0 361 35
9 359 0 362 21 0 0 +15 361 756 0 359 363 357 17 362 0 364 362 362 0 359 21 0 0 -
15 364 822 0 362 365 0 14 255 365 823 366 ?163 367 368 6 369 -0 0 163 367 24 81
 1 366 1219 370 365 371 0 372 373 374 14 163 1131 373 ?176 365 158 6 375 +0 0 17
6 365 24 14 367 853 372 ?365 376 377 6 378 -0 0 365 376 24 15 368 821 0 219 365
 364 51 255 369 940 0 365 379 378 0 +-.02159 .03429 -.004826 0 0 1 .0015875 1 0
 0 13 24 49 0 0 0 0 0 0 10 17 14 17 309 380 ?19 0 36 6 381 +0 0 19 0 24 81 1 380
 1200 370 17 382 0 0 383 384 14 19 128 383 ?385 17 386 6 7 +0 0 385 17 24 15 36
 1056 0 37 17 387 50 381 324 0 17 388 389 0 +-693889390390723e-32 .009525 .02057
4 0 0 1 1 0 0 50 388 539 0 390 391 381 0 +.015875 .0508 .022098 -1 0 0 0 0 1 50
 389 323 0 363 381 392 0 +-693889390390723e-32 .009525 .01905 0 0 1 1 0 0 14 363
 313 393 ?394 395 361 6 389 -0 0 394 395 24 50 392 322 0 394 389 396 0 +-1040834
085586084e-32 .04445 .020574 0 1 0 0 0 1 14 394 297 397 ?398 363 399 6 392 +0 0
 398 363 24 50 396 108 0 395 392 400 0 +0 -3469446951953615e-33 0 0 0 1 1 0 0 14
 395 68 401 ?363 402 403 6 396 -0 0 363 402 24 50 400 129 0 402 396 404 0 +-3469
446951953615e-33 -.0254 .01905 0 -1 0 0 0 -1 14 402 122 405 ?395 406 407 6 400 +
0 0 395 406 24 50 404 130 0 406 400 20 0 +-.0254 -3469446951953615e-33 .01905 1
 -682961998416066e-31 0 682961998416066e-31 1 0 14 406 124 408 ?402 385 409 6 40
4 -0 0 402 385 24 50 20 131 0 385 404 7 0 +0 .0254 .01905 0 -1 0 0 0 -1 14 385 1
26 410 ?406 19 411 6 20 -0 0 406 19 24 81 1 410 1202 370 385 412 0 383 408 413 1
5 411 125 0 67 385 0 17 67 0 411 78 71 64 414 325 0 343 +17 78 0 411 415 67 72 3
43 340 0 319 -17 71 0 411 67 415 68 75 27 0 414 +17 414 0 403 324 416 68 67 325
 0 417 -17 343 0 409 331 306 64 78 340 0 416 +15 409 123 0 331 406 0 17 331 0 40
9 103 343 60 416 328 0 334 +17 306 0 409 343 83 72 418 303 0 0 +17 416 0 403 414
 334 64 331 328 0 0 -15 403 75 0 324 395 0 17 334 0 403 416 324 60 419 321 0 0 +
17 324 0 403 334 414 56 417 315 0 419 +17 419 0 407 100 63 56 334 321 0 0 -15 40
7 121 0 419 402 0 17 100 0 407 292 419 97 59 320 0 420 -17 63 0 407 419 292 60 1
03 337 0 331 +17 292 0 407 63 100 84 420 289 0 0 +17 103 0 409 421 331 84 63 337
 0 288 -17 421 0 409 83 103 79 288 284 0 422 -17 288 0 423 420 422 84 421 284 0
 292 +15 423 419 0 264 17 0 17 420 0 423 424 288 97 292 289 0 283 -17 422 0 423
 288 261 79 297 294 0 0 -17 261 0 423 422 264 107 54 258 0 297 +17 297 0 399 425
 92 107 422 294 0 0 +15 399 300 0 426 394 0 17 425 0 399 96 297 89 110 299 0 0 +
17 92 0 399 297 426 79 83 298 0 421 -17 426 0 399 92 88 80 309 285 0 0 -17 83 0
 409 306 421 80 92 298 0 418 +17 418 0 427 309 319 80 306 303 0 426 -15 427 292
 0 302 363 0 17 309 0 427 302 418 85 426 285 0 0 +17 319 0 427 418 302 72 415 31
6 0 306 +17 302 0 427 319 309 55 428 269 0 0 +17 415 0 411 71 78 55 319 316 0 30
2 -17 428 0 386 429 75 85 302 269 0 309 -15 386 127 0 417 19 0 17 429 0 386 283
 428 93 88 312 0 424 -17 75 0 386 428 417 55 71 27 0 415 -17 417 0 386 75 59 68
 324 315 0 0 -17 59 0 386 417 283 56 100 320 0 324 +17 283 0 386 59 429 97 424 2
80 0 0 +17 424 0 423 430 420 93 283 280 0 0 -17 430 0 423 431 424 89 96 293 0 42
5 -17 431 0 423 264 430 112 252 249 0 0 -17 96 0 399 88 425 93 430 293 0 429 +16
 293 414 432 ?96 299 289 290 299 294 1 81 1 432 583 32 293 0 0 296 229 433 16 29
9 409 434 ?425 294 293 290 294 293 1 81 1 434 577 32 299 0 0 260 435 436 80 7 CC
CCCDI12 legal_owners0 16 1 lCZ1 32 437 438 9000 0 0 0 0 3 6 0 0 0 FFTFTFTTFFFFFF
FF1 81 1 260 576 32 258 0 0 251 434 439 81 1 435 578 32 231 0 0 434 440 441 82 2
55 3 436 14 3 1 16 231 470 435 ?124 249 228 245 249 249 1 81 1 440 579 32 257 0
 0 435 442 443 82 3 441 14 4 1 16 257 488 440 ?120 258 253 254 258 258 1 81 1 44
2 581 32 444 0 445 440 296 446 82 3 443 14 5 1 14 444 533 445 ?447 448 449 6 450
 -0 0 447 448 24 81 1 445 1213 370 444 442 0 451 452 453 81 1 296 582 32 294 0 0
 442 432 454 82 3 446 14 1 2 82 3 454 14 6 1 80 1 370 0 455 8001 0 0 0 0 3 5 0 0
 0 FFFFTFTFFFFFFFFF2 81 1 451 1212 370 448 456 0 457 445 458 81 1 452 1214 370 4
47 459 0 445 460 461 83 255 3 453 .96078431372549 .835294117647059 .470588235294
118 14 447 651 452 ?462 444 463 6 464 -0 0 462 444 24 81 1 459 653 32 447 0 452
 229 465 466 81 1 460 1215 370 462 465 0 452 467 468 83 3 461 .96078431372549 .8
35294117647059 .470588235294118 14 462 656 460 ?469 447 470 6 471 +0 0 469 447 2
4 81 1 465 658 32 462 0 460 459 25 472 81 1 467 1216 370 469 473 0 460 474 475 8
3 3 468 .96078431372549 .835294117647059 .470588235294118 14 469 913 467 ?376 46
2 476 6 477 -0 0 376 462 24 81 1 473 969 32 469 0 467 213 371 478 81 1 474 1217
 370 376 479 0 467 372 480 83 3 475 .96078431372549 .835294117647059 .4705882352
94118 14 376 883 474 ?367 469 481 6 379 -0 0 367 469 24 81 1 479 972 32 376 0 47
4 482 189 483 81 1 372 1218 370 367 482 0 474 366 484 83 3 480 .96078431372549 .
835294117647059 .470588235294118 81 1 482 971 32 367 0 372 371 479 485 83 3 484
 .96078431372549 .835294117647059 .470588235294118 81 1 371 970 32 365 0 366 473
 482 486 82 3 485 22 2 2 82 3 486 22 1 2 81 1 189 973 32 363 0 393 479 186 487 8
2 3 483 22 3 2 81 1 393 1206 370 363 189 0 401 397 488 82 3 487 22 4 2 81 1 401
 1205 370 395 489 0 405 393 490 81 1 397 1207 370 394 491 0 393 492 493 83 3 488
 .96078431372549 .835294117647059 .470588235294118 81 1 491 299 32 394 0 397 102
 74 494 81 1 492 1208 370 398 495 0 397 496 497 83 3 493 .96078431372549 .835294
117647059 .470588235294118 14 398 513 492 ?498 394 499 6 500 +0 0 498 394 24 81
 1 495 515 32 398 0 492 119 501 502 81 1 496 1209 370 498 501 0 492 503 504 83 3
 497 .96078431372549 .835294117647059 .470588235294118 14 498 517 496 ?390 398 5
05 6 506 +0 0 390 398 24 81 1 501 519 32 498 0 496 495 507 508 81 1 503 1210 370
 390 507 0 496 457 509 83 3 504 .96078431372549 .835294117647059 .47058823529411
8 14 390 521 503 ?510 498 511 6 388 -0 0 510 498 24 81 1 507 523 32 390 0 503 50
1 512 513 81 1 457 1211 370 510 512 0 503 451 514 83 3 509 .96078431372549 .8352
94117647059 .470588235294118 14 510 525 457 ?448 390 515 6 391 -0 0 448 390 24 8
1 1 512 527 32 510 0 457 507 105 516 83 3 514 .96078431372549 .835294117647059 .
470588235294118 81 1 105 570 32 89 0 0 512 109 517 82 3 516 13 3 2 81 1 109 571
 32 107 0 0 105 114 518 82 3 517 14 0 0 81 1 114 572 32 112 0 0 109 53 519 82 3
 518 14 1 0 81 1 53 573 32 49 0 0 114 263 520 82 3 519 14 2 0 81 1 263 574 32 23
7 0 0 53 251 521 82 3 520 14 3 0 81 1 251 575 32 249 0 0 263 260 522 82 3 521 14
 0 1 82 3 522 14 1 1 14 448 529 451 ?444 510 523 6 524 +0 0 444 510 24 15 515 52
8 0 256 510 0 50 391 540 0 510 500 388 0 +0 .06985 .022098 0 -1 0 0 0 -1 50 500
 541 0 398 506 391 0 +-.015875 .0508 .022098 -1 0 0 0 0 1 50 506 542 0 498 450 5
00 0 +-3469446951953615e-33 .03175 .022098 0 -1 0 0 0 -1 50 450 543 0 444 524 50
6 0 +-1040834085586084e-32 .022225 .020574 0 0 1 1 0 0 50 524 544 0 448 464 450
 0 +-1040834085586084e-32 .022225 .022098 0 0 1 1 0 0 51 464 666 0 447 471 524 0
 -0 .0508 .032258 0 0 -1 .00508 -1 0 0 50 471 668 0 462 477 464 0 +0 .0508 .0322
58 0 0 1 1 0 0 51 477 934 0 469 378 471 0 +-.02159 .04064 -.004826 0 0 1 .001587
5 1 0 0 51 378 937 0 367 369 477 0 +.02032 .04064 -.004826 0 0 1 .0015875 1 0 0
 17 256 0 515 525 279 117 526 253 0 0 +17 525 0 515 527 256 133 276 248 0 243 -1
7 279 0 515 256 527 121 528 273 0 526 +17 526 0 449 106 120 121 256 253 0 0 -15
 449 536 0 110 444 0 17 106 0 449 110 526 89 124 231 0 252 -17 120 0 449 526 110
 117 529 257 0 276 +17 110 0 449 120 106 107 425 299 0 529 -17 529 0 499 54 276
 107 120 257 0 261 -17 276 0 499 529 243 117 525 248 0 256 +15 499 516 0 54 398
 0 17 243 0 499 276 128 133 530 240 0 0 +17 128 0 499 243 54 111 268 265 0 530 -
17 530 0 531 532 136 111 243 240 0 247 -15 531 532 0 530 448 0 17 532 0 531 139
 530 129 247 244 0 0 -17 136 0 531 530 139 133 527 236 0 525 +17 247 0 505 268 1
32 111 532 244 0 0 +15 505 520 0 533 498 0 17 268 0 505 533 247 49 128 265 0 264
 +17 132 0 505 247 533 129 115 270 0 534 -17 533 0 505 132 268 112 264 237 0 431
 -17 115 0 511 252 534 112 132 270 0 533 +17 534 0 511 115 528 129 139 233 0 532
 -15 511 524 0 252 390 0 17 528 0 511 534 124 116 279 273 0 527 -17 139 0 531 13
6 532 116 534 233 0 528 +17 124 0 511 528 252 121 106 231 0 279 +17 527 0 515 27
9 525 116 136 236 0 0 -17 252 0 511 124 115 89 431 249 0 430 +17 264 0 423 261 4
31 49 533 237 0 0 +17 54 0 499 128 529 49 261 258 0 268 -15 523 635 0 535 448 53
1 17 535 0 523 535 535 0 26 11 0 0 -17 26 0 536 26 26 0 535 11 0 0 +15 536 655 0
 26 447 0 82 3 513 13 4 2 82 3 508 13 0 2 81 1 119 508 32 117 0 0 135 495 537 82
 3 502 13 5 2 81 1 135 505 32 133 0 0 138 119 538 82 3 537 13 6 0 81 1 138 503 3
2 116 0 0 123 135 539 82 3 538 13 7 0 81 1 123 499 32 121 0 0 131 138 540 82 3 5
39 13 5 0 81 1 131 495 32 129 0 0 127 123 541 82 3 540 13 4 0 81 1 127 493 32 11
1 0 0 239 131 542 82 3 541 13 1 0 81 1 239 487 32 236 0 0 235 127 543 82 3 542 1
3 3 0 81 1 235 484 32 233 0 0 278 239 544 82 3 543 13 7 1 81 1 278 481 32 273 0
 0 255 235 545 82 3 544 13 9 1 81 1 255 478 32 253 0 0 272 278 546 82 3 545 13 2
 1 81 1 272 475 32 270 0 0 267 255 547 82 3 546 13 6 1 81 1 267 464 32 265 0 0 2
46 272 548 82 3 547 13 0 1 81 1 246 461 32 244 0 0 275 267 549 82 3 548 13 1 1 8
1 1 275 458 32 248 0 0 242 246 550 82 3 549 13 5 1 81 1 242 455 32 240 0 0 551 2
75 552 82 3 550 13 3 1 81 1 551 377 32 406 0 408 553 242 554 82 3 552 13 11 1 81
 1 408 1203 370 406 551 0 410 405 555 81 1 553 376 32 19 0 383 556 551 557 82 3
 554 10 2 2 81 1 383 1201 370 19 553 0 380 410 558 81 1 556 375 32 402 0 405 301
 553 559 82 3 557 10 1 2 81 1 405 1204 370 402 556 0 408 401 560 81 1 301 374 32
 269 0 0 305 556 561 82 3 559 10 0 2 81 1 305 373 32 303 0 0 339 301 562 82 3 56
1 10 4 1 81 1 339 372 32 337 0 0 336 305 563 82 3 562 10 3 1 81 1 336 371 32 320
 0 0 318 339 564 82 3 563 10 2 1 81 1 318 370 32 316 0 0 77 336 565 82 3 564 10
 1 1 81 1 77 369 32 72 0 0 74 318 566 82 3 565 10 0 1 81 1 74 368 32 55 0 0 491
 77 567 82 3 566 10 1 0 82 3 567 10 0 0 83 3 560 .96078431372549 .83529411764705
9 .470588235294118 83 3 558 .96078431372549 .835294117647059 .470588235294118 83
 3 555 .96078431372549 .835294117647059 .470588235294118 81 1 102 285 32 84 0 0
 99 491 568 82 3 494 9 3 2 81 1 99 283 32 97 0 0 82 102 569 82 3 568 9 3 0 81 1
 82 281 32 80 0 0 87 99 570 82 3 569 9 1 0 81 1 87 277 32 85 0 0 91 82 571 82 3
 570 9 4 0 81 1 91 275 32 79 0 0 95 87 572 82 3 571 9 6 0 81 1 95 273 32 93 0 0
 287 91 573 82 3 572 9 5 0 81 1 287 260 32 284 0 0 291 95 574 82 3 573 9 7 0 81
 1 291 254 32 289 0 0 311 287 575 82 3 574 9 9 1 81 1 311 251 32 298 0 0 314 291
 576 82 3 575 9 5 1 81 1 314 240 32 312 0 0 282 311 577 82 3 576 9 2 1 81 1 282
 231 32 280 0 0 308 314 578 82 3 577 9 3 1 81 1 308 228 32 285 0 0 489 282 579 8
2 3 578 9 11 1 81 1 489 173 32 395 0 401 412 308 580 82 3 579 9 6 1 81 1 412 172
 32 385 0 410 330 489 581 82 3 580 6 1 2 81 1 330 170 32 328 0 0 323 412 582 82
 3 581 6 0 2 81 1 323 168 32 315 0 0 333 330 583 82 3 582 6 10 1 81 1 333 166 32
 321 0 0 327 323 584 82 3 583 6 8 1 81 1 327 164 32 325 0 0 342 333 585 82 3 584
 6 6 1 81 1 342 161 32 340 0 0 345 327 586 82 3 585 6 4 1 81 1 345 160 32 27 0 0
 62 342 587 82 3 586 6 1 1 81 1 62 158 32 60 0 0 58 345 588 82 3 587 6 0 1 81 1
 58 156 32 56 0 0 66 62 589 82 3 588 6 6 0 81 1 66 154 32 64 0 0 70 58 590 82 3
 589 6 4 0 81 1 70 152 32 68 0 0 0 66 591 82 3 590 6 2 0 82 3 591 6 0 0 83 3 490
 .96078431372549 .835294117647059 .470588235294118 15 481 881 0 214 376 592 51 3
79 943 0 376 375 369 0 +.02032 .03429 -.004826 0 0 1 .0015875 1 0 0 50 375 1157
 0 163 593 379 0 +.015875 0 .039624 1 0 0 0 0 -1 50 593 1158 0 176 594 375 0 +0
 .015875 .039624 0 -1 0 0 0 -1 14 176 1135 595 ?596 163 169 6 593 -0 0 596 163 2
4 50 594 1159 0 596 597 593 0 +-.015875 0 .039624 1 0 0 0 0 -1 14 596 1139 598 ?
599 176 600 6 594 -0 0 599 176 24 50 597 1160 0 599 601 594 0 +0 -.015875 .03962
4 0 -1 0 0 0 -1 14 599 1143 602 ?183 596 603 6 597 +0 0 183 596 24 50 601 1162 0
 183 0 597 0 +-1040834085586084e-32 .009525 .039624 0 0 1 1 0 0 14 183 1147 604
 ?0 599 179 6 601 +0 0 0 599 24 81 1 604 1224 370 183 605 0 602 0 606 81 1 605 1
149 32 183 0 604 607 33 608 81 1 602 1223 370 599 607 0 598 604 609 83 3 606 .96
078431372549 .835294117647059 .470588235294118 81 1 607 1145 32 599 0 602 610 60
5 611 81 1 598 1222 370 596 610 0 595 602 612 83 3 609 .96078431372549 .83529411
7647059 .470588235294118 81 1 610 1141 32 596 0 598 613 607 614 81 1 595 1221 37
0 176 613 0 373 598 615 83 3 612 .96078431372549 .835294117647059 .4705882352941
18 81 1 613 1137 32 176 0 595 616 610 617 81 1 373 1220 370 163 616 0 366 595 61
8 83 3 615 .96078431372549 .835294117647059 .470588235294118 81 1 616 1133 32 16
3 0 373 148 613 619 83 3 618 .96078431372549 .835294117647059 .470588235294118 8
1 1 148 1130 32 146 0 0 152 616 620 82 3 619 25 4 2 81 1 152 1128 32 150 0 0 144
 148 621 82 3 620 25 7 0 81 1 144 1124 32 125 0 0 154 152 622 82 3 621 25 3 0 82
 3 622 25 5 0 82 3 617 25 0 2 82 3 614 25 5 2 82 3 611 25 3 2 81 1 33 1187 32 1
 0 623 605 29 624 82 3 608 25 2 2 81 1 623 1197 625 1 33 14 0 0 626 82 3 624 6 0
 3 80 1 625 627 628 8038 0 0 0 0 0 0 0 0 0 TTTTTTTTTTTTTFTF10 81 1 14 1198 627 1
 623 2 0 0 629 98 255 6 626 80 97 114 116 32 49 80 1 627 630 631 8017 0 0 0 0 0
 0 0 0 0 TTTTTTTTTTTTTFTF3 84 255 6 629 Part 179 255 13 631 SDL/TYSA_NAME79 14 6
28 SDL/TYSA_UNAME15 603 1146 0 632 599 0 17 632 0 603 145 209 140 45 187 0 0 -17
 145 0 603 184 632 125 164 198 0 159 -17 209 0 603 632 184 42 633 206 0 46 +17 4
5 0 36 38 37 42 632 187 0 209 +17 37 0 36 45 30 140 160 168 0 164 +17 164 0 158
 160 159 140 145 198 0 632 +17 184 0 603 209 145 146 167 185 0 0 +17 633 0 600 1
78 46 146 209 206 0 184 -17 46 0 600 633 177 42 38 47 0 0 +15 600 1142 0 46 596
 0 17 177 0 600 46 178 31 174 172 0 0 +17 178 0 600 177 633 150 149 181 0 0 -17
 149 0 179 167 153 146 178 181 0 633 +17 214 0 481 214 214 0 634 171 0 0 +15 592
 882 0 635 376 0 17 635 0 592 635 635 0 351 349 0 0 -17 351 0 636 351 351 0 635
 349 0 0 +15 636 742 0 351 363 637 15 637 735 0 348 363 427 17 348 0 637 348 348
 0 638 227 0 0 +17 638 0 639 638 638 0 348 227 0 0 -15 639 912 0 638 469 0 17 63
4 0 640 634 634 0 214 171 0 0 -15 640 771 0 634 17 641 15 641 764 0 642 17 423 1
7 642 0 641 642 642 0 226 220 0 0 -17 226 0 476 226 226 0 642 220 0 0 +15 476 91
1 0 226 469 639 81 1 213 968 32 171 0 0 222 473 643 82 3 478 22 0 2 81 1 222 967
 32 215 0 0 218 213 644 82 3 643 22 7 1 81 1 218 966 32 216 0 0 225 222 645 82 3
 644 22 6 1 81 1 225 965 32 220 0 0 350 218 646 82 3 645 22 5 1 81 1 350 964 32
 349 0 0 353 225 647 82 3 646 22 4 1 82 3 647 22 3 1 81 1 25 674 32 11 0 0 465 4
56 648 82 3 472 17 2 2 81 1 456 675 32 448 0 451 25 347 649 82 3 648 18 0 1 81 1
 347 961 32 227 0 0 456 355 650 82 3 649 18 0 2 82 3 650 22 0 1 15 470 659 0 230
 462 0 17 230 0 470 230 230 0 651 228 0 0 +17 651 0 463 651 651 0 230 228 0 0 -1
5 463 654 0 651 447 536 81 1 229 650 32 228 0 0 432 459 652 82 3 466 17 0 2 82 3
 652 17 1 1 83 3 458 .96078431372549 .835294117647059 .470588235294118 79 15 455
 SDL/TYSA_COLOUR82 3 439 14 2 1 79 9 438 BTI/DetId82 3 433 14 7 1 17 88 0 399 42
6 96 85 429 312 0 428 +83 3 413 .96078431372549 .835294117647059 .47058823529411
8 15 387 785 0 653 17 654 17 653 0 387 653 653 0 219 216 0 0 -15 654 778 0 655 1
7 640 17 655 0 654 655 655 0 223 215 0 0 -17 223 0 377 223 223 0 655 215 0 0 +15
 377 851 0 223 367 656 15 656 852 0 358 367 0 17 358 0 656 358 358 0 354 352 0 0
 -17 219 0 368 219 219 0 653 216 0 0 +81 1 382 1196 32 17 0 380 203 0 657 83 3 3
84 .96078431372549 .835294117647059 .470588235294118 81 1 203 1195 32 47 0 0 200
 382 658 82 3 657 26 0 2 81 1 200 1194 32 168 0 0 192 203 659 82 3 658 26 3 1 81
 1 192 1193 32 187 0 0 202 200 660 82 3 659 26 2 1 81 1 202 1192 32 40 0 0 48 19
2 661 82 3 660 26 1 1 81 1 48 1191 32 42 0 0 43 202 662 82 3 661 26 0 1 81 1 43
 1190 32 140 0 0 34 48 663 82 3 662 26 3 0 82 3 663 26 2 0 83 3 374 .96078431372
549 .835294117647059 .470588235294118 15 357 749 0 354 363 636 82 3 360 22 1 1 8
2 3 356 22 2 1 81 1 210 1092 32 172 0 0 170 197 664 81 1 170 1084 32 161 0 0 190
 210 665 81 1 197 1095 32 185 0 0 210 208 666 82 3 664 25 1 1 81 1 208 1098 32 2
06 0 0 197 180 667 82 3 666 25 7 1 81 1 180 1101 32 175 0 0 208 156 668 82 3 667
 25 3 1 81 1 156 1104 32 181 0 0 180 154 669 82 3 668 25 5 1 82 3 669 25 11 1 81
 1 190 1076 32 198 0 0 186 170 670 82 3 665 25 0 1 82 3 670 25 2 1 17 39 0 169 1
74 41 31 30 40 0 177 +82 3 191 25 9 1 82 3 157 25 1 0 82 3 44 26 1 0 82 3 35 26
 0 0 19 18 138 0 1 0 10 6 0 S0 74 4 CI16 index_map_offset0 0 1 dCCZ20 16 5 0 0 3
82 623 14 2 604 0 0 0 0 0 0 0 0 0 0 0 0 0 0 0 80 1 13 370 671 8040 0 0 0 0 3 5 0
 0 0 TTTFFFFFFFFFFFFF2 83 3 15 .96078431372549 .835294117647059 .470588235294118
 79 17 671 SDL/TYSA_COLOUR_21 0 
