**ABCDEFGHIJKLMNOPQRSTUVWXYZabcdefghijklmnopqrstuvwxyz**************************
**PARASOLID !"#$%&'()*+,-./:;<=>?@[\]^_`{|}~0123456789**************************
**PART1;
MC=unknown;
MC_MODEL=unknown;
MC_ID=unknown;
OS=unknown;
OS_RELEASE=unknown;
FRU=Parasolid 34.1.198;
APPL=Onshape;
SITE=unknown;
USER=unknown;
FORMAT=text;
GUISE=transmit;
KEY=BTGapi::writeModels_.xmt;
FILE=BTGapi::writeModels_.xmt;
DATE=2022-06-03T17:49:42 (UTC);
**PART2;
SCH=SCH_3401198_34101;
USFLD_SIZE=0;
**PART3;
**END_OF_HEADER*****************************************************************
T51 : TRANSMIT FILE created by modeller version 340119823 SCH_3401198_34101_1300
6231 0 12 36 CCCI7 lattice222 0 CCCI4 mesh1006 0 I8 polyline1008 0 CCCCCCCDI5 ow
ner1040 0 CCCI16 boundary_lattice222 0 CCCI13 boundary_mesh1006 0 I17 boundary_p
olyline1008 0 CCCA16 index_map_offset0 0 1 dA9 index_map82 0 A17 node_id_index_m
ap82 0 A20 schema_embedding_map82 0 A5 child12 0 A14 lowest_node_id0 0 1 dA16 me
sh_offset_data206 0 Z1 2722 2 3 0 0 0 0 0 0 0 1e3 1e-8 0 4 5 1 0 1 1 6 0 7 8 9 0
 0 10 11 12 0 0 0 0 0 0 0 81 255 1 2 2679 13 1 14 0 0 0 15 70 11 CI9 list_type0
 0 1 uI10 notransmit0 0 1 lCCCDCCDI12 finger_index0 0 1 dI12 finger_block1012 0
 CZ3 0 4 T1 0 0 5 20 1 16 16 13 255 6 256 0 1 0 17 0 0 18 0 51 255 7 2397 0 19 2
0 0 0 +.0097725810483098 -.0066675 .0355755881012528 -1 0 0 .00508 0 0 1 31 255
 8 2018 0 11 21 0 0 -.004445 -.0066675 .0355755881012528 1 0 0 0 0 -1 .00508 29
 255 9 1848 0 12 22 0 .004445 -.0015875 .0355755881012528 19 9 CCCCCCI5 frame230
 0 CA5 owner12 0 Z10 98 0 1 18 0 23 0 V0 16 255 11 1983 24 ?25 0 26 8 0 0 1 18 2
55 12 1845 27 25 0 28 9 ?1 81 1 27 2529 29 12 0 0 30 31 32 17 255 25 0 33 34 35
 12 36 11 0 37 +18 28 1841 38 39 12 40 22 ?1 81 1 38 2515 29 28 0 0 41 42 43 17
 39 0 44 37 45 28 46 47 0 34 +18 40 1837 31 48 28 49 50 ?1 29 22 1844 0 28 50 9
 .004445 -.0015875 .00928382161343054 29 50 1840 0 40 51 22 0 -.0015875 .0355755
881012528 29 51 1836 0 49 52 50 0 -.0015875 .00928382161343054 18 49 1833 42 53
 40 54 51 ?1 29 52 1822 0 54 55 51 .004445 -.003704166666666665 .005157678674128
08 18 54 1819 56 57 49 58 52 ?1 29 55 1818 0 58 59 52 .004445 -.0051576786741280
8 .003704166666666665 18 58 1815 60 61 54 62 55 ?1 29 59 1814 0 62 63 55 0 -.003
704166666666665 .00515767867412808 18 62 1811 64 65 58 66 59 ?1 29 63 1810 0 66
 67 59 0 -.00515767867412808 .003704166666666665 18 66 1807 41 68 62 69 63 ?1 29
 67 1796 0 69 70 63 .004445 -.0355755881012528 .0015875 18 69 1793 71 72 66 73 6
7 ?1 29 70 1792 0 73 74 67 .004445 -.00928382161343054 .0015875 18 73 1789 75 76
 69 77 70 ?1 29 74 1788 0 77 78 70 0 -.0355755881012528 .0015875 18 77 1785 30 7
9 73 80 74 ?1 29 78 1784 0 80 81 74 0 -.00928382161343054 .0015875 18 80 1781 82
 83 77 84 78 ?1 29 81 1770 0 84 85 78 0 -.00760328947368422 .04056865309791985 1
8 84 1767 86 87 80 88 81 ?1 29 85 1766 0 88 89 81 0 -.04056865309791985 .0076032
8947368421 18 88 1763 90 91 84 92 85 ?1 29 89 1762 0 92 93 85 .004445 -.00760328
947368422 .04056865309791985 18 92 1759 94 95 88 96 89 ?1 29 93 1758 0 96 97 89
 .004445 -.04056865309791985 .00760328947368421 18 96 1755 98 99 92 100 93 ?1 29
 97 1744 0 100 101 93 .004445 .0015875 .0355755881012528 18 100 1741 102 103 96
 104 97 ?1 29 101 1740 0 104 105 97 .004445 .0015875 .00928382161343054 18 104 1
737 106 107 100 108 101 ?1 29 105 1736 0 108 109 101 0 .0015875 .035575588101252
8 18 108 1733 110 111 104 112 105 ?1 29 109 1732 0 112 113 105 0 .0015875 .00928
382161343054 18 112 1729 114 115 108 116 109 ?1 29 113 1718 0 116 117 109 .00444
5 .00515767867412808 .003704166666666665 18 116 1715 118 119 112 120 113 ?1 29 1
17 1714 0 120 121 113 .004445 .003704166666666665 .00515767867412808 18 120 1711
 122 123 116 124 117 ?1 29 121 1710 0 124 125 117 0 .00515767867412808 .00370416
6666666665 18 124 1707 126 127 120 128 121 ?1 29 125 1706 0 128 129 121 0 .00370
4166666666665 .00515767867412808 18 128 1703 130 131 124 132 125 ?1 29 129 1692
 0 132 133 125 0 .04056865309791985 .00760328947368421 18 132 1689 134 135 128 1
36 129 ?1 29 133 1688 0 136 137 129 0 .00760328947368421 .04056865309791985 18 1
36 1685 138 139 132 140 133 ?1 29 137 1684 0 140 141 133 .004445 .04056865309791
985 .00760328947368421 18 140 1681 142 143 136 144 137 ?1 29 141 1680 0 144 145
 137 .004445 .00760328947368421 .04056865309791985 18 144 1677 146 147 140 148 1
41 ?1 29 145 1666 0 148 149 141 .004445 .0355755881012528 .0015875 18 148 1663 1
50 151 144 152 145 ?1 29 149 1662 0 152 153 145 .004445 .00928382161343054 .0015
875 18 152 1659 154 155 148 156 149 ?1 29 153 1658 0 156 157 149 0 .035575588101
2528 .0015875 18 156 1655 158 159 152 160 153 ?1 29 157 1654 0 160 161 153 0 .00
928382161343054 .0015875 18 160 1651 162 163 156 164 157 ?1 29 161 1640 0 164 16
5 157 .004445 .003704166666666665 -.00515767867412808 18 164 1637 166 167 160 16
8 161 ?1 29 165 1636 0 168 169 161 .004445 .00515767867412808 -.0037041666666666
65 18 168 1633 170 171 164 172 165 ?1 29 169 1632 0 172 173 165 0 .0037041666666
66665 -.00515767867412808 18 172 1629 174 175 168 176 169 ?1 29 173 1628 0 176 1
77 169 0 .00515767867412808 -.003704166666666665 18 176 1625 178 179 172 180 173
 ?1 29 177 1614 0 180 181 173 .004445 .0355755881012528 -.0015875 18 180 1611 18
2 183 176 184 177 ?1 29 181 1610 0 184 185 177 .004445 .00928382161343054 -.0015
875 18 184 1607 186 187 180 188 181 ?1 29 185 1606 0 188 189 181 0 .035575588101
2528 -.0015875 18 188 1603 190 191 184 192 185 ?1 29 189 1602 0 192 193 185 0 .0
0928382161343054 -.0015875 18 192 1599 194 195 188 196 189 ?1 29 193 1588 0 196
 197 189 0 .00760328947368421 -.04056865309791985 18 196 1585 198 199 192 200 19
3 ?1 29 197 1584 0 200 201 193 0 .04056865309791985 -.00760328947368421 18 200 1
581 202 203 196 204 197 ?1 29 201 1580 0 204 205 197 .004445 .00760328947368421
 -.04056865309791985 18 204 1577 206 207 200 208 201 ?1 29 205 1576 0 208 209 20
1 .004445 .04056865309791985 -.00760328947368421 18 208 1573 210 211 204 212 205
 ?1 29 209 1562 0 212 213 205 .004445 .0015875 -.0355755881012528 18 212 1559 21
4 215 208 216 209 ?1 29 213 1558 0 216 217 209 .004445 .0015875 -.00928382161343
054 18 216 1555 218 219 212 220 213 ?1 29 217 1554 0 220 221 213 0 .0015875 -.03
55755881012528 18 220 1551 222 223 216 224 217 ?1 29 221 1550 0 224 225 217 0 .0
015875 -.00928382161343054 18 224 1547 226 227 220 228 221 ?1 29 225 1536 0 228
 229 221 .004445 -.00515767867412808 -.003704166666666665 18 228 1533 230 231 22
4 232 225 ?1 29 229 1532 0 232 233 225 .004445 -.003704166666666665 -.0051576786
7412808 18 232 1529 234 235 228 236 229 ?1 29 233 1528 0 236 237 229 0 -.0051576
7867412808 -.003704166666666665 18 236 1525 238 239 232 240 233 ?1 29 237 1524 0
 240 241 233 0 -.003704166666666665 -.00515767867412808 18 240 1521 242 243 236
 244 237 ?1 29 241 1510 0 244 245 237 .004445 -.0015875 -.0355755881012528 18 24
4 1507 246 247 240 248 241 ?1 29 245 1506 0 248 249 241 .004445 -.0015875 -.0092
8382161343054 18 248 1503 250 251 244 252 245 ?1 29 249 1502 0 252 253 245 0 -.0
015875 -.0355755881012528 18 252 1499 254 255 248 256 249 ?1 29 253 1498 0 256 2
57 249 0 -.0015875 -.00928382161343054 18 256 1495 258 259 252 260 253 ?1 29 257
 1484 0 260 261 253 0 -.04056865309791985 -.00760328947368421 18 260 1481 262 26
3 256 264 257 ?1 29 261 1480 0 264 265 257 0 -.00760328947368421 -.0405686530979
1985 18 264 1477 266 267 260 268 261 ?1 29 265 1476 0 268 269 261 .004445 -.0405
6865309791985 -.00760328947368421 18 268 1473 270 271 264 272 265 ?1 29 269 1472
 0 272 273 265 .004445 -.00760328947368421 -.04056865309791985 18 272 1469 274 2
75 268 276 269 ?1 29 273 1458 0 276 277 269 .004445 -.0355755881012528 -.0015875
 18 276 1455 278 279 272 280 273 ?1 29 277 1454 0 280 281 273 .004445 -.00928382
161343054 -.0015875 18 280 1451 282 283 276 284 277 ?1 29 281 1450 0 284 285 277
 0 -.0355755881012528 -.0015875 18 284 1447 286 287 280 288 281 ?1 29 285 1446 0
 288 289 281 0 -.00928382161343054 -.0015875 18 288 1443 290 291 284 292 285 ?1
 29 289 1101 0 292 293 285 .004445 -.0026035 -.0018415 18 292 1099 294 295 288 2
96 289 ?1 29 293 1230 0 297 298 289 .004445 .0026035 -.0018415 18 297 1184 299 3
00 301 302 293 ?1 29 298 1232 0 302 303 293 .004445 -.0026035 .0018415 18 302 11
76 304 305 297 306 298 ?1 29 303 1233 0 306 307 298 .004445 .0026035 .0018415 18
 306 1172 308 309 302 0 303 ?1 29 307 1234 0 296 310 303 .0022225 .0026035 -.001
8415 18 296 1170 311 312 292 313 307 ?1 29 310 1235 0 313 314 307 .0022225 -.002
6035 -.0018415 18 313 1182 315 316 296 317 310 ?1 29 314 1236 0 317 318 310 .002
2225 -.0026035 .0018415 18 317 1178 319 320 313 301 314 ?1 29 318 1237 0 301 0 3
14 .0022225 .0026035 .0018415 18 301 1174 321 322 317 297 318 ?1 81 1 321 1241 2
9 301 0 0 308 304 323 17 322 0 324 325 326 301 309 327 0 328 -15 255 324 1189 0
 326 329 0 17 325 0 324 300 322 296 330 331 0 0 +17 326 0 324 322 300 306 332 33
3 0 334 -17 309 0 335 336 328 306 322 327 0 326 +16 327 1131 337 ?309 338 339 34
0 0 0 1 17 328 0 335 309 320 301 341 342 0 330 -15 335 1193 0 336 343 0 17 320 0
 335 328 336 317 305 339 0 341 -17 341 0 344 345 330 317 328 342 0 346 +16 342 1
134 347 ?341 348 331 349 0 0 1 17 330 0 344 341 350 301 325 331 0 0 -15 344 1205
 0 330 351 0 17 350 0 344 330 345 296 352 353 0 325 -16 331 1154 354 ?325 342 35
5 356 0 0 1 81 1 354 1258 29 331 0 0 357 358 359 16 355 1146 360 ?361 331 362 36
3 0 0 1 30 255 356 1229 0 331 364 349 0 +.0022225 .0026035 0 0 0 -1 31 364 1419
 0 365 0 356 0 +0 0 95651038247404e-33 -1 0 0 0 0 1 .0015621 30 349 1228 0 342 3
56 366 0 +.0022225 433680868994202e-33 .0018415 0 -1 0 30 366 1227 0 348 349 367
 0 +.0022225 -.0026035 0 0 0 -1 16 348 1140 358 ?345 353 342 366 0 0 1 30 367 12
26 0 353 366 368 0 +.0022225 433680868994202e-33 -.0018415 0 -1 0 16 353 1157 35
7 ?352 369 348 367 0 0 1 30 368 1225 0 333 367 370 0 +.004445 .0026035 0 0 0 -1
 16 333 1126 371 ?332 372 373 368 0 0 1 30 370 1224 0 372 368 374 0 +.004445 433
680868994202e-33 .0018415 0 -1 0 16 372 1160 375 ?336 362 333 370 0 0 1 30 374 1
223 0 362 370 363 0 +.004445 -.0026035 0 0 0 -1 16 362 1165 376 ?295 355 372 374
 0 0 1 30 363 1222 0 355 374 377 0 +.004445 433680868994202e-33 -.0018415 0 -1 0
 30 377 1221 0 369 363 378 0 +.0022225 .0026035 -.0018415 1 0 0 16 369 1151 379
 ?300 380 353 377 0 0 1 30 378 1220 0 380 377 381 0 +.0022225 -.0026035 -.001841
5 1 0 0 16 380 1143 382 ?383 339 369 378 0 0 1 30 381 1219 0 339 378 340 0 +.002
2225 -.0026035 .0018415 1 0 0 16 339 1137 384 ?305 327 380 381 0 0 1 30 340 1218
 0 327 381 385 0 +.0022225 .0026035 .0018415 1 0 0 31 385 880 0 338 340 386 0 +5
08e-6 0 0 -1 0 0 0 0 1 .04445 16 338 633 387 ?388 389 327 385 0 0 1 31 386 879 0
 389 385 390 0 +.003937 0 0 -1 0 0 0 0 1 .04445 16 389 639 391 ?392 393 338 386
 0 0 1 31 390 878 0 393 386 394 0 +.004445 0 0 -1 0 0 0 0 1 .04445 16 393 636 39
5 ?396 397 389 390 0 0 1 31 394 877 0 398 390 399 0 +.004445 0 0 -1 0 0 0 0 1 .0
41275 16 398 1756 400 ?35 401 397 394 397 401 1 31 399 876 0 402 394 403 0 +0 0
 0 -1 0 0 0 0 1 .041275 16 402 1764 404 ?405 406 407 399 407 406 1 31 403 875 0
 408 399 409 0 +-1734723475976805e-33 0 0 -1 0 0 0 0 1 .04445 16 408 542 410 ?41
1 412 413 403 0 0 1 31 409 874 0 414 403 415 0 +.004445 -3144186300207965e-33 17
34723475976805e-33 -1 0 0 0 -1 -612323399573677e-31 .00635 16 414 1634 416 ?417
 418 419 409 0 0 1 30 415 873 0 418 409 420 0 +.004445 .0236964104586691 -.00158
75 0 1 612323399573677e-31 16 418 1608 421 ?422 423 414 415 0 0 1 30 420 872 0 4
23 415 424 0 +.004445 .0015875 -.0236964104586691 0 612323399573677e-31 -1 16 42
3 1556 425 ?426 427 418 420 0 0 1 31 424 871 0 412 420 428 0 +0 -314418630020796
5e-33 1734723475976805e-33 -1 0 0 0 -1 -612323399573677e-31 .00635 16 412 1626 4
29 ?430 431 408 424 0 0 1 30 428 870 0 431 424 432 0 +0 .0236964104586691 -.0015
875 0 1 612323399573677e-31 16 431 1600 433 ?434 419 412 428 0 0 1 30 432 869 0
 419 428 435 0 +0 .0015875 -.0236964104586691 0 612323399573677e-31 -1 16 419 15
48 436 ?437 414 431 432 0 0 1 31 435 864 0 438 432 439 0 +.004445 -1734723475976
805e-33 -3144186300207965e-33 -1 0 0 0 0 -1 .00635 16 438 1712 440 ?441 442 443
 435 0 0 1 30 439 863 0 442 435 444 0 +.004445 .0015875 .0236964104586691 0 0 1
 16 442 1738 445 ?446 447 438 439 0 0 1 30 444 861 0 447 439 448 0 +.004445 .023
6964104586691 .0015875 0 1 0 16 447 1660 449 ?450 451 442 444 0 0 1 31 448 860 0
 427 444 452 0 +0 -1734723475976805e-33 -3144186300207965e-33 -1 0 0 0 0 -1 .006
35 16 427 1704 453 ?454 455 423 448 0 0 1 30 452 859 0 455 448 456 0 +0 .0015875
 .0236964104586691 0 0 1 16 455 1730 457 ?458 443 427 452 0 0 1 30 456 857 0 443
 452 459 0 +0 .0236964104586691 .0015875 0 1 0 16 443 1652 460 ?461 438 455 456
 0 0 1 31 459 851 0 462 456 463 0 +.004445 1734723475976805e-33 3144186300207965
e-33 -1 0 0 0 -1224646799147352e-31 1 .00635 16 462 1530 464 ?465 466 467 459 0
 0 1 30 463 850 0 466 459 468 0 +.004445 -.0015875 -.0236964104586691 0 12246467
99147352e-31 -1 16 466 1504 469 ?470 471 462 463 0 0 1 30 468 848 0 471 463 472
 0 +.004445 -.0236964104586691 -.0015875 0 -1 -1224646799147352e-31 16 471 1452
 473 ?474 475 466 468 0 0 1 31 472 847 0 451 468 476 0 +0 1734723475976805e-33 3
144186300207965e-33 -1 0 0 0 -1224646799147352e-31 1 .00635 16 451 1522 477 ?478
 479 447 472 0 0 1 30 476 846 0 479 472 480 0 +0 -.0015875 -.0236964104586691 0
 1224646799147352e-31 -1 16 479 1496 481 ?482 467 451 476 0 0 1 30 480 844 0 467
 476 483 0 +0 -.0236964104586691 -.0015875 0 -1 -1224646799147352e-31 16 467 144
4 484 ?485 462 479 480 0 0 1 31 483 9 0 486 480 487 0 +.004445 3144186300207965e
-33 -1734723475976805e-33 -1 0 0 0 1 183697019872103e-30 .00635 16 486 1816 488
 ?489 490 491 483 0 0 1 30 487 14 0 490 483 492 0 +.004445 -.0236964104586691 .0
015875 0 -1 -183697019872103e-30 16 490 1790 493 ?494 495 486 487 0 0 1 30 492 4
9 0 495 487 496 0 +.004445 -.0015875 .0236964104586691 0 -183697019872103e-30 1
 16 495 1842 497 ?37 498 490 492 0 0 1 31 496 213 0 475 492 499 0 +0 31441863002
07965e-33 -1734723475976805e-33 -1 0 0 0 1 183697019872103e-30 .00635 16 475 180
8 500 ?501 502 471 496 0 0 1 30 499 212 0 502 496 503 0 +0 -.0236964104586691 .0
015875 0 -1 -183697019872103e-30 16 502 1782 504 ?505 491 475 499 0 0 1 30 503 2
07 0 491 499 506 0 +0 -.0015875 .0236964104586691 0 -183697019872103e-30 1 16 49
1 1834 507 ?508 486 502 503 0 0 1 31 506 1369 0 373 503 509 0 +.0022225 0 956510
38247404e-33 1 0 0 0 0 -1 .0015621 16 373 1388 510 ?511 333 365 506 0 0 1 30 509
 1461 0 498 506 512 0 +.004445 -.00928382161343054 -.0015875 1 0 0 16 498 1459 5
13 ?283 514 495 509 0 0 1 30 512 1466 0 514 509 515 0 +.004445 -.035575588101252
8 -.0015875 -1 0 0 16 514 1464 516 ?517 518 498 512 0 0 1 30 515 1487 0 518 512
 519 0 +.0097725810483098 -.00760328947368421 -.04056865309791985 -1 0 0 16 518
 1485 520 ?521 522 514 515 0 0 1 30 519 1492 0 522 515 523 0 -.0097725810483098
 -.04056865309791985 -.00760328947368421 -1 0 0 16 522 1490 524 ?271 525 518 519
 0 0 1 30 523 1513 0 525 519 526 0 +.004445 -.0015875 -.00928382161343054 -1 0 0
 16 525 1511 527 ?528 529 522 523 0 0 1 30 526 1518 0 529 523 530 0 +.004445 -.0
015875 -.0355755881012528 1 0 0 16 529 1516 531 ?247 532 525 526 0 0 1 30 530 15
39 0 532 526 533 0 +.004445 -.00515767867412808 -.003704166666666665 -1 0 0 16 5
32 1537 534 ?535 536 529 530 0 0 1 30 533 1544 0 536 530 537 0 -.004445 -.003704
166666666665 -.00515767867412808 -1 0 0 16 536 1542 538 ?235 539 532 533 0 0 1 3
0 537 1565 0 539 533 540 0 +.004445 .0015875 -.00928382161343054 1 0 0 16 539 15
63 541 ?219 542 536 537 0 0 1 30 540 1570 0 542 537 543 0 +.004445 .0015875 -.03
55755881012528 -1 0 0 16 542 1568 544 ?545 546 539 540 0 0 1 30 543 1591 0 546 5
40 547 0 +.0097725810483098 .04056865309791985 -.00760328947368421 -1 0 0 16 546
 1589 548 ?549 550 542 543 0 0 1 30 547 1596 0 550 543 551 0 -.0097725810483098
 .00760328947368421 -.04056865309791985 -1 0 0 16 550 1594 552 ?207 553 546 547
 0 0 1 30 551 1617 0 553 547 554 0 +.004445 .0355755881012528 -.0015875 1 0 0 16
 553 1615 555 ?183 556 550 551 0 0 1 30 554 1622 0 556 551 557 0 +.004445 .00928
382161343054 -.0015875 -1 0 0 16 556 1620 558 ?559 560 553 554 0 0 1 30 557 1643
 0 560 554 561 0 +.004445 .003704166666666665 -.00515767867412808 -1 0 0 16 560
 1641 562 ?563 564 556 557 0 0 1 30 561 1648 0 564 557 565 0 -.004445 .005157678
67412808 -.003704166666666665 -1 0 0 16 564 1646 566 ?171 567 560 561 0 0 1 30 5
65 1669 0 567 561 568 0 +.004445 .00928382161343054 .0015875 1 0 0 16 567 1667 5
69 ?155 570 564 565 0 0 1 30 568 1674 0 570 565 571 0 +.004445 .0355755881012528
 .0015875 -1 0 0 16 570 1672 572 ?573 574 567 568 0 0 1 30 571 1695 0 574 568 57
5 0 +.0097725810483098 .00760328947368421 .04056865309791985 -1 0 0 16 574 1693
 576 ?577 578 570 571 0 0 1 30 575 1700 0 578 571 579 0 -.0097725810483098 .0405
6865309791985 .00760328947368421 -1 0 0 16 578 1698 580 ?143 581 574 575 0 0 1 3
0 579 1721 0 581 575 582 0 -.004445 .003704166666666665 .00515767867412808 -1 0
 0 16 581 1719 583 ?123 584 578 579 0 0 1 30 582 1726 0 584 579 585 0 +.004445 .
00515767867412808 .003704166666666665 -1 0 0 16 584 1724 586 ?587 588 581 582 0
 0 1 30 585 1747 0 588 582 589 0 +.004445 .0015875 .0355755881012528 1 0 0 16 58
8 1745 590 ?103 591 584 585 0 0 1 30 589 1752 0 591 585 592 0 +.004445 .0015875
 .00928382161343054 -1 0 0 16 591 1750 593 ?594 595 588 589 0 0 1 30 592 1773 0
 595 589 596 0 -.0097725810483098 -.00760328947368422 .04056865309791985 -1 0 0
 16 595 1771 597 ?95 598 591 592 0 0 1 30 596 1778 0 598 592 599 0 +.00977258104
83098 -.04056865309791985 .00760328947368421 -1 0 0 16 598 1776 600 ?601 602 595
 596 0 0 1 30 599 1799 0 602 596 603 0 +.004445 -.00928382161343054 .0015875 -1
 0 0 16 602 1797 604 ?605 606 598 599 0 0 1 30 603 1804 0 606 599 607 0 +.004445
 -.0355755881012528 .0015875 1 0 0 16 606 1802 608 ?72 609 602 603 0 0 1 30 607
 1825 0 609 603 610 0 +.004445 -.003704166666666665 .00515767867412808 -1 0 0 16
 609 1823 611 ?612 613 606 607 0 0 1 30 610 1830 0 613 607 614 0 -.004445 -.0051
5767867412808 .003704166666666665 -1 0 0 16 613 1828 615 ?61 616 609 610 0 0 1 3
0 614 1851 0 616 610 617 0 +.004445 -.0015875 .0355755881012528 -1 0 0 16 616 18
49 618 ?619 47 613 614 0 0 1 30 617 1856 0 47 614 620 0 +.004445 -.0015875 .0092
8382161343054 1 0 0 16 47 1854 621 ?39 622 616 617 0 0 1 31 620 1987 0 622 617 6
23 0 +0 -.0355755881012528 -.0066675 1 0 0 0 0 -1 .00508 16 622 1859 624 ?263 62
5 47 620 0 0 1 31 623 1988 0 625 620 626 0 -.004445 -.0355755881012528 -.0066675
 1 0 0 0 0 -1 .00508 16 625 1863 627 ?279 628 622 623 0 0 1 31 626 1989 0 628 62
3 629 0 +0 -.0066675 -.0355755881012528 1 0 0 0 0 -1 .00508 16 628 1867 630 ?255
 631 625 626 0 0 1 31 629 1990 0 631 626 632 0 -.004445 -.0066675 -.035575588101
2528 1 0 0 0 0 -1 .00508 16 631 1871 633 ?275 634 628 629 0 0 1 31 632 1991 0 63
4 629 635 0 +0 -.0066675 -.00928382161343054 1 0 0 0 0 -1 .00508 16 634 1875 636
 ?243 637 631 632 0 0 1 31 635 1992 0 637 632 638 0 -.004445 -.0066675 -.0092838
2161343054 1 0 0 0 0 -1 .00508 16 637 1879 639 ?251 640 634 635 0 0 1 31 638 199
3 0 640 635 641 0 +0 -.00928382161343054 -.0066675 1 0 0 0 0 -1 .00508 16 640 18
83 642 ?291 643 637 638 0 0 1 31 641 1994 0 643 638 644 0 -.004445 -.00928382161
343054 -.0066675 1 0 0 0 0 -1 .00508 16 643 1887 645 ?231 646 640 641 0 0 1 31 6
44 1995 0 646 641 647 0 +0 .0066675 -.0355755881012528 1 0 0 0 0 -1 .00508 16 64
6 1891 648 ?199 649 643 644 0 0 1 31 647 1996 0 649 644 650 0 -.004445 .0066675
 -.0355755881012528 1 0 0 0 0 -1 .00508 16 649 1895 651 ?215 652 646 647 0 0 1 3
1 650 1997 0 652 647 653 0 +0 .00928382161343054 -.0066675 1 0 0 0 0 -1 .00508 1
6 652 1899 654 ?179 655 649 650 0 0 1 31 653 1998 0 655 650 656 0 -.004445 .0092
8382161343054 -.0066675 1 0 0 0 0 -1 .00508 16 655 1903 657 ?187 658 652 653 0 0
 1 31 656 1999 0 658 653 659 0 +0 .0066675 -.00928382161343054 1 0 0 0 0 -1 .005
08 16 658 1907 660 ?227 661 655 656 0 0 1 31 659 2000 0 661 656 662 0 -.004445 .
0066675 -.00928382161343054 1 0 0 0 0 -1 .00508 16 661 1911 663 ?167 664 658 659
 0 0 1 31 662 2001 0 664 659 665 0 +0 .0355755881012528 -.0066675 1 0 0 0 0 -1 .
00508 16 664 1915 666 ?191 667 661 662 0 0 1 31 665 2002 0 667 662 668 0 -.00444
5 .0355755881012528 -.0066675 1 0 0 0 0 -1 .00508 16 667 1919 669 ?211 670 664 6
65 0 0 1 31 668 2003 0 670 665 671 0 +0 .0355755881012528 .0066675 1 0 0 0 0 -1
 .00508 16 670 1923 672 ?135 673 667 668 0 0 1 31 671 2004 0 673 668 674 0 -.004
445 .0355755881012528 .0066675 1 0 0 0 0 -1 .00508 16 673 1927 675 ?151 676 670
 671 0 0 1 31 674 2005 0 676 671 677 0 +0 .00928382161343054 .0066675 1 0 0 0 0
 -1 .00508 16 676 1931 678 ?163 679 673 674 0 0 1 31 677 2006 0 679 674 680 0 -.
004445 .00928382161343054 .0066675 1 0 0 0 0 -1 .00508 16 679 1935 681 ?119 682
 676 677 0 0 1 31 680 2007 0 682 677 683 0 +0 .0066675 .00928382161343054 1 0 0
 0 0 -1 .00508 16 682 1939 684 ?131 685 679 680 0 0 1 31 683 2008 0 685 680 686
 0 -.004445 .0066675 .00928382161343054 1 0 0 0 0 -1 .00508 16 685 1943 687 ?107
 688 682 683 0 0 1 31 686 2009 0 688 683 689 0 +0 .0066675 .0355755881012528 1 0
 0 0 0 -1 .00508 16 688 1947 690 ?111 691 685 686 0 0 1 31 689 2010 0 691 686 69
2 0 -.004445 .0066675 .0355755881012528 1 0 0 0 0 -1 .00508 16 691 1951 693 ?147
 694 688 689 0 0 1 31 692 2011 0 694 689 695 0 +0 -.0355755881012528 .0066675 1
 0 0 0 0 -1 .00508 16 694 1955 696 ?79 697 691 692 0 0 1 31 695 2012 0 697 692 6
98 0 -.004445 -.0355755881012528 .0066675 1 0 0 0 0 -1 .00508 16 697 1959 699 ?9
9 700 694 695 0 0 1 31 698 2013 0 700 695 701 0 +0 -.00928382161343054 .0066675
 1 0 0 0 0 -1 .00508 16 700 1963 702 ?68 703 697 698 0 0 1 31 701 2014 0 703 698
 704 0 -.004445 -.00928382161343054 .0066675 1 0 0 0 0 -1 .00508 16 703 1967 705
 ?76 706 700 701 0 0 1 31 704 2015 0 706 701 707 0 +0 -.0066675 .009283821613430
54 1 0 0 0 0 -1 .00508 16 706 1971 708 ?53 709 703 704 0 0 1 31 707 2016 0 709 7
04 21 0 -.004445 -.0066675 .00928382161343054 1 0 0 0 0 -1 .00508 16 709 1975 71
0 ?57 26 706 707 0 0 1 31 21 2017 0 26 707 8 0 +0 -.0066675 .0355755881012528 1
 0 0 0 0 -1 .00508 16 26 1979 711 ?87 11 709 21 0 0 1 81 1 711 2610 29 26 0 0 24
 457 712 17 87 0 713 714 508 84 48 26 0 405 +15 713 962 0 714 715 716 17 714 0 7
13 79 87 88 405 402 0 0 -17 508 0 713 87 53 40 45 491 0 0 +17 48 0 717 718 719 4
0 87 26 0 619 -17 405 0 720 95 601 84 714 402 0 719 +15 720 709 0 721 722 0 17 9
5 0 720 721 405 92 719 595 0 35 +17 601 0 720 405 721 88 723 598 0 714 +17 719 0
 717 48 36 84 95 595 0 0 -15 717 2386 0 36 19 0 17 36 0 717 719 718 92 25 11 0 0
 -17 718 0 717 36 48 12 619 616 0 0 -17 619 0 44 45 37 40 718 616 0 508 +15 44 2
28 0 45 724 0 17 45 0 44 39 619 49 508 491 0 46 -17 37 0 44 619 39 12 34 495 0 7
18 +17 34 0 33 57 25 28 37 495 0 725 -15 33 961 0 726 17 727 17 57 0 33 726 34 5
4 725 709 0 489 +17 725 0 728 46 729 28 57 709 0 0 -15 728 2365 0 725 730 0 17 4
6 0 728 65 725 49 39 47 0 0 -17 729 0 728 725 65 54 612 609 0 0 -17 65 0 728 729
 46 62 53 706 0 612 -17 612 0 731 732 489 62 729 609 0 501 +15 731 240 0 732 733
 0 17 732 0 731 61 612 66 501 475 0 734 -17 489 0 731 612 61 54 726 486 0 729 +1
7 501 0 713 53 68 62 732 475 0 0 +17 53 0 713 508 501 49 65 706 0 45 +17 68 0 71
3 501 735 66 83 700 0 732 +17 735 0 713 68 79 80 505 502 0 0 -17 83 0 736 737 73
4 80 68 700 0 605 -15 736 2344 0 738 739 0 17 737 0 736 738 83 73 605 602 0 0 -1
7 734 0 736 83 738 66 61 613 0 0 -17 605 0 740 505 741 80 737 602 0 735 +15 740
 238 0 505 742 0 17 505 0 740 72 605 77 735 502 0 743 +17 741 0 740 605 72 73 49
4 490 0 737 -17 72 0 740 741 505 69 743 606 0 494 +17 494 0 33 99 76 69 741 490
 0 744 +17 99 0 33 35 494 96 744 697 0 721 +17 76 0 33 494 726 73 738 703 0 741
 +17 744 0 745 743 723 69 99 697 0 0 -15 745 2323 0 744 746 0 17 743 0 745 91 74
4 77 72 606 0 0 -17 723 0 745 744 91 96 601 598 0 0 -17 91 0 745 723 743 88 79 6
94 0 601 -17 79 0 713 735 714 77 91 694 0 505 +14 255 746 2322 747 ?739 748 745
 6 749 -0 0 739 748 23 81 1 747 2719 750 746 751 0 752 753 754 14 739 2343 753 ?
730 746 736 6 755 -0 0 730 746 23 14 748 2301 752 ?746 756 757 6 758 -0 0 746 75
6 23 51 749 2334 0 746 758 755 0 +.0097725810483098 -.0355755881012528 .0066675
 -1 0 0 .00508 0 0 1 13 23 99 0 0 0 0 0 0 10 17 14 17 1 759 ?733 0 33 6 760 +0 0
 733 0 23 81 1 759 2680 750 17 761 0 0 762 763 14 733 241 762 ?742 17 731 6 764
 +0 0 742 17 23 50 255 760 3 0 17 765 766 0 +.004445 -.0174625 .0174625 1 0 0 0
 -183697019872103e-30 1 51 765 821 0 767 768 760 0 +.004445 1734723475976805e-33
 3144186300207965e-33 -1 0 0 .00635 0 1224646799147352e-31 -1 50 766 206 0 715 7
60 769 0 +0 -.0174625 .0174625 1 0 0 0 -183697019872103e-30 1 14 715 133 770 ?72
2 724 771 6 766 -0 0 722 724 23 50 769 242 0 724 766 772 0 +.004445 -.0015875 .0
236964104586691 0 -1 -183697019872103e-30 1 0 0 14 724 229 773 ?715 742 44 6 769
 +0 0 715 742 23 50 772 247 0 742 769 764 0 +.004445 -.0236964104586691 .0015875
 0 183697019872103e-30 -1 0 1 183697019872103e-30 14 742 239 774 ?724 733 740 6
 772 -0 0 724 733 23 51 764 248 0 733 772 775 0 +.004445 3144186300207965e-33 -1
734723475976805e-33 -1 0 0 .00635 0 -1 -183697019872103e-30 51 775 2082 0 776 76
4 777 0 +.0097725810483098 -.0355755881012528 -.0066675 -1 0 0 .00508 0 0 1 14 7
76 2070 778 ?779 780 781 6 775 -0 0 779 780 23 51 777 2103 0 779 775 782 0 +.009
7725810483098 -.0066675 -.0355755881012528 -1 0 0 .00508 0 0 1 14 779 2091 783 ?
784 776 785 6 777 -0 0 784 776 23 51 782 2124 0 784 777 786 0 +.004445 -.0066675
 -.00928382161343054 -1 0 0 .00508 0 0 1 14 784 2112 787 ?788 779 789 6 782 -0 0
 788 779 23 51 786 2145 0 788 782 790 0 +.004445 -.00928382161343054 -.0066675 -
1 0 0 .00508 0 0 1 14 788 2133 791 ?792 784 793 6 786 -0 0 792 784 23 51 790 216
6 0 792 786 794 0 +.0097725810483098 .0066675 -.0355755881012528 -1 0 0 .00508 0
 0 1 14 792 2154 795 ?796 788 797 6 790 -0 0 796 788 23 51 794 2187 0 796 790 79
8 0 +.004445 .00928382161343054 -.0066675 -1 0 0 .00508 0 0 1 14 796 2175 799 ?8
00 792 801 6 794 -0 0 800 792 23 51 798 2208 0 800 794 802 0 +.004445 .0066675 -
.00928382161343054 -1 0 0 .00508 0 0 1 14 800 2196 803 ?804 796 805 6 798 -0 0 8
04 796 23 51 802 2229 0 804 798 806 0 +.0097725810483098 .0355755881012528 -.006
6675 -1 0 0 .00508 0 0 1 14 804 2217 807 ?808 800 809 6 802 -0 0 808 800 23 51 8
06 2250 0 808 802 810 0 +.0097725810483098 .0355755881012528 .0066675 -1 0 0 .00
508 0 0 1 14 808 2238 811 ?812 804 813 6 806 -0 0 812 804 23 51 810 2271 0 812 8
06 814 0 +.004445 .00928382161343054 .0066675 -1 0 0 .00508 0 0 1 14 812 2259 81
5 ?756 808 816 6 810 -0 0 756 808 23 51 814 2292 0 756 810 758 0 +.004445 .00666
75 .00928382161343054 -1 0 0 .00508 0 0 1 14 756 2280 817 ?748 812 818 6 814 -0
 0 748 812 23 51 758 2313 0 748 814 749 0 +.0097725810483098 .0066675 .035575588
1012528 -1 0 0 .00508 0 0 1 81 1 817 2717 750 756 819 0 815 752 820 15 818 2281
 0 821 756 0 17 821 0 818 822 823 120 107 685 0 0 -17 822 0 818 115 821 128 123
 581 0 0 -17 823 0 818 821 115 104 594 591 0 0 -17 107 0 824 446 825 104 821 685
 0 826 +15 824 741 0 825 17 827 17 446 0 824 147 107 100 826 442 0 828 +17 825 0
 824 107 119 120 441 438 0 821 -17 826 0 829 594 103 104 446 442 0 823 -15 829 7
73 0 826 830 0 17 594 0 829 458 826 112 823 591 0 831 +17 103 0 829 826 458 100
 832 588 0 446 +17 458 0 829 103 594 108 831 455 0 832 +17 832 0 757 139 828 108
 103 588 0 0 -15 757 2302 0 828 748 0 17 139 0 757 833 832 136 111 688 0 577 -17
 828 0 757 832 833 100 147 691 0 0 -17 833 0 757 828 139 144 577 574 0 0 -17 147
 0 824 834 446 144 828 691 0 835 +17 834 0 824 151 147 140 835 397 0 836 +17 835
 0 837 577 143 144 834 397 0 833 -15 837 787 0 838 839 0 17 577 0 837 838 835 13
6 833 574 0 840 +17 143 0 837 835 838 140 841 578 0 834 +16 397 1678 842 ?834 39
8 393 394 843 398 1 81 1 842 2639 29 397 0 0 404 844 845 16 843 1574 844 ?846 40
7 401 394 401 397 1 81 1 844 2640 29 843 0 0 842 847 848 17 846 0 827 215 211 20
4 849 843 0 850 +16 407 1686 851 ?838 402 843 399 413 402 1 16 401 1470 847 ?852
 843 398 394 398 843 1 81 1 847 2641 29 401 0 0 844 400 853 17 852 0 727 279 275
 268 854 401 0 855 +15 727 739 0 856 17 824 17 279 0 727 857 852 276 855 625 0 4
74 +17 275 0 727 852 470 272 858 631 0 854 +17 854 0 859 521 271 272 852 401 0 8
60 -17 855 0 781 861 862 268 279 625 0 0 -15 781 2071 0 855 776 0 17 861 0 781 2
87 855 260 271 522 0 0 -17 862 0 781 855 287 276 517 514 0 0 -17 287 0 781 862 8
61 284 263 622 0 517 -17 517 0 863 864 474 284 862 514 0 485 +15 863 729 0 474 8
65 0 17 864 0 863 283 517 288 485 467 0 866 -17 474 0 863 517 283 276 857 471 0
 862 +17 485 0 716 263 291 284 864 467 0 0 +15 716 753 0 867 715 868 17 263 0 71
6 867 485 260 287 622 0 869 +17 291 0 716 485 478 288 239 640 0 864 +17 478 0 71
6 291 243 236 870 451 0 0 +17 239 0 793 871 866 236 291 640 0 535 -15 793 2134 0
 872 788 0 17 871 0 793 872 239 228 535 532 0 0 -17 866 0 793 239 872 288 283 49
8 0 0 -17 535 0 873 870 465 236 871 532 0 478 +15 873 717 0 870 767 0 17 870 0 8
73 235 535 240 478 451 0 874 -17 465 0 873 535 235 228 856 462 0 871 +17 235 0 8
73 465 870 232 874 536 0 856 +17 856 0 727 251 231 232 465 462 0 875 -17 251 0 7
27 470 856 248 875 637 0 876 +17 231 0 727 856 857 228 872 643 0 465 +17 875 0 7
89 874 877 232 251 637 0 0 -15 789 2113 0 875 784 0 17 874 0 789 259 875 240 235
 536 0 0 -17 877 0 789 875 259 248 528 525 0 0 -17 259 0 789 877 874 256 243 634
 0 528 -17 528 0 878 482 876 256 877 525 0 879 +15 878 721 0 482 880 0 17 482 0
 878 247 528 252 879 479 0 881 +17 876 0 878 528 247 248 470 466 0 877 -17 879 0
 716 243 255 256 482 479 0 0 -17 243 0 716 478 879 240 259 634 0 870 +17 255 0 7
16 879 867 252 267 628 0 482 +17 867 0 716 255 263 264 869 406 0 0 -17 267 0 785
 860 881 264 255 628 0 521 -15 785 2092 0 858 779 0 17 860 0 785 858 267 272 521
 518 0 0 -17 881 0 785 267 858 252 247 529 0 0 -17 521 0 859 869 854 264 860 518
 0 867 +15 859 761 0 869 882 0 17 869 0 859 271 521 260 867 406 0 861 +17 271 0
 859 854 869 268 861 522 0 852 +16 406 1478 883 ?869 413 402 399 402 413 1 81 1
 883 2637 29 406 0 0 884 404 885 16 413 1582 884 ?886 408 406 399 406 407 1 81 1
 884 2636 29 413 0 0 851 883 887 17 886 0 888 207 549 196 889 413 0 890 +15 888
 803 0 886 891 0 17 207 0 888 849 886 204 890 550 0 846 +17 549 0 888 886 849 20
0 892 546 0 889 +17 889 0 893 191 199 200 886 413 0 0 -17 890 0 797 223 850 196
 207 550 0 0 -15 797 2155 0 850 792 0 17 223 0 797 894 890 220 199 646 0 545 -17
 850 0 797 890 894 204 215 649 0 0 -17 894 0 797 850 223 212 545 542 0 0 -17 215
 0 827 895 846 212 850 649 0 426 +15 827 742 0 896 17 897 17 895 0 827 167 215 2
16 426 423 0 898 -17 426 0 899 545 219 212 895 423 0 894 +15 899 799 0 426 900 0
 17 545 0 899 901 426 220 894 542 0 437 +17 219 0 899 426 901 216 902 539 0 895
 +17 901 0 899 219 545 224 437 419 0 902 -17 902 0 805 175 898 224 219 539 0 0 -
15 805 2197 0 898 800 0 17 175 0 805 903 902 172 227 658 0 563 -17 898 0 805 902
 903 216 167 661 0 0 -17 903 0 805 898 175 164 563 560 0 0 -17 167 0 827 896 895
 164 898 661 0 417 +17 896 0 827 187 167 168 417 414 0 904 -17 417 0 905 563 171
 164 896 414 0 903 +15 905 791 0 906 907 0 17 563 0 905 906 417 172 903 560 0 43
0 +17 171 0 905 417 906 168 908 564 0 896 +17 906 0 905 171 563 176 430 412 0 90
8 -17 908 0 801 195 904 176 171 564 0 0 -15 801 2176 0 904 796 0 17 195 0 801 90
9 908 192 179 652 0 559 -17 904 0 801 908 909 168 187 655 0 0 -17 909 0 801 904
 195 184 559 556 0 0 -17 187 0 827 422 896 184 904 655 0 910 +17 422 0 827 211 1
87 180 910 418 0 911 +17 910 0 912 559 183 184 422 418 0 909 -15 912 795 0 910 9
13 0 17 559 0 912 434 910 192 909 556 0 914 +17 183 0 912 910 434 180 915 553 0
 422 +17 434 0 912 183 559 188 914 431 0 915 +17 915 0 809 203 911 188 183 553 0
 0 -15 809 2218 0 911 804 0 17 203 0 809 892 915 200 191 664 0 549 -17 911 0 809
 915 892 180 211 667 0 0 -17 892 0 809 911 203 208 549 546 0 0 -17 211 0 827 846
 422 208 911 667 0 849 +17 849 0 888 549 207 208 846 843 0 892 -17 191 0 893 914
 889 188 203 664 0 434 +15 893 756 0 889 715 916 17 914 0 893 179 191 192 434 43
1 0 0 -17 179 0 893 430 914 176 195 652 0 906 +17 430 0 893 227 179 172 906 412
 0 0 +17 227 0 893 437 430 224 175 658 0 901 +17 437 0 893 199 227 220 901 419 0
 0 +17 199 0 893 889 437 196 223 646 0 886 +15 916 757 0 411 715 0 17 411 0 916
 411 411 0 917 408 0 0 +17 917 0 918 917 917 0 411 408 0 0 -15 918 808 0 917 919
 0 14 919 804 920 ?921 891 922 6 923 +0 0 921 891 23 81 1 920 2698 750 919 924 0
 925 926 927 14 921 809 926 ?928 919 929 6 930 +0 0 928 919 23 14 891 800 925 ?9
19 900 888 6 931 -882 839 919 900 23 15 922 807 0 388 919 918 51 923 834 0 919 9
31 932 0 +.0097725810483098 0 0 -1 0 0 .04445 0 0 1 51 931 835 0 882 930 923 0 +
.0097725810483098 0 0 -1 0 0 .041275 0 0 1 50 932 833 0 900 923 933 0 +.004445 .
0015875 -.0236964104586691 0 1 612323399573677e-31 1 0 0 14 900 796 934 ?891 913
 899 6 932 +0 0 891 913 23 50 933 832 0 913 932 935 0 +.004445 .0236964104586691
 -.0015875 0 -612323399573677e-31 1 0 -1 -612323399573677e-31 14 913 792 936 ?90
0 907 912 6 933 -0 0 900 907 23 51 935 831 0 907 933 937 0 +.004445 -31441863002
07965e-33 1734723475976805e-33 -1 0 0 .00635 0 1 612323399573677e-31 14 907 788
 938 ?913 839 905 6 935 +0 0 913 839 23 50 937 830 0 939 935 940 0 +.004445 .023
6964104586691 .0015875 0 0 1 1 0 0 14 939 780 941 ?839 830 942 6 937 +0 0 839 83
0 23 50 940 828 0 830 937 943 0 +.004445 .0015875 .0236964104586691 0 -1 0 0 0 -
1 14 830 770 944 ?939 945 829 6 940 -0 0 939 945 23 51 943 827 0 945 940 946 0 +
.004445 -1734723475976805e-33 -3144186300207965e-33 -1 0 0 .00635 0 0 1 14 945 7
66 947 ?830 882 948 6 943 +0 0 830 882 23 50 946 824 0 865 943 768 0 +.004445 -.
0236964104586691 -.0015875 0 1224646799147352e-31 -1 1 0 0 14 865 726 949 ?882 8
80 863 6 946 +0 0 882 880 23 50 768 822 0 880 946 765 0 +.004445 -.0015875 -.023
6964104586691 0 1 1224646799147352e-31 0 -1224646799147352e-31 1 14 880 718 950
 ?865 767 878 6 768 -0 0 865 767 23 81 1 950 2687 750 880 951 0 952 949 953 14 7
67 714 952 ?880 722 873 6 765 +0 0 880 722 23 81 1 952 2686 750 767 954 0 955 95
0 956 14 722 706 955 ?767 715 720 6 931 -839 882 767 715 23 81 1 955 2685 750 72
2 957 0 770 952 958 14 839 784 959 ?907 939 837 6 931 -891 722 907 939 23 14 882
 758 960 ?945 865 859 6 931 -722 891 945 865 23 81 1 960 2689 750 882 961 0 949
 947 962 80 7 CCCCCDI12 legal_owners0 16 1 lCZ1 750 0 963 8001 0 0 0 0 3 5 0 0 0
 FFFFTFTFFFFFFFFF2 81 1 961 2673 29 882 0 960 964 957 965 81 1 949 2688 750 865
 966 0 950 960 967 81 1 947 2690 750 945 968 0 960 944 969 83 255 3 962 .8 .7490
19607843137 .913725490196078 81 1 968 2661 29 945 0 947 970 971 972 81 1 944 269
1 750 830 973 0 947 941 974 83 3 969 .8 .749019607843137 .913725490196078 81 1 9
73 2659 29 830 0 944 975 970 976 81 1 941 2692 750 939 970 0 944 959 977 83 3 97
4 .8 .749019607843137 .913725490196078 81 1 970 2660 29 939 0 941 973 968 978 81
 1 959 2693 750 839 979 0 941 938 980 83 3 977 .8 .749019607843137 .913725490196
078 81 1 979 2671 29 839 0 959 981 964 982 81 1 938 2694 750 907 983 0 959 936 9
84 83 3 980 .8 .749019607843137 .913725490196078 81 1 983 2664 29 907 0 938 985
 951 986 81 1 936 2695 750 913 971 0 938 934 987 83 3 984 .8 .749019607843137 .9
13725490196078 81 1 971 2662 29 913 0 936 968 985 988 81 1 934 2696 750 900 985
 0 936 925 989 83 3 987 .8 .749019607843137 .913725490196078 81 1 985 2663 29 90
0 0 934 971 983 990 81 1 925 2697 750 891 964 0 934 920 991 83 3 989 .8 .7490196
07843137 .913725490196078 81 1 964 2672 29 891 0 925 979 961 992 83 3 991 .8 .74
9019607843137 .913725490196078 80 1 29 993 994 9000 0 0 0 0 3 6 0 0 0 FFTFTFTTFF
FFFFFF1 82 255 3 992 21 29 2 79 255 9 994 BTI/DetId82 3 990 21 20 2 82 3 988 21
 19 2 81 1 951 2665 29 880 0 950 983 966 995 82 3 986 21 21 2 81 1 966 2666 29 8
65 0 949 951 954 996 82 3 995 21 22 2 81 1 954 2667 29 767 0 952 966 997 998 82
 3 996 21 23 2 81 1 997 2668 29 742 0 774 954 999 1000 82 3 998 21 24 2 81 1 774
 2682 750 742 997 0 762 773 1001 81 1 999 2669 29 724 0 773 997 981 1002 82 3 10
00 21 25 2 81 1 773 2683 750 724 999 0 774 770 1003 81 1 981 2670 29 733 0 762 9
99 979 1004 82 3 1002 21 26 2 81 1 762 2681 750 733 981 0 759 774 1005 82 3 1004
 21 27 2 83 3 1005 .8 .749019607843137 .913725490196078 81 1 770 2684 750 715 10
06 0 773 955 1007 83 3 1003 .8 .749019607843137 .913725490196078 81 1 1006 2676
 29 715 0 770 761 0 1008 83 3 1007 .8 .749019607843137 .913725490196078 81 1 761
 2675 29 17 0 759 957 1006 1009 82 3 1008 21 33 2 81 1 957 2674 29 722 0 955 961
 761 1010 82 3 1009 21 32 2 82 3 1010 21 31 2 83 3 1001 .8 .749019607843137 .913
725490196078 82 3 982 21 28 2 82 3 978 21 17 2 81 1 975 2658 29 19 0 1011 751 97
3 1012 82 3 976 21 16 2 14 19 2385 1011 ?0 730 717 6 7 -0 0 0 730 23 81 1 1011 2
722 750 19 975 0 1013 0 1014 81 1 751 2657 29 746 0 747 1015 975 1016 82 3 1012
 21 15 2 81 1 1015 2656 29 776 0 778 1017 751 1018 82 3 1016 21 14 2 81 1 778 27
07 750 776 1015 0 1019 783 1020 81 1 1017 2655 29 779 0 783 1021 1015 1022 82 3
 1018 21 13 2 81 1 783 2708 750 779 1017 0 778 787 1023 81 1 1021 2654 29 792 0
 795 1024 1017 1025 82 3 1022 21 12 2 81 1 795 2711 750 792 1021 0 791 799 1026
 81 1 1024 2653 29 804 0 807 1027 1021 1028 82 3 1025 21 11 2 81 1 807 2714 750
 804 1024 0 803 811 1029 81 1 1027 2652 29 808 0 811 1030 1024 1031 82 3 1028 21
 10 2 81 1 811 2715 750 808 1027 0 807 815 1032 81 1 1030 2651 29 748 0 752 1033
 1027 1034 82 3 1031 21 9 2 81 1 752 2718 750 748 1030 0 817 747 1035 81 1 1033
 2650 29 730 0 1013 1036 1030 1037 82 3 1034 21 8 2 14 730 2364 1013 ?19 739 728
 6 20 -0 0 19 739 23 81 1 1013 2721 750 730 1033 0 753 1011 1038 81 1 1036 2649
 29 739 0 753 1039 1033 1040 82 3 1037 21 7 2 81 1 753 2720 750 739 1036 0 747 1
013 1041 81 1 1039 2648 29 788 0 791 1042 1036 1043 82 3 1040 21 6 2 81 1 791 27
10 750 788 1039 0 787 795 1044 81 1 1042 2647 29 784 0 787 1045 1039 1046 82 3 1
043 21 5 2 81 1 787 2709 750 784 1042 0 783 791 1047 81 1 1045 2646 29 800 0 803
 1048 1042 1049 82 3 1046 21 4 2 81 1 803 2713 750 800 1045 0 799 807 1050 81 1
 1048 2645 29 796 0 799 1051 1045 1052 82 3 1049 21 3 2 81 1 799 2712 750 796 10
48 0 795 803 1053 81 1 1051 2644 29 812 0 815 819 1048 1054 82 3 1052 21 2 2 81
 1 815 2716 750 812 1051 0 811 817 1055 81 1 819 2643 29 756 0 817 400 1051 1056
 82 3 1054 21 1 2 81 1 400 2642 29 398 0 0 847 819 1057 82 3 1056 21 0 2 82 3 10
57 21 95 1 83 3 1055 .8 .749019607843137 .913725490196078 83 3 1053 .8 .74901960
7843137 .913725490196078 83 3 1050 .8 .749019607843137 .913725490196078 83 3 104
7 .8 .749019607843137 .913725490196078 83 3 1044 .8 .749019607843137 .9137254901
96078 83 3 1041 .8 .749019607843137 .913725490196078 83 3 1038 .8 .7490196078431
37 .913725490196078 51 20 2376 0 730 755 7 0 +.004445 -.0066675 .009283821613430
54 -1 0 0 .00508 0 0 1 51 755 2355 0 739 749 20 0 +.004445 -.00928382161343054 .
0066675 -1 0 0 .00508 0 0 1 83 3 1035 .8 .749019607843137 .913725490196078 83 3
 1032 .8 .749019607843137 .913725490196078 83 3 1029 .8 .749019607843137 .913725
490196078 83 3 1026 .8 .749019607843137 .913725490196078 83 3 1023 .8 .749019607
843137 .913725490196078 81 1 1019 2706 750 780 1058 0 1059 778 1060 83 3 1020 .8
 .749019607843137 .913725490196078 14 780 1401 1019 ?776 351 1061 6 1062 -0 0 77
6 351 23 81 1 1058 1424 29 780 0 1019 510 1063 1064 81 1 1059 2705 750 351 1063
 0 1065 1019 1066 83 3 1060 .8 .749019607843137 .913725490196078 14 351 1202 105
9 ?780 1067 1068 6 1069 +0 0 780 1067 23 81 1 1063 1426 29 351 0 1059 1058 106 1
070 81 1 1065 2704 750 1067 1071 0 1072 1059 1073 83 3 1066 .8 .749019607843137
 .913725490196078 14 1067 1198 1065 ?351 1074 1075 6 1076 +0 0 351 1074 23 81 1
 1071 1262 29 1067 0 1065 1077 1078 1079 81 1 1072 2703 750 1074 1080 0 1081 106
5 1082 83 3 1073 .8 .749019607843137 .913725490196078 14 1074 1194 1072 ?1067 34
3 1083 6 1084 -0 0 1067 343 23 81 1 1080 1264 29 1074 0 1072 1078 1085 1086 81 1
 1081 2702 750 343 1077 0 1087 1072 1088 83 3 1082 .8 .749019607843137 .91372549
0196078 14 343 1190 1081 ?1074 329 335 6 1089 -0 0 1074 329 23 81 1 1077 1260 29
 343 0 1081 358 1071 1090 81 1 1087 2701 750 329 1078 0 1091 1081 1092 83 3 1088
 .8 .749019607843137 .913725490196078 14 329 1186 1087 ?343 928 324 6 1093 +0 0
 343 928 23 81 1 1078 1263 29 329 0 1087 1071 1080 1094 81 1 1091 2700 750 928 1
095 0 926 1087 1096 83 3 1092 .8 .749019607843137 .913725490196078 14 928 814 10
91 ?329 921 1097 6 1098 +0 0 329 921 23 81 1 1095 816 29 928 0 1091 1099 1100 11
01 81 1 926 2699 750 921 1099 0 920 1091 1102 83 3 1096 .8 .749019607843137 .913
725490196078 81 1 1099 811 29 921 0 926 924 1095 1103 83 3 1102 .8 .749019607843
137 .913725490196078 81 1 924 806 29 919 0 920 391 1099 1104 82 3 1103 7 5 2 81
 1 391 641 29 389 0 0 395 924 1105 82 3 1104 7 3 2 81 1 395 638 29 393 0 0 387 3
91 1106 82 3 1105 7 5 1 81 1 387 635 29 338 0 0 410 395 1107 82 3 1106 7 3 1 81
 1 410 544 29 408 0 0 0 387 1108 82 3 1107 7 4 1 82 3 1108 7 0 1 81 1 1100 963 2
9 1 0 1109 1095 308 1110 82 3 1101 7 4 2 81 1 1109 2677 1111 1 1100 14 0 0 1112
 81 1 308 1240 29 306 0 0 1100 321 1113 82 3 1110 11 2 3 82 3 1113 16 0 0 80 1 1
111 1114 1115 8038 0 0 0 0 0 0 0 0 0 TTTTTTTTTTTTTFTF10 81 1 14 2678 1114 1 1109
 2 0 0 1116 98 255 6 1112 80 97 114 116 32 49 80 1 1114 1117 1118 8017 0 0 0 0 0
 0 0 0 0 TTTTTTTTTTTTTFTF3 84 255 6 1116 Part 179 13 1118 SDL/TYSA_NAME79 14 111
5 SDL/TYSA_UNAME15 1097 817 0 392 928 1119 54 255 1098 837 0 928 1093 930 0 -.00
22225 0 0 -1 0 0 .04445 .0017145 0 0 1 50 1093 1212 0 329 1089 1098 0 +.0022225
 .0026035 0 0 -1 0 0 0 -1 51 930 836 0 921 1098 931 0 +.0097725810483098 0 0 -1
 0 0 .04445 0 0 1 50 1089 1213 0 343 1084 1093 0 +.0022225 433680868994202e-33 .
0018415 0 0 1 1 0 0 50 1084 1214 0 1074 1076 1089 0 +.0022225 -.0026035 0 0 -1 0
 0 0 -1 50 1076 1215 0 1067 1069 1084 0 +.0022225 433680868994202e-33 -.0018415
 0 0 1 1 0 0 50 1069 1217 0 351 1062 1076 0 +.0022225 0 0 1 0 0 0 1 0 51 1062 14
16 0 780 0 1069 0 +.0254 0 95651038247404e-33 -1 0 0 .0015621 0 0 1 17 392 0 109
7 392 392 0 1120 389 0 0 +15 1119 818 0 1121 928 0 17 1121 0 1119 1121 1121 0 38
8 338 0 0 -17 388 0 922 388 388 0 1121 338 0 0 +17 1120 0 1122 1120 1120 0 392 3
89 0 0 -15 1122 813 0 1120 921 0 82 3 1094 16 3 2 81 1 358 1259 29 348 0 0 354 1
077 1123 82 3 1090 16 0 2 82 3 1123 16 11 1 81 1 1085 1422 29 365 0 0 1080 510 1
124 82 3 1086 16 4 2 16 365 1391 1085 ?1125 373 0 364 0 0 1 81 1 510 1423 29 373
 0 0 1085 1058 1126 82 3 1124 20 0 1 82 3 1126 20 1 1 17 1125 0 1127 1125 1125 0
 1128 365 0 0 +15 1127 1405 0 1125 780 0 17 1128 0 771 1128 1128 0 1125 365 0 0
 -15 771 1374 0 1128 715 713 15 1083 1197 0 295 1074 0 17 295 0 1083 316 305 292
 1129 362 0 383 +17 316 0 1083 346 295 313 383 380 0 345 -17 305 0 1083 295 346
 302 320 339 0 336 +17 1129 0 1130 334 361 302 295 362 0 0 -17 383 0 1075 1131 3
52 292 316 380 0 361 +15 1075 1201 0 1131 1067 0 17 1131 0 1075 312 383 297 361
 355 0 332 -17 352 0 1075 383 312 313 350 353 0 0 +17 361 0 1130 1129 332 292 11
31 355 0 0 +15 1130 1097 0 334 17 0 17 332 0 1130 361 334 297 326 333 0 0 +17 33
4 0 1130 332 1129 306 336 372 0 0 -17 336 0 335 320 309 302 334 372 0 1129 +17 3
12 0 1075 352 1131 296 300 369 0 350 -17 300 0 324 326 325 297 312 369 0 1131 +1
7 346 0 1083 305 316 317 345 348 0 0 -17 345 0 344 350 341 313 346 348 0 352 +82
 3 1079 16 2 2 81 1 106 2483 29 104 0 0 1063 114 1132 82 3 1070 20 2 2 81 1 114
 2484 29 112 0 0 106 122 1133 82 3 1132 21 0 0 81 1 122 2485 29 120 0 0 114 130
 1134 82 3 1133 21 1 0 81 1 130 2486 29 128 0 0 122 154 1135 82 3 1134 21 2 0 81
 1 154 2487 29 152 0 0 130 162 1136 82 3 1135 21 3 0 81 1 162 2488 29 160 0 0 15
4 118 1137 82 3 1136 21 4 0 81 1 118 2489 29 116 0 0 162 126 1138 82 3 1137 21 5
 0 81 1 126 2490 29 124 0 0 118 102 1139 82 3 1138 21 6 0 81 1 102 2491 29 100 0
 0 126 110 1140 82 3 1139 21 7 0 81 1 110 2492 29 108 0 0 102 150 1141 82 3 1140
 21 8 0 81 1 150 2493 29 148 0 0 110 158 1142 82 3 1141 21 9 0 81 1 158 2494 29
 156 0 0 150 186 1143 82 3 1142 21 10 0 81 1 186 2495 29 184 0 0 158 194 1144 82
 3 1143 21 11 0 81 1 194 2496 29 192 0 0 186 170 1145 82 3 1144 21 12 0 81 1 170
 2497 29 168 0 0 194 178 1146 82 3 1145 21 13 0 81 1 178 2498 29 176 0 0 170 218
 1147 82 3 1146 21 14 0 81 1 218 2499 29 216 0 0 178 226 1148 82 3 1147 21 15 0
 81 1 226 2500 29 224 0 0 218 166 1149 82 3 1148 21 16 0 81 1 166 2501 29 164 0
 0 226 174 1150 82 3 1149 21 17 0 81 1 174 2502 29 172 0 0 166 250 1151 82 3 115
0 21 18 0 81 1 250 2503 29 248 0 0 174 258 1152 82 3 1151 21 19 0 81 1 258 2504
 29 256 0 0 250 234 1153 82 3 1152 21 20 0 81 1 234 2505 29 232 0 0 258 242 1154
 82 3 1153 21 21 0 81 1 242 2506 29 240 0 0 234 282 1155 82 3 1154 21 22 0 81 1
 282 2507 29 280 0 0 242 290 1156 82 3 1155 21 23 0 81 1 290 2508 29 288 0 0 282
 230 1157 82 3 1156 21 24 0 81 1 230 2509 29 228 0 0 290 238 1158 82 3 1157 21 2
5 0 81 1 238 2510 29 236 0 0 230 75 1159 82 3 1158 21 26 0 81 1 75 2511 29 73 0
 0 238 82 1160 82 3 1159 21 27 0 81 1 82 2512 29 80 0 0 75 60 1161 82 3 1160 21
 28 0 81 1 60 2513 29 58 0 0 82 41 1162 82 3 1161 21 29 0 81 1 41 2514 29 66 0 0
 60 38 1163 82 3 1162 21 30 0 82 3 1163 21 31 0 15 1068 1368 0 1164 351 344 17 1
164 0 1068 1164 1164 0 511 373 0 0 -17 511 0 1061 511 511 0 1164 373 0 0 +15 106
1 1404 0 511 780 1127 82 3 1064 20 0 2 83 3 1014 .8 .749019607843137 .9137254901
96078 82 3 972 21 18 2 83 3 967 .8 .749019607843137 .913725490196078 82 3 965 21
 30 2 79 15 963 SDL/TYSA_COLOUR83 3 958 .8 .749019607843137 .913725490196078 83
 3 956 .8 .749019607843137 .913725490196078 83 3 953 .8 .749019607843137 .913725
490196078 15 948 769 0 441 945 0 17 441 0 948 587 123 116 825 438 0 1165 +17 587
 0 948 1166 441 124 1165 584 0 454 +17 123 0 948 441 1166 120 822 581 0 825 +17
 1165 0 816 1167 127 116 587 584 0 0 -15 816 2260 0 1167 812 0 17 1167 0 816 116
8 1165 152 119 679 0 0 -17 127 0 816 1165 1168 124 163 676 0 587 -17 1168 0 816
 127 1167 160 155 567 0 0 -17 163 0 868 461 454 160 127 676 0 1169 +15 868 755 0
 840 715 893 17 461 0 868 135 163 156 1169 443 0 0 +17 454 0 868 163 131 124 116
6 427 0 0 +17 1169 0 942 155 573 160 461 443 0 1168 -15 942 783 0 450 939 0 17 1
55 0 942 450 1169 152 1168 567 0 1170 +17 573 0 942 1169 450 156 1171 570 0 461
 +17 450 0 942 573 155 148 1170 447 0 1171 +17 1171 0 813 836 159 148 573 570 0
 0 -15 813 2239 0 836 808 0 17 836 0 813 841 1171 140 151 673 0 0 -17 159 0 813
 1171 841 156 135 670 0 573 -17 841 0 813 159 836 132 143 578 0 0 -17 135 0 868
 840 461 132 159 670 0 838 +17 840 0 868 111 135 136 838 407 0 0 -17 838 0 837 1
43 577 132 840 407 0 841 +17 111 0 868 831 840 108 139 688 0 458 +17 831 0 868 1
31 111 112 458 455 0 0 -17 131 0 868 454 831 128 115 682 0 1166 +17 115 0 818 82
3 822 112 131 682 0 594 -17 1166 0 948 123 587 128 454 427 0 822 -17 151 0 824 1
170 834 148 836 673 0 450 +17 1170 0 824 119 151 152 450 447 0 1167 -17 119 0 82
4 825 1170 116 1167 679 0 441 +15 929 812 0 396 921 1122 17 396 0 929 396 396 0
 1172 393 0 0 +17 1172 0 897 1172 1172 0 396 393 0 0 -15 897 743 0 1172 17 1130
 83 3 927 .8 .749019607843137 .913725490196078 81 1 851 2635 29 407 0 0 488 884
 1173 82 3 887 21 89 1 81 1 488 2634 29 486 0 0 500 851 1174 82 3 1173 21 88 1 8
1 1 500 2633 29 475 0 0 497 488 1175 82 3 1174 21 87 1 81 1 497 2632 29 495 0 0
 507 500 1176 82 3 1175 21 86 1 81 1 507 2631 29 491 0 0 493 497 1177 82 3 1176
 21 85 1 81 1 493 2630 29 490 0 0 504 507 1178 82 3 1177 21 84 1 81 1 504 2629 2
9 502 0 0 464 493 1179 82 3 1178 21 83 1 81 1 464 2628 29 462 0 0 477 504 1180 8
2 3 1179 21 82 1 81 1 477 2627 29 451 0 0 473 464 1181 82 3 1180 21 81 1 81 1 47
3 2626 29 471 0 0 484 477 1182 82 3 1181 21 80 1 81 1 484 2625 29 467 0 0 469 47
3 1183 82 3 1182 21 79 1 81 1 469 2624 29 466 0 0 481 484 1184 82 3 1183 21 78 1
 81 1 481 2623 29 479 0 0 416 469 1185 82 3 1184 21 77 1 81 1 416 2622 29 414 0
 0 429 481 1186 82 3 1185 21 76 1 81 1 429 2621 29 412 0 0 425 416 1187 82 3 118
6 21 75 1 81 1 425 2620 29 423 0 0 436 429 1188 82 3 1187 21 74 1 81 1 436 2619
 29 419 0 0 421 425 1189 82 3 1188 21 73 1 81 1 421 2618 29 418 0 0 433 436 1190
 82 3 1189 21 72 1 81 1 433 2617 29 431 0 0 440 421 1191 82 3 1190 21 71 1 81 1
 440 2616 29 438 0 0 453 433 1192 82 3 1191 21 70 1 81 1 453 2615 29 427 0 0 449
 440 1193 82 3 1192 21 69 1 81 1 449 2614 29 447 0 0 460 453 1194 82 3 1193 21 6
8 1 81 1 460 2613 29 443 0 0 445 449 1195 82 3 1194 21 67 1 81 1 445 2612 29 442
 0 0 457 460 1196 82 3 1195 21 66 1 81 1 457 2611 29 455 0 0 711 445 1197 82 3 1
196 21 65 1 82 3 1197 21 64 1 81 1 404 2638 29 402 0 0 883 842 1198 82 3 885 21
 90 1 82 3 1198 21 91 1 17 858 0 785 881 860 244 275 631 0 0 -17 247 0 878 876 4
82 244 881 529 0 470 +17 470 0 727 275 251 244 876 466 0 858 +17 857 0 727 231 2
79 280 474 471 0 872 -17 872 0 793 866 871 280 231 643 0 0 -17 283 0 863 474 864
 280 866 498 0 857 +82 3 853 21 94 1 82 3 848 21 93 1 82 3 845 21 92 1 83 3 820
 .8 .749019607843137 .913725490196078 83 3 763 .8 .749019607843137 .913725490196
078 83 3 754 .8 .749019607843137 .913725490196078 17 726 0 33 76 57 58 489 486 0
 738 -17 738 0 736 734 737 58 76 703 0 0 -17 35 0 33 25 99 92 721 398 0 36 +17 7
21 0 720 601 95 96 35 398 0 723 -17 61 0 731 489 732 58 734 613 0 726 +81 1 24 2
609 29 11 0 0 597 711 1199 82 3 712 21 63 1 81 1 597 2608 29 595 0 0 696 24 1200
 82 3 1199 21 62 1 81 1 696 2607 29 694 0 0 699 597 1201 82 3 1200 21 61 1 81 1
 699 2606 29 697 0 0 600 696 1202 82 3 1201 21 60 1 81 1 600 2605 29 598 0 0 624
 699 1203 82 3 1202 21 59 1 81 1 624 2604 29 622 0 0 627 600 1204 82 3 1203 21 5
8 1 81 1 627 2603 29 625 0 0 524 624 1205 82 3 1204 21 57 1 81 1 524 2602 29 522
 0 0 630 627 1206 82 3 1205 21 56 1 81 1 630 2601 29 628 0 0 633 524 1207 82 3 1
206 21 55 1 81 1 633 2600 29 631 0 0 520 630 1208 82 3 1207 21 54 1 81 1 520 259
9 29 518 0 0 648 633 1209 82 3 1208 21 53 1 81 1 648 2598 29 646 0 0 651 520 121
0 82 3 1209 21 52 1 81 1 651 2597 29 649 0 0 552 648 1211 82 3 1210 21 51 1 81 1
 552 2596 29 550 0 0 666 651 1212 82 3 1211 21 50 1 81 1 666 2595 29 664 0 0 669
 552 1213 82 3 1212 21 49 1 81 1 669 2594 29 667 0 0 548 666 1214 82 3 1213 21 4
8 1 81 1 548 2593 29 546 0 0 672 669 1215 82 3 1214 21 47 1 81 1 672 2592 29 670
 0 0 675 548 1216 82 3 1215 21 46 1 81 1 675 2591 29 673 0 0 580 672 1217 82 3 1
216 21 45 1 81 1 580 2590 29 578 0 0 690 675 1218 82 3 1217 21 44 1 81 1 690 258
9 29 688 0 0 693 580 1219 82 3 1218 21 43 1 81 1 693 2588 29 691 0 0 576 690 122
0 82 3 1219 21 42 1 81 1 576 2587 29 574 0 0 618 693 1221 82 3 1220 21 41 1 81 1
 618 2586 29 616 0 0 608 576 1222 82 3 1221 21 40 1 81 1 608 2585 29 606 0 0 516
 618 1223 82 3 1222 21 39 1 81 1 516 2584 29 514 0 0 531 608 1224 82 3 1223 21 3
8 1 81 1 531 2583 29 529 0 0 544 516 1225 82 3 1224 21 37 1 81 1 544 2582 29 542
 0 0 555 531 1226 82 3 1225 21 36 1 81 1 555 2581 29 553 0 0 708 544 1227 82 3 1
226 21 35 1 81 1 708 2580 29 706 0 0 710 555 1228 82 3 1227 21 34 1 81 1 710 257
9 29 709 0 0 611 708 1229 82 3 1228 21 33 1 81 1 611 2578 29 609 0 0 621 710 123
0 82 3 1229 21 32 1 81 1 621 2577 29 47 0 0 702 611 1231 82 3 1230 21 31 1 81 1
 702 2576 29 700 0 0 705 621 1232 82 3 1231 21 30 1 81 1 705 2575 29 703 0 0 615
 702 1233 82 3 1232 21 29 1 81 1 615 2574 29 613 0 0 604 705 1234 82 3 1233 21 2
8 1 81 1 604 2573 29 602 0 0 642 615 1235 82 3 1234 21 27 1 81 1 642 2572 29 640
 0 0 645 604 1236 82 3 1235 21 26 1 81 1 645 2571 29 643 0 0 534 642 1237 82 3 1
236 21 25 1 81 1 534 2570 29 532 0 0 513 645 1238 82 3 1237 21 24 1 81 1 513 256
9 29 498 0 0 636 534 1239 82 3 1238 21 23 1 81 1 636 2568 29 634 0 0 639 513 124
0 82 3 1239 21 22 1 81 1 639 2567 29 637 0 0 538 636 1241 82 3 1240 21 21 1 81 1
 538 2566 29 536 0 0 527 639 1242 82 3 1241 21 20 1 81 1 527 2565 29 525 0 0 660
 538 1243 82 3 1242 21 19 1 81 1 660 2564 29 658 0 0 663 527 1244 82 3 1243 21 1
8 1 81 1 663 2563 29 661 0 0 562 660 1245 82 3 1244 21 17 1 81 1 562 2562 29 560
 0 0 541 663 1246 82 3 1245 21 16 1 81 1 541 2561 29 539 0 0 654 562 1247 82 3 1
246 21 15 1 81 1 654 2560 29 652 0 0 657 541 1248 82 3 1247 21 14 1 81 1 657 255
9 29 655 0 0 566 654 1249 82 3 1248 21 13 1 81 1 566 2558 29 564 0 0 558 657 125
0 82 3 1249 21 12 1 81 1 558 2557 29 556 0 0 572 566 1251 82 3 1250 21 11 1 81 1
 572 2556 29 570 0 0 590 558 1252 82 3 1251 21 10 1 81 1 590 2555 29 588 0 0 678
 572 1253 82 3 1252 21 9 1 81 1 678 2554 29 676 0 0 681 590 1254 82 3 1253 21 8
 1 81 1 681 2553 29 679 0 0 586 678 1255 82 3 1254 21 7 1 81 1 586 2552 29 584 0
 0 569 681 1256 82 3 1255 21 6 1 81 1 569 2551 29 567 0 0 684 586 1257 82 3 1256
 21 5 1 81 1 684 2550 29 682 0 0 687 569 1258 82 3 1257 21 4 1 81 1 687 2549 29
 685 0 0 583 684 1259 82 3 1258 21 3 1 81 1 583 2548 29 581 0 0 593 687 1260 82
 3 1259 21 2 1 81 1 593 2547 29 591 0 0 86 583 1261 82 3 1260 21 1 1 81 1 86 254
6 29 84 0 0 94 593 1262 82 3 1261 21 0 1 81 1 94 2545 29 92 0 0 90 86 1263 82 3
 1262 21 63 0 81 1 90 2544 29 88 0 0 98 94 1264 82 3 1263 21 62 0 81 1 98 2543 2
9 96 0 0 262 90 1265 82 3 1264 21 61 0 81 1 262 2542 29 260 0 0 270 98 1266 82 3
 1265 21 60 0 81 1 270 2541 29 268 0 0 266 262 1267 82 3 1266 21 59 0 81 1 266 2
540 29 264 0 0 274 270 1268 82 3 1267 21 58 0 81 1 274 2539 29 272 0 0 198 266 1
269 82 3 1268 21 57 0 81 1 198 2538 29 196 0 0 206 274 1270 82 3 1269 21 56 0 81
 1 206 2537 29 204 0 0 202 198 1271 82 3 1270 21 55 0 81 1 202 2536 29 200 0 0 2
10 206 1272 82 3 1271 21 54 0 81 1 210 2535 29 208 0 0 134 202 1273 82 3 1272 21
 53 0 81 1 134 2534 29 132 0 0 142 210 1274 82 3 1273 21 52 0 81 1 142 2533 29 1
40 0 0 138 134 1275 82 3 1274 21 51 0 81 1 138 2532 29 136 0 0 146 142 1276 82 3
 1275 21 50 0 81 1 146 2531 29 144 0 0 31 138 1277 82 3 1276 21 49 0 81 1 31 253
0 29 40 0 0 27 146 1278 82 3 1277 21 48 0 82 3 1278 21 47 0 81 1 384 1253 29 339
 0 0 337 379 1279 81 1 337 1252 29 327 0 0 376 384 1280 81 1 379 1254 29 369 0 0
 384 382 1281 82 3 1279 16 5 1 81 1 382 1255 29 380 0 0 379 347 1282 82 3 1281 1
6 6 1 81 1 347 1256 29 342 0 0 382 357 1283 82 3 1282 16 7 1 81 1 357 1257 29 35
3 0 0 347 354 1284 82 3 1283 16 8 1 82 3 1284 16 9 1 81 1 376 1251 29 362 0 0 37
1 337 1285 82 3 1280 16 4 1 81 1 371 1250 29 333 0 0 360 376 1286 82 3 1285 16 3
 1 81 1 360 1249 29 355 0 0 375 371 1287 82 3 1286 16 2 1 81 1 375 1248 29 372 0
 0 315 360 1288 82 3 1287 16 1 1 81 1 315 1247 29 313 0 0 294 375 1289 82 3 1288
 16 0 1 81 1 294 1246 29 292 0 0 311 315 1290 82 3 1289 16 7 0 81 1 311 1245 29
 296 0 0 299 294 1291 82 3 1290 16 6 0 81 1 299 1244 29 297 0 0 319 311 1292 82
 3 1291 16 5 0 81 1 319 1243 29 317 0 0 304 299 1293 82 3 1292 16 4 0 81 1 304 1
242 29 302 0 0 321 319 1294 82 3 1293 16 3 0 82 3 1294 16 2 0 82 3 359 16 10 1 8
2 3 323 16 1 0 81 1 286 2526 29 284 0 0 278 71 1295 81 1 278 2525 29 276 0 0 254
 286 1296 81 1 71 2527 29 69 0 0 286 30 1297 82 3 1295 21 43 0 81 1 30 2528 29 7
7 0 0 71 27 1298 82 3 1297 21 44 0 82 3 1298 21 45 0 81 1 254 2524 29 252 0 0 24
6 278 1299 82 3 1296 21 42 0 81 1 246 2523 29 244 0 0 222 254 1300 82 3 1299 21
 41 0 81 1 222 2522 29 220 0 0 214 246 1301 82 3 1300 21 40 0 81 1 214 2521 29 2
12 0 0 190 222 1302 82 3 1301 21 39 0 81 1 190 2520 29 188 0 0 182 214 1303 82 3
 1302 21 38 0 81 1 182 2519 29 180 0 0 64 190 1304 82 3 1303 21 37 0 81 1 64 251
8 29 62 0 0 56 182 1305 82 3 1304 21 36 0 81 1 56 2517 29 54 0 0 42 64 1306 82 3
 1305 21 35 0 81 1 42 2516 29 49 0 0 38 56 1307 82 3 1306 21 34 0 82 3 1307 21 3
3 0 82 3 43 21 32 0 82 3 32 21 46 0 19 18 257 0 1 0 10 6 0 S0 74 4 CI16 index_ma
p_offset0 0 1 dCCZ20 16 5 0 0 1006 1109 14 2 1011 0 0 0 0 0 0 0 0 0 0 0 0 0 0 0
 80 1 13 750 1308 8040 0 0 0 0 3 5 0 0 0 TTTFFFFFFFFFFFFF2 83 3 15 .8 .749019607
843137 .913725490196078 79 17 1308 SDL/TYSA_COLOUR_21 0 
